<svg version="1.1" viewBox="0.0 0.0 317.0 371.0" fill="none" stroke="none" stroke-linecap="square" stroke-miterlimit="10" width="317" height="371" xmlns:xlink="http://www.w3.org/1999/xlink" xmlns="http://www.w3.org/2000/svg"><path fill="#ffffff" d="M0 0L317.0 0L317.0 371.0L0 371.0L0 0Z" fill-rule="nonzero"/><path stroke="#333333" stroke-width="1.0" stroke-linecap="butt" d="M15.5 74.5L15.5 335.5" fill-rule="nonzero"/><path stroke="#cccccc" stroke-width="1.0" stroke-linecap="butt" d="M63.5 74.5L63.5 335.5" fill-rule="nonzero"/><path stroke="#cccccc" stroke-width="1.0" stroke-linecap="butt" d="M110.5 74.5L110.5 335.5" fill-rule="nonzero"/><path stroke="#cccccc" stroke-width="1.0" stroke-linecap="butt" d="M158.5 74.5L158.5 335.5" fill-rule="nonzero"/><path stroke="#cccccc" stroke-width="1.0" stroke-linecap="butt" d="M206.5 74.5L206.5 335.5" fill-rule="nonzero"/><path stroke="#cccccc" stroke-width="1.0" stroke-linecap="butt" d="M253.5 74.5L253.5 335.5" fill-rule="nonzero"/><path stroke="#cccccc" stroke-width="1.0" stroke-linecap="butt" d="M301.5 74.5L301.5 335.5" fill-rule="nonzero"/><clipPath id="id_0"><path d="M15.85 74.416664L301.15 74.416664L301.15 335.15L15.85 335.15L15.85 74.416664Z" clip-rule="nonzero"/></clipPath><path stroke="#000000" stroke-width="2.0" stroke-linecap="butt" stroke-opacity="0.0" clip-path="url(#id_0)" d="M16.0 309.0L16.0 258.0L24.0 258.0C25.10457 258.0 26.0 258.89542 26.0 260.0L26.0 307.0C26.0 308.10458 25.10457 309.0 24.0 309.0Z" fill-rule="nonzero"/><path fill="#fbbc04" clip-path="url(#id_0)" d="M16.0 309.0L16.0 258.0L24.0 258.0C25.10457 258.0 26.0 258.89542 26.0 260.0L26.0 307.0C26.0 308.10458 25.10457 309.0 24.0 309.0Z" fill-rule="nonzero"/><path stroke="#000000" stroke-width="2.0" stroke-linecap="butt" stroke-opacity="0.0" clip-path="url(#id_0)" d="M16.0 231.0L16.0 180.0L73.0 180.0C74.10457 180.0 75.0 180.89543 75.0 182.0L75.0 229.0C75.0 230.10457 74.10457 231.0 73.0 231.0Z" fill-rule="nonzero"/><path fill="#fbbc04" clip-path="url(#id_0)" d="M16.0 231.0L16.0 180.0L73.0 180.0C74.10457 180.0 75.0 180.89543 75.0 182.0L75.0 229.0C75.0 230.10457 74.10457 231.0 73.0 231.0Z" fill-rule="nonzero"/><path stroke="#000000" stroke-width="2.0" stroke-linecap="butt" stroke-opacity="0.0" clip-path="url(#id_0)" d="M16.0 153.0L16.0 102.0L109.0 102.0C110.10457 102.0 111.0 102.89543 111.0 104.0L111.0 151.0C111.0 152.10457 110.10457 153.0 109.0 153.0Z" fill-rule="nonzero"/><path fill="#fbbc04" clip-path="url(#id_0)" d="M16.0 153.0L16.0 102.0L109.0 102.0C110.10457 102.0 111.0 102.89543 111.0 104.0L111.0 151.0C111.0 152.10457 110.10457 153.0 109.0 153.0Z" fill-rule="nonzero"/><path stroke="#ffffff" stroke-width="3.0" stroke-linejoin="round" stroke-linecap="round" d="M45.954254 287.5L44.829254 287.5L44.829254 283.5625L40.516754 283.5625L40.516754 287.5L39.391754 287.5L39.391754 278.96875L40.516754 278.96875L40.516754 282.64062L44.829254 282.64062L44.829254 278.96875L45.954254 278.96875L45.954254 287.5ZM54.298004 279.89062L51.548004 279.89062L51.548004 287.5L50.43863 287.5L50.43863 279.89062L47.68863 279.89062L47.68863 278.96875L54.298004 278.96875L54.298004 279.89062ZM61.298004 279.89062L58.548004 279.89062L58.548004 287.5L57.43863 287.5L57.43863 279.89062L54.68863 279.89062L54.68863 278.96875L61.298004 278.96875L61.298004 279.89062ZM63.516754 284.15625L63.516754 287.5L62.391754 287.5L62.391754 278.96875L65.548004 278.96875Q66.93863 278.96875 67.735504 279.6875Q68.53238 280.39062 68.53238 281.57812Q68.53238 282.8125 67.75113 283.48438Q66.985504 284.15625 65.53238 284.15625L63.516754 284.15625ZM63.516754 283.23438L65.548004 283.23438Q66.454254 283.23438 66.923004 282.8125Q67.40738 282.39062 67.40738 281.59375Q67.40738 280.82812 66.923004 280.375Q66.454254 279.90625 65.610504 279.89062L63.516754 279.89062L63.516754 283.23438ZM70.43863 288.23438L69.516754 288.23438L73.079254 278.96875L74.00113 278.96875L70.43863 288.23438ZM80.704254 287.5L75.110504 287.5L75.110504 286.71875L78.06363 283.4375Q78.71988 282.6875 78.96988 282.23438Q79.21988 281.76562 79.21988 281.26562Q79.21988 280.59375 78.81363 280.17188Q78.423004 279.73438 77.735504 279.73438Q76.93863 279.73438 76.485504 280.20312Q76.03238 280.65625 76.03238 281.48438L74.954254 281.48438Q74.954254 280.29688 75.704254 279.57812Q76.46988 278.84375 77.735504 278.84375Q78.93863 278.84375 79.62613 279.46875Q80.31363 280.09375 80.31363 281.14062Q80.31363 282.39062 78.704254 284.14062L76.423004 286.60938L80.704254 286.60938L80.704254 287.5ZM90.704254 287.5L85.110504 287.5L85.110504 286.71875L88.06363 283.4375Q88.71988 282.6875 88.96988 282.23438Q89.21988 281.76562 89.21988 281.26562Q89.21988 280.59375 88.81363 280.17188Q88.423004 279.73438 87.735504 279.73438Q86.93863 279.73438 86.485504 280.20312Q86.03238 280.65625 86.03238 281.48438L84.954254 281.48438Q84.954254 280.29688 85.704254 279.57812Q86.46988 278.84375 87.735504 278.84375Q88.93863 278.84375 89.62613 279.46875Q90.31363 280.09375 90.31363 281.14062Q90.31363 282.39062 88.704254 284.14062L86.423004 286.60938L90.704254 286.60938L90.704254 287.5ZM93.68863 282.70312L94.50113 282.70312Q95.28238 282.6875 95.71988 282.29688Q96.15738 281.90625 96.15738 281.23438Q96.15738 279.73438 94.65738 279.73438Q93.954254 279.73438 93.53238 280.14062Q93.12613 280.54688 93.12613 281.20312L92.03238 281.20312Q92.03238 280.1875 92.766754 279.51562Q93.516754 278.84375 94.65738 278.84375Q95.860504 278.84375 96.548004 279.48438Q97.235504 280.125 97.235504 281.26562Q97.235504 281.82812 96.87613 282.34375Q96.516754 282.85938 95.891754 283.125Q96.59488 283.34375 96.96988 283.85938Q97.360504 284.375 97.360504 285.125Q97.360504 286.26562 96.610504 286.95312Q95.860504 287.625 94.65738 287.625Q93.46988 287.625 92.704254 286.96875Q91.954254 286.3125 91.954254 285.25L93.048004 285.25Q93.048004 285.92188 93.485504 286.32812Q93.923004 286.73438 94.673004 286.73438Q95.454254 286.73438 95.860504 286.32812Q96.28238 285.90625 96.28238 285.14062Q96.28238 284.40625 95.829254 284.01562Q95.37613 283.60938 94.50113 283.59375L93.68863 283.59375L93.68863 282.70312ZM100.25113 281.15625L100.28238 281.85938Q100.96988 281.04688 102.15738 281.04688Q103.485504 281.04688 103.96988 282.0625Q104.28238 281.60938 104.78238 281.32812Q105.298004 281.04688 105.985504 281.04688Q108.079254 281.04688 108.110504 283.25L108.110504 287.5L107.03238 287.5L107.03238 283.3125Q107.03238 282.64062 106.71988 282.3125Q106.40738 281.96875 105.673004 281.96875Q105.06363 281.96875 104.65738 282.32812Q104.266754 282.6875 104.204254 283.29688L104.204254 287.5L103.12613 287.5L103.12613 283.34375Q103.12613 281.96875 101.766754 281.96875Q100.704254 281.96875 100.31363 282.875L100.31363 287.5L99.21988 287.5L99.21988 281.15625L100.25113 281.15625ZM113.923004 285.8125Q113.923004 285.375 113.579254 285.14062Q113.25113 284.89062 112.423004 284.71875Q111.610504 284.54688 111.12613 284.29688Q110.641754 284.04688 110.40738 283.71875Q110.18863 283.375 110.18863 282.90625Q110.18863 282.125 110.84488 281.59375Q111.50113 281.04688 112.53238 281.04688Q113.610504 281.04688 114.266754 281.60938Q114.93863 282.15625 114.93863 283.01562L113.860504 283.01562Q113.860504 282.57812 113.46988 282.26562Q113.09488 281.9375 112.53238 281.9375Q111.93863 281.9375 111.59488 282.20312Q111.266754 282.45312 111.266754 282.85938Q111.266754 283.25 111.579254 283.45312Q111.891754 283.65625 112.704254 283.84375Q113.516754 284.01562 114.016754 284.26562Q114.516754 284.51562 114.75113 284.875Q115.00113 285.23438 115.00113 285.73438Q115.00113 286.59375 114.31363 287.10938Q113.641754 287.625 112.56363 287.625Q111.798004 287.625 111.204254 287.35938Q110.62613 287.07812 110.298004 286.59375Q109.96988 286.10938 109.96988 285.54688L111.048004 285.54688Q111.079254 286.09375 111.485504 286.42188Q111.891754 286.73438 112.56363 286.73438Q113.173004 286.73438 113.548004 286.48438Q113.923004 286.23438 113.923004 285.8125ZM120.516754 284.15625L120.516754 287.5L119.391754 287.5L119.391754 278.96875L122.548004 278.96875Q123.93863 278.96875 124.735504 279.6875Q125.53238 280.39062 125.53238 281.57812Q125.53238 282.8125 124.75113 283.48438Q123.985504 284.15625 122.53238 284.15625L120.516754 284.15625ZM120.516754 283.23438L122.548004 283.23438Q123.454254 283.23438 123.923004 282.8125Q124.40738 282.39062 124.40738 281.59375Q124.40738 280.82812 123.923004 280.375Q123.454254 279.90625 122.610504 279.89062L120.516754 279.89062L120.516754 283.23438ZM128.40738 287.5L127.329254 287.5L127.329254 281.15625L128.40738 281.15625L128.40738 287.5ZM127.235504 279.48438Q127.235504 279.21875 127.391754 279.03125Q127.56363 278.84375 127.87613 278.84375Q128.18863 278.84375 128.34488 279.03125Q128.51675 279.21875 128.51675 279.48438Q128.51675 279.73438 128.34488 279.92188Q128.18863 280.09375 127.87613 280.09375Q127.56363 280.09375 127.391754 279.92188Q127.235504 279.73438 127.235504 279.48438ZM131.25113 281.15625L131.28238 281.95312Q132.01675 281.04688 133.18863 281.04688Q135.20425 281.04688 135.21988 283.3125L135.21988 287.5L134.12613 287.5L134.12613 283.29688Q134.12613 282.625 133.81363 282.29688Q133.51675 281.96875 132.8605 281.96875Q132.32925 281.96875 131.923 282.25Q131.53238 282.53125 131.31363 282.98438L131.31363 287.5L130.2355 287.5L130.2355 281.15625L131.25113 281.15625ZM136.96988 284.28125Q136.96988 282.79688 137.65738 281.92188Q138.34488 281.04688 139.46988 281.04688Q140.62613 281.04688 141.28238 281.85938L141.32925 281.15625L142.32925 281.15625L142.32925 287.34375Q142.32925 288.57812 141.59488 289.28125Q140.8605 290.0 139.64175 290.0Q138.95425 290.0 138.298 289.70312Q137.64175 289.40625 137.298 288.90625L137.8605 288.25Q138.548 289.10938 139.56363 289.10938Q140.34488 289.10938 140.78238 288.65625Q141.2355 288.21875 141.2355 287.40625L141.2355 286.85938Q140.57925 287.625 139.45425 287.625Q138.34488 287.625 137.65738 286.73438Q136.96988 285.82812 136.96988 284.28125ZM138.06363 284.40625Q138.06363 285.46875 138.50113 286.09375Q138.93863 286.70312 139.7355 286.70312Q140.75113 286.70312 141.2355 285.76562L141.2355 282.875Q140.7355 281.96875 139.7355 281.96875Q138.95425 281.96875 138.50113 282.57812Q138.06363 283.1875 138.06363 284.40625Z" fill-rule="nonzero"/><path fill="#fbbc04" d="M45.954254 287.5L44.829254 287.5L44.829254 283.5625L40.516754 283.5625L40.516754 287.5L39.391754 287.5L39.391754 278.96875L40.516754 278.96875L40.516754 282.64062L44.829254 282.64062L44.829254 278.96875L45.954254 278.96875L45.954254 287.5ZM54.298004 279.89062L51.548004 279.89062L51.548004 287.5L50.43863 287.5L50.43863 279.89062L47.68863 279.89062L47.68863 278.96875L54.298004 278.96875L54.298004 279.89062ZM61.298004 279.89062L58.548004 279.89062L58.548004 287.5L57.43863 287.5L57.43863 279.89062L54.68863 279.89062L54.68863 278.96875L61.298004 278.96875L61.298004 279.89062ZM63.516754 284.15625L63.516754 287.5L62.391754 287.5L62.391754 278.96875L65.548004 278.96875Q66.93863 278.96875 67.735504 279.6875Q68.53238 280.39062 68.53238 281.57812Q68.53238 282.8125 67.75113 283.48438Q66.985504 284.15625 65.53238 284.15625L63.516754 284.15625ZM63.516754 283.23438L65.548004 283.23438Q66.454254 283.23438 66.923004 282.8125Q67.40738 282.39062 67.40738 281.59375Q67.40738 280.82812 66.923004 280.375Q66.454254 279.90625 65.610504 279.89062L63.516754 279.89062L63.516754 283.23438ZM70.43863 288.23438L69.516754 288.23438L73.079254 278.96875L74.00113 278.96875L70.43863 288.23438ZM80.704254 287.5L75.110504 287.5L75.110504 286.71875L78.06363 283.4375Q78.71988 282.6875 78.96988 282.23438Q79.21988 281.76562 79.21988 281.26562Q79.21988 280.59375 78.81363 280.17188Q78.423004 279.73438 77.735504 279.73438Q76.93863 279.73438 76.485504 280.20312Q76.03238 280.65625 76.03238 281.48438L74.954254 281.48438Q74.954254 280.29688 75.704254 279.57812Q76.46988 278.84375 77.735504 278.84375Q78.93863 278.84375 79.62613 279.46875Q80.31363 280.09375 80.31363 281.14062Q80.31363 282.39062 78.704254 284.14062L76.423004 286.60938L80.704254 286.60938L80.704254 287.5ZM90.704254 287.5L85.110504 287.5L85.110504 286.71875L88.06363 283.4375Q88.71988 282.6875 88.96988 282.23438Q89.21988 281.76562 89.21988 281.26562Q89.21988 280.59375 88.81363 280.17188Q88.423004 279.73438 87.735504 279.73438Q86.93863 279.73438 86.485504 280.20312Q86.03238 280.65625 86.03238 281.48438L84.954254 281.48438Q84.954254 280.29688 85.704254 279.57812Q86.46988 278.84375 87.735504 278.84375Q88.93863 278.84375 89.62613 279.46875Q90.31363 280.09375 90.31363 281.14062Q90.31363 282.39062 88.704254 284.14062L86.423004 286.60938L90.704254 286.60938L90.704254 287.5ZM93.68863 282.70312L94.50113 282.70312Q95.28238 282.6875 95.71988 282.29688Q96.15738 281.90625 96.15738 281.23438Q96.15738 279.73438 94.65738 279.73438Q93.954254 279.73438 93.53238 280.14062Q93.12613 280.54688 93.12613 281.20312L92.03238 281.20312Q92.03238 280.1875 92.766754 279.51562Q93.516754 278.84375 94.65738 278.84375Q95.860504 278.84375 96.548004 279.48438Q97.235504 280.125 97.235504 281.26562Q97.235504 281.82812 96.87613 282.34375Q96.516754 282.85938 95.891754 283.125Q96.59488 283.34375 96.96988 283.85938Q97.360504 284.375 97.360504 285.125Q97.360504 286.26562 96.610504 286.95312Q95.860504 287.625 94.65738 287.625Q93.46988 287.625 92.704254 286.96875Q91.954254 286.3125 91.954254 285.25L93.048004 285.25Q93.048004 285.92188 93.485504 286.32812Q93.923004 286.73438 94.673004 286.73438Q95.454254 286.73438 95.860504 286.32812Q96.28238 285.90625 96.28238 285.14062Q96.28238 284.40625 95.829254 284.01562Q95.37613 283.60938 94.50113 283.59375L93.68863 283.59375L93.68863 282.70312ZM100.25113 281.15625L100.28238 281.85938Q100.96988 281.04688 102.15738 281.04688Q103.485504 281.04688 103.96988 282.0625Q104.28238 281.60938 104.78238 281.32812Q105.298004 281.04688 105.985504 281.04688Q108.079254 281.04688 108.110504 283.25L108.110504 287.5L107.03238 287.5L107.03238 283.3125Q107.03238 282.64062 106.71988 282.3125Q106.40738 281.96875 105.673004 281.96875Q105.06363 281.96875 104.65738 282.32812Q104.266754 282.6875 104.204254 283.29688L104.204254 287.5L103.12613 287.5L103.12613 283.34375Q103.12613 281.96875 101.766754 281.96875Q100.704254 281.96875 100.31363 282.875L100.31363 287.5L99.21988 287.5L99.21988 281.15625L100.25113 281.15625ZM113.923004 285.8125Q113.923004 285.375 113.579254 285.14062Q113.25113 284.89062 112.423004 284.71875Q111.610504 284.54688 111.12613 284.29688Q110.641754 284.04688 110.40738 283.71875Q110.18863 283.375 110.18863 282.90625Q110.18863 282.125 110.84488 281.59375Q111.50113 281.04688 112.53238 281.04688Q113.610504 281.04688 114.266754 281.60938Q114.93863 282.15625 114.93863 283.01562L113.860504 283.01562Q113.860504 282.57812 113.46988 282.26562Q113.09488 281.9375 112.53238 281.9375Q111.93863 281.9375 111.59488 282.20312Q111.266754 282.45312 111.266754 282.85938Q111.266754 283.25 111.579254 283.45312Q111.891754 283.65625 112.704254 283.84375Q113.516754 284.01562 114.016754 284.26562Q114.516754 284.51562 114.75113 284.875Q115.00113 285.23438 115.00113 285.73438Q115.00113 286.59375 114.31363 287.10938Q113.641754 287.625 112.56363 287.625Q111.798004 287.625 111.204254 287.35938Q110.62613 287.07812 110.298004 286.59375Q109.96988 286.10938 109.96988 285.54688L111.048004 285.54688Q111.079254 286.09375 111.485504 286.42188Q111.891754 286.73438 112.56363 286.73438Q113.173004 286.73438 113.548004 286.48438Q113.923004 286.23438 113.923004 285.8125ZM120.516754 284.15625L120.516754 287.5L119.391754 287.5L119.391754 278.96875L122.548004 278.96875Q123.93863 278.96875 124.735504 279.6875Q125.53238 280.39062 125.53238 281.57812Q125.53238 282.8125 124.75113 283.48438Q123.985504 284.15625 122.53238 284.15625L120.516754 284.15625ZM120.516754 283.23438L122.548004 283.23438Q123.454254 283.23438 123.923004 282.8125Q124.40738 282.39062 124.40738 281.59375Q124.40738 280.82812 123.923004 280.375Q123.454254 279.90625 122.610504 279.89062L120.516754 279.89062L120.516754 283.23438ZM128.40738 287.5L127.329254 287.5L127.329254 281.15625L128.40738 281.15625L128.40738 287.5ZM127.235504 279.48438Q127.235504 279.21875 127.391754 279.03125Q127.56363 278.84375 127.87613 278.84375Q128.18863 278.84375 128.34488 279.03125Q128.51675 279.21875 128.51675 279.48438Q128.51675 279.73438 128.34488 279.92188Q128.18863 280.09375 127.87613 280.09375Q127.56363 280.09375 127.391754 279.92188Q127.235504 279.73438 127.235504 279.48438ZM131.25113 281.15625L131.28238 281.95312Q132.01675 281.04688 133.18863 281.04688Q135.20425 281.04688 135.21988 283.3125L135.21988 287.5L134.12613 287.5L134.12613 283.29688Q134.12613 282.625 133.81363 282.29688Q133.51675 281.96875 132.8605 281.96875Q132.32925 281.96875 131.923 282.25Q131.53238 282.53125 131.31363 282.98438L131.31363 287.5L130.2355 287.5L130.2355 281.15625L131.25113 281.15625ZM136.96988 284.28125Q136.96988 282.79688 137.65738 281.92188Q138.34488 281.04688 139.46988 281.04688Q140.62613 281.04688 141.28238 281.85938L141.32925 281.15625L142.32925 281.15625L142.32925 287.34375Q142.32925 288.57812 141.59488 289.28125Q140.8605 290.0 139.64175 290.0Q138.95425 290.0 138.298 289.70312Q137.64175 289.40625 137.298 288.90625L137.8605 288.25Q138.548 289.10938 139.56363 289.10938Q140.34488 289.10938 140.78238 288.65625Q141.2355 288.21875 141.2355 287.40625L141.2355 286.85938Q140.57925 287.625 139.45425 287.625Q138.34488 287.625 137.65738 286.73438Q136.96988 285.82812 136.96988 284.28125ZM138.06363 284.40625Q138.06363 285.46875 138.50113 286.09375Q138.93863 286.70312 139.7355 286.70312Q140.75113 286.70312 141.2355 285.76562L141.2355 282.875Q140.7355 281.96875 139.7355 281.96875Q138.95425 281.96875 138.50113 282.57812Q138.06363 283.1875 138.06363 284.40625Z" fill-rule="nonzero"/><path stroke="#ffffff" stroke-width="3.0" stroke-linejoin="round" stroke-linecap="round" d="M94.966385 209.5L93.841385 209.5L93.841385 205.5625L89.528885 205.5625L89.528885 209.5L88.403885 209.5L88.403885 200.96875L89.528885 200.96875L89.528885 204.64062L93.841385 204.64062L93.841385 200.96875L94.966385 200.96875L94.966385 209.5ZM103.310135 201.89062L100.560135 201.89062L100.560135 209.5L99.45076 209.5L99.45076 201.89062L96.70076 201.89062L96.70076 200.96875L103.310135 200.96875L103.310135 201.89062ZM110.310135 201.89062L107.560135 201.89062L107.560135 209.5L106.45076 209.5L106.45076 201.89062L103.70076 201.89062L103.70076 200.96875L110.310135 200.96875L110.310135 201.89062ZM112.528885 206.15625L112.528885 209.5L111.403885 209.5L111.403885 200.96875L114.560135 200.96875Q115.95076 200.96875 116.747635 201.6875Q117.54451 202.39062 117.54451 203.57812Q117.54451 204.8125 116.76326 205.48438Q115.997635 206.15625 114.54451 206.15625L112.528885 206.15625ZM112.528885 205.23438L114.560135 205.23438Q115.466385 205.23438 115.935135 204.8125Q116.41951 204.39062 116.41951 203.59375Q116.41951 202.82812 115.935135 202.375Q115.466385 201.90625 114.622635 201.89062L112.528885 201.89062L112.528885 205.23438ZM119.45076 210.23438L118.528885 210.23438L122.091385 200.96875L123.01326 200.96875L119.45076 210.23438ZM129.71638 209.5L124.122635 209.5L124.122635 208.71875L127.07576 205.4375Q127.73201 204.6875 127.98201 204.23438Q128.23201 203.76562 128.23201 203.26562Q128.23201 202.59375 127.82576 202.17188Q127.435135 201.73438 126.747635 201.73438Q125.95076 201.73438 125.497635 202.20312Q125.04451 202.65625 125.04451 203.48438L123.966385 203.48438Q123.966385 202.29688 124.716385 201.57812Q125.48201 200.84375 126.747635 200.84375Q127.95076 200.84375 128.63826 201.46875Q129.32576 202.09375 129.32576 203.14062Q129.32576 204.39062 127.716385 206.14062L125.435135 208.60938L129.71638 208.60938L129.71638 209.5ZM137.68513 209.5L136.60701 209.5L136.60701 202.28125L134.41951 203.07812L134.41951 202.09375L137.52888 200.92188L137.68513 200.92188L137.68513 209.5ZM146.71638 209.5L141.12263 209.5L141.12263 208.71875L144.07576 205.4375Q144.73201 204.6875 144.98201 204.23438Q145.23201 203.76562 145.23201 203.26562Q145.23201 202.59375 144.82576 202.17188Q144.43513 201.73438 143.74763 201.73438Q142.95076 201.73438 142.49763 202.20312Q142.04451 202.65625 142.04451 203.48438L140.96638 203.48438Q140.96638 202.29688 141.71638 201.57812Q142.48201 200.84375 143.74763 200.84375Q144.95076 200.84375 145.63826 201.46875Q146.32576 202.09375 146.32576 203.14062Q146.32576 204.39062 144.71638 206.14062L142.43513 208.60938L146.71638 208.60938L146.71638 209.5ZM149.70076 204.70312L150.51326 204.70312Q151.29451 204.6875 151.73201 204.29688Q152.16951 203.90625 152.16951 203.23438Q152.16951 201.73438 150.66951 201.73438Q149.96638 201.73438 149.54451 202.14062Q149.13826 202.54688 149.13826 203.20312L148.04451 203.20312Q148.04451 202.1875 148.77888 201.51562Q149.52888 200.84375 150.66951 200.84375Q151.87263 200.84375 152.56013 201.48438Q153.24763 202.125 153.24763 203.26562Q153.24763 203.82812 152.88826 204.34375Q152.52888 204.85938 151.90388 205.125Q152.60701 205.34375 152.98201 205.85938Q153.37263 206.375 153.37263 207.125Q153.37263 208.26562 152.62263 208.95312Q151.87263 209.625 150.66951 209.625Q149.48201 209.625 148.71638 208.96875Q147.96638 208.3125 147.96638 207.25L149.06013 207.25Q149.06013 207.92188 149.49763 208.32812Q149.93513 208.73438 150.68513 208.73438Q151.46638 208.73438 151.87263 208.32812Q152.29451 207.90625 152.29451 207.14062Q152.29451 206.40625 151.84138 206.01562Q151.38826 205.60938 150.51326 205.59375L149.70076 205.59375L149.70076 204.70312ZM156.26326 203.15625L156.29451 203.85938Q156.98201 203.04688 158.16951 203.04688Q159.49763 203.04688 159.98201 204.0625Q160.29451 203.60938 160.79451 203.32812Q161.31013 203.04688 161.99763 203.04688Q164.09138 203.04688 164.12263 205.25L164.12263 209.5L163.04451 209.5L163.04451 205.3125Q163.04451 204.64062 162.73201 204.3125Q162.41951 203.96875 161.68513 203.96875Q161.07576 203.96875 160.66951 204.32812Q160.27888 204.6875 160.21638 205.29688L160.21638 209.5L159.13826 209.5L159.13826 205.34375Q159.13826 203.96875 157.77888 203.96875Q156.71638 203.96875 156.32576 204.875L156.32576 209.5L155.23201 209.5L155.23201 203.15625L156.26326 203.15625ZM169.93513 207.8125Q169.93513 207.375 169.59138 207.14062Q169.26326 206.89062 168.43513 206.71875Q167.62263 206.54688 167.13826 206.29688Q166.65388 206.04688 166.41951 205.71875Q166.20076 205.375 166.20076 204.90625Q166.20076 204.125 166.85701 203.59375Q167.51326 203.04688 168.54451 203.04688Q169.62263 203.04688 170.27888 203.60938Q170.95076 204.15625 170.95076 205.01562L169.87263 205.01562Q169.87263 204.57812 169.48201 204.26562Q169.10701 203.9375 168.54451 203.9375Q167.95076 203.9375 167.60701 204.20312Q167.27888 204.45312 167.27888 204.85938Q167.27888 205.25 167.59138 205.45312Q167.90388 205.65625 168.71638 205.84375Q169.52888 206.01562 170.02888 206.26562Q170.52888 206.51562 170.76326 206.875Q171.01326 207.23438 171.01326 207.73438Q171.01326 208.59375 170.32576 209.10938Q169.65388 209.625 168.57576 209.625Q167.81013 209.625 167.21638 209.35938Q166.63826 209.07812 166.31013 208.59375Q165.98201 208.10938 165.98201 207.54688L167.06013 207.54688Q167.09138 208.09375 167.49763 208.42188Q167.90388 208.73438 168.57576 208.73438Q169.18513 208.73438 169.56013 208.48438Q169.93513 208.23438 169.93513 207.8125ZM176.52888 206.15625L176.52888 209.5L175.40388 209.5L175.40388 200.96875L178.56013 200.96875Q179.95076 200.96875 180.74763 201.6875Q181.54451 202.39062 181.54451 203.57812Q181.54451 204.8125 180.76326 205.48438Q179.99763 206.15625 178.54451 206.15625L176.52888 206.15625ZM176.52888 205.23438L178.56013 205.23438Q179.46638 205.23438 179.93513 204.8125Q180.41951 204.39062 180.41951 203.59375Q180.41951 202.82812 179.93513 202.375Q179.46638 201.90625 178.62263 201.89062L176.52888 201.89062L176.52888 205.23438ZM184.41951 209.5L183.34138 209.5L183.34138 203.15625L184.41951 203.15625L184.41951 209.5ZM183.24763 201.48438Q183.24763 201.21875 183.40388 201.03125Q183.57576 200.84375 183.88826 200.84375Q184.20076 200.84375 184.35701 201.03125Q184.52888 201.21875 184.52888 201.48438Q184.52888 201.73438 184.35701 201.92188Q184.20076 202.09375 183.88826 202.09375Q183.57576 202.09375 183.40388 201.92188Q183.24763 201.73438 183.24763 201.48438ZM187.26326 203.15625L187.29451 203.95312Q188.02888 203.04688 189.20076 203.04688Q191.21638 203.04688 191.23201 205.3125L191.23201 209.5L190.13826 209.5L190.13826 205.29688Q190.13826 204.625 189.82576 204.29688Q189.52888 203.96875 188.87263 203.96875Q188.34138 203.96875 187.93513 204.25Q187.54451 204.53125 187.32576 204.98438L187.32576 209.5L186.24763 209.5L186.24763 203.15625L187.26326 203.15625ZM192.98201 206.28125Q192.98201 204.79688 193.66951 203.92188Q194.35701 203.04688 195.48201 203.04688Q196.63826 203.04688 197.29451 203.85938L197.34138 203.15625L198.34138 203.15625L198.34138 209.34375Q198.34138 210.57812 197.60701 211.28125Q196.87263 212.0 195.65388 212.0Q194.96638 212.0 194.31013 211.70312Q193.65388 211.40625 193.31013 210.90625L193.87263 210.25Q194.56013 211.10938 195.57576 211.10938Q196.35701 211.10938 196.79451 210.65625Q197.24763 210.21875 197.24763 209.40625L197.24763 208.85938Q196.59138 209.625 195.46638 209.625Q194.35701 209.625 193.66951 208.73438Q192.98201 207.82812 192.98201 206.28125ZM194.07576 206.40625Q194.07576 207.46875 194.51326 208.09375Q194.95076 208.70312 195.74763 208.70312Q196.76326 208.70312 197.24763 207.76562L197.24763 204.875Q196.74763 203.96875 195.74763 203.96875Q194.96638 203.96875 194.51326 204.57812Q194.07576 205.1875 194.07576 206.40625Z" fill-rule="nonzero"/><path fill="#fbbc04" d="M94.966385 209.5L93.841385 209.5L93.841385 205.5625L89.528885 205.5625L89.528885 209.5L88.403885 209.5L88.403885 200.96875L89.528885 200.96875L89.528885 204.64062L93.841385 204.64062L93.841385 200.96875L94.966385 200.96875L94.966385 209.5ZM103.310135 201.89062L100.560135 201.89062L100.560135 209.5L99.45076 209.5L99.45076 201.89062L96.70076 201.89062L96.70076 200.96875L103.310135 200.96875L103.310135 201.89062ZM110.310135 201.89062L107.560135 201.89062L107.560135 209.5L106.45076 209.5L106.45076 201.89062L103.70076 201.89062L103.70076 200.96875L110.310135 200.96875L110.310135 201.89062ZM112.528885 206.15625L112.528885 209.5L111.403885 209.5L111.403885 200.96875L114.560135 200.96875Q115.95076 200.96875 116.747635 201.6875Q117.54451 202.39062 117.54451 203.57812Q117.54451 204.8125 116.76326 205.48438Q115.997635 206.15625 114.54451 206.15625L112.528885 206.15625ZM112.528885 205.23438L114.560135 205.23438Q115.466385 205.23438 115.935135 204.8125Q116.41951 204.39062 116.41951 203.59375Q116.41951 202.82812 115.935135 202.375Q115.466385 201.90625 114.622635 201.89062L112.528885 201.89062L112.528885 205.23438ZM119.45076 210.23438L118.528885 210.23438L122.091385 200.96875L123.01326 200.96875L119.45076 210.23438ZM129.71638 209.5L124.122635 209.5L124.122635 208.71875L127.07576 205.4375Q127.73201 204.6875 127.98201 204.23438Q128.23201 203.76562 128.23201 203.26562Q128.23201 202.59375 127.82576 202.17188Q127.435135 201.73438 126.747635 201.73438Q125.95076 201.73438 125.497635 202.20312Q125.04451 202.65625 125.04451 203.48438L123.966385 203.48438Q123.966385 202.29688 124.716385 201.57812Q125.48201 200.84375 126.747635 200.84375Q127.95076 200.84375 128.63826 201.46875Q129.32576 202.09375 129.32576 203.14062Q129.32576 204.39062 127.716385 206.14062L125.435135 208.60938L129.71638 208.60938L129.71638 209.5ZM137.68513 209.5L136.60701 209.5L136.60701 202.28125L134.41951 203.07812L134.41951 202.09375L137.52888 200.92188L137.68513 200.92188L137.68513 209.5ZM146.71638 209.5L141.12263 209.5L141.12263 208.71875L144.07576 205.4375Q144.73201 204.6875 144.98201 204.23438Q145.23201 203.76562 145.23201 203.26562Q145.23201 202.59375 144.82576 202.17188Q144.43513 201.73438 143.74763 201.73438Q142.95076 201.73438 142.49763 202.20312Q142.04451 202.65625 142.04451 203.48438L140.96638 203.48438Q140.96638 202.29688 141.71638 201.57812Q142.48201 200.84375 143.74763 200.84375Q144.95076 200.84375 145.63826 201.46875Q146.32576 202.09375 146.32576 203.14062Q146.32576 204.39062 144.71638 206.14062L142.43513 208.60938L146.71638 208.60938L146.71638 209.5ZM149.70076 204.70312L150.51326 204.70312Q151.29451 204.6875 151.73201 204.29688Q152.16951 203.90625 152.16951 203.23438Q152.16951 201.73438 150.66951 201.73438Q149.96638 201.73438 149.54451 202.14062Q149.13826 202.54688 149.13826 203.20312L148.04451 203.20312Q148.04451 202.1875 148.77888 201.51562Q149.52888 200.84375 150.66951 200.84375Q151.87263 200.84375 152.56013 201.48438Q153.24763 202.125 153.24763 203.26562Q153.24763 203.82812 152.88826 204.34375Q152.52888 204.85938 151.90388 205.125Q152.60701 205.34375 152.98201 205.85938Q153.37263 206.375 153.37263 207.125Q153.37263 208.26562 152.62263 208.95312Q151.87263 209.625 150.66951 209.625Q149.48201 209.625 148.71638 208.96875Q147.96638 208.3125 147.96638 207.25L149.06013 207.25Q149.06013 207.92188 149.49763 208.32812Q149.93513 208.73438 150.68513 208.73438Q151.46638 208.73438 151.87263 208.32812Q152.29451 207.90625 152.29451 207.14062Q152.29451 206.40625 151.84138 206.01562Q151.38826 205.60938 150.51326 205.59375L149.70076 205.59375L149.70076 204.70312ZM156.26326 203.15625L156.29451 203.85938Q156.98201 203.04688 158.16951 203.04688Q159.49763 203.04688 159.98201 204.0625Q160.29451 203.60938 160.79451 203.32812Q161.31013 203.04688 161.99763 203.04688Q164.09138 203.04688 164.12263 205.25L164.12263 209.5L163.04451 209.5L163.04451 205.3125Q163.04451 204.64062 162.73201 204.3125Q162.41951 203.96875 161.68513 203.96875Q161.07576 203.96875 160.66951 204.32812Q160.27888 204.6875 160.21638 205.29688L160.21638 209.5L159.13826 209.5L159.13826 205.34375Q159.13826 203.96875 157.77888 203.96875Q156.71638 203.96875 156.32576 204.875L156.32576 209.5L155.23201 209.5L155.23201 203.15625L156.26326 203.15625ZM169.93513 207.8125Q169.93513 207.375 169.59138 207.14062Q169.26326 206.89062 168.43513 206.71875Q167.62263 206.54688 167.13826 206.29688Q166.65388 206.04688 166.41951 205.71875Q166.20076 205.375 166.20076 204.90625Q166.20076 204.125 166.85701 203.59375Q167.51326 203.04688 168.54451 203.04688Q169.62263 203.04688 170.27888 203.60938Q170.95076 204.15625 170.95076 205.01562L169.87263 205.01562Q169.87263 204.57812 169.48201 204.26562Q169.10701 203.9375 168.54451 203.9375Q167.95076 203.9375 167.60701 204.20312Q167.27888 204.45312 167.27888 204.85938Q167.27888 205.25 167.59138 205.45312Q167.90388 205.65625 168.71638 205.84375Q169.52888 206.01562 170.02888 206.26562Q170.52888 206.51562 170.76326 206.875Q171.01326 207.23438 171.01326 207.73438Q171.01326 208.59375 170.32576 209.10938Q169.65388 209.625 168.57576 209.625Q167.81013 209.625 167.21638 209.35938Q166.63826 209.07812 166.31013 208.59375Q165.98201 208.10938 165.98201 207.54688L167.06013 207.54688Q167.09138 208.09375 167.49763 208.42188Q167.90388 208.73438 168.57576 208.73438Q169.18513 208.73438 169.56013 208.48438Q169.93513 208.23438 169.93513 207.8125ZM176.52888 206.15625L176.52888 209.5L175.40388 209.5L175.40388 200.96875L178.56013 200.96875Q179.95076 200.96875 180.74763 201.6875Q181.54451 202.39062 181.54451 203.57812Q181.54451 204.8125 180.76326 205.48438Q179.99763 206.15625 178.54451 206.15625L176.52888 206.15625ZM176.52888 205.23438L178.56013 205.23438Q179.46638 205.23438 179.93513 204.8125Q180.41951 204.39062 180.41951 203.59375Q180.41951 202.82812 179.93513 202.375Q179.46638 201.90625 178.62263 201.89062L176.52888 201.89062L176.52888 205.23438ZM184.41951 209.5L183.34138 209.5L183.34138 203.15625L184.41951 203.15625L184.41951 209.5ZM183.24763 201.48438Q183.24763 201.21875 183.40388 201.03125Q183.57576 200.84375 183.88826 200.84375Q184.20076 200.84375 184.35701 201.03125Q184.52888 201.21875 184.52888 201.48438Q184.52888 201.73438 184.35701 201.92188Q184.20076 202.09375 183.88826 202.09375Q183.57576 202.09375 183.40388 201.92188Q183.24763 201.73438 183.24763 201.48438ZM187.26326 203.15625L187.29451 203.95312Q188.02888 203.04688 189.20076 203.04688Q191.21638 203.04688 191.23201 205.3125L191.23201 209.5L190.13826 209.5L190.13826 205.29688Q190.13826 204.625 189.82576 204.29688Q189.52888 203.96875 188.87263 203.96875Q188.34138 203.96875 187.93513 204.25Q187.54451 204.53125 187.32576 204.98438L187.32576 209.5L186.24763 209.5L186.24763 203.15625L187.26326 203.15625ZM192.98201 206.28125Q192.98201 204.79688 193.66951 203.92188Q194.35701 203.04688 195.48201 203.04688Q196.63826 203.04688 197.29451 203.85938L197.34138 203.15625L198.34138 203.15625L198.34138 209.34375Q198.34138 210.57812 197.60701 211.28125Q196.87263 212.0 195.65388 212.0Q194.96638 212.0 194.31013 211.70312Q193.65388 211.40625 193.31013 210.90625L193.87263 210.25Q194.56013 211.10938 195.57576 211.10938Q196.35701 211.10938 196.79451 210.65625Q197.24763 210.21875 197.24763 209.40625L197.24763 208.85938Q196.59138 209.625 195.46638 209.625Q194.35701 209.625 193.66951 208.73438Q192.98201 207.82812 192.98201 206.28125ZM194.07576 206.40625Q194.07576 207.46875 194.51326 208.09375Q194.95076 208.70312 195.74763 208.70312Q196.76326 208.70312 197.24763 207.76562L197.24763 204.875Q196.74763 203.96875 195.74763 203.96875Q194.96638 203.96875 194.51326 204.57812Q194.07576 205.1875 194.07576 206.40625Z" fill-rule="nonzero"/><path stroke="#ffffff" stroke-width="3.0" stroke-linejoin="round" stroke-linecap="round" d="M130.40129 131.5L129.27629 131.5L129.27629 127.5625L124.9638 127.5625L124.9638 131.5L123.8388 131.5L123.8388 122.96875L124.9638 122.96875L124.9638 126.640625L129.27629 126.640625L129.27629 122.96875L130.40129 122.96875L130.40129 131.5ZM138.74504 123.890625L135.99504 123.890625L135.99504 131.5L134.88567 131.5L134.88567 123.890625L132.13567 123.890625L132.13567 122.96875L138.74504 122.96875L138.74504 123.890625ZM145.74504 123.890625L142.99504 123.890625L142.99504 131.5L141.88567 131.5L141.88567 123.890625L139.13567 123.890625L139.13567 122.96875L145.74504 122.96875L145.74504 123.890625ZM147.96379 128.15625L147.96379 131.5L146.83879 131.5L146.83879 122.96875L149.99504 122.96875Q151.38567 122.96875 152.18254 123.6875Q152.97942 124.390625 152.97942 125.578125Q152.97942 126.8125 152.19817 127.484375Q151.43254 128.15625 149.97942 128.15625L147.96379 128.15625ZM147.96379 127.234375L149.99504 127.234375Q150.90129 127.234375 151.37004 126.8125Q151.85442 126.390625 151.85442 125.59375Q151.85442 124.828125 151.37004 124.375Q150.90129 123.90625 150.05754 123.890625L147.96379 123.890625L147.96379 127.234375ZM154.88567 132.23438L153.96379 132.23438L157.52629 122.96875L158.44817 122.96875L154.88567 132.23438ZM165.15129 131.5L159.55754 131.5L159.55754 130.71875L162.51067 127.4375Q163.16692 126.6875 163.41692 126.234375Q163.66692 125.765625 163.66692 125.265625Q163.66692 124.59375 163.26067 124.171875Q162.87004 123.734375 162.18254 123.734375Q161.38567 123.734375 160.93254 124.203125Q160.47942 124.65625 160.47942 125.484375L159.40129 125.484375Q159.40129 124.296875 160.15129 123.578125Q160.91692 122.84375 162.18254 122.84375Q163.38567 122.84375 164.07317 123.46875Q164.76067 124.09375 164.76067 125.140625Q164.76067 126.390625 163.15129 128.14062L160.87004 130.60938L165.15129 130.60938L165.15129 131.5ZM175.15129 131.5L169.55754 131.5L169.55754 130.71875L172.51067 127.4375Q173.16692 126.6875 173.41692 126.234375Q173.66692 125.765625 173.66692 125.265625Q173.66692 124.59375 173.26067 124.171875Q172.87004 123.734375 172.18254 123.734375Q171.38567 123.734375 170.93254 124.203125Q170.47942 124.65625 170.47942 125.484375L169.40129 125.484375Q169.40129 124.296875 170.15129 123.578125Q170.91692 122.84375 172.18254 122.84375Q173.38567 122.84375 174.07317 123.46875Q174.76067 124.09375 174.76067 125.140625Q174.76067 126.390625 173.15129 128.14062L170.87004 130.60938L175.15129 130.60938L175.15129 131.5ZM182.15129 131.5L176.55754 131.5L176.55754 130.71875L179.51067 127.4375Q180.16692 126.6875 180.41692 126.234375Q180.66692 125.765625 180.66692 125.265625Q180.66692 124.59375 180.26067 124.171875Q179.87004 123.734375 179.18254 123.734375Q178.38567 123.734375 177.93254 124.203125Q177.47942 124.65625 177.47942 125.484375L176.40129 125.484375Q176.40129 124.296875 177.15129 123.578125Q177.91692 122.84375 179.18254 122.84375Q180.38567 122.84375 181.07317 123.46875Q181.76067 124.09375 181.76067 125.140625Q181.76067 126.390625 180.15129 128.14062L177.87004 130.60938L182.15129 130.60938L182.15129 131.5ZM185.13567 126.703125L185.94817 126.703125Q186.72942 126.6875 187.16692 126.296875Q187.60442 125.90625 187.60442 125.234375Q187.60442 123.734375 186.10442 123.734375Q185.40129 123.734375 184.97942 124.140625Q184.57317 124.546875 184.57317 125.203125L183.47942 125.203125Q183.47942 124.1875 184.21379 123.515625Q184.96379 122.84375 186.10442 122.84375Q187.30754 122.84375 187.99504 123.484375Q188.68254 124.125 188.68254 125.265625Q188.68254 125.828125 188.32317 126.34375Q187.96379 126.859375 187.33879 127.125Q188.04192 127.34375 188.41692 127.859375Q188.80754 128.375 188.80754 129.125Q188.80754 130.26562 188.05754 130.95312Q187.30754 131.625 186.10442 131.625Q184.91692 131.625 184.15129 130.96875Q183.40129 130.3125 183.40129 129.25L184.49504 129.25Q184.49504 129.92188 184.93254 130.32812Q185.37004 130.73438 186.12004 130.73438Q186.90129 130.73438 187.30754 130.32812Q187.72942 129.90625 187.72942 129.14062Q187.72942 128.40625 187.27629 128.01562Q186.82317 127.609375 185.94817 127.59375L185.13567 127.59375L185.13567 126.703125ZM191.69817 125.15625L191.72942 125.859375Q192.41692 125.046875 193.60442 125.046875Q194.93254 125.046875 195.41692 126.0625Q195.72942 125.609375 196.22942 125.328125Q196.74504 125.046875 197.43254 125.046875Q199.52629 125.046875 199.55754 127.25L199.55754 131.5L198.47942 131.5L198.47942 127.3125Q198.47942 126.640625 198.16692 126.3125Q197.85442 125.96875 197.12004 125.96875Q196.51067 125.96875 196.10442 126.328125Q195.71379 126.6875 195.65129 127.296875L195.65129 131.5L194.57317 131.5L194.57317 127.34375Q194.57317 125.96875 193.21379 125.96875Q192.15129 125.96875 191.76067 126.875L191.76067 131.5L190.66692 131.5L190.66692 125.15625L191.69817 125.15625ZM205.37004 129.8125Q205.37004 129.375 205.02629 129.14062Q204.69817 128.89062 203.87004 128.71875Q203.05754 128.54688 202.57317 128.29688Q202.08879 128.04688 201.85442 127.71875Q201.63567 127.375 201.63567 126.90625Q201.63567 126.125 202.29192 125.59375Q202.94817 125.046875 203.97942 125.046875Q205.05754 125.046875 205.71379 125.609375Q206.38567 126.15625 206.38567 127.015625L205.30754 127.015625Q205.30754 126.578125 204.91692 126.265625Q204.54192 125.9375 203.97942 125.9375Q203.38567 125.9375 203.04192 126.203125Q202.71379 126.453125 202.71379 126.859375Q202.71379 127.25 203.02629 127.453125Q203.33879 127.65625 204.15129 127.84375Q204.96379 128.01562 205.46379 128.26562Q205.96379 128.51562 206.19817 128.875Q206.44817 129.23438 206.44817 129.73438Q206.44817 130.59375 205.76067 131.10938Q205.08879 131.625 204.01067 131.625Q203.24504 131.625 202.65129 131.35938Q202.07317 131.07812 201.74504 130.59375Q201.41692 130.10938 201.41692 129.54688L202.49504 129.54688Q202.52629 130.09375 202.93254 130.42188Q203.33879 130.73438 204.01067 130.73438Q204.62004 130.73438 204.99504 130.48438Q205.37004 130.23438 205.37004 129.8125ZM211.96379 128.15625L211.96379 131.5L210.83879 131.5L210.83879 122.96875L213.99504 122.96875Q215.38567 122.96875 216.18254 123.6875Q216.97942 124.390625 216.97942 125.578125Q216.97942 126.8125 216.19817 127.484375Q215.43254 128.15625 213.97942 128.15625L211.96379 128.15625ZM211.96379 127.234375L213.99504 127.234375Q214.90129 127.234375 215.37004 126.8125Q215.85442 126.390625 215.85442 125.59375Q215.85442 124.828125 215.37004 124.375Q214.90129 123.90625 214.05754 123.890625L211.96379 123.890625L211.96379 127.234375ZM219.85442 131.5L218.77629 131.5L218.77629 125.15625L219.85442 125.15625L219.85442 131.5ZM218.68254 123.484375Q218.68254 123.21875 218.83879 123.03125Q219.01067 122.84375 219.32317 122.84375Q219.63567 122.84375 219.79192 123.03125Q219.96379 123.21875 219.96379 123.484375Q219.96379 123.734375 219.79192 123.921875Q219.63567 124.09375 219.32317 124.09375Q219.01067 124.09375 218.83879 123.921875Q218.68254 123.734375 218.68254 123.484375ZM222.69817 125.15625L222.72942 125.953125Q223.46379 125.046875 224.63567 125.046875Q226.65129 125.046875 226.66692 127.3125L226.66692 131.5L225.57317 131.5L225.57317 127.296875Q225.57317 126.625 225.26067 126.296875Q224.96379 125.96875 224.30754 125.96875Q223.77629 125.96875 223.37004 126.25Q222.97942 126.53125 222.76067 126.984375L222.76067 131.5L221.68254 131.5L221.68254 125.15625L222.69817 125.15625ZM228.41692 128.28125Q228.41692 126.796875 229.10442 125.921875Q229.79192 125.046875 230.91692 125.046875Q232.07317 125.046875 232.72942 125.859375L232.77629 125.15625L233.77629 125.15625L233.77629 131.34375Q233.77629 132.57812 233.04192 133.28125Q232.30754 134.0 231.08879 134.0Q230.40129 134.0 229.74504 133.70312Q229.08879 133.40625 228.74504 132.90625L229.30754 132.25Q229.99504 133.10938 231.01067 133.10938Q231.79192 133.10938 232.22942 132.65625Q232.68254 132.21875 232.68254 131.40625L232.68254 130.85938Q232.02629 131.625 230.90129 131.625Q229.79192 131.625 229.10442 130.73438Q228.41692 129.82812 228.41692 128.28125ZM229.51067 128.40625Q229.51067 129.46875 229.94817 130.09375Q230.38567 130.70312 231.18254 130.70312Q232.19817 130.70312 232.68254 129.76562L232.68254 126.875Q232.18254 125.96875 231.18254 125.96875Q230.40129 125.96875 229.94817 126.578125Q229.51067 127.1875 229.51067 128.40625Z" fill-rule="nonzero"/><path fill="#fbbc04" d="M130.4013 131.5L129.2763 131.5L129.2763 127.5625L124.9638 127.5625L124.9638 131.5L123.8388 131.5L123.8388 122.96875L124.9638 122.96875L124.9638 126.640625L129.2763 126.640625L129.2763 122.96875L130.4013 122.96875L130.4013 131.5ZM138.74506 123.890625L135.99506 123.890625L135.99506 131.5L134.88568 131.5L134.88568 123.890625L132.13568 123.890625L132.13568 122.96875L138.74506 122.96875L138.74506 123.890625ZM145.74506 123.890625L142.99506 123.890625L142.99506 131.5L141.88568 131.5L141.88568 123.890625L139.13568 123.890625L139.13568 122.96875L145.74506 122.96875L145.74506 123.890625ZM147.9638 128.15625L147.9638 131.5L146.8388 131.5L146.8388 122.96875L149.99506 122.96875Q151.38568 122.96875 152.18256 123.6875Q152.97943 124.390625 152.97943 125.578125Q152.97943 126.8125 152.19818 127.484375Q151.43256 128.15625 149.97943 128.15625L147.9638 128.15625ZM147.9638 127.234375L149.99506 127.234375Q150.9013 127.234375 151.37006 126.8125Q151.85443 126.390625 151.85443 125.59375Q151.85443 124.828125 151.37006 124.375Q150.9013 123.90625 150.05756 123.890625L147.9638 123.890625L147.9638 127.234375ZM154.88568 132.23438L153.9638 132.23438L157.5263 122.96875L158.44818 122.96875L154.88568 132.23438ZM165.1513 131.5L159.55756 131.5L159.55756 130.71875L162.51068 127.4375Q163.16693 126.6875 163.41693 126.234375Q163.66693 125.765625 163.66693 125.265625Q163.66693 124.59375 163.26068 124.171875Q162.87006 123.734375 162.18256 123.734375Q161.38568 123.734375 160.93256 124.203125Q160.47943 124.65625 160.47943 125.484375L159.4013 125.484375Q159.4013 124.296875 160.1513 123.578125Q160.91693 122.84375 162.18256 122.84375Q163.38568 122.84375 164.07318 123.46875Q164.76068 124.09375 164.76068 125.140625Q164.76068 126.390625 163.1513 128.14062L160.87006 130.60938L165.1513 130.60938L165.1513 131.5ZM175.1513 131.5L169.55756 131.5L169.55756 130.71875L172.51068 127.4375Q173.16693 126.6875 173.41693 126.234375Q173.66693 125.765625 173.66693 125.265625Q173.66693 124.59375 173.26068 124.171875Q172.87006 123.734375 172.18256 123.734375Q171.38568 123.734375 170.93256 124.203125Q170.47943 124.65625 170.47943 125.484375L169.4013 125.484375Q169.4013 124.296875 170.1513 123.578125Q170.91693 122.84375 172.18256 122.84375Q173.38568 122.84375 174.07318 123.46875Q174.76068 124.09375 174.76068 125.140625Q174.76068 126.390625 173.1513 128.14062L170.87006 130.60938L175.1513 130.60938L175.1513 131.5ZM182.1513 131.5L176.55756 131.5L176.55756 130.71875L179.51068 127.4375Q180.16693 126.6875 180.41693 126.234375Q180.66693 125.765625 180.66693 125.265625Q180.66693 124.59375 180.26068 124.171875Q179.87006 123.734375 179.18256 123.734375Q178.38568 123.734375 177.93256 124.203125Q177.47943 124.65625 177.47943 125.484375L176.4013 125.484375Q176.4013 124.296875 177.1513 123.578125Q177.91693 122.84375 179.18256 122.84375Q180.38568 122.84375 181.07318 123.46875Q181.76068 124.09375 181.76068 125.140625Q181.76068 126.390625 180.1513 128.14062L177.87006 130.60938L182.1513 130.60938L182.1513 131.5ZM185.13568 126.703125L185.94818 126.703125Q186.72943 126.6875 187.16693 126.296875Q187.60443 125.90625 187.60443 125.234375Q187.60443 123.734375 186.10443 123.734375Q185.4013 123.734375 184.97943 124.140625Q184.57318 124.546875 184.57318 125.203125L183.47943 125.203125Q183.47943 124.1875 184.2138 123.515625Q184.9638 122.84375 186.10443 122.84375Q187.30756 122.84375 187.99506 123.484375Q188.68256 124.125 188.68256 125.265625Q188.68256 125.828125 188.32318 126.34375Q187.9638 126.859375 187.3388 127.125Q188.04193 127.34375 188.41693 127.859375Q188.80756 128.375 188.80756 129.125Q188.80756 130.26562 188.05756 130.95312Q187.30756 131.625 186.10443 131.625Q184.91693 131.625 184.1513 130.96875Q183.4013 130.3125 183.4013 129.25L184.49506 129.25Q184.49506 129.92188 184.93256 130.32812Q185.37006 130.73438 186.12006 130.73438Q186.9013 130.73438 187.30756 130.32812Q187.72943 129.90625 187.72943 129.14062Q187.72943 128.40625 187.2763 128.01562Q186.82318 127.609375 185.94818 127.59375L185.13568 127.59375L185.13568 126.703125ZM191.69818 125.15625L191.72943 125.859375Q192.41693 125.046875 193.60443 125.046875Q194.93256 125.046875 195.41693 126.0625Q195.72943 125.609375 196.22943 125.328125Q196.74506 125.046875 197.43256 125.046875Q199.5263 125.046875 199.55756 127.25L199.55756 131.5L198.47943 131.5L198.47943 127.3125Q198.47943 126.640625 198.16693 126.3125Q197.85443 125.96875 197.12006 125.96875Q196.51068 125.96875 196.10443 126.328125Q195.7138 126.6875 195.6513 127.296875L195.6513 131.5L194.57318 131.5L194.57318 127.34375Q194.57318 125.96875 193.2138 125.96875Q192.1513 125.96875 191.76068 126.875L191.76068 131.5L190.66693 131.5L190.66693 125.15625L191.69818 125.15625ZM205.37006 129.8125Q205.37006 129.375 205.0263 129.14062Q204.69818 128.89062 203.87006 128.71875Q203.05756 128.54688 202.57318 128.29688Q202.0888 128.04688 201.85443 127.71875Q201.63568 127.375 201.63568 126.90625Q201.63568 126.125 202.29193 125.59375Q202.94818 125.046875 203.97943 125.046875Q205.05756 125.046875 205.7138 125.609375Q206.38568 126.15625 206.38568 127.015625L205.30756 127.015625Q205.30756 126.578125 204.91693 126.265625Q204.54193 125.9375 203.97943 125.9375Q203.38568 125.9375 203.04193 126.203125Q202.7138 126.453125 202.7138 126.859375Q202.7138 127.25 203.0263 127.453125Q203.3388 127.65625 204.1513 127.84375Q204.9638 128.01562 205.4638 128.26562Q205.9638 128.51562 206.19818 128.875Q206.44818 129.23438 206.44818 129.73438Q206.44818 130.59375 205.76068 131.10938Q205.0888 131.625 204.01068 131.625Q203.24506 131.625 202.6513 131.35938Q202.07318 131.07812 201.74506 130.59375Q201.41693 130.10938 201.41693 129.54688L202.49506 129.54688Q202.5263 130.09375 202.93256 130.42188Q203.3388 130.73438 204.01068 130.73438Q204.62006 130.73438 204.99506 130.48438Q205.37006 130.23438 205.37006 129.8125ZM211.9638 128.15625L211.9638 131.5L210.8388 131.5L210.8388 122.96875L213.99506 122.96875Q215.38568 122.96875 216.18256 123.6875Q216.97943 124.390625 216.97943 125.578125Q216.97943 126.8125 216.19818 127.484375Q215.43256 128.15625 213.97943 128.15625L211.9638 128.15625ZM211.9638 127.234375L213.99506 127.234375Q214.9013 127.234375 215.37006 126.8125Q215.85443 126.390625 215.85443 125.59375Q215.85443 124.828125 215.37006 124.375Q214.9013 123.90625 214.05756 123.890625L211.9638 123.890625L211.9638 127.234375ZM219.85443 131.5L218.7763 131.5L218.7763 125.15625L219.85443 125.15625L219.85443 131.5ZM218.68256 123.484375Q218.68256 123.21875 218.8388 123.03125Q219.01068 122.84375 219.32318 122.84375Q219.63568 122.84375 219.79193 123.03125Q219.9638 123.21875 219.9638 123.484375Q219.9638 123.734375 219.79193 123.921875Q219.63568 124.09375 219.32318 124.09375Q219.01068 124.09375 218.8388 123.921875Q218.68256 123.734375 218.68256 123.484375ZM222.69818 125.15625L222.72943 125.953125Q223.4638 125.046875 224.63568 125.046875Q226.6513 125.046875 226.66693 127.3125L226.66693 131.5L225.57318 131.5L225.57318 127.296875Q225.57318 126.625 225.26068 126.296875Q224.9638 125.96875 224.30756 125.96875Q223.7763 125.96875 223.37006 126.25Q222.97943 126.53125 222.76068 126.984375L222.76068 131.5L221.68256 131.5L221.68256 125.15625L222.69818 125.15625ZM228.41693 128.28125Q228.41693 126.796875 229.10443 125.921875Q229.79193 125.046875 230.91693 125.046875Q232.07318 125.046875 232.72943 125.859375L232.7763 125.15625L233.7763 125.15625L233.7763 131.34375Q233.7763 132.57812 233.04193 133.28125Q232.30756 134.0 231.0888 134.0Q230.4013 134.0 229.74506 133.70312Q229.0888 133.40625 228.74506 132.90625L229.30756 132.25Q229.99506 133.10938 231.01068 133.10938Q231.79193 133.10938 232.22943 132.65625Q232.68256 132.21875 232.68256 131.40625L232.68256 130.85938Q232.0263 131.625 230.9013 131.625Q229.79193 131.625 229.10443 130.73438Q228.41693 129.82812 228.41693 128.28125ZM229.51068 128.40625Q229.51068 129.46875 229.94818 130.09375Q230.38568 130.70312 231.18256 130.70312Q232.19818 130.70312 232.68256 129.76562L232.68256 126.875Q232.18256 125.96875 231.18256 125.96875Q230.4013 125.96875 229.94818 126.578125Q229.51068 127.1875 229.51068 128.40625Z" fill-rule="nonzero"/><path fill="#000000" d="M12.85 347.91562Q12.85 346.38437 13.1625 345.4625Q13.475 344.525 14.084375 344.025Q14.709375 343.525 15.646875 343.525Q16.334375 343.525 16.85 343.80624Q17.38125 344.0875 17.725 344.61874Q18.06875 345.13437 18.25625 345.88437Q18.44375 346.63437 18.44375 347.91562Q18.44375 349.43124 18.13125 350.35312Q17.834375 351.275 17.209375 351.79062Q16.6 352.29062 15.646875 352.29062Q14.4125 352.29062 13.69375 351.4Q12.85 350.3375 12.85 347.91562ZM13.928125 347.91562Q13.928125 350.025 14.428125 350.72812Q14.928125 351.43124 15.646875 351.43124Q16.38125 351.43124 16.865625 350.72812Q17.365625 350.025 17.365625 347.91562Q17.365625 345.79062 16.865625 345.10312Q16.38125 344.4 15.63125 344.4Q14.9125 344.4 14.475 345.00937Q13.928125 345.79062 13.928125 347.91562Z" fill-rule="nonzero"/><path fill="#000000" d="M65.94688 351.13437L65.94688 352.15L60.259377 352.15Q60.259377 351.775 60.384377 351.41562Q60.603127 350.8375 61.071877 350.275Q61.55625 349.7125 62.4625 348.97812Q63.86875 347.82187 64.35313 347.15Q64.85313 346.47812 64.85313 345.88437Q64.85313 345.25937 64.4 344.8375Q63.946877 344.4 63.228127 344.4Q62.4625 344.4 62.009377 344.85312Q61.55625 345.30624 61.540627 346.11874L60.4625 346.00937Q60.571877 344.79062 61.290627 344.16562Q62.025 343.525 63.259377 343.525Q64.49375 343.525 65.2125 344.2125Q65.93125 344.9 65.93125 345.91562Q65.93125 346.43124 65.7125 346.93124Q65.50938 347.41562 65.00938 347.97812Q64.525 348.525 63.4 349.47812Q62.446877 350.275 62.165627 350.57187Q61.9 350.85312 61.728127 351.13437L65.94688 351.13437Z" fill-rule="nonzero"/><path fill="#000000" d="M111.325 352.15L111.325 350.0875L107.60625 350.0875L107.60625 349.11874L111.52812 343.55624L112.3875 343.55624L112.3875 349.11874L113.54375 349.11874L113.54375 350.0875L112.3875 350.0875L112.3875 352.15L111.325 352.15ZM111.325 349.11874L111.325 345.25937L108.6375 349.11874L111.325 349.11874Z" fill-rule="nonzero"/><path fill="#000000" d="M160.96875 345.66562L159.92188 345.74374Q159.78125 345.11874 159.53125 344.8375Q159.09375 344.38437 158.46875 344.38437Q157.96875 344.38437 157.57812 344.66562Q157.09375 345.04062 156.79688 345.74374Q156.51562 346.43124 156.5 347.7125Q156.875 347.13437 157.42188 346.85312Q157.98438 346.57187 158.59375 346.57187Q159.64062 346.57187 160.375 347.35312Q161.125 348.13437 161.125 349.35312Q161.125 350.16562 160.76562 350.86874Q160.42188 351.55624 159.8125 351.93124Q159.20312 352.29062 158.4375 352.29062Q157.10938 352.29062 156.28125 351.32187Q155.45312 350.35312 155.45312 348.13437Q155.45312 345.63437 156.375 344.50937Q157.17188 343.525 158.53125 343.525Q159.54688 343.525 160.1875 344.10312Q160.84375 344.66562 160.96875 345.66562ZM156.67188 349.36874Q156.67188 349.91562 156.89062 350.41562Q157.125 350.9 157.53125 351.16562Q157.95312 351.43124 158.42188 351.43124Q159.07812 351.43124 159.5625 350.9Q160.04688 350.35312 160.04688 349.43124Q160.04688 348.54062 159.5625 348.025Q159.09375 347.50937 158.375 347.50937Q157.65625 347.50937 157.15625 348.025Q156.67188 348.54062 156.67188 349.36874Z" fill-rule="nonzero"/><path fill="#000000" d="M204.675 347.49374Q204.01875 347.24374 203.69063 346.80624Q203.37813 346.35312 203.37813 345.74374Q203.37813 344.80624 204.05 344.16562Q204.7375 343.525 205.84688 343.525Q206.97188 343.525 207.65938 344.18124Q208.34688 344.8375 208.34688 345.775Q208.34688 346.36874 208.03438 346.80624Q207.72188 347.24374 207.08125 347.49374Q207.87813 347.74374 208.28438 348.32187Q208.69063 348.9 208.69063 349.69687Q208.69063 350.79062 207.90938 351.54062Q207.14375 352.29062 205.8625 352.29062Q204.59688 352.29062 203.81563 351.54062Q203.03438 350.79062 203.03438 349.66562Q203.03438 348.82187 203.45625 348.25937Q203.89375 347.69687 204.675 347.49374ZM204.45625 345.69687Q204.45625 346.30624 204.84688 346.69687Q205.25313 347.0875 205.87813 347.0875Q206.4875 347.0875 206.87813 346.7125Q207.26875 346.32187 207.26875 345.75937Q207.26875 345.18124 206.8625 344.79062Q206.45625 344.38437 205.8625 344.38437Q205.25313 344.38437 204.84688 344.775Q204.45625 345.16562 204.45625 345.69687ZM204.12813 349.66562Q204.12813 350.11874 204.33125 350.54062Q204.55 350.9625 204.97188 351.19687Q205.39375 351.43124 205.87813 351.43124Q206.62813 351.43124 207.1125 350.94687Q207.6125 350.4625 207.6125 349.7125Q207.6125 348.94687 207.1125 348.44687Q206.6125 347.94687 205.84688 347.94687Q205.09688 347.94687 204.6125 348.44687Q204.12813 348.93124 204.12813 349.66562Z" fill-rule="nonzero"/><path fill="#000000" d="M251.06876 352.15L250.02188 352.15L250.02188 345.43124Q249.63126 345.79062 249.00626 346.16562Q248.39688 346.525 247.9125 346.69687L247.9125 345.68124Q248.7875 345.25937 249.44376 344.68124Q250.11563 344.0875 250.39688 343.525L251.06876 343.525L251.06876 352.15ZM254.1 347.91562Q254.1 346.38437 254.4125 345.4625Q254.725 344.525 255.33438 344.025Q255.95938 343.525 256.89688 343.525Q257.58438 343.525 258.1 343.80624Q258.63126 344.0875 258.975 344.61874Q259.31876 345.13437 259.50626 345.88437Q259.69376 346.63437 259.69376 347.91562Q259.69376 349.43124 259.38126 350.35312Q259.08438 351.275 258.45938 351.79062Q257.85 352.29062 256.89688 352.29062Q255.6625 352.29062 254.94376 351.4Q254.1 350.3375 254.1 347.91562ZM255.17813 347.91562Q255.17813 350.025 255.67813 350.72812Q256.17813 351.43124 256.89688 351.43124Q257.63126 351.43124 258.11563 350.72812Q258.61563 350.025 258.61563 347.91562Q258.61563 345.79062 258.11563 345.10312Q257.63126 344.4 256.88126 344.4Q256.1625 344.4 255.725 345.00937Q255.17813 345.79062 255.17813 347.91562Z" fill-rule="nonzero"/><path fill="#000000" d="M298.61874 352.15L297.57187 352.15L297.57187 345.43124Q297.18124 345.79062 296.55624 346.16562Q295.94687 346.525 295.4625 346.69687L295.4625 345.68124Q296.3375 345.25937 296.99374 344.68124Q297.66562 344.0875 297.94687 343.525L298.61874 343.525L298.61874 352.15ZM307.19687 351.13437L307.19687 352.15L301.50937 352.15Q301.50937 351.775 301.63437 351.41562Q301.85312 350.8375 302.32187 350.275Q302.80624 349.7125 303.7125 348.97812Q305.11874 347.82187 305.60312 347.15Q306.10312 346.47812 306.10312 345.88437Q306.10312 345.25937 305.65 344.8375Q305.19687 344.4 304.47812 344.4Q303.7125 344.4 303.25937 344.85312Q302.80624 345.30624 302.79062 346.11874L301.7125 346.00937Q301.82187 344.79062 302.54062 344.16562Q303.275 343.525 304.50937 343.525Q305.74374 343.525 306.4625 344.2125Q307.18124 344.9 307.18124 345.91562Q307.18124 346.43124 306.9625 346.93124Q306.75937 347.41562 306.25937 347.97812Q305.775 348.525 304.65 349.47812Q303.69687 350.275 303.41562 350.57187Q303.15 350.85312 302.97812 351.13437L307.19687 351.13437Z" fill-rule="nonzero"/><path fill="#757575" d="M17.428125 34.85L17.428125 20.537498L27.7875 20.537498L27.7875 22.224998L19.334375 22.224998L19.334375 26.599998L27.240625 26.599998L27.240625 28.287498L19.334375 28.287498L19.334375 33.1625L28.115625 33.1625L28.115625 34.85L17.428125 34.85ZM30.584375 34.85L30.584375 25.849998L29.0375 25.849998L29.0375 24.474998L30.584375 24.474998L30.584375 23.381248Q30.584375 22.334373 30.771875 21.818748Q31.021875 21.131248 31.6625 20.709373Q32.303123 20.287498 33.459373 20.287498Q34.209373 20.287498 35.1 20.459373L34.834373 21.990623Q34.2875 21.896873 33.803123 21.896873Q33.00625 21.896873 32.6625 22.240623Q32.334373 22.584373 32.334373 23.521873L32.334373 24.474998L34.365623 24.474998L34.365623 25.849998L32.334373 25.849998L32.334373 34.85L30.584375 34.85ZM36.584373 34.85L36.584373 25.849998L35.0375 25.849998L35.0375 24.474998L36.584373 24.474998L36.584373 23.381248Q36.584373 22.334373 36.771873 21.818748Q37.021873 21.131248 37.6625 20.709373Q38.303123 20.287498 39.459373 20.287498Q40.209373 20.287498 41.1 20.459373L40.834373 21.990623Q40.2875 21.896873 39.803123 21.896873Q39.00625 21.896873 38.6625 22.240623Q38.334373 22.584373 38.334373 23.521873L38.334373 24.474998L40.365623 24.474998L40.365623 25.849998L38.334373 25.849998L38.334373 34.85L36.584373 34.85ZM49.271873 31.506248L51.084373 31.740623Q50.6625 33.31875 49.490623 34.209373Q48.334373 35.084373 46.521873 35.084373Q44.25625 35.084373 42.9125 33.69375Q41.584373 32.2875 41.584373 29.756248Q41.584373 27.131248 42.928123 25.693748Q44.271873 24.240623 46.428123 24.240623Q48.50625 24.240623 49.81875 25.662498Q51.146873 27.068748 51.146873 29.646873Q51.146873 29.803123 51.13125 30.115623L43.396873 30.115623Q43.490623 31.818748 44.365623 32.725Q45.240623 33.63125 46.5375 33.63125Q47.50625 33.63125 48.178123 33.13125Q48.865623 32.615623 49.271873 31.506248ZM43.490623 28.662498L49.2875 28.662498Q49.178123 27.365623 48.63125 26.709373Q47.7875 25.693748 46.44375 25.693748Q45.240623 25.693748 44.4125 26.506248Q43.584373 27.303123 43.490623 28.662498ZM59.94375 31.053123L61.6625 31.271873Q61.38125 33.06875 60.209373 34.084373Q59.053123 35.084373 57.35 35.084373Q55.225 35.084373 53.928123 33.69375Q52.63125 32.303123 52.63125 29.709373Q52.63125 28.021873 53.178123 26.771873Q53.740623 25.506248 54.88125 24.881248Q56.021873 24.240623 57.365623 24.240623Q59.053123 24.240623 60.115623 25.099998Q61.19375 25.959373 61.50625 27.521873L59.7875 27.787498Q59.553123 26.740623 58.928123 26.224998Q58.303123 25.693748 57.428123 25.693748Q56.1 25.693748 55.271873 26.646873Q54.44375 27.599998 54.44375 29.646873Q54.44375 31.740623 55.240623 32.69375Q56.0375 33.63125 57.334373 33.63125Q58.365623 33.63125 59.053123 33.00625Q59.75625 32.365623 59.94375 31.053123ZM67.00625 33.271873L67.25625 34.834373Q66.52187 34.990623 65.92812 34.990623Q64.975 34.990623 64.44375 34.69375Q63.928123 34.38125 63.709373 33.896873Q63.490623 33.396873 63.490623 31.818748L63.490623 25.849998L62.209373 25.849998L62.209373 24.474998L63.490623 24.474998L63.490623 21.912498L65.24062 20.849998L65.24062 24.474998L67.00625 24.474998L67.00625 25.849998L65.24062 25.849998L65.24062 31.912498Q65.24062 32.6625 65.33437 32.88125Q65.42812 33.084373 65.63125 33.225Q65.85 33.35 66.24062 33.35Q66.52187 33.35 67.00625 33.271873ZM74.52187 29.662498Q74.52187 26.787498 76.11562 25.396873Q77.45937 24.240623 79.38125 24.240623Q81.52187 24.240623 82.86562 25.646873Q84.225 27.053123 84.225 29.521873Q84.225 31.521873 83.63125 32.678123Q83.0375 33.81875 81.88125 34.459373Q80.74062 35.084373 79.38125 35.084373Q77.19375 35.084373 75.85 33.69375Q74.52187 32.2875 74.52187 29.662498ZM76.31875 29.662498Q76.31875 31.662498 77.17812 32.646873Q78.05312 33.63125 79.38125 33.63125Q80.69375 33.63125 81.55312 32.646873Q82.42812 31.646873 82.42812 29.599998Q82.42812 27.678123 81.55312 26.693748Q80.67812 25.693748 79.38125 25.693748Q78.05312 25.693748 77.17812 26.693748Q76.31875 27.678123 76.31875 29.662498ZM86.58437 34.85L86.58437 25.849998L85.0375 25.849998L85.0375 24.474998L86.58437 24.474998L86.58437 23.381248Q86.58437 22.334373 86.77187 21.818748Q87.02187 21.131248 87.6625 20.709373Q88.30312 20.287498 89.45937 20.287498Q90.20937 20.287498 91.1 20.459373L90.83437 21.990623Q90.2875 21.896873 89.80312 21.896873Q89.00625 21.896873 88.6625 22.240623Q88.33437 22.584373 88.33437 23.521873L88.33437 24.474998L90.36562 24.474998L90.36562 25.849998L88.33437 25.849998L88.33437 34.85L86.58437 34.85ZM98.31875 34.85L98.31875 20.537498L100.20937 20.537498L100.20937 33.1625L107.25625 33.1625L107.25625 34.85L98.31875 34.85ZM115.94375 33.56875Q114.95937 34.396873 114.05312 34.740623Q113.14687 35.084373 112.11562 35.084373Q110.4125 35.084373 109.49062 34.25625Q108.56875 33.4125 108.56875 32.115623Q108.56875 31.349998 108.9125 30.724998Q109.27187 30.099998 109.83437 29.724998Q110.39687 29.334373 111.1 29.131248Q111.61562 29.006248 112.6625 28.865623Q114.7875 28.615623 115.7875 28.271873Q115.80312 27.912498 115.80312 27.803123Q115.80312 26.740623 115.30312 26.287498Q114.63125 25.693748 113.30312 25.693748Q112.05312 25.693748 111.45937 26.131248Q110.88125 26.568748 110.6 27.678123L108.88125 27.443748Q109.11562 26.334373 109.64687 25.662498Q110.17812 24.974998 111.19375 24.615623Q112.20937 24.240623 113.55312 24.240623Q114.88125 24.240623 115.70937 24.553123Q116.5375 24.865623 116.92812 25.349998Q117.31875 25.818748 117.475 26.537498Q117.56875 26.990623 117.56875 28.162498L117.56875 30.506248Q117.56875 32.959373 117.67812 33.615623Q117.7875 34.25625 118.13125 34.85L116.2875 34.85Q116.02187 34.303123 115.94375 33.56875ZM115.7875 29.646873Q114.83437 30.037498 112.9125 30.303123Q111.83437 30.459373 111.38125 30.662498Q110.94375 30.849998 110.69375 31.224998Q110.44375 31.599998 110.44375 32.06875Q110.44375 32.771873 110.975 33.240623Q111.50625 33.709373 112.5375 33.709373Q113.55312 33.709373 114.33437 33.271873Q115.13125 32.81875 115.50625 32.053123Q115.7875 31.443748 115.7875 30.287498L115.7875 29.646873ZM124.00625 33.271873L124.25625 34.834373Q123.52187 34.990623 122.92812 34.990623Q121.975 34.990623 121.44375 34.69375Q120.92812 34.38125 120.70937 33.896873Q120.49062 33.396873 120.49062 31.818748L120.49062 25.849998L119.20937 25.849998L119.20937 24.474998L120.49062 24.474998L120.49062 21.912498L122.24062 20.849998L122.24062 24.474998L124.00625 24.474998L124.00625 25.849998L122.24062 25.849998L122.24062 31.912498Q122.24062 32.6625 122.33437 32.88125Q122.42812 33.084373 122.63125 33.225Q122.85 33.35 123.24062 33.35Q123.52187 33.35 124.00625 33.271873ZM133.27188 31.506248L135.08438 31.740623Q134.6625 33.31875 133.49063 34.209373Q132.33438 35.084373 130.52188 35.084373Q128.25626 35.084373 126.9125 33.69375Q125.58437 32.2875 125.58437 29.756248Q125.58437 27.131248 126.92812 25.693748Q128.27188 24.240623 130.42813 24.240623Q132.50626 24.240623 133.81876 25.662498Q135.14688 27.068748 135.14688 29.646873Q135.14688 29.803123 135.13126 30.115623L127.39687 30.115623Q127.49062 31.818748 128.36563 32.725Q129.24063 33.63125 130.5375 33.63125Q131.50626 33.63125 132.17813 33.13125Q132.86563 32.615623 133.27188 31.506248ZM127.49062 28.662498L133.2875 28.662498Q133.17813 27.365623 132.63126 26.709373Q131.7875 25.693748 130.44376 25.693748Q129.24063 25.693748 128.4125 26.506248Q127.58437 27.303123 127.49062 28.662498ZM137.1625 34.85L137.1625 24.474998L138.75626 24.474998L138.75626 25.959373Q139.89688 24.240623 142.05313 24.240623Q142.99063 24.240623 143.77188 24.584373Q144.56876 24.912498 144.95938 25.459373Q145.35 26.006248 145.50626 26.756248Q145.6 27.256248 145.6 28.474998L145.6 34.85L143.83438 34.85L143.83438 28.537498Q143.83438 27.459373 143.63126 26.928123Q143.42813 26.396873 142.89688 26.084373Q142.38126 25.771873 141.67813 25.771873Q140.55313 25.771873 139.74063 26.490623Q138.92813 27.193748 138.92813 29.178123L138.92813 34.85L137.1625 34.85ZM153.94376 31.053123L155.6625 31.271873Q155.38126 33.06875 154.20938 34.084373Q153.05313 35.084373 151.35 35.084373Q149.225 35.084373 147.92813 33.69375Q146.63126 32.303123 146.63126 29.709373Q146.63126 28.021873 147.17813 26.771873Q147.74063 25.506248 148.88126 24.881248Q150.02188 24.240623 151.36563 24.240623Q153.05313 24.240623 154.11563 25.099998Q155.19376 25.959373 155.50626 27.521873L153.7875 27.787498Q153.55313 26.740623 152.92813 26.224998Q152.30313 25.693748 151.42813 25.693748Q150.1 25.693748 149.27188 26.646873Q148.44376 27.599998 148.44376 29.646873Q148.44376 31.740623 149.24063 32.69375Q150.0375 33.63125 151.33438 33.63125Q152.36563 33.63125 153.05313 33.00625Q153.75626 32.365623 153.94376 31.053123ZM157.08438 38.85L156.89688 37.19375Q157.475 37.35 157.89688 37.35Q158.49063 37.35 158.83438 37.146873Q159.19376 36.959373 159.4125 36.615623Q159.58438 36.35 159.95938 35.303123Q160.00626 35.146873 160.11563 34.865623L156.17813 24.474998L158.06876 24.474998L160.225 30.490623Q160.64688 31.631248 160.975 32.88125Q161.2875 31.678123 161.69376 30.521873L163.9125 24.474998L165.67813 24.474998L161.725 35.021873Q161.1 36.740623 160.74063 37.38125Q160.27188 38.25625 159.6625 38.646873Q159.06876 39.053123 158.225 39.053123Q157.70938 39.053123 157.08438 38.85ZM172.52188 29.662498Q172.52188 26.787498 174.11563 25.396873Q175.45938 24.240623 177.38126 24.240623Q179.52188 24.240623 180.86563 25.646873Q182.225 27.053123 182.225 29.521873Q182.225 31.521873 181.63126 32.678123Q181.0375 33.81875 179.88126 34.459373Q178.74063 35.084373 177.38126 35.084373Q175.19376 35.084373 173.85 33.69375Q172.52188 32.2875 172.52188 29.662498ZM174.31876 29.662498Q174.31876 31.662498 175.17813 32.646873Q176.05313 33.63125 177.38126 33.63125Q178.69376 33.63125 179.55313 32.646873Q180.42813 31.646873 180.42813 29.599998Q180.42813 27.678123 179.55313 26.693748Q178.67813 25.693748 177.38126 25.693748Q176.05313 25.693748 175.17813 26.693748Q174.31876 27.678123 174.31876 29.662498ZM184.1625 34.85L184.1625 24.474998L185.75626 24.474998L185.75626 25.959373Q186.89688 24.240623 189.05313 24.240623Q189.99063 24.240623 190.77188 24.584373Q191.56876 24.912498 191.95938 25.459373Q192.35 26.006248 192.50626 26.756248Q192.6 27.256248 192.6 28.474998L192.6 34.85L190.83438 34.85L190.83438 28.537498Q190.83438 27.459373 190.63126 26.928123Q190.42813 26.396873 189.89688 26.084373Q189.38126 25.771873 188.67813 25.771873Q187.55313 25.771873 186.74063 26.490623Q185.92813 27.193748 185.92813 29.178123L185.92813 34.85L184.1625 34.85ZM200.45938 34.85L200.45938 20.537498L202.35 20.537498L202.35 26.412498L209.7875 26.412498L209.7875 20.537498L211.67813 20.537498L211.67813 34.85L209.7875 34.85L209.7875 28.099998L202.35 28.099998L202.35 34.85L200.45938 34.85ZM217.0375 34.85L217.0375 22.224998L212.31876 22.224998L212.31876 20.537498L223.6625 20.537498L223.6625 22.224998L218.92813 22.224998L218.92813 34.85L217.0375 34.85ZM229.0375 34.85L229.0375 22.224998L224.31876 22.224998L224.31876 20.537498L235.6625 20.537498L235.6625 22.224998L230.92813 22.224998L230.92813 34.85L229.0375 34.85ZM237.39688 34.85L237.39688 20.537498L242.7875 20.537498Q244.225 20.537498 244.975 20.662498Q246.02188 20.849998 246.74063 21.349998Q247.45938 21.834373 247.88126 22.724998Q248.31876 23.615623 248.31876 24.678123Q248.31876 26.506248 247.14688 27.771873Q245.99063 29.021873 242.95938 29.021873L239.2875 29.021873L239.2875 34.85L237.39688 34.85ZM239.2875 27.334373L242.99063 27.334373Q244.81876 27.334373 245.58438 26.662498Q246.36563 25.974998 246.36563 24.724998Q246.36563 23.834373 245.9125 23.193748Q245.45938 22.553123 244.725 22.349998Q244.24063 22.224998 242.94376 22.224998L239.2875 22.224998L239.2875 27.334373ZM248.85 35.1L253.00626 20.287498L254.4125 20.287498L250.27188 35.1L248.85 35.1ZM264.9125 33.1625L264.9125 34.85L255.45938 34.85Q255.44376 34.209373 255.6625 33.63125Q256.02188 32.6625 256.81876 31.724998Q257.61563 30.787498 259.11563 29.553123Q261.45938 27.646873 262.27188 26.537498Q263.1 25.412498 263.1 24.412498Q263.1 23.365623 262.35 22.646873Q261.6 21.928123 260.39688 21.928123Q259.13126 21.928123 258.36563 22.693748Q257.6 23.459373 257.6 24.803123L255.7875 24.615623Q255.975 22.599998 257.17813 21.537498Q258.39688 20.474998 260.44376 20.474998Q262.49063 20.474998 263.69376 21.615623Q264.89688 22.756248 264.89688 24.443748Q264.89688 25.303123 264.5375 26.146873Q264.19376 26.974998 263.38126 27.896873Q262.56876 28.803123 260.67813 30.412498Q259.08438 31.740623 258.63126 32.209373Q258.19376 32.678123 257.89688 33.1625L264.9125 33.1625Z" fill-rule="nonzero"/><path fill="#757575" d="M23.896875 58.85L23.896875 57.5375Q22.9125 59.084373 20.990625 59.084373Q19.75625 59.084373 18.709375 58.396873Q17.678125 57.709373 17.1 56.490623Q16.5375 55.271873 16.5375 53.678123Q16.5375 52.115623 17.053125 50.85Q17.56875 49.584373 18.6 48.9125Q19.646875 48.240623 20.9125 48.240623Q21.85 48.240623 22.584375 48.646873Q23.31875 49.0375 23.7875 49.6625L23.7875 44.5375L25.521875 44.5375L25.521875 58.85L23.896875 58.85ZM18.334375 53.678123Q18.334375 55.6625 19.178125 56.646873Q20.021875 57.63125 21.1625 57.63125Q22.31875 57.63125 23.115625 56.69375Q23.928125 55.75625 23.928125 53.81875Q23.928125 51.69375 23.1 50.69375Q22.2875 49.69375 21.084375 49.69375Q19.9125 49.69375 19.115625 50.6625Q18.334375 51.615623 18.334375 53.678123ZM27.521875 53.6625Q27.521875 50.7875 29.115625 49.396873Q30.459375 48.240623 32.38125 48.240623Q34.521873 48.240623 35.865623 49.646873Q37.225 51.053123 37.225 53.521873Q37.225 55.521873 36.63125 56.678123Q36.0375 57.81875 34.88125 58.459373Q33.740623 59.084373 32.38125 59.084373Q30.19375 59.084373 28.85 57.69375Q27.521875 56.2875 27.521875 53.6625ZM29.31875 53.6625Q29.31875 55.6625 30.178125 56.646873Q31.053125 57.63125 32.38125 57.63125Q33.69375 57.63125 34.553123 56.646873Q35.428123 55.646873 35.428123 53.6Q35.428123 51.678123 34.553123 50.69375Q33.678123 49.69375 32.38125 49.69375Q31.053125 49.69375 30.178125 50.69375Q29.31875 51.678123 29.31875 53.6625ZM41.084373 58.85L37.9125 48.475L39.725 48.475L41.38125 54.459373L41.990623 56.69375Q42.0375 56.521873 42.521873 54.553123L44.178123 48.475L45.990623 48.475L47.5375 54.490623L48.053123 56.475L48.646873 54.475L50.428123 48.475L52.13125 48.475L48.896873 58.85L47.06875 58.85L45.4125 52.63125L45.021873 50.865623L42.9125 58.85L41.084373 58.85ZM54.1625 58.85L54.1625 48.475L55.75625 48.475L55.75625 49.959373Q56.896873 48.240623 59.053123 48.240623Q59.990623 48.240623 60.771873 48.584373Q61.56875 48.9125 61.959373 49.459373Q62.35 50.00625 62.50625 50.75625Q62.6 51.25625 62.6 52.475L62.6 58.85L60.834373 58.85L60.834373 52.5375Q60.834373 51.459373 60.63125 50.928123Q60.428123 50.396873 59.896873 50.084373Q59.38125 49.771873 58.678123 49.771873Q57.553123 49.771873 56.740623 50.490623Q55.928123 51.19375 55.928123 53.178123L55.928123 58.85L54.1625 58.85ZM64.13125 58.85L64.13125 44.5375L65.88125 44.5375L65.88125 58.85L64.13125 58.85ZM67.52187 53.6625Q67.52187 50.7875 69.11562 49.396873Q70.45937 48.240623 72.38125 48.240623Q74.52187 48.240623 75.86562 49.646873Q77.225 51.053123 77.225 53.521873Q77.225 55.521873 76.63125 56.678123Q76.0375 57.81875 74.88125 58.459373Q73.74062 59.084373 72.38125 59.084373Q70.19375 59.084373 68.85 57.69375Q67.52187 56.2875 67.52187 53.6625ZM69.31875 53.6625Q69.31875 55.6625 70.17812 56.646873Q71.05312 57.63125 72.38125 57.63125Q73.69375 57.63125 74.55312 56.646873Q75.42812 55.646873 75.42812 53.6Q75.42812 51.678123 74.55312 50.69375Q73.67812 49.69375 72.38125 49.69375Q71.05312 49.69375 70.17812 50.69375Q69.31875 51.678123 69.31875 53.6625ZM85.94375 57.56875Q84.95937 58.396873 84.05312 58.740623Q83.14687 59.084373 82.11562 59.084373Q80.4125 59.084373 79.49062 58.25625Q78.56875 57.4125 78.56875 56.115623Q78.56875 55.35 78.9125 54.725Q79.27187 54.1 79.83437 53.725Q80.39687 53.334373 81.1 53.13125Q81.61562 53.00625 82.6625 52.865623Q84.7875 52.615623 85.7875 52.271873Q85.80312 51.9125 85.80312 51.803123Q85.80312 50.740623 85.30312 50.2875Q84.63125 49.69375 83.30312 49.69375Q82.05312 49.69375 81.45937 50.13125Q80.88125 50.56875 80.6 51.678123L78.88125 51.44375Q79.11562 50.334373 79.64687 49.6625Q80.17812 48.975 81.19375 48.615623Q82.20937 48.240623 83.55312 48.240623Q84.88125 48.240623 85.70937 48.553123Q86.5375 48.865623 86.92812 49.35Q87.31875 49.81875 87.475 50.5375Q87.56875 50.990623 87.56875 52.1625L87.56875 54.50625Q87.56875 56.959373 87.67812 57.615623Q87.7875 58.25625 88.13125 58.85L86.2875 58.85Q86.02187 58.303123 85.94375 57.56875ZM85.7875 53.646873Q84.83437 54.0375 82.9125 54.303123Q81.83437 54.459373 81.38125 54.6625Q80.94375 54.85 80.69375 55.225Q80.44375 55.6 80.44375 56.06875Q80.44375 56.771873 80.975 57.240623Q81.50625 57.709373 82.5375 57.709373Q83.55312 57.709373 84.33437 57.271873Q85.13125 56.81875 85.50625 56.053123Q85.7875 55.44375 85.7875 54.2875L85.7875 53.646873ZM96.89687 58.85L96.89687 57.5375Q95.9125 59.084373 93.99062 59.084373Q92.75625 59.084373 91.70937 58.396873Q90.67812 57.709373 90.1 56.490623Q89.5375 55.271873 89.5375 53.678123Q89.5375 52.115623 90.05312 50.85Q90.56875 49.584373 91.6 48.9125Q92.64687 48.240623 93.9125 48.240623Q94.85 48.240623 95.58437 48.646873Q96.31875 49.0375 96.7875 49.6625L96.7875 44.5375L98.52187 44.5375L98.52187 58.85L96.89687 58.85ZM91.33437 53.678123Q91.33437 55.6625 92.17812 56.646873Q93.02187 57.63125 94.1625 57.63125Q95.31875 57.63125 96.11562 56.69375Q96.92812 55.75625 96.92812 53.81875Q96.92812 51.69375 96.1 50.69375Q95.2875 49.69375 94.08437 49.69375Q92.9125 49.69375 92.11562 50.6625Q91.33437 51.615623 91.33437 53.678123ZM101.17812 46.553123L101.17812 44.5375L102.94375 44.5375L102.94375 46.553123L101.17812 46.553123ZM101.17812 58.85L101.17812 48.475L102.94375 48.475L102.94375 58.85L101.17812 58.85ZM105.1625 58.85L105.1625 48.475L106.75625 48.475L106.75625 49.959373Q107.89687 48.240623 110.05312 48.240623Q110.99062 48.240623 111.77187 48.584373Q112.56875 48.9125 112.95937 49.459373Q113.35 50.00625 113.50625 50.75625Q113.6 51.25625 113.6 52.475L113.6 58.85L111.83437 58.85L111.83437 52.5375Q111.83437 51.459373 111.63125 50.928123Q111.42812 50.396873 110.89687 50.084373Q110.38125 49.771873 109.67812 49.771873Q108.55312 49.771873 107.74062 50.490623Q106.92812 51.19375 106.92812 53.178123L106.92812 58.85L105.1625 58.85ZM114.85 59.709373L116.55312 59.959373Q116.6625 60.75625 117.14687 61.115623Q117.80312 61.6 118.94375 61.6Q120.1625 61.6 120.81875 61.115623Q121.49062 60.63125 121.725 59.75625Q121.86562 59.209373 121.85 57.490623Q120.69375 58.85 118.975 58.85Q116.83437 58.85 115.6625 57.303123Q114.49062 55.75625 114.49062 53.6Q114.49062 52.115623 115.02187 50.865623Q115.56875 49.615623 116.58437 48.928123Q117.61562 48.240623 118.99062 48.240623Q120.81875 48.240623 122.02187 49.725L122.02187 48.475L123.63125 48.475L123.63125 57.44375Q123.63125 59.865623 123.13125 60.865623Q122.64687 61.88125 121.56875 62.459373Q120.50625 63.053123 118.94375 63.053123Q117.1 63.053123 115.94375 62.225Q114.80312 61.396873 114.85 59.709373ZM116.30312 53.475Q116.30312 55.521873 117.11562 56.459373Q117.92812 57.396873 119.14687 57.396873Q120.35 57.396873 121.1625 56.459373Q121.99062 55.521873 121.99062 53.5375Q121.99062 51.63125 121.14687 50.6625Q120.30312 49.69375 119.11562 49.69375Q117.94375 49.69375 117.11562 50.646873Q116.30312 51.6 116.30312 53.475ZM140.9125 57.1625L140.9125 58.85L131.45938 58.85Q131.44376 58.209373 131.6625 57.63125Q132.02188 56.6625 132.81876 55.725Q133.61563 54.7875 135.11563 53.553123Q137.45938 51.646873 138.27188 50.5375Q139.1 49.4125 139.1 48.4125Q139.1 47.365623 138.35 46.646873Q137.6 45.928123 136.39688 45.928123Q135.13126 45.928123 134.36563 46.69375Q133.6 47.459373 133.6 48.803123L131.7875 48.615623Q131.975 46.6 133.17813 45.5375Q134.39688 44.475 136.44376 44.475Q138.49063 44.475 139.69376 45.615623Q140.89688 46.75625 140.89688 48.44375Q140.89688 49.303123 140.5375 50.146873Q140.19376 50.975 139.38126 51.896873Q138.56876 52.803123 136.67813 54.4125Q135.08438 55.740623 134.63126 56.209373Q134.19376 56.678123 133.89688 57.1625L140.9125 57.1625ZM143.33438 58.85L143.33438 44.5375L146.19376 44.5375L149.56876 54.6625Q150.0375 56.084373 150.25626 56.7875Q150.50626 56.00625 151.02188 54.490623L154.44376 44.5375L156.99063 44.5375L156.99063 58.85L155.17813 58.85L155.17813 46.865623L151.00626 58.85L149.30313 58.85L145.1625 46.6625L145.1625 58.85L143.33438 58.85ZM160.31876 58.85L160.31876 44.5375L165.69376 44.5375Q167.33438 44.5375 168.31876 44.975Q169.30313 45.396873 169.86563 46.303123Q170.42813 47.209373 170.42813 48.19375Q170.42813 49.115623 169.92813 49.928123Q169.44376 50.740623 168.42813 51.225Q169.725 51.615623 170.42813 52.5375Q171.13126 53.44375 171.13126 54.69375Q171.13126 55.709373 170.69376 56.56875Q170.27188 57.428123 169.64688 57.896873Q169.02188 58.365623 168.08438 58.615623Q167.14688 58.85 165.77188 58.85L160.31876 58.85ZM162.20938 50.553123L165.30313 50.553123Q166.56876 50.553123 167.11563 50.38125Q167.83438 50.1625 168.19376 49.678123Q168.56876 49.178123 168.56876 48.4125Q168.56876 47.709373 168.225 47.1625Q167.88126 46.615623 167.24063 46.428123Q166.61563 46.225 165.06876 46.225L162.20938 46.225L162.20938 50.553123ZM162.20938 57.1625L165.77188 57.1625Q166.69376 57.1625 167.06876 57.084373Q167.725 56.975 168.1625 56.709373Q168.6 56.428123 168.88126 55.9125Q169.1625 55.38125 169.1625 54.69375Q169.1625 53.896873 168.75626 53.303123Q168.35 52.709373 167.61563 52.475Q166.88126 52.240623 165.52188 52.240623L162.20938 52.240623L162.20938 57.1625ZM179.58438 58.85L179.58438 49.85L178.0375 49.85L178.0375 48.475L179.58438 48.475L179.58438 47.38125Q179.58438 46.334373 179.77188 45.81875Q180.02188 45.13125 180.6625 44.709373Q181.30313 44.2875 182.45938 44.2875Q183.20938 44.2875 184.1 44.459373L183.83438 45.990623Q183.2875 45.896873 182.80313 45.896873Q182.00626 45.896873 181.6625 46.240623Q181.33438 46.584373 181.33438 47.521873L181.33438 48.475L183.36563 48.475L183.36563 49.85L181.33438 49.85L181.33438 58.85L179.58438 58.85ZM185.17813 46.553123L185.17813 44.5375L186.94376 44.5375L186.94376 46.553123L185.17813 46.553123ZM185.17813 58.85L185.17813 48.475L186.94376 48.475L186.94376 58.85L185.17813 58.85ZM189.13126 58.85L189.13126 44.5375L190.88126 44.5375L190.88126 58.85L189.13126 58.85ZM200.27188 55.50625L202.08438 55.740623Q201.6625 57.31875 200.49063 58.209373Q199.33438 59.084373 197.52188 59.084373Q195.25626 59.084373 193.9125 57.69375Q192.58438 56.2875 192.58438 53.75625Q192.58438 51.13125 193.92813 49.69375Q195.27188 48.240623 197.42813 48.240623Q199.50626 48.240623 200.81876 49.6625Q202.14688 51.06875 202.14688 53.646873Q202.14688 53.803123 202.13126 54.115623L194.39688 54.115623Q194.49063 55.81875 195.36563 56.725Q196.24063 57.63125 197.5375 57.63125Q198.50626 57.63125 199.17813 57.13125Q199.86563 56.615623 200.27188 55.50625ZM194.49063 52.6625L200.2875 52.6625Q200.17813 51.365623 199.63126 50.709373Q198.7875 49.69375 197.44376 49.69375Q196.24063 49.69375 195.4125 50.50625Q194.58438 51.303123 194.49063 52.6625Z" fill-rule="nonzero"/></svg>