<svg version="1.1" viewBox="0.0 0.0 324.0 371.0" fill="none" stroke="none" stroke-linecap="square" stroke-miterlimit="10" width="324" height="371" xmlns:xlink="http://www.w3.org/1999/xlink" xmlns="http://www.w3.org/2000/svg"><path fill="#ffffff" d="M0 0L324.0 0L324.0 371.0L0 371.0L0 0Z" fill-rule="nonzero"/><path stroke="#333333" stroke-width="1.0" stroke-linecap="butt" d="M16.5 75.5L16.5 334.5" fill-rule="nonzero"/><path stroke="#cccccc" stroke-width="1.0" stroke-linecap="butt" d="M64.5 75.5L64.5 334.5" fill-rule="nonzero"/><path stroke="#cccccc" stroke-width="1.0" stroke-linecap="butt" d="M113.5 75.5L113.5 334.5" fill-rule="nonzero"/><path stroke="#cccccc" stroke-width="1.0" stroke-linecap="butt" d="M162.5 75.5L162.5 334.5" fill-rule="nonzero"/><path stroke="#cccccc" stroke-width="1.0" stroke-linecap="butt" d="M210.5 75.5L210.5 334.5" fill-rule="nonzero"/><path stroke="#cccccc" stroke-width="1.0" stroke-linecap="butt" d="M259.5 75.5L259.5 334.5" fill-rule="nonzero"/><path stroke="#cccccc" stroke-width="1.0" stroke-linecap="butt" d="M307.5 75.5L307.5 334.5" fill-rule="nonzero"/><clipPath id="id_0"><path d="M16.2 75.0L307.8 75.0L307.8 334.8L16.2 334.8L16.2 75.0Z" clip-rule="nonzero"/></clipPath><path stroke="#000000" stroke-width="2.0" stroke-linecap="butt" stroke-opacity="0.0" clip-path="url(#id_0)" d="M16.0 307.0L16.0 257.0L37.0 257.0C38.10457 257.0 39.0 257.89542 39.0 259.0L39.0 305.0C39.0 306.10458 38.10457 307.0 37.0 307.0Z" fill-rule="nonzero"/><path fill="#ea4335" clip-path="url(#id_0)" d="M16.0 307.0L16.0 257.0L37.0 257.0C38.10457 257.0 39.0 257.89542 39.0 259.0L39.0 305.0C39.0 306.10458 38.10457 307.0 37.0 307.0Z" fill-rule="nonzero"/><path stroke="#000000" stroke-width="2.0" stroke-linecap="butt" stroke-opacity="0.0" clip-path="url(#id_0)" d="M16.0 230.0L16.0 180.0L176.0 180.0C177.10457 180.0 178.0 180.89543 178.0 182.0L178.0 228.0C178.0 229.10457 177.10457 230.0 176.0 230.0Z" fill-rule="nonzero"/><path fill="#ea4335" clip-path="url(#id_0)" d="M16.0 230.0L16.0 180.0L176.0 180.0C177.10457 180.0 178.0 180.89543 178.0 182.0L178.0 228.0C178.0 229.10457 177.10457 230.0 176.0 230.0Z" fill-rule="nonzero"/><path stroke="#000000" stroke-width="2.0" stroke-linecap="butt" stroke-opacity="0.0" clip-path="url(#id_0)" d="M16.0 152.0L16.0 102.0L287.0 102.0C288.10458 102.0 289.0 102.89543 289.0 104.0L289.0 150.0C289.0 151.10457 288.10458 152.0 287.0 152.0Z" fill-rule="nonzero"/><path fill="#ea4335" clip-path="url(#id_0)" d="M16.0 152.0L16.0 102.0L287.0 102.0C288.10458 102.0 289.0 102.89543 289.0 104.0L289.0 150.0C289.0 151.10457 288.10458 152.0 287.0 152.0Z" fill-rule="nonzero"/><path stroke="#ffffff" stroke-width="3.0" stroke-linejoin="round" stroke-linecap="round" d="M58.158463 286.5L57.033463 286.5L57.033463 282.5625L52.720963 282.5625L52.720963 286.5L51.595963 286.5L51.595963 277.96875L52.720963 277.96875L52.720963 281.64062L57.033463 281.64062L57.033463 277.96875L58.158463 277.96875L58.158463 286.5ZM66.50221 278.89062L63.752213 278.89062L63.752213 286.5L62.642838 286.5L62.642838 278.89062L59.892838 278.89062L59.892838 277.96875L66.50221 277.96875L66.50221 278.89062ZM73.50221 278.89062L70.75221 278.89062L70.75221 286.5L69.64284 286.5L69.64284 278.89062L66.89284 278.89062L66.89284 277.96875L73.50221 277.96875L73.50221 278.89062ZM75.72096 283.15625L75.72096 286.5L74.59596 286.5L74.59596 277.96875L77.75221 277.96875Q79.14284 277.96875 79.93971 278.6875Q80.73659 279.39062 80.73659 280.57812Q80.73659 281.8125 79.95534 282.48438Q79.18971 283.15625 77.73659 283.15625L75.72096 283.15625ZM75.72096 282.23438L77.75221 282.23438Q78.65846 282.23438 79.12721 281.8125Q79.61159 281.39062 79.61159 280.59375Q79.61159 279.82812 79.12721 279.375Q78.65846 278.90625 77.81471 278.89062L75.72096 278.89062L75.72096 282.23438ZM82.64284 287.23438L81.72096 287.23438L85.28346 277.96875L86.20534 277.96875L82.64284 287.23438ZM88.89284 281.70312L89.70534 281.70312Q90.48659 281.6875 90.92409 281.29688Q91.36159 280.90625 91.36159 280.23438Q91.36159 278.73438 89.86159 278.73438Q89.15846 278.73438 88.73659 279.14062Q88.33034 279.54688 88.33034 280.20312L87.23659 280.20312Q87.23659 279.1875 87.97096 278.51562Q88.72096 277.84375 89.86159 277.84375Q91.06471 277.84375 91.75221 278.48438Q92.43971 279.125 92.43971 280.26562Q92.43971 280.82812 92.08034 281.34375Q91.72096 281.85938 91.09596 282.125Q91.79909 282.34375 92.17409 282.85938Q92.56471 283.375 92.56471 284.125Q92.56471 285.26562 91.81471 285.95312Q91.06471 286.625 89.86159 286.625Q88.67409 286.625 87.90846 285.96875Q87.15846 285.3125 87.15846 284.25L88.25221 284.25Q88.25221 284.92188 88.68971 285.32812Q89.12721 285.73438 89.87721 285.73438Q90.65846 285.73438 91.06471 285.32812Q91.48659 284.90625 91.48659 284.14062Q91.48659 283.40625 91.03346 283.01562Q90.58034 282.60938 89.70534 282.59375L88.89284 282.59375L88.89284 281.70312ZM102.90846 286.5L97.31471 286.5L97.31471 285.71875L100.26784 282.4375Q100.92409 281.6875 101.17409 281.23438Q101.42409 280.76562 101.42409 280.26562Q101.42409 279.59375 101.01784 279.17188Q100.62721 278.73438 99.93971 278.73438Q99.14284 278.73438 98.68971 279.20312Q98.23659 279.65625 98.23659 280.48438L97.15846 280.48438Q97.15846 279.29688 97.90846 278.57812Q98.67409 277.84375 99.93971 277.84375Q101.14284 277.84375 101.83034 278.46875Q102.51784 279.09375 102.51784 280.14062Q102.51784 281.39062 100.90846 283.14062L98.62721 285.60938L102.90846 285.60938L102.90846 286.5ZM105.89284 281.70312L106.70534 281.70312Q107.48659 281.6875 107.92409 281.29688Q108.36159 280.90625 108.36159 280.23438Q108.36159 278.73438 106.86159 278.73438Q106.15846 278.73438 105.73659 279.14062Q105.33034 279.54688 105.33034 280.20312L104.23659 280.20312Q104.23659 279.1875 104.97096 278.51562Q105.72096 277.84375 106.86159 277.84375Q108.06471 277.84375 108.75221 278.48438Q109.43971 279.125 109.43971 280.26562Q109.43971 280.82812 109.08034 281.34375Q108.72096 281.85938 108.09596 282.125Q108.79909 282.34375 109.17409 282.85938Q109.56471 283.375 109.56471 284.125Q109.56471 285.26562 108.81471 285.95312Q108.06471 286.625 106.86159 286.625Q105.67409 286.625 104.90846 285.96875Q104.15846 285.3125 104.15846 284.25L105.25221 284.25Q105.25221 284.92188 105.68971 285.32812Q106.12721 285.73438 106.87721 285.73438Q107.65846 285.73438 108.06471 285.32812Q108.48659 284.90625 108.48659 284.14062Q108.48659 283.40625 108.03346 283.01562Q107.58034 282.60938 106.70534 282.59375L105.89284 282.59375L105.89284 281.70312ZM112.45534 280.15625L112.48659 280.85938Q113.17409 280.04688 114.36159 280.04688Q115.68971 280.04688 116.17409 281.0625Q116.48659 280.60938 116.98659 280.32812Q117.50221 280.04688 118.18971 280.04688Q120.28346 280.04688 120.31471 282.25L120.31471 286.5L119.23659 286.5L119.23659 282.3125Q119.23659 281.64062 118.92409 281.3125Q118.61159 280.96875 117.87721 280.96875Q117.26784 280.96875 116.86159 281.32812Q116.47096 281.6875 116.40846 282.29688L116.40846 286.5L115.33034 286.5L115.33034 282.34375Q115.33034 280.96875 113.97096 280.96875Q112.90846 280.96875 112.51784 281.875L112.51784 286.5L111.42409 286.5L111.42409 280.15625L112.45534 280.15625ZM126.12721 284.8125Q126.12721 284.375 125.78346 284.14062Q125.45534 283.89062 124.62721 283.71875Q123.81471 283.54688 123.33034 283.29688Q122.84596 283.04688 122.61159 282.71875Q122.39284 282.375 122.39284 281.90625Q122.39284 281.125 123.04909 280.59375Q123.70534 280.04688 124.73659 280.04688Q125.81471 280.04688 126.47096 280.60938Q127.14284 281.15625 127.14284 282.01562L126.06471 282.01562Q126.06471 281.57812 125.67409 281.26562Q125.29909 280.9375 124.73659 280.9375Q124.14284 280.9375 123.79909 281.20312Q123.47096 281.45312 123.47096 281.85938Q123.47096 282.25 123.78346 282.45312Q124.09596 282.65625 124.90846 282.84375Q125.72096 283.01562 126.22096 283.26562Q126.72096 283.51562 126.95534 283.875Q127.20534 284.23438 127.20534 284.73438Q127.20534 285.59375 126.51784 286.10938Q125.84596 286.625 124.76784 286.625Q124.00221 286.625 123.40846 286.35938Q122.83034 286.07812 122.50221 285.59375Q122.17409 285.10938 122.17409 284.54688L123.25221 284.54688Q123.28346 285.09375 123.68971 285.42188Q124.09596 285.73438 124.76784 285.73438Q125.37721 285.73438 125.75221 285.48438Q126.12721 285.23438 126.12721 284.8125ZM132.72096 283.15625L132.72096 286.5L131.59596 286.5L131.59596 277.96875L134.75221 277.96875Q136.14284 277.96875 136.93971 278.6875Q137.73659 279.39062 137.73659 280.57812Q137.73659 281.8125 136.95534 282.48438Q136.18971 283.15625 134.73659 283.15625L132.72096 283.15625ZM132.72096 282.23438L134.75221 282.23438Q135.65846 282.23438 136.12721 281.8125Q136.61159 281.39062 136.61159 280.59375Q136.61159 279.82812 136.12721 279.375Q135.65846 278.90625 134.81471 278.89062L132.72096 278.89062L132.72096 282.23438ZM140.61159 286.5L139.53346 286.5L139.53346 280.15625L140.61159 280.15625L140.61159 286.5ZM139.43971 278.48438Q139.43971 278.21875 139.59596 278.03125Q139.76784 277.84375 140.08034 277.84375Q140.39284 277.84375 140.54909 278.03125Q140.72096 278.21875 140.72096 278.48438Q140.72096 278.73438 140.54909 278.92188Q140.39284 279.09375 140.08034 279.09375Q139.76784 279.09375 139.59596 278.92188Q139.43971 278.73438 139.43971 278.48438ZM143.45534 280.15625L143.48659 280.95312Q144.22096 280.04688 145.39284 280.04688Q147.40846 280.04688 147.42409 282.3125L147.42409 286.5L146.33034 286.5L146.33034 282.29688Q146.33034 281.625 146.01784 281.29688Q145.72096 280.96875 145.06471 280.96875Q144.53346 280.96875 144.12721 281.25Q143.73659 281.53125 143.51784 281.98438L143.51784 286.5L142.43971 286.5L142.43971 280.15625L143.45534 280.15625ZM149.17409 283.28125Q149.17409 281.79688 149.86159 280.92188Q150.54909 280.04688 151.67409 280.04688Q152.83034 280.04688 153.48659 280.85938L153.53346 280.15625L154.53346 280.15625L154.53346 286.34375Q154.53346 287.57812 153.79909 288.28125Q153.06471 289.0 151.84596 289.0Q151.15846 289.0 150.50221 288.70312Q149.84596 288.40625 149.50221 287.90625L150.06471 287.25Q150.75221 288.10938 151.76784 288.10938Q152.54909 288.10938 152.98659 287.65625Q153.43971 287.21875 153.43971 286.40625L153.43971 285.85938Q152.78346 286.625 151.65846 286.625Q150.54909 286.625 149.86159 285.73438Q149.17409 284.82812 149.17409 283.28125ZM150.26784 283.40625Q150.26784 284.46875 150.70534 285.09375Q151.14284 285.70312 151.93971 285.70312Q152.95534 285.70312 153.43971 284.76562L153.43971 281.875Q152.93971 280.96875 151.93971 280.96875Q151.15846 280.96875 150.70534 281.57812Q150.26784 282.1875 150.26784 283.40625Z" fill-rule="nonzero"/><path fill="#ea4335" d="M58.158463 286.5L57.033463 286.5L57.033463 282.5625L52.720963 282.5625L52.720963 286.5L51.595963 286.5L51.595963 277.96875L52.720963 277.96875L52.720963 281.64062L57.033463 281.64062L57.033463 277.96875L58.158463 277.96875L58.158463 286.5ZM66.50221 278.89062L63.752213 278.89062L63.752213 286.5L62.642838 286.5L62.642838 278.89062L59.892838 278.89062L59.892838 277.96875L66.50221 277.96875L66.50221 278.89062ZM73.50221 278.89062L70.75221 278.89062L70.75221 286.5L69.64284 286.5L69.64284 278.89062L66.89284 278.89062L66.89284 277.96875L73.50221 277.96875L73.50221 278.89062ZM75.72096 283.15625L75.72096 286.5L74.59596 286.5L74.59596 277.96875L77.75221 277.96875Q79.14284 277.96875 79.93971 278.6875Q80.73659 279.39062 80.73659 280.57812Q80.73659 281.8125 79.95534 282.48438Q79.18971 283.15625 77.73659 283.15625L75.72096 283.15625ZM75.72096 282.23438L77.75221 282.23438Q78.65846 282.23438 79.12721 281.8125Q79.61159 281.39062 79.61159 280.59375Q79.61159 279.82812 79.12721 279.375Q78.65846 278.90625 77.81471 278.89062L75.72096 278.89062L75.72096 282.23438ZM82.64284 287.23438L81.72096 287.23438L85.28346 277.96875L86.20534 277.96875L82.64284 287.23438ZM88.89284 281.70312L89.70534 281.70312Q90.48659 281.6875 90.92409 281.29688Q91.36159 280.90625 91.36159 280.23438Q91.36159 278.73438 89.86159 278.73438Q89.15846 278.73438 88.73659 279.14062Q88.33034 279.54688 88.33034 280.20312L87.23659 280.20312Q87.23659 279.1875 87.97096 278.51562Q88.72096 277.84375 89.86159 277.84375Q91.06471 277.84375 91.75221 278.48438Q92.43971 279.125 92.43971 280.26562Q92.43971 280.82812 92.08034 281.34375Q91.72096 281.85938 91.09596 282.125Q91.79909 282.34375 92.17409 282.85938Q92.56471 283.375 92.56471 284.125Q92.56471 285.26562 91.81471 285.95312Q91.06471 286.625 89.86159 286.625Q88.67409 286.625 87.90846 285.96875Q87.15846 285.3125 87.15846 284.25L88.25221 284.25Q88.25221 284.92188 88.68971 285.32812Q89.12721 285.73438 89.87721 285.73438Q90.65846 285.73438 91.06471 285.32812Q91.48659 284.90625 91.48659 284.14062Q91.48659 283.40625 91.03346 283.01562Q90.58034 282.60938 89.70534 282.59375L88.89284 282.59375L88.89284 281.70312ZM102.90846 286.5L97.31471 286.5L97.31471 285.71875L100.26784 282.4375Q100.92409 281.6875 101.17409 281.23438Q101.42409 280.76562 101.42409 280.26562Q101.42409 279.59375 101.01784 279.17188Q100.62721 278.73438 99.93971 278.73438Q99.14284 278.73438 98.68971 279.20312Q98.23659 279.65625 98.23659 280.48438L97.15846 280.48438Q97.15846 279.29688 97.90846 278.57812Q98.67409 277.84375 99.93971 277.84375Q101.14284 277.84375 101.83034 278.46875Q102.51784 279.09375 102.51784 280.14062Q102.51784 281.39062 100.90846 283.14062L98.62721 285.60938L102.90846 285.60938L102.90846 286.5ZM105.89284 281.70312L106.70534 281.70312Q107.48659 281.6875 107.92409 281.29688Q108.36159 280.90625 108.36159 280.23438Q108.36159 278.73438 106.86159 278.73438Q106.15846 278.73438 105.73659 279.14062Q105.33034 279.54688 105.33034 280.20312L104.23659 280.20312Q104.23659 279.1875 104.97096 278.51562Q105.72096 277.84375 106.86159 277.84375Q108.06471 277.84375 108.75221 278.48438Q109.43971 279.125 109.43971 280.26562Q109.43971 280.82812 109.08034 281.34375Q108.72096 281.85938 108.09596 282.125Q108.79909 282.34375 109.17409 282.85938Q109.56471 283.375 109.56471 284.125Q109.56471 285.26562 108.81471 285.95312Q108.06471 286.625 106.86159 286.625Q105.67409 286.625 104.90846 285.96875Q104.15846 285.3125 104.15846 284.25L105.25221 284.25Q105.25221 284.92188 105.68971 285.32812Q106.12721 285.73438 106.87721 285.73438Q107.65846 285.73438 108.06471 285.32812Q108.48659 284.90625 108.48659 284.14062Q108.48659 283.40625 108.03346 283.01562Q107.58034 282.60938 106.70534 282.59375L105.89284 282.59375L105.89284 281.70312ZM112.45534 280.15625L112.48659 280.85938Q113.17409 280.04688 114.36159 280.04688Q115.68971 280.04688 116.17409 281.0625Q116.48659 280.60938 116.98659 280.32812Q117.50221 280.04688 118.18971 280.04688Q120.28346 280.04688 120.31471 282.25L120.31471 286.5L119.23659 286.5L119.23659 282.3125Q119.23659 281.64062 118.92409 281.3125Q118.61159 280.96875 117.87721 280.96875Q117.26784 280.96875 116.86159 281.32812Q116.47096 281.6875 116.40846 282.29688L116.40846 286.5L115.33034 286.5L115.33034 282.34375Q115.33034 280.96875 113.97096 280.96875Q112.90846 280.96875 112.51784 281.875L112.51784 286.5L111.42409 286.5L111.42409 280.15625L112.45534 280.15625ZM126.12721 284.8125Q126.12721 284.375 125.78346 284.14062Q125.45534 283.89062 124.62721 283.71875Q123.81471 283.54688 123.33034 283.29688Q122.84596 283.04688 122.61159 282.71875Q122.39284 282.375 122.39284 281.90625Q122.39284 281.125 123.04909 280.59375Q123.70534 280.04688 124.73659 280.04688Q125.81471 280.04688 126.47096 280.60938Q127.14284 281.15625 127.14284 282.01562L126.06471 282.01562Q126.06471 281.57812 125.67409 281.26562Q125.29909 280.9375 124.73659 280.9375Q124.14284 280.9375 123.79909 281.20312Q123.47096 281.45312 123.47096 281.85938Q123.47096 282.25 123.78346 282.45312Q124.09596 282.65625 124.90846 282.84375Q125.72096 283.01562 126.22096 283.26562Q126.72096 283.51562 126.95534 283.875Q127.20534 284.23438 127.20534 284.73438Q127.20534 285.59375 126.51784 286.10938Q125.84596 286.625 124.76784 286.625Q124.00221 286.625 123.40846 286.35938Q122.83034 286.07812 122.50221 285.59375Q122.17409 285.10938 122.17409 284.54688L123.25221 284.54688Q123.28346 285.09375 123.68971 285.42188Q124.09596 285.73438 124.76784 285.73438Q125.37721 285.73438 125.75221 285.48438Q126.12721 285.23438 126.12721 284.8125ZM132.72096 283.15625L132.72096 286.5L131.59596 286.5L131.59596 277.96875L134.75221 277.96875Q136.14284 277.96875 136.93971 278.6875Q137.73659 279.39062 137.73659 280.57812Q137.73659 281.8125 136.95534 282.48438Q136.18971 283.15625 134.73659 283.15625L132.72096 283.15625ZM132.72096 282.23438L134.75221 282.23438Q135.65846 282.23438 136.12721 281.8125Q136.61159 281.39062 136.61159 280.59375Q136.61159 279.82812 136.12721 279.375Q135.65846 278.90625 134.81471 278.89062L132.72096 278.89062L132.72096 282.23438ZM140.61159 286.5L139.53346 286.5L139.53346 280.15625L140.61159 280.15625L140.61159 286.5ZM139.43971 278.48438Q139.43971 278.21875 139.59596 278.03125Q139.76784 277.84375 140.08034 277.84375Q140.39284 277.84375 140.54909 278.03125Q140.72096 278.21875 140.72096 278.48438Q140.72096 278.73438 140.54909 278.92188Q140.39284 279.09375 140.08034 279.09375Q139.76784 279.09375 139.59596 278.92188Q139.43971 278.73438 139.43971 278.48438ZM143.45534 280.15625L143.48659 280.95312Q144.22096 280.04688 145.39284 280.04688Q147.40846 280.04688 147.42409 282.3125L147.42409 286.5L146.33034 286.5L146.33034 282.29688Q146.33034 281.625 146.01784 281.29688Q145.72096 280.96875 145.06471 280.96875Q144.53346 280.96875 144.12721 281.25Q143.73659 281.53125 143.51784 281.98438L143.51784 286.5L142.43971 286.5L142.43971 280.15625L143.45534 280.15625ZM149.17409 283.28125Q149.17409 281.79688 149.86159 280.92188Q150.54909 280.04688 151.67409 280.04688Q152.83034 280.04688 153.48659 280.85938L153.53346 280.15625L154.53346 280.15625L154.53346 286.34375Q154.53346 287.57812 153.79909 288.28125Q153.06471 289.0 151.84596 289.0Q151.15846 289.0 150.50221 288.70312Q149.84596 288.40625 149.50221 287.90625L150.06471 287.25Q150.75221 288.10938 151.76784 288.10938Q152.54909 288.10938 152.98659 287.65625Q153.43971 287.21875 153.43971 286.40625L153.43971 285.85938Q152.78346 286.625 151.65846 286.625Q150.54909 286.625 149.86159 285.73438Q149.17409 284.82812 149.17409 283.28125ZM150.26784 283.40625Q150.26784 284.46875 150.70534 285.09375Q151.14284 285.70312 151.93971 285.70312Q152.95534 285.70312 153.43971 284.76562L153.43971 281.875Q152.93971 280.96875 151.93971 280.96875Q151.15846 280.96875 150.70534 281.57812Q150.26784 282.1875 150.26784 283.40625Z" fill-rule="nonzero"/><path stroke="#ea4335" stroke-width="3.0" stroke-linejoin="round" stroke-linecap="round" d="M68.784004 209.5L67.659004 209.5L67.659004 205.5625L63.346504 205.5625L63.346504 209.5L62.221504 209.5L62.221504 200.96875L63.346504 200.96875L63.346504 204.64062L67.659004 204.64062L67.659004 200.96875L68.784004 200.96875L68.784004 209.5ZM77.127754 201.89062L74.377754 201.89062L74.377754 209.5L73.26838 209.5L73.26838 201.89062L70.51838 201.89062L70.51838 200.96875L77.127754 200.96875L77.127754 201.89062ZM84.127754 201.89062L81.377754 201.89062L81.377754 209.5L80.26838 209.5L80.26838 201.89062L77.51838 201.89062L77.51838 200.96875L84.127754 200.96875L84.127754 201.89062ZM86.346504 206.15625L86.346504 209.5L85.221504 209.5L85.221504 200.96875L88.377754 200.96875Q89.76838 200.96875 90.565254 201.6875Q91.36213 202.39062 91.36213 203.57812Q91.36213 204.8125 90.58088 205.48438Q89.815254 206.15625 88.36213 206.15625L86.346504 206.15625ZM86.346504 205.23438L88.377754 205.23438Q89.284004 205.23438 89.752754 204.8125Q90.23713 204.39062 90.23713 203.59375Q90.23713 202.82812 89.752754 202.375Q89.284004 201.90625 88.440254 201.89062L86.346504 201.89062L86.346504 205.23438ZM93.26838 210.23438L92.346504 210.23438L95.909004 200.96875L96.83088 200.96875L93.26838 210.23438ZM99.51838 204.70312L100.33088 204.70312Q101.11213 204.6875 101.54963 204.29688Q101.98713 203.90625 101.98713 203.23438Q101.98713 201.73438 100.48713 201.73438Q99.784004 201.73438 99.36213 202.14062Q98.95588 202.54688 98.95588 203.20312L97.86213 203.20312Q97.86213 202.1875 98.596504 201.51562Q99.346504 200.84375 100.48713 200.84375Q101.690254 200.84375 102.377754 201.48438Q103.065254 202.125 103.065254 203.26562Q103.065254 203.82812 102.70588 204.34375Q102.346504 204.85938 101.721504 205.125Q102.42463 205.34375 102.79963 205.85938Q103.190254 206.375 103.190254 207.125Q103.190254 208.26562 102.440254 208.95312Q101.690254 209.625 100.48713 209.625Q99.29963 209.625 98.534004 208.96875Q97.784004 208.3125 97.784004 207.25L98.877754 207.25Q98.877754 207.92188 99.315254 208.32812Q99.752754 208.73438 100.502754 208.73438Q101.284004 208.73438 101.690254 208.32812Q102.11213 207.90625 102.11213 207.14062Q102.11213 206.40625 101.659004 206.01562Q101.20588 205.60938 100.33088 205.59375L99.51838 205.59375L99.51838 204.70312ZM111.502754 209.5L110.42463 209.5L110.42463 202.28125L108.23713 203.07812L108.23713 202.09375L111.346504 200.92188L111.502754 200.92188L111.502754 209.5ZM120.534004 209.5L114.940254 209.5L114.940254 208.71875L117.89338 205.4375Q118.54963 204.6875 118.79963 204.23438Q119.04963 203.76562 119.04963 203.26562Q119.04963 202.59375 118.64338 202.17188Q118.252754 201.73438 117.565254 201.73438Q116.76838 201.73438 116.315254 202.20312Q115.86213 202.65625 115.86213 203.48438L114.784004 203.48438Q114.784004 202.29688 115.534004 201.57812Q116.29963 200.84375 117.565254 200.84375Q118.76838 200.84375 119.45588 201.46875Q120.14338 202.09375 120.14338 203.14062Q120.14338 204.39062 118.534004 206.14062L116.252754 208.60938L120.534004 208.60938L120.534004 209.5ZM123.51838 204.70312L124.33088 204.70312Q125.11213 204.6875 125.54963 204.29688Q125.98713 203.90625 125.98713 203.23438Q125.98713 201.73438 124.48713 201.73438Q123.784004 201.73438 123.36213 202.14062Q122.95588 202.54688 122.95588 203.20312L121.86213 203.20312Q121.86213 202.1875 122.596504 201.51562Q123.346504 200.84375 124.48713 200.84375Q125.690254 200.84375 126.377754 201.48438Q127.065254 202.125 127.065254 203.26562Q127.065254 203.82812 126.70588 204.34375Q126.346504 204.85938 125.721504 205.125Q126.42463 205.34375 126.79963 205.85938Q127.190254 206.375 127.190254 207.125Q127.190254 208.26562 126.440254 208.95312Q125.690254 209.625 124.48713 209.625Q123.29963 209.625 122.534004 208.96875Q121.784004 208.3125 121.784004 207.25L122.877754 207.25Q122.877754 207.92188 123.315254 208.32812Q123.752754 208.73438 124.502754 208.73438Q125.284004 208.73438 125.690254 208.32812Q126.11213 207.90625 126.11213 207.14062Q126.11213 206.40625 125.659004 206.01562Q125.20588 205.60938 124.33088 205.59375L123.51838 205.59375L123.51838 204.70312ZM130.08087 203.15625L130.11212 203.85938Q130.79962 203.04688 131.98712 203.04688Q133.31525 203.04688 133.79962 204.0625Q134.11212 203.60938 134.61212 203.32812Q135.12775 203.04688 135.81525 203.04688Q137.909 203.04688 137.94025 205.25L137.94025 209.5L136.86212 209.5L136.86212 205.3125Q136.86212 204.64062 136.54962 204.3125Q136.23712 203.96875 135.50275 203.96875Q134.89337 203.96875 134.48712 204.32812Q134.0965 204.6875 134.034 205.29688L134.034 209.5L132.95587 209.5L132.95587 205.34375Q132.95587 203.96875 131.5965 203.96875Q130.534 203.96875 130.14337 204.875L130.14337 209.5L129.04962 209.5L129.04962 203.15625L130.08087 203.15625ZM143.75275 207.8125Q143.75275 207.375 143.409 207.14062Q143.08087 206.89062 142.25275 206.71875Q141.44025 206.54688 140.95587 206.29688Q140.4715 206.04688 140.23712 205.71875Q140.01837 205.375 140.01837 204.90625Q140.01837 204.125 140.67462 203.59375Q141.33087 203.04688 142.36212 203.04688Q143.44025 203.04688 144.0965 203.60938Q144.76837 204.15625 144.76837 205.01562L143.69025 205.01562Q143.69025 204.57812 143.29962 204.26562Q142.92462 203.9375 142.36212 203.9375Q141.76837 203.9375 141.42462 204.20312Q141.0965 204.45312 141.0965 204.85938Q141.0965 205.25 141.409 205.45312Q141.7215 205.65625 142.534 205.84375Q143.3465 206.01562 143.8465 206.26562Q144.3465 206.51562 144.58087 206.875Q144.83087 207.23438 144.83087 207.73438Q144.83087 208.59375 144.14337 209.10938Q143.4715 209.625 142.39337 209.625Q141.62775 209.625 141.034 209.35938Q140.45587 209.07812 140.12775 208.59375Q139.79962 208.10938 139.79962 207.54688L140.87775 207.54688Q140.909 208.09375 141.31525 208.42188Q141.7215 208.73438 142.39337 208.73438Q143.00275 208.73438 143.37775 208.48438Q143.75275 208.23438 143.75275 207.8125ZM150.3465 206.15625L150.3465 209.5L149.2215 209.5L149.2215 200.96875L152.37775 200.96875Q153.76837 200.96875 154.56525 201.6875Q155.36212 202.39062 155.36212 203.57812Q155.36212 204.8125 154.58087 205.48438Q153.81525 206.15625 152.36212 206.15625L150.3465 206.15625ZM150.3465 205.23438L152.37775 205.23438Q153.284 205.23438 153.75275 204.8125Q154.23712 204.39062 154.23712 203.59375Q154.23712 202.82812 153.75275 202.375Q153.284 201.90625 152.44025 201.89062L150.3465 201.89062L150.3465 205.23438ZM158.23712 209.5L157.159 209.5L157.159 203.15625L158.23712 203.15625L158.23712 209.5ZM157.06525 201.48438Q157.06525 201.21875 157.2215 201.03125Q157.39337 200.84375 157.70587 200.84375Q158.01837 200.84375 158.17462 201.03125Q158.3465 201.21875 158.3465 201.48438Q158.3465 201.73438 158.17462 201.92188Q158.01837 202.09375 157.70587 202.09375Q157.39337 202.09375 157.2215 201.92188Q157.06525 201.73438 157.06525 201.48438ZM161.08087 203.15625L161.11212 203.95312Q161.8465 203.04688 163.01837 203.04688Q165.034 203.04688 165.04962 205.3125L165.04962 209.5L163.95587 209.5L163.95587 205.29688Q163.95587 204.625 163.64337 204.29688Q163.3465 203.96875 162.69025 203.96875Q162.159 203.96875 161.75275 204.25Q161.36212 204.53125 161.14337 204.98438L161.14337 209.5L160.06525 209.5L160.06525 203.15625L161.08087 203.15625ZM166.79962 206.28125Q166.79962 204.79688 167.48712 203.92188Q168.17462 203.04688 169.29962 203.04688Q170.45587 203.04688 171.11212 203.85938L171.159 203.15625L172.159 203.15625L172.159 209.34375Q172.159 210.57812 171.42462 211.28125Q170.69025 212.0 169.4715 212.0Q168.784 212.0 168.12775 211.70312Q167.4715 211.40625 167.12775 210.90625L167.69025 210.25Q168.37775 211.10938 169.39337 211.10938Q170.17462 211.10938 170.61212 210.65625Q171.06525 210.21875 171.06525 209.40625L171.06525 208.85938Q170.409 209.625 169.284 209.625Q168.17462 209.625 167.48712 208.73438Q166.79962 207.82812 166.79962 206.28125ZM167.89337 206.40625Q167.89337 207.46875 168.33087 208.09375Q168.76837 208.70312 169.56525 208.70312Q170.58087 208.70312 171.06525 207.76562L171.06525 204.875Q170.56525 203.96875 169.56525 203.96875Q168.784 203.96875 168.33087 204.57812Q167.89337 205.1875 167.89337 206.40625Z" fill-rule="nonzero"/><path fill="#ffffff" d="M68.784004 209.5L67.659004 209.5L67.659004 205.5625L63.346504 205.5625L63.346504 209.5L62.221504 209.5L62.221504 200.96875L63.346504 200.96875L63.346504 204.64062L67.659004 204.64062L67.659004 200.96875L68.784004 200.96875L68.784004 209.5ZM77.127754 201.89062L74.377754 201.89062L74.377754 209.5L73.26838 209.5L73.26838 201.89062L70.51838 201.89062L70.51838 200.96875L77.127754 200.96875L77.127754 201.89062ZM84.127754 201.89062L81.377754 201.89062L81.377754 209.5L80.26838 209.5L80.26838 201.89062L77.51838 201.89062L77.51838 200.96875L84.127754 200.96875L84.127754 201.89062ZM86.346504 206.15625L86.346504 209.5L85.221504 209.5L85.221504 200.96875L88.377754 200.96875Q89.76838 200.96875 90.565254 201.6875Q91.36213 202.39062 91.36213 203.57812Q91.36213 204.8125 90.58088 205.48438Q89.815254 206.15625 88.36213 206.15625L86.346504 206.15625ZM86.346504 205.23438L88.377754 205.23438Q89.284004 205.23438 89.752754 204.8125Q90.23713 204.39062 90.23713 203.59375Q90.23713 202.82812 89.752754 202.375Q89.284004 201.90625 88.440254 201.89062L86.346504 201.89062L86.346504 205.23438ZM93.26838 210.23438L92.346504 210.23438L95.909004 200.96875L96.83088 200.96875L93.26838 210.23438ZM99.51838 204.70312L100.33088 204.70312Q101.11213 204.6875 101.54963 204.29688Q101.98713 203.90625 101.98713 203.23438Q101.98713 201.73438 100.48713 201.73438Q99.784004 201.73438 99.36213 202.14062Q98.95588 202.54688 98.95588 203.20312L97.86213 203.20312Q97.86213 202.1875 98.596504 201.51562Q99.346504 200.84375 100.48713 200.84375Q101.690254 200.84375 102.377754 201.48438Q103.065254 202.125 103.065254 203.26562Q103.065254 203.82812 102.70588 204.34375Q102.346504 204.85938 101.721504 205.125Q102.42463 205.34375 102.79963 205.85938Q103.190254 206.375 103.190254 207.125Q103.190254 208.26562 102.440254 208.95312Q101.690254 209.625 100.48713 209.625Q99.29963 209.625 98.534004 208.96875Q97.784004 208.3125 97.784004 207.25L98.877754 207.25Q98.877754 207.92188 99.315254 208.32812Q99.752754 208.73438 100.502754 208.73438Q101.284004 208.73438 101.690254 208.32812Q102.11213 207.90625 102.11213 207.14062Q102.11213 206.40625 101.659004 206.01562Q101.20588 205.60938 100.33088 205.59375L99.51838 205.59375L99.51838 204.70312ZM111.502754 209.5L110.42463 209.5L110.42463 202.28125L108.23713 203.07812L108.23713 202.09375L111.346504 200.92188L111.502754 200.92188L111.502754 209.5ZM120.534004 209.5L114.940254 209.5L114.940254 208.71875L117.89338 205.4375Q118.54963 204.6875 118.79963 204.23438Q119.04963 203.76562 119.04963 203.26562Q119.04963 202.59375 118.64338 202.17188Q118.252754 201.73438 117.565254 201.73438Q116.76838 201.73438 116.315254 202.20312Q115.86213 202.65625 115.86213 203.48438L114.784004 203.48438Q114.784004 202.29688 115.534004 201.57812Q116.29963 200.84375 117.565254 200.84375Q118.76838 200.84375 119.45588 201.46875Q120.14338 202.09375 120.14338 203.14062Q120.14338 204.39062 118.534004 206.14062L116.252754 208.60938L120.534004 208.60938L120.534004 209.5ZM123.51838 204.70312L124.33088 204.70312Q125.11213 204.6875 125.54963 204.29688Q125.98713 203.90625 125.98713 203.23438Q125.98713 201.73438 124.48713 201.73438Q123.784004 201.73438 123.36213 202.14062Q122.95588 202.54688 122.95588 203.20312L121.86213 203.20312Q121.86213 202.1875 122.596504 201.51562Q123.346504 200.84375 124.48713 200.84375Q125.690254 200.84375 126.377754 201.48438Q127.065254 202.125 127.065254 203.26562Q127.065254 203.82812 126.70588 204.34375Q126.346504 204.85938 125.721504 205.125Q126.42463 205.34375 126.79963 205.85938Q127.190254 206.375 127.190254 207.125Q127.190254 208.26562 126.440254 208.95312Q125.690254 209.625 124.48713 209.625Q123.29963 209.625 122.534004 208.96875Q121.784004 208.3125 121.784004 207.25L122.877754 207.25Q122.877754 207.92188 123.315254 208.32812Q123.752754 208.73438 124.502754 208.73438Q125.284004 208.73438 125.690254 208.32812Q126.11213 207.90625 126.11213 207.14062Q126.11213 206.40625 125.659004 206.01562Q125.20588 205.60938 124.33088 205.59375L123.51838 205.59375L123.51838 204.70312ZM130.08087 203.15625L130.11212 203.85938Q130.79962 203.04688 131.98712 203.04688Q133.31525 203.04688 133.79962 204.0625Q134.11212 203.60938 134.61212 203.32812Q135.12775 203.04688 135.81525 203.04688Q137.909 203.04688 137.94025 205.25L137.94025 209.5L136.86212 209.5L136.86212 205.3125Q136.86212 204.64062 136.54962 204.3125Q136.23712 203.96875 135.50275 203.96875Q134.89337 203.96875 134.48712 204.32812Q134.0965 204.6875 134.034 205.29688L134.034 209.5L132.95587 209.5L132.95587 205.34375Q132.95587 203.96875 131.5965 203.96875Q130.534 203.96875 130.14337 204.875L130.14337 209.5L129.04962 209.5L129.04962 203.15625L130.08087 203.15625ZM143.75275 207.8125Q143.75275 207.375 143.409 207.14062Q143.08087 206.89062 142.25275 206.71875Q141.44025 206.54688 140.95587 206.29688Q140.4715 206.04688 140.23712 205.71875Q140.01837 205.375 140.01837 204.90625Q140.01837 204.125 140.67462 203.59375Q141.33087 203.04688 142.36212 203.04688Q143.44025 203.04688 144.0965 203.60938Q144.76837 204.15625 144.76837 205.01562L143.69025 205.01562Q143.69025 204.57812 143.29962 204.26562Q142.92462 203.9375 142.36212 203.9375Q141.76837 203.9375 141.42462 204.20312Q141.0965 204.45312 141.0965 204.85938Q141.0965 205.25 141.409 205.45312Q141.7215 205.65625 142.534 205.84375Q143.3465 206.01562 143.8465 206.26562Q144.3465 206.51562 144.58087 206.875Q144.83087 207.23438 144.83087 207.73438Q144.83087 208.59375 144.14337 209.10938Q143.4715 209.625 142.39337 209.625Q141.62775 209.625 141.034 209.35938Q140.45587 209.07812 140.12775 208.59375Q139.79962 208.10938 139.79962 207.54688L140.87775 207.54688Q140.909 208.09375 141.31525 208.42188Q141.7215 208.73438 142.39337 208.73438Q143.00275 208.73438 143.37775 208.48438Q143.75275 208.23438 143.75275 207.8125ZM150.3465 206.15625L150.3465 209.5L149.2215 209.5L149.2215 200.96875L152.37775 200.96875Q153.76837 200.96875 154.56525 201.6875Q155.36212 202.39062 155.36212 203.57812Q155.36212 204.8125 154.58087 205.48438Q153.81525 206.15625 152.36212 206.15625L150.3465 206.15625ZM150.3465 205.23438L152.37775 205.23438Q153.284 205.23438 153.75275 204.8125Q154.23712 204.39062 154.23712 203.59375Q154.23712 202.82812 153.75275 202.375Q153.284 201.90625 152.44025 201.89062L150.3465 201.89062L150.3465 205.23438ZM158.23712 209.5L157.159 209.5L157.159 203.15625L158.23712 203.15625L158.23712 209.5ZM157.06525 201.48438Q157.06525 201.21875 157.2215 201.03125Q157.39337 200.84375 157.70587 200.84375Q158.01837 200.84375 158.17462 201.03125Q158.3465 201.21875 158.3465 201.48438Q158.3465 201.73438 158.17462 201.92188Q158.01837 202.09375 157.70587 202.09375Q157.39337 202.09375 157.2215 201.92188Q157.06525 201.73438 157.06525 201.48438ZM161.08087 203.15625L161.11212 203.95312Q161.8465 203.04688 163.01837 203.04688Q165.034 203.04688 165.04962 205.3125L165.04962 209.5L163.95587 209.5L163.95587 205.29688Q163.95587 204.625 163.64337 204.29688Q163.3465 203.96875 162.69025 203.96875Q162.159 203.96875 161.75275 204.25Q161.36212 204.53125 161.14337 204.98438L161.14337 209.5L160.06525 209.5L160.06525 203.15625L161.08087 203.15625ZM166.79962 206.28125Q166.79962 204.79688 167.48712 203.92188Q168.17462 203.04688 169.29962 203.04688Q170.45587 203.04688 171.11212 203.85938L171.159 203.15625L172.159 203.15625L172.159 209.34375Q172.159 210.57812 171.42462 211.28125Q170.69025 212.0 169.4715 212.0Q168.784 212.0 168.12775 211.70312Q167.4715 211.40625 167.12775 210.90625L167.69025 210.25Q168.37775 211.10938 169.39337 211.10938Q170.17462 211.10938 170.61212 210.65625Q171.06525 210.21875 171.06525 209.40625L171.06525 208.85938Q170.409 209.625 169.284 209.625Q168.17462 209.625 167.48712 208.73438Q166.79962 207.82812 166.79962 206.28125ZM167.89337 206.40625Q167.89337 207.46875 168.33087 208.09375Q168.76837 208.70312 169.56525 208.70312Q170.58087 208.70312 171.06525 207.76562L171.06525 204.875Q170.56525 203.96875 169.56525 203.96875Q168.784 203.96875 168.33087 204.57812Q167.89337 205.1875 167.89337 206.40625Z" fill-rule="nonzero"/><path stroke="#ea4335" stroke-width="3.0" stroke-linejoin="round" stroke-linecap="round" d="M179.68324 131.5L178.55824 131.5L178.55824 127.5625L174.24574 127.5625L174.24574 131.5L173.12074 131.5L173.12074 122.96875L174.24574 122.96875L174.24574 126.640625L178.55824 126.640625L178.55824 122.96875L179.68324 122.96875L179.68324 131.5ZM188.027 123.890625L185.277 123.890625L185.277 131.5L184.16762 131.5L184.16762 123.890625L181.41762 123.890625L181.41762 122.96875L188.027 122.96875L188.027 123.890625ZM195.027 123.890625L192.277 123.890625L192.277 131.5L191.16762 131.5L191.16762 123.890625L188.41762 123.890625L188.41762 122.96875L195.027 122.96875L195.027 123.890625ZM197.24574 128.15625L197.24574 131.5L196.12074 131.5L196.12074 122.96875L199.277 122.96875Q200.66762 122.96875 201.4645 123.6875Q202.26137 124.390625 202.26137 125.578125Q202.26137 126.8125 201.48012 127.484375Q200.7145 128.15625 199.26137 128.15625L197.24574 128.15625ZM197.24574 127.234375L199.277 127.234375Q200.18324 127.234375 200.652 126.8125Q201.13637 126.390625 201.13637 125.59375Q201.13637 124.828125 200.652 124.375Q200.18324 123.90625 199.3395 123.890625L197.24574 123.890625L197.24574 127.234375ZM204.16762 132.23438L203.24574 132.23438L206.80824 122.96875L207.73012 122.96875L204.16762 132.23438ZM210.41762 126.703125L211.23012 126.703125Q212.01137 126.6875 212.44887 126.296875Q212.88637 125.90625 212.88637 125.234375Q212.88637 123.734375 211.38637 123.734375Q210.68324 123.734375 210.26137 124.140625Q209.85512 124.546875 209.85512 125.203125L208.76137 125.203125Q208.76137 124.1875 209.49574 123.515625Q210.24574 122.84375 211.38637 122.84375Q212.5895 122.84375 213.277 123.484375Q213.9645 124.125 213.9645 125.265625Q213.9645 125.828125 213.60512 126.34375Q213.24574 126.859375 212.62074 127.125Q213.32387 127.34375 213.69887 127.859375Q214.0895 128.375 214.0895 129.125Q214.0895 130.26562 213.3395 130.95312Q212.5895 131.625 211.38637 131.625Q210.19887 131.625 209.43324 130.96875Q208.68324 130.3125 208.68324 129.25L209.777 129.25Q209.777 129.92188 210.2145 130.32812Q210.652 130.73438 211.402 130.73438Q212.18324 130.73438 212.5895 130.32812Q213.01137 129.90625 213.01137 129.14062Q213.01137 128.40625 212.55824 128.01562Q212.10512 127.609375 211.23012 127.59375L210.41762 127.59375L210.41762 126.703125ZM224.43324 131.5L218.8395 131.5L218.8395 130.71875L221.79262 127.4375Q222.44887 126.6875 222.69887 126.234375Q222.94887 125.765625 222.94887 125.265625Q222.94887 124.59375 222.54262 124.171875Q222.152 123.734375 221.4645 123.734375Q220.66762 123.734375 220.2145 124.203125Q219.76137 124.65625 219.76137 125.484375L218.68324 125.484375Q218.68324 124.296875 219.43324 123.578125Q220.19887 122.84375 221.4645 122.84375Q222.66762 122.84375 223.35512 123.46875Q224.04262 124.09375 224.04262 125.140625Q224.04262 126.390625 222.43324 128.14062L220.152 130.60938L224.43324 130.60938L224.43324 131.5ZM231.43324 131.5L225.8395 131.5L225.8395 130.71875L228.79262 127.4375Q229.44887 126.6875 229.69887 126.234375Q229.94887 125.765625 229.94887 125.265625Q229.94887 124.59375 229.54262 124.171875Q229.152 123.734375 228.4645 123.734375Q227.66762 123.734375 227.2145 124.203125Q226.76137 124.65625 226.76137 125.484375L225.68324 125.484375Q225.68324 124.296875 226.43324 123.578125Q227.19887 122.84375 228.4645 122.84375Q229.66762 122.84375 230.35512 123.46875Q231.04262 124.09375 231.04262 125.140625Q231.04262 126.390625 229.43324 128.14062L227.152 130.60938L231.43324 130.60938L231.43324 131.5ZM234.41762 126.703125L235.23012 126.703125Q236.01137 126.6875 236.44887 126.296875Q236.88637 125.90625 236.88637 125.234375Q236.88637 123.734375 235.38637 123.734375Q234.68324 123.734375 234.26137 124.140625Q233.85512 124.546875 233.85512 125.203125L232.76137 125.203125Q232.76137 124.1875 233.49574 123.515625Q234.24574 122.84375 235.38637 122.84375Q236.5895 122.84375 237.277 123.484375Q237.9645 124.125 237.9645 125.265625Q237.9645 125.828125 237.60512 126.34375Q237.24574 126.859375 236.62074 127.125Q237.32387 127.34375 237.69887 127.859375Q238.0895 128.375 238.0895 129.125Q238.0895 130.26562 237.3395 130.95312Q236.5895 131.625 235.38637 131.625Q234.19887 131.625 233.43324 130.96875Q232.68324 130.3125 232.68324 129.25L233.777 129.25Q233.777 129.92188 234.2145 130.32812Q234.652 130.73438 235.402 130.73438Q236.18324 130.73438 236.5895 130.32812Q237.01137 129.90625 237.01137 129.14062Q237.01137 128.40625 236.55824 128.01562Q236.10512 127.609375 235.23012 127.59375L234.41762 127.59375L234.41762 126.703125ZM240.98012 125.15625L241.01137 125.859375Q241.69887 125.046875 242.88637 125.046875Q244.2145 125.046875 244.69887 126.0625Q245.01137 125.609375 245.51137 125.328125Q246.027 125.046875 246.7145 125.046875Q248.80824 125.046875 248.8395 127.25L248.8395 131.5L247.76137 131.5L247.76137 127.3125Q247.76137 126.640625 247.44887 126.3125Q247.13637 125.96875 246.402 125.96875Q245.79262 125.96875 245.38637 126.328125Q244.99574 126.6875 244.93324 127.296875L244.93324 131.5L243.85512 131.5L243.85512 127.34375Q243.85512 125.96875 242.49574 125.96875Q241.43324 125.96875 241.04262 126.875L241.04262 131.5L239.94887 131.5L239.94887 125.15625L240.98012 125.15625ZM254.652 129.8125Q254.652 129.375 254.30824 129.14062Q253.98012 128.89062 253.152 128.71875Q252.3395 128.54688 251.85512 128.29688Q251.37074 128.04688 251.13637 127.71875Q250.91762 127.375 250.91762 126.90625Q250.91762 126.125 251.57387 125.59375Q252.23012 125.046875 253.26137 125.046875Q254.3395 125.046875 254.99574 125.609375Q255.66762 126.15625 255.66762 127.015625L254.5895 127.015625Q254.5895 126.578125 254.19887 126.265625Q253.82387 125.9375 253.26137 125.9375Q252.66762 125.9375 252.32387 126.203125Q251.99574 126.453125 251.99574 126.859375Q251.99574 127.25 252.30824 127.453125Q252.62074 127.65625 253.43324 127.84375Q254.24574 128.01562 254.74574 128.26562Q255.24574 128.51562 255.48012 128.875Q255.73012 129.23438 255.73012 129.73438Q255.73012 130.59375 255.04262 131.10938Q254.37074 131.625 253.29262 131.625Q252.527 131.625 251.93324 131.35938Q251.35512 131.07812 251.027 130.59375Q250.69887 130.10938 250.69887 129.54688L251.777 129.54688Q251.80824 130.09375 252.2145 130.42188Q252.62074 130.73438 253.29262 130.73438Q253.902 130.73438 254.277 130.48438Q254.652 130.23438 254.652 129.8125ZM261.24576 128.15625L261.24576 131.5L260.12076 131.5L260.12076 122.96875L263.277 122.96875Q264.66763 122.96875 265.4645 123.6875Q266.26138 124.390625 266.26138 125.578125Q266.26138 126.8125 265.48013 127.484375Q264.7145 128.15625 263.26138 128.15625L261.24576 128.15625ZM261.24576 127.234375L263.277 127.234375Q264.18326 127.234375 264.652 126.8125Q265.13638 126.390625 265.13638 125.59375Q265.13638 124.828125 264.652 124.375Q264.18326 123.90625 263.3395 123.890625L261.24576 123.890625L261.24576 127.234375ZM269.13638 131.5L268.05826 131.5L268.05826 125.15625L269.13638 125.15625L269.13638 131.5ZM267.9645 123.484375Q267.9645 123.21875 268.12076 123.03125Q268.29263 122.84375 268.60513 122.84375Q268.91763 122.84375 269.07388 123.03125Q269.24576 123.21875 269.24576 123.484375Q269.24576 123.734375 269.07388 123.921875Q268.91763 124.09375 268.60513 124.09375Q268.29263 124.09375 268.12076 123.921875Q267.9645 123.734375 267.9645 123.484375ZM271.98013 125.15625L272.01138 125.953125Q272.74576 125.046875 273.91763 125.046875Q275.93326 125.046875 275.94888 127.3125L275.94888 131.5L274.85513 131.5L274.85513 127.296875Q274.85513 126.625 274.54263 126.296875Q274.24576 125.96875 273.5895 125.96875Q273.05826 125.96875 272.652 126.25Q272.26138 126.53125 272.04263 126.984375L272.04263 131.5L270.9645 131.5L270.9645 125.15625L271.98013 125.15625ZM277.69888 128.28125Q277.69888 126.796875 278.38638 125.921875Q279.07388 125.046875 280.19888 125.046875Q281.35513 125.046875 282.01138 125.859375L282.05826 125.15625L283.05826 125.15625L283.05826 131.34375Q283.05826 132.57812 282.32388 133.28125Q281.5895 134.0 280.37076 134.0Q279.68326 134.0 279.027 133.70312Q278.37076 133.40625 278.027 132.90625L278.5895 132.25Q279.277 133.10938 280.29263 133.10938Q281.07388 133.10938 281.51138 132.65625Q281.9645 132.21875 281.9645 131.40625L281.9645 130.85938Q281.30826 131.625 280.18326 131.625Q279.07388 131.625 278.38638 130.73438Q277.69888 129.82812 277.69888 128.28125ZM278.79263 128.40625Q278.79263 129.46875 279.23013 130.09375Q279.66763 130.70312 280.4645 130.70312Q281.48013 130.70312 281.9645 129.76562L281.9645 126.875Q281.4645 125.96875 280.4645 125.96875Q279.68326 125.96875 279.23013 126.578125Q278.79263 127.1875 278.79263 128.40625Z" fill-rule="nonzero"/><path fill="#ffffff" d="M179.68324 131.5L178.55824 131.5L178.55824 127.5625L174.24574 127.5625L174.24574 131.5L173.12074 131.5L173.12074 122.96875L174.24574 122.96875L174.24574 126.640625L178.55824 126.640625L178.55824 122.96875L179.68324 122.96875L179.68324 131.5ZM188.027 123.890625L185.277 123.890625L185.277 131.5L184.16762 131.5L184.16762 123.890625L181.41762 123.890625L181.41762 122.96875L188.027 122.96875L188.027 123.890625ZM195.027 123.890625L192.277 123.890625L192.277 131.5L191.16762 131.5L191.16762 123.890625L188.41762 123.890625L188.41762 122.96875L195.027 122.96875L195.027 123.890625ZM197.24574 128.15625L197.24574 131.5L196.12074 131.5L196.12074 122.96875L199.277 122.96875Q200.66762 122.96875 201.4645 123.6875Q202.26137 124.390625 202.26137 125.578125Q202.26137 126.8125 201.48012 127.484375Q200.7145 128.15625 199.26137 128.15625L197.24574 128.15625ZM197.24574 127.234375L199.277 127.234375Q200.18324 127.234375 200.652 126.8125Q201.13637 126.390625 201.13637 125.59375Q201.13637 124.828125 200.652 124.375Q200.18324 123.90625 199.3395 123.890625L197.24574 123.890625L197.24574 127.234375ZM204.16762 132.23438L203.24574 132.23438L206.80824 122.96875L207.73012 122.96875L204.16762 132.23438ZM210.41762 126.703125L211.23012 126.703125Q212.01137 126.6875 212.44887 126.296875Q212.88637 125.90625 212.88637 125.234375Q212.88637 123.734375 211.38637 123.734375Q210.68324 123.734375 210.26137 124.140625Q209.85512 124.546875 209.85512 125.203125L208.76137 125.203125Q208.76137 124.1875 209.49574 123.515625Q210.24574 122.84375 211.38637 122.84375Q212.5895 122.84375 213.277 123.484375Q213.9645 124.125 213.9645 125.265625Q213.9645 125.828125 213.60512 126.34375Q213.24574 126.859375 212.62074 127.125Q213.32387 127.34375 213.69887 127.859375Q214.0895 128.375 214.0895 129.125Q214.0895 130.26562 213.3395 130.95312Q212.5895 131.625 211.38637 131.625Q210.19887 131.625 209.43324 130.96875Q208.68324 130.3125 208.68324 129.25L209.777 129.25Q209.777 129.92188 210.2145 130.32812Q210.652 130.73438 211.402 130.73438Q212.18324 130.73438 212.5895 130.32812Q213.01137 129.90625 213.01137 129.14062Q213.01137 128.40625 212.55824 128.01562Q212.10512 127.609375 211.23012 127.59375L210.41762 127.59375L210.41762 126.703125ZM224.43324 131.5L218.8395 131.5L218.8395 130.71875L221.79262 127.4375Q222.44887 126.6875 222.69887 126.234375Q222.94887 125.765625 222.94887 125.265625Q222.94887 124.59375 222.54262 124.171875Q222.152 123.734375 221.4645 123.734375Q220.66762 123.734375 220.2145 124.203125Q219.76137 124.65625 219.76137 125.484375L218.68324 125.484375Q218.68324 124.296875 219.43324 123.578125Q220.19887 122.84375 221.4645 122.84375Q222.66762 122.84375 223.35512 123.46875Q224.04262 124.09375 224.04262 125.140625Q224.04262 126.390625 222.43324 128.14062L220.152 130.60938L224.43324 130.60938L224.43324 131.5ZM231.43324 131.5L225.8395 131.5L225.8395 130.71875L228.79262 127.4375Q229.44887 126.6875 229.69887 126.234375Q229.94887 125.765625 229.94887 125.265625Q229.94887 124.59375 229.54262 124.171875Q229.152 123.734375 228.4645 123.734375Q227.66762 123.734375 227.2145 124.203125Q226.76137 124.65625 226.76137 125.484375L225.68324 125.484375Q225.68324 124.296875 226.43324 123.578125Q227.19887 122.84375 228.4645 122.84375Q229.66762 122.84375 230.35512 123.46875Q231.04262 124.09375 231.04262 125.140625Q231.04262 126.390625 229.43324 128.14062L227.152 130.60938L231.43324 130.60938L231.43324 131.5ZM234.41762 126.703125L235.23012 126.703125Q236.01137 126.6875 236.44887 126.296875Q236.88637 125.90625 236.88637 125.234375Q236.88637 123.734375 235.38637 123.734375Q234.68324 123.734375 234.26137 124.140625Q233.85512 124.546875 233.85512 125.203125L232.76137 125.203125Q232.76137 124.1875 233.49574 123.515625Q234.24574 122.84375 235.38637 122.84375Q236.5895 122.84375 237.277 123.484375Q237.9645 124.125 237.9645 125.265625Q237.9645 125.828125 237.60512 126.34375Q237.24574 126.859375 236.62074 127.125Q237.32387 127.34375 237.69887 127.859375Q238.0895 128.375 238.0895 129.125Q238.0895 130.26562 237.3395 130.95312Q236.5895 131.625 235.38637 131.625Q234.19887 131.625 233.43324 130.96875Q232.68324 130.3125 232.68324 129.25L233.777 129.25Q233.777 129.92188 234.2145 130.32812Q234.652 130.73438 235.402 130.73438Q236.18324 130.73438 236.5895 130.32812Q237.01137 129.90625 237.01137 129.14062Q237.01137 128.40625 236.55824 128.01562Q236.10512 127.609375 235.23012 127.59375L234.41762 127.59375L234.41762 126.703125ZM240.98012 125.15625L241.01137 125.859375Q241.69887 125.046875 242.88637 125.046875Q244.2145 125.046875 244.69887 126.0625Q245.01137 125.609375 245.51137 125.328125Q246.027 125.046875 246.7145 125.046875Q248.80824 125.046875 248.8395 127.25L248.8395 131.5L247.76137 131.5L247.76137 127.3125Q247.76137 126.640625 247.44887 126.3125Q247.13637 125.96875 246.402 125.96875Q245.79262 125.96875 245.38637 126.328125Q244.99574 126.6875 244.93324 127.296875L244.93324 131.5L243.85512 131.5L243.85512 127.34375Q243.85512 125.96875 242.49574 125.96875Q241.43324 125.96875 241.04262 126.875L241.04262 131.5L239.94887 131.5L239.94887 125.15625L240.98012 125.15625ZM254.652 129.8125Q254.652 129.375 254.30824 129.14062Q253.98012 128.89062 253.152 128.71875Q252.3395 128.54688 251.85512 128.29688Q251.37074 128.04688 251.13637 127.71875Q250.91762 127.375 250.91762 126.90625Q250.91762 126.125 251.57387 125.59375Q252.23012 125.046875 253.26137 125.046875Q254.3395 125.046875 254.99574 125.609375Q255.66762 126.15625 255.66762 127.015625L254.5895 127.015625Q254.5895 126.578125 254.19887 126.265625Q253.82387 125.9375 253.26137 125.9375Q252.66762 125.9375 252.32387 126.203125Q251.99574 126.453125 251.99574 126.859375Q251.99574 127.25 252.30824 127.453125Q252.62074 127.65625 253.43324 127.84375Q254.24574 128.01562 254.74574 128.26562Q255.24574 128.51562 255.48012 128.875Q255.73012 129.23438 255.73012 129.73438Q255.73012 130.59375 255.04262 131.10938Q254.37074 131.625 253.29262 131.625Q252.527 131.625 251.93324 131.35938Q251.35512 131.07812 251.027 130.59375Q250.69887 130.10938 250.69887 129.54688L251.777 129.54688Q251.80824 130.09375 252.2145 130.42188Q252.62074 130.73438 253.29262 130.73438Q253.902 130.73438 254.277 130.48438Q254.652 130.23438 254.652 129.8125ZM261.24573 128.15625L261.24573 131.5L260.12073 131.5L260.12073 122.96875L263.27698 122.96875Q264.6676 122.96875 265.46448 123.6875Q266.26135 124.390625 266.26135 125.578125Q266.26135 126.8125 265.4801 127.484375Q264.71448 128.15625 263.26135 128.15625L261.24573 128.15625ZM261.24573 127.234375L263.27698 127.234375Q264.18323 127.234375 264.65198 126.8125Q265.13635 126.390625 265.13635 125.59375Q265.13635 124.828125 264.65198 124.375Q264.18323 123.90625 263.33948 123.890625L261.24573 123.890625L261.24573 127.234375ZM269.13635 131.5L268.05823 131.5L268.05823 125.15625L269.13635 125.15625L269.13635 131.5ZM267.96448 123.484375Q267.96448 123.21875 268.12073 123.03125Q268.2926 122.84375 268.6051 122.84375Q268.9176 122.84375 269.07385 123.03125Q269.24573 123.21875 269.24573 123.484375Q269.24573 123.734375 269.07385 123.921875Q268.9176 124.09375 268.6051 124.09375Q268.2926 124.09375 268.12073 123.921875Q267.96448 123.734375 267.96448 123.484375ZM271.9801 125.15625L272.01135 125.953125Q272.74573 125.046875 273.9176 125.046875Q275.93323 125.046875 275.94885 127.3125L275.94885 131.5L274.8551 131.5L274.8551 127.296875Q274.8551 126.625 274.5426 126.296875Q274.24573 125.96875 273.58948 125.96875Q273.05823 125.96875 272.65198 126.25Q272.26135 126.53125 272.0426 126.984375L272.0426 131.5L270.96448 131.5L270.96448 125.15625L271.9801 125.15625ZM277.69885 128.28125Q277.69885 126.796875 278.38635 125.921875Q279.07385 125.046875 280.19885 125.046875Q281.3551 125.046875 282.01135 125.859375L282.05823 125.15625L283.05823 125.15625L283.05823 131.34375Q283.05823 132.57812 282.32385 133.28125Q281.58948 134.0 280.37073 134.0Q279.68323 134.0 279.02698 133.70312Q278.37073 133.40625 278.02698 132.90625L278.58948 132.25Q279.27698 133.10938 280.2926 133.10938Q281.07385 133.10938 281.51135 132.65625Q281.96448 132.21875 281.96448 131.40625L281.96448 130.85938Q281.30823 131.625 280.18323 131.625Q279.07385 131.625 278.38635 130.73438Q277.69885 129.82812 277.69885 128.28125ZM278.7926 128.40625Q278.7926 129.46875 279.2301 130.09375Q279.6676 130.70312 280.46448 130.70312Q281.4801 130.70312 281.96448 129.76562L281.96448 126.875Q281.46448 125.96875 280.46448 125.96875Q279.68323 125.96875 279.2301 126.578125Q278.7926 127.1875 278.7926 128.40625Z" fill-rule="nonzero"/><path fill="#000000" d="M13.2 347.5656Q13.2 346.03436 13.5125 345.1125Q13.825 344.175 14.434375 343.675Q15.059375 343.175 15.996875 343.175Q16.684376 343.175 17.2 343.45624Q17.73125 343.7375 18.075 344.26874Q18.41875 344.78436 18.60625 345.53436Q18.79375 346.28436 18.79375 347.5656Q18.79375 349.08124 18.48125 350.0031Q18.184376 350.925 17.559376 351.4406Q16.95 351.9406 15.996875 351.9406Q14.7625 351.9406 14.04375 351.05Q13.2 349.9875 13.2 347.5656ZM14.278125 347.5656Q14.278125 349.675 14.778125 350.3781Q15.278125 351.08124 15.996875 351.08124Q16.73125 351.08124 17.215626 350.3781Q17.715626 349.675 17.715626 347.5656Q17.715626 345.4406 17.215626 344.7531Q16.73125 344.05 15.98125 344.05Q15.2625 344.05 14.825 344.65936Q14.278125 345.4406 14.278125 347.5656Z" fill-rule="nonzero"/><path fill="#000000" d="M67.34688 350.78436L67.34688 351.8L61.659374 351.8Q61.659374 351.425 61.784374 351.0656Q62.003124 350.4875 62.471874 349.925Q62.95625 349.3625 63.8625 348.6281Q65.26875 347.47186 65.75313 346.8Q66.25313 346.1281 66.25313 345.53436Q66.25313 344.90936 65.8 344.4875Q65.34688 344.05 64.62813 344.05Q63.8625 344.05 63.409374 344.5031Q62.95625 344.95624 62.940624 345.76874L61.8625 345.65936Q61.971874 344.4406 62.690624 343.8156Q63.425 343.175 64.65938 343.175Q65.89375 343.175 66.6125 343.8625Q67.33125 344.55 67.33125 345.5656Q67.33125 346.08124 67.1125 346.58124Q66.90938 347.0656 66.40938 347.6281Q65.925 348.175 64.8 349.1281Q63.846874 349.925 63.565624 350.22186Q63.3 350.5031 63.128124 350.78436L67.34688 350.78436Z" fill-rule="nonzero"/><path fill="#000000" d="M113.775 351.8L113.775 349.7375L110.05625 349.7375L110.05625 348.76874L113.97813 343.20624L114.8375 343.20624L114.8375 348.76874L115.99375 348.76874L115.99375 349.7375L114.8375 349.7375L114.8375 351.8L113.775 351.8ZM113.775 348.76874L113.775 344.90936L111.0875 348.76874L113.775 348.76874Z" fill-rule="nonzero"/><path fill="#000000" d="M164.46875 345.3156L163.42188 345.39374Q163.28125 344.76874 163.03125 344.4875Q162.59375 344.03436 161.96875 344.03436Q161.46875 344.03436 161.07812 344.3156Q160.59375 344.6906 160.29688 345.39374Q160.01562 346.08124 160.0 347.3625Q160.375 346.78436 160.92188 346.5031Q161.48438 346.22186 162.09375 346.22186Q163.14062 346.22186 163.875 347.0031Q164.625 347.78436 164.625 349.0031Q164.625 349.8156 164.26562 350.51874Q163.92188 351.20624 163.3125 351.58124Q162.70312 351.9406 161.9375 351.9406Q160.60938 351.9406 159.78125 350.97186Q158.95312 350.0031 158.95312 347.78436Q158.95312 345.28436 159.875 344.15936Q160.67188 343.175 162.03125 343.175Q163.04688 343.175 163.6875 343.7531Q164.34375 344.3156 164.46875 345.3156ZM160.17188 349.01874Q160.17188 349.5656 160.39062 350.0656Q160.625 350.55 161.03125 350.8156Q161.45312 351.08124 161.92188 351.08124Q162.57812 351.08124 163.0625 350.55Q163.54688 350.0031 163.54688 349.08124Q163.54688 348.1906 163.0625 347.675Q162.59375 347.15936 161.875 347.15936Q161.15625 347.15936 160.65625 347.675Q160.17188 348.1906 160.17188 349.01874Z" fill-rule="nonzero"/><path fill="#000000" d="M209.225 347.14374Q208.56876 346.89374 208.24063 346.45624Q207.92813 346.0031 207.92813 345.39374Q207.92813 344.45624 208.6 343.8156Q209.2875 343.175 210.39688 343.175Q211.52188 343.175 212.20938 343.83124Q212.89688 344.4875 212.89688 345.425Q212.89688 346.01874 212.58438 346.45624Q212.27188 346.89374 211.63126 347.14374Q212.42813 347.39374 212.83438 347.97186Q213.24063 348.55 213.24063 349.34686Q213.24063 350.4406 212.45938 351.1906Q211.69376 351.9406 210.4125 351.9406Q209.14688 351.9406 208.36563 351.1906Q207.58438 350.4406 207.58438 349.3156Q207.58438 348.47186 208.00626 347.90936Q208.44376 347.34686 209.225 347.14374ZM209.00626 345.34686Q209.00626 345.95624 209.39688 346.34686Q209.80313 346.7375 210.42813 346.7375Q211.0375 346.7375 211.42813 346.3625Q211.81876 345.97186 211.81876 345.40936Q211.81876 344.83124 211.4125 344.4406Q211.00626 344.03436 210.4125 344.03436Q209.80313 344.03436 209.39688 344.425Q209.00626 344.8156 209.00626 345.34686ZM208.67813 349.3156Q208.67813 349.76874 208.88126 350.1906Q209.1 350.6125 209.52188 350.84686Q209.94376 351.08124 210.42813 351.08124Q211.17813 351.08124 211.6625 350.59686Q212.1625 350.1125 212.1625 349.3625Q212.1625 348.59686 211.6625 348.09686Q211.1625 347.59686 210.39688 347.59686Q209.64688 347.59686 209.1625 348.09686Q208.67813 348.58124 208.67813 349.3156Z" fill-rule="nonzero"/><path fill="#000000" d="M256.66876 351.8L255.62187 351.8L255.62187 345.08124Q255.23125 345.4406 254.60625 345.8156Q253.99687 346.175 253.5125 346.34686L253.5125 345.33124Q254.3875 344.90936 255.04375 344.33124Q255.71562 343.7375 255.99687 343.175L256.66876 343.175L256.66876 351.8ZM259.7 347.5656Q259.7 346.03436 260.0125 345.1125Q260.325 344.175 260.9344 343.675Q261.5594 343.175 262.4969 343.175Q263.1844 343.175 263.7 343.45624Q264.23126 343.7375 264.575 344.26874Q264.91876 344.78436 265.10626 345.53436Q265.29376 346.28436 265.29376 347.5656Q265.29376 349.08124 264.98126 350.0031Q264.6844 350.925 264.0594 351.4406Q263.45 351.9406 262.4969 351.9406Q261.2625 351.9406 260.54376 351.05Q259.7 349.9875 259.7 347.5656ZM260.77814 347.5656Q260.77814 349.675 261.27814 350.3781Q261.77814 351.08124 262.4969 351.08124Q263.23126 351.08124 263.71564 350.3781Q264.21564 349.675 264.21564 347.5656Q264.21564 345.4406 263.71564 344.7531Q263.23126 344.05 262.48126 344.05Q261.7625 344.05 261.325 344.65936Q260.77814 345.4406 260.77814 347.5656Z" fill-rule="nonzero"/><path fill="#000000" d="M305.26874 351.8L304.22186 351.8L304.22186 345.08124Q303.83124 345.4406 303.20624 345.8156Q302.59686 346.175 302.1125 346.34686L302.1125 345.33124Q302.9875 344.90936 303.64374 344.33124Q304.3156 343.7375 304.59686 343.175L305.26874 343.175L305.26874 351.8ZM313.84686 350.78436L313.84686 351.8L308.15936 351.8Q308.15936 351.425 308.28436 351.0656Q308.5031 350.4875 308.97186 349.925Q309.45624 349.3625 310.3625 348.6281Q311.76874 347.47186 312.2531 346.8Q312.7531 346.1281 312.7531 345.53436Q312.7531 344.90936 312.3 344.4875Q311.84686 344.05 311.1281 344.05Q310.3625 344.05 309.90936 344.5031Q309.45624 344.95624 309.4406 345.76874L308.3625 345.65936Q308.47186 344.4406 309.1906 343.8156Q309.925 343.175 311.15936 343.175Q312.39374 343.175 313.1125 343.8625Q313.83124 344.55 313.83124 345.5656Q313.83124 346.08124 313.6125 346.58124Q313.40936 347.0656 312.90936 347.6281Q312.425 348.175 311.3 349.1281Q310.34686 349.925 310.0656 350.22186Q309.8 350.5031 309.6281 350.78436L313.84686 350.78436Z" fill-rule="nonzero"/><path fill="#757575" d="M17.778126 35.2L17.778126 20.8875L28.1375 20.8875L28.1375 22.575L19.684376 22.575L19.684376 26.95L27.590626 26.95L27.590626 28.6375L19.684376 28.6375L19.684376 33.5125L28.465626 33.5125L28.465626 35.2L17.778126 35.2ZM30.934376 35.2L30.934376 26.2L29.3875 26.2L29.3875 24.825L30.934376 24.825L30.934376 23.73125Q30.934376 22.684376 31.121876 22.16875Q31.371876 21.48125 32.0125 21.059376Q32.653126 20.6375 33.809376 20.6375Q34.559376 20.6375 35.45 20.809376L35.184376 22.340626Q34.6375 22.246876 34.153126 22.246876Q33.35625 22.246876 33.0125 22.590626Q32.684376 22.934376 32.684376 23.871876L32.684376 24.825L34.715626 24.825L34.715626 26.2L32.684376 26.2L32.684376 35.2L30.934376 35.2ZM36.934376 35.2L36.934376 26.2L35.3875 26.2L35.3875 24.825L36.934376 24.825L36.934376 23.73125Q36.934376 22.684376 37.121876 22.16875Q37.371876 21.48125 38.0125 21.059376Q38.653126 20.6375 39.809376 20.6375Q40.559376 20.6375 41.45 20.809376L41.184376 22.340626Q40.6375 22.246876 40.153126 22.246876Q39.35625 22.246876 39.0125 22.590626Q38.684376 22.934376 38.684376 23.871876L38.684376 24.825L40.715626 24.825L40.715626 26.2L38.684376 26.2L38.684376 35.2L36.934376 35.2ZM49.621876 31.85625L51.434376 32.090626Q51.0125 33.66875 49.840626 34.559376Q48.684376 35.434376 46.871876 35.434376Q44.60625 35.434376 43.2625 34.04375Q41.934376 32.6375 41.934376 30.10625Q41.934376 27.48125 43.278126 26.04375Q44.621876 24.590626 46.778126 24.590626Q48.85625 24.590626 50.16875 26.0125Q51.496876 27.41875 51.496876 29.996876Q51.496876 30.153126 51.48125 30.465626L43.746876 30.465626Q43.840626 32.16875 44.715626 33.075Q45.590626 33.98125 46.8875 33.98125Q47.85625 33.98125 48.528126 33.48125Q49.215626 32.965626 49.621876 31.85625ZM43.840626 29.0125L49.6375 29.0125Q49.528126 27.715626 48.98125 27.059376Q48.1375 26.04375 46.79375 26.04375Q45.590626 26.04375 44.7625 26.85625Q43.934376 27.653126 43.840626 29.0125ZM60.29375 31.403126L62.0125 31.621876Q61.73125 33.41875 60.559376 34.434376Q59.403126 35.434376 57.7 35.434376Q55.575 35.434376 54.278126 34.04375Q52.98125 32.653126 52.98125 30.059376Q52.98125 28.371876 53.528126 27.121876Q54.090626 25.85625 55.23125 25.23125Q56.371876 24.590626 57.715626 24.590626Q59.403126 24.590626 60.465626 25.45Q61.54375 26.309376 61.85625 27.871876L60.1375 28.1375Q59.903126 27.090626 59.278126 26.575Q58.653126 26.04375 57.778126 26.04375Q56.45 26.04375 55.621876 26.996876Q54.79375 27.95 54.79375 29.996876Q54.79375 32.090626 55.590626 33.04375Q56.3875 33.98125 57.684376 33.98125Q58.715626 33.98125 59.403126 33.35625Q60.10625 32.715626 60.29375 31.403126ZM67.35625 33.621876L67.60625 35.184376Q66.87187 35.340626 66.27812 35.340626Q65.325 35.340626 64.79375 35.04375Q64.27812 34.73125 64.05937 34.246876Q63.840626 33.746876 63.840626 32.16875L63.840626 26.2L62.559376 26.2L62.559376 24.825L63.840626 24.825L63.840626 22.2625L65.59062 21.2L65.59062 24.825L67.35625 24.825L67.35625 26.2L65.59062 26.2L65.59062 32.2625Q65.59062 33.0125 65.68437 33.23125Q65.77812 33.434376 65.98125 33.575Q66.2 33.7 66.59062 33.7Q66.87187 33.7 67.35625 33.621876ZM74.87187 30.0125Q74.87187 27.1375 76.46562 25.746876Q77.80937 24.590626 79.73125 24.590626Q81.87187 24.590626 83.21562 25.996876Q84.575 27.403126 84.575 29.871876Q84.575 31.871876 83.98125 33.028126Q83.3875 34.16875 82.23125 34.809376Q81.09062 35.434376 79.73125 35.434376Q77.54375 35.434376 76.2 34.04375Q74.87187 32.6375 74.87187 30.0125ZM76.66875 30.0125Q76.66875 32.0125 77.52812 32.996876Q78.40312 33.98125 79.73125 33.98125Q81.04375 33.98125 81.90312 32.996876Q82.77812 31.996876 82.77812 29.95Q82.77812 28.028126 81.90312 27.04375Q81.02812 26.04375 79.73125 26.04375Q78.40312 26.04375 77.52812 27.04375Q76.66875 28.028126 76.66875 30.0125ZM86.93437 35.2L86.93437 26.2L85.3875 26.2L85.3875 24.825L86.93437 24.825L86.93437 23.73125Q86.93437 22.684376 87.12187 22.16875Q87.37187 21.48125 88.0125 21.059376Q88.65312 20.6375 89.80937 20.6375Q90.55937 20.6375 91.45 20.809376L91.18437 22.340626Q90.6375 22.246876 90.15312 22.246876Q89.35625 22.246876 89.0125 22.590626Q88.68437 22.934376 88.68437 23.871876L88.68437 24.825L90.71562 24.825L90.71562 26.2L88.68437 26.2L88.68437 35.2L86.93437 35.2ZM98.66875 35.2L98.66875 20.8875L100.55937 20.8875L100.55937 33.5125L107.60625 33.5125L107.60625 35.2L98.66875 35.2ZM116.29375 33.91875Q115.30937 34.746876 114.40312 35.090626Q113.49687 35.434376 112.46562 35.434376Q110.7625 35.434376 109.84062 34.60625Q108.91875 33.7625 108.91875 32.465626Q108.91875 31.7 109.2625 31.075Q109.62187 30.45 110.18437 30.075Q110.74687 29.684376 111.45 29.48125Q111.96562 29.35625 113.0125 29.215626Q115.1375 28.965626 116.1375 28.621876Q116.15312 28.2625 116.15312 28.153126Q116.15312 27.090626 115.65312 26.6375Q114.98125 26.04375 113.65312 26.04375Q112.40312 26.04375 111.80937 26.48125Q111.23125 26.91875 110.95 28.028126L109.23125 27.79375Q109.46562 26.684376 109.99687 26.0125Q110.52812 25.325 111.54375 24.965626Q112.55937 24.590626 113.90312 24.590626Q115.23125 24.590626 116.05937 24.903126Q116.8875 25.215626 117.27812 25.7Q117.66875 26.16875 117.825 26.8875Q117.91875 27.340626 117.91875 28.5125L117.91875 30.85625Q117.91875 33.309376 118.02812 33.965626Q118.1375 34.60625 118.48125 35.2L116.6375 35.2Q116.37187 34.653126 116.29375 33.91875ZM116.1375 29.996876Q115.18437 30.3875 113.2625 30.653126Q112.18437 30.809376 111.73125 31.0125Q111.29375 31.2 111.04375 31.575Q110.79375 31.95 110.79375 32.41875Q110.79375 33.121876 111.325 33.590626Q111.85625 34.059376 112.8875 34.059376Q113.90312 34.059376 114.68437 33.621876Q115.48125 33.16875 115.85625 32.403126Q116.1375 31.79375 116.1375 30.6375L116.1375 29.996876ZM124.35625 33.621876L124.60625 35.184376Q123.87187 35.340626 123.27812 35.340626Q122.325 35.340626 121.79375 35.04375Q121.27812 34.73125 121.05937 34.246876Q120.84062 33.746876 120.84062 32.16875L120.84062 26.2L119.55937 26.2L119.55937 24.825L120.84062 24.825L120.84062 22.2625L122.59062 21.2L122.59062 24.825L124.35625 24.825L124.35625 26.2L122.59062 26.2L122.59062 32.2625Q122.59062 33.0125 122.68437 33.23125Q122.77812 33.434376 122.98125 33.575Q123.2 33.7 123.59062 33.7Q123.87187 33.7 124.35625 33.621876ZM133.62187 31.85625L135.43437 32.090626Q135.0125 33.66875 133.84062 34.559376Q132.68437 35.434376 130.87187 35.434376Q128.60625 35.434376 127.2625 34.04375Q125.93437 32.6375 125.93437 30.10625Q125.93437 27.48125 127.27812 26.04375Q128.62187 24.590626 130.77812 24.590626Q132.85625 24.590626 134.16875 26.0125Q135.49687 27.41875 135.49687 29.996876Q135.49687 30.153126 135.48125 30.465626L127.74687 30.465626Q127.84062 32.16875 128.71562 33.075Q129.59062 33.98125 130.8875 33.98125Q131.85625 33.98125 132.52812 33.48125Q133.21562 32.965626 133.62187 31.85625ZM127.84062 29.0125L133.6375 29.0125Q133.52812 27.715626 132.98125 27.059376Q132.1375 26.04375 130.79375 26.04375Q129.59062 26.04375 128.7625 26.85625Q127.93437 27.653126 127.84062 29.0125ZM137.5125 35.2L137.5125 24.825L139.10625 24.825L139.10625 26.309376Q140.24687 24.590626 142.40312 24.590626Q143.34062 24.590626 144.12187 24.934376Q144.91875 25.2625 145.30937 25.809376Q145.7 26.35625 145.85625 27.10625Q145.95 27.60625 145.95 28.825L145.95 35.2L144.18437 35.2L144.18437 28.8875Q144.18437 27.809376 143.98125 27.278126Q143.77812 26.746876 143.24687 26.434376Q142.73125 26.121876 142.02812 26.121876Q140.90312 26.121876 140.09062 26.840626Q139.27812 27.54375 139.27812 29.528126L139.27812 35.2L137.5125 35.2ZM154.29375 31.403126L156.0125 31.621876Q155.73125 33.41875 154.55937 34.434376Q153.40312 35.434376 151.7 35.434376Q149.575 35.434376 148.27812 34.04375Q146.98125 32.653126 146.98125 30.059376Q146.98125 28.371876 147.52812 27.121876Q148.09062 25.85625 149.23125 25.23125Q150.37187 24.590626 151.71562 24.590626Q153.40312 24.590626 154.46562 25.45Q155.54375 26.309376 155.85625 27.871876L154.1375 28.1375Q153.90312 27.090626 153.27812 26.575Q152.65312 26.04375 151.77812 26.04375Q150.45 26.04375 149.62187 26.996876Q148.79375 27.95 148.79375 29.996876Q148.79375 32.090626 149.59062 33.04375Q150.3875 33.98125 151.68437 33.98125Q152.71562 33.98125 153.40312 33.35625Q154.10625 32.715626 154.29375 31.403126ZM157.43437 39.2L157.24687 37.54375Q157.825 37.7 158.24687 37.7Q158.84062 37.7 159.18437 37.496876Q159.54375 37.309376 159.7625 36.965626Q159.93437 36.7 160.30937 35.653126Q160.35625 35.496876 160.46562 35.215626L156.52812 24.825L158.41875 24.825L160.575 30.840626Q160.99687 31.98125 161.325 33.23125Q161.6375 32.028126 162.04375 30.871876L164.2625 24.825L166.02812 24.825L162.075 35.371876Q161.45 37.090626 161.09062 37.73125Q160.62187 38.60625 160.0125 38.996876Q159.41875 39.403126 158.575 39.403126Q158.05937 39.403126 157.43437 39.2ZM172.87187 30.0125Q172.87187 27.1375 174.46562 25.746876Q175.80937 24.590626 177.73125 24.590626Q179.87187 24.590626 181.21562 25.996876Q182.575 27.403126 182.575 29.871876Q182.575 31.871876 181.98125 33.028126Q181.3875 34.16875 180.23125 34.809376Q179.09062 35.434376 177.73125 35.434376Q175.54375 35.434376 174.2 34.04375Q172.87187 32.6375 172.87187 30.0125ZM174.66875 30.0125Q174.66875 32.0125 175.52812 32.996876Q176.40312 33.98125 177.73125 33.98125Q179.04375 33.98125 179.90312 32.996876Q180.77812 31.996876 180.77812 29.95Q180.77812 28.028126 179.90312 27.04375Q179.02812 26.04375 177.73125 26.04375Q176.40312 26.04375 175.52812 27.04375Q174.66875 28.028126 174.66875 30.0125ZM184.5125 35.2L184.5125 24.825L186.10625 24.825L186.10625 26.309376Q187.24687 24.590626 189.40312 24.590626Q190.34062 24.590626 191.12187 24.934376Q191.91875 25.2625 192.30937 25.809376Q192.7 26.35625 192.85625 27.10625Q192.95 27.60625 192.95 28.825L192.95 35.2L191.18437 35.2L191.18437 28.8875Q191.18437 27.809376 190.98125 27.278126Q190.77812 26.746876 190.24687 26.434376Q189.73125 26.121876 189.02812 26.121876Q187.90312 26.121876 187.09062 26.840626Q186.27812 27.54375 186.27812 29.528126L186.27812 35.2L184.5125 35.2ZM200.80937 35.2L200.80937 20.8875L202.7 20.8875L202.7 26.7625L210.1375 26.7625L210.1375 20.8875L212.02812 20.8875L212.02812 35.2L210.1375 35.2L210.1375 28.45L202.7 28.45L202.7 35.2L200.80937 35.2ZM217.3875 35.2L217.3875 22.575L212.66875 22.575L212.66875 20.8875L224.0125 20.8875L224.0125 22.575L219.27812 22.575L219.27812 35.2L217.3875 35.2ZM229.3875 35.2L229.3875 22.575L224.66875 22.575L224.66875 20.8875L236.0125 20.8875L236.0125 22.575L231.27812 22.575L231.27812 35.2L229.3875 35.2ZM237.74687 35.2L237.74687 20.8875L243.1375 20.8875Q244.575 20.8875 245.325 21.0125Q246.37187 21.2 247.09062 21.7Q247.80937 22.184376 248.23125 23.075Q248.66875 23.965626 248.66875 25.028126Q248.66875 26.85625 247.49687 28.121876Q246.34062 29.371876 243.30937 29.371876L239.6375 29.371876L239.6375 35.2L237.74687 35.2ZM239.6375 27.684376L243.34062 27.684376Q245.16875 27.684376 245.93437 27.0125Q246.71562 26.325 246.71562 25.075Q246.71562 24.184376 246.2625 23.54375Q245.80937 22.903126 245.075 22.7Q244.59062 22.575 243.29375 22.575L239.6375 22.575L239.6375 27.684376ZM249.2 35.45L253.35625 20.6375L254.7625 20.6375L250.62187 35.45L249.2 35.45ZM256.04376 31.41875L257.79376 31.184376Q258.10626 32.684376 258.825 33.340626Q259.5594 33.996876 260.60626 33.996876Q261.84064 33.996876 262.6844 33.1375Q263.54376 32.278126 263.54376 31.0125Q263.54376 29.79375 262.7469 29.0125Q261.96564 28.23125 260.7469 28.23125Q260.2469 28.23125 259.5125 28.41875L259.7 26.871876Q259.8719 26.903126 259.98126 26.903126Q261.10626 26.903126 261.9969 26.325Q262.90314 25.73125 262.90314 24.5125Q262.90314 23.54375 262.2469 22.903126Q261.59064 22.2625 260.5594 22.2625Q259.54376 22.2625 258.85626 22.91875Q258.16876 23.559376 257.98126 24.840626L256.21564 24.528126Q256.54376 22.7625 257.6844 21.79375Q258.825 20.825 260.52814 20.825Q261.7 20.825 262.6844 21.325Q263.66876 21.825 264.1844 22.7Q264.71564 23.575 264.71564 24.54375Q264.71564 25.465626 264.21564 26.23125Q263.71564 26.996876 262.7469 27.45Q264.0125 27.73125 264.71564 28.66875Q265.41876 29.590626 265.41876 30.965626Q265.41876 32.840626 264.04376 34.153126Q262.6844 35.45 260.59064 35.45Q258.7 35.45 257.45 34.325Q256.21564 33.2 256.04376 31.41875Z" fill-rule="nonzero"/><path fill="#757575" d="M24.246876 59.2L24.246876 57.8875Q23.2625 59.434376 21.340626 59.434376Q20.10625 59.434376 19.059376 58.746876Q18.028126 58.059376 17.45 56.840626Q16.8875 55.621876 16.8875 54.028126Q16.8875 52.465626 17.403126 51.2Q17.91875 49.934376 18.95 49.2625Q19.996876 48.590626 21.2625 48.590626Q22.2 48.590626 22.934376 48.996876Q23.66875 49.3875 24.1375 50.0125L24.1375 44.8875L25.871876 44.8875L25.871876 59.2L24.246876 59.2ZM18.684376 54.028126Q18.684376 56.0125 19.528126 56.996876Q20.371876 57.98125 21.5125 57.98125Q22.66875 57.98125 23.465626 57.04375Q24.278126 56.10625 24.278126 54.16875Q24.278126 52.04375 23.45 51.04375Q22.6375 50.04375 21.434376 50.04375Q20.2625 50.04375 19.465626 51.0125Q18.684376 51.965626 18.684376 54.028126ZM27.871876 54.0125Q27.871876 51.1375 29.465626 49.746876Q30.809376 48.590626 32.73125 48.590626Q34.871876 48.590626 36.215626 49.996876Q37.575 51.403126 37.575 53.871876Q37.575 55.871876 36.98125 57.028126Q36.3875 58.16875 35.23125 58.809376Q34.090626 59.434376 32.73125 59.434376Q30.54375 59.434376 29.2 58.04375Q27.871876 56.6375 27.871876 54.0125ZM29.66875 54.0125Q29.66875 56.0125 30.528126 56.996876Q31.403126 57.98125 32.73125 57.98125Q34.04375 57.98125 34.903126 56.996876Q35.778126 55.996876 35.778126 53.95Q35.778126 52.028126 34.903126 51.04375Q34.028126 50.04375 32.73125 50.04375Q31.403126 50.04375 30.528126 51.04375Q29.66875 52.028126 29.66875 54.0125ZM41.434376 59.2L38.2625 48.825L40.075 48.825L41.73125 54.809376L42.340626 57.04375Q42.3875 56.871876 42.871876 54.903126L44.528126 48.825L46.340626 48.825L47.8875 54.840626L48.403126 56.825L48.996876 54.825L50.778126 48.825L52.48125 48.825L49.246876 59.2L47.41875 59.2L45.7625 52.98125L45.371876 51.215626L43.2625 59.2L41.434376 59.2ZM54.5125 59.2L54.5125 48.825L56.10625 48.825L56.10625 50.309376Q57.246876 48.590626 59.403126 48.590626Q60.340626 48.590626 61.121876 48.934376Q61.91875 49.2625 62.309376 49.809376Q62.7 50.35625 62.85625 51.10625Q62.95 51.60625 62.95 52.825L62.95 59.2L61.184376 59.2L61.184376 52.8875Q61.184376 51.809376 60.98125 51.278126Q60.778126 50.746876 60.246876 50.434376Q59.73125 50.121876 59.028126 50.121876Q57.903126 50.121876 57.090626 50.840626Q56.278126 51.54375 56.278126 53.528126L56.278126 59.2L54.5125 59.2ZM64.48125 59.2L64.48125 44.8875L66.23125 44.8875L66.23125 59.2L64.48125 59.2ZM67.87187 54.0125Q67.87187 51.1375 69.46562 49.746876Q70.80937 48.590626 72.73125 48.590626Q74.87187 48.590626 76.21562 49.996876Q77.575 51.403126 77.575 53.871876Q77.575 55.871876 76.98125 57.028126Q76.3875 58.16875 75.23125 58.809376Q74.09062 59.434376 72.73125 59.434376Q70.54375 59.434376 69.2 58.04375Q67.87187 56.6375 67.87187 54.0125ZM69.66875 54.0125Q69.66875 56.0125 70.52812 56.996876Q71.40312 57.98125 72.73125 57.98125Q74.04375 57.98125 74.90312 56.996876Q75.77812 55.996876 75.77812 53.95Q75.77812 52.028126 74.90312 51.04375Q74.02812 50.04375 72.73125 50.04375Q71.40312 50.04375 70.52812 51.04375Q69.66875 52.028126 69.66875 54.0125ZM86.29375 57.91875Q85.30937 58.746876 84.40312 59.090626Q83.49687 59.434376 82.46562 59.434376Q80.7625 59.434376 79.84062 58.60625Q78.91875 57.7625 78.91875 56.465626Q78.91875 55.7 79.2625 55.075Q79.62187 54.45 80.18437 54.075Q80.74687 53.684376 81.45 53.48125Q81.96562 53.35625 83.0125 53.215626Q85.1375 52.965626 86.1375 52.621876Q86.15312 52.2625 86.15312 52.153126Q86.15312 51.090626 85.65312 50.6375Q84.98125 50.04375 83.65312 50.04375Q82.40312 50.04375 81.80937 50.48125Q81.23125 50.91875 80.95 52.028126L79.23125 51.79375Q79.46562 50.684376 79.99687 50.0125Q80.52812 49.325 81.54375 48.965626Q82.55937 48.590626 83.90312 48.590626Q85.23125 48.590626 86.05937 48.903126Q86.8875 49.215626 87.27812 49.7Q87.66875 50.16875 87.825 50.8875Q87.91875 51.340626 87.91875 52.5125L87.91875 54.85625Q87.91875 57.309376 88.02812 57.965626Q88.1375 58.60625 88.48125 59.2L86.6375 59.2Q86.37187 58.653126 86.29375 57.91875ZM86.1375 53.996876Q85.18437 54.3875 83.2625 54.653126Q82.18437 54.809376 81.73125 55.0125Q81.29375 55.2 81.04375 55.575Q80.79375 55.95 80.79375 56.41875Q80.79375 57.121876 81.325 57.590626Q81.85625 58.059376 82.8875 58.059376Q83.90312 58.059376 84.68437 57.621876Q85.48125 57.16875 85.85625 56.403126Q86.1375 55.79375 86.1375 54.6375L86.1375 53.996876ZM97.24687 59.2L97.24687 57.8875Q96.2625 59.434376 94.34062 59.434376Q93.10625 59.434376 92.05937 58.746876Q91.02812 58.059376 90.45 56.840626Q89.8875 55.621876 89.8875 54.028126Q89.8875 52.465626 90.40312 51.2Q90.91875 49.934376 91.95 49.2625Q92.99687 48.590626 94.2625 48.590626Q95.2 48.590626 95.93437 48.996876Q96.66875 49.3875 97.1375 50.0125L97.1375 44.8875L98.87187 44.8875L98.87187 59.2L97.24687 59.2ZM91.68437 54.028126Q91.68437 56.0125 92.52812 56.996876Q93.37187 57.98125 94.5125 57.98125Q95.66875 57.98125 96.46562 57.04375Q97.27812 56.10625 97.27812 54.16875Q97.27812 52.04375 96.45 51.04375Q95.6375 50.04375 94.43437 50.04375Q93.2625 50.04375 92.46562 51.0125Q91.68437 51.965626 91.68437 54.028126ZM101.52812 46.903126L101.52812 44.8875L103.29375 44.8875L103.29375 46.903126L101.52812 46.903126ZM101.52812 59.2L101.52812 48.825L103.29375 48.825L103.29375 59.2L101.52812 59.2ZM105.5125 59.2L105.5125 48.825L107.10625 48.825L107.10625 50.309376Q108.24687 48.590626 110.40312 48.590626Q111.34062 48.590626 112.12187 48.934376Q112.91875 49.2625 113.30937 49.809376Q113.7 50.35625 113.85625 51.10625Q113.95 51.60625 113.95 52.825L113.95 59.2L112.18437 59.2L112.18437 52.8875Q112.18437 51.809376 111.98125 51.278126Q111.77812 50.746876 111.24687 50.434376Q110.73125 50.121876 110.02812 50.121876Q108.90312 50.121876 108.09062 50.840626Q107.27812 51.54375 107.27812 53.528126L107.27812 59.2L105.5125 59.2ZM115.2 60.059376L116.90312 60.309376Q117.0125 61.10625 117.49687 61.465626Q118.15312 61.95 119.29375 61.95Q120.5125 61.95 121.16875 61.465626Q121.84062 60.98125 122.075 60.10625Q122.21562 59.559376 122.2 57.840626Q121.04375 59.2 119.325 59.2Q117.18437 59.2 116.0125 57.653126Q114.84062 56.10625 114.84062 53.95Q114.84062 52.465626 115.37187 51.215626Q115.91875 49.965626 116.93437 49.278126Q117.96562 48.590626 119.34062 48.590626Q121.16875 48.590626 122.37187 50.075L122.37187 48.825L123.98125 48.825L123.98125 57.79375Q123.98125 60.215626 123.48125 61.215626Q122.99687 62.23125 121.91875 62.809376Q120.85625 63.403126 119.29375 63.403126Q117.45 63.403126 116.29375 62.575Q115.15312 61.746876 115.2 60.059376ZM116.65312 53.825Q116.65312 55.871876 117.46562 56.809376Q118.27812 57.746876 119.49687 57.746876Q120.7 57.746876 121.5125 56.809376Q122.34062 55.871876 122.34062 53.8875Q122.34062 51.98125 121.49687 51.0125Q120.65312 50.04375 119.46562 50.04375Q118.29375 50.04375 117.46562 50.996876Q116.65312 51.95 116.65312 53.825ZM141.2625 57.5125L141.2625 59.2L131.80937 59.2Q131.79375 58.559376 132.0125 57.98125Q132.37187 57.0125 133.16875 56.075Q133.96562 55.1375 135.46562 53.903126Q137.80937 51.996876 138.62187 50.8875Q139.45 49.7625 139.45 48.7625Q139.45 47.715626 138.7 46.996876Q137.95 46.278126 136.74687 46.278126Q135.48125 46.278126 134.71562 47.04375Q133.95 47.809376 133.95 49.153126L132.1375 48.965626Q132.325 46.95 133.52812 45.8875Q134.74687 44.825 136.79375 44.825Q138.84062 44.825 140.04375 45.965626Q141.24687 47.10625 141.24687 48.79375Q141.24687 49.653126 140.8875 50.496876Q140.54375 51.325 139.73125 52.246876Q138.91875 53.153126 137.02812 54.7625Q135.43437 56.090626 134.98125 56.559376Q134.54375 57.028126 134.24687 57.5125L141.2625 57.5125ZM143.68437 59.2L143.68437 44.8875L146.54375 44.8875L149.91875 55.0125Q150.3875 56.434376 150.60625 57.1375Q150.85625 56.35625 151.37187 54.840626L154.79375 44.8875L157.34062 44.8875L157.34062 59.2L155.52812 59.2L155.52812 47.215626L151.35625 59.2L149.65312 59.2L145.5125 47.0125L145.5125 59.2L143.68437 59.2ZM160.66875 59.2L160.66875 44.8875L166.04375 44.8875Q167.68437 44.8875 168.66875 45.325Q169.65312 45.746876 170.21562 46.653126Q170.77812 47.559376 170.77812 48.54375Q170.77812 49.465626 170.27812 50.278126Q169.79375 51.090626 168.77812 51.575Q170.075 51.965626 170.77812 52.8875Q171.48125 53.79375 171.48125 55.04375Q171.48125 56.059376 171.04375 56.91875Q170.62187 57.778126 169.99687 58.246876Q169.37187 58.715626 168.43437 58.965626Q167.49687 59.2 166.12187 59.2L160.66875 59.2ZM162.55937 50.903126L165.65312 50.903126Q166.91875 50.903126 167.46562 50.73125Q168.18437 50.5125 168.54375 50.028126Q168.91875 49.528126 168.91875 48.7625Q168.91875 48.059376 168.575 47.5125Q168.23125 46.965626 167.59062 46.778126Q166.96562 46.575 165.41875 46.575L162.55937 46.575L162.55937 50.903126ZM162.55937 57.5125L166.12187 57.5125Q167.04375 57.5125 167.41875 57.434376Q168.075 57.325 168.5125 57.059376Q168.95 56.778126 169.23125 56.2625Q169.5125 55.73125 169.5125 55.04375Q169.5125 54.246876 169.10625 53.653126Q168.7 53.059376 167.96562 52.825Q167.23125 52.590626 165.87187 52.590626L162.55937 52.590626L162.55937 57.5125ZM179.93437 59.2L179.93437 50.2L178.3875 50.2L178.3875 48.825L179.93437 48.825L179.93437 47.73125Q179.93437 46.684376 180.12187 46.16875Q180.37187 45.48125 181.0125 45.059376Q181.65312 44.6375 182.80937 44.6375Q183.55937 44.6375 184.45 44.809376L184.18437 46.340626Q183.6375 46.246876 183.15312 46.246876Q182.35625 46.246876 182.0125 46.590626Q181.68437 46.934376 181.68437 47.871876L181.68437 48.825L183.71562 48.825L183.71562 50.2L181.68437 50.2L181.68437 59.2L179.93437 59.2ZM185.52812 46.903126L185.52812 44.8875L187.29375 44.8875L187.29375 46.903126L185.52812 46.903126ZM185.52812 59.2L185.52812 48.825L187.29375 48.825L187.29375 59.2L185.52812 59.2ZM189.48125 59.2L189.48125 44.8875L191.23125 44.8875L191.23125 59.2L189.48125 59.2ZM200.62187 55.85625L202.43437 56.090626Q202.0125 57.66875 200.84062 58.559376Q199.68437 59.434376 197.87187 59.434376Q195.60625 59.434376 194.2625 58.04375Q192.93437 56.6375 192.93437 54.10625Q192.93437 51.48125 194.27812 50.04375Q195.62187 48.590626 197.77812 48.590626Q199.85625 48.590626 201.16875 50.0125Q202.49687 51.41875 202.49687 53.996876Q202.49687 54.153126 202.48125 54.465626L194.74687 54.465626Q194.84062 56.16875 195.71562 57.075Q196.59062 57.98125 197.8875 57.98125Q198.85625 57.98125 199.52812 57.48125Q200.21562 56.965626 200.62187 55.85625ZM194.84062 53.0125L200.6375 53.0125Q200.52812 51.715626 199.98125 51.059376Q199.1375 50.04375 197.79375 50.04375Q196.59062 50.04375 195.7625 50.85625Q194.93437 51.653126 194.84062 53.0125Z" fill-rule="nonzero"/></svg>