<svg version="1.1" viewBox="0.0 0.0 378.0 371.0" fill="none" stroke="none" stroke-linecap="square" stroke-miterlimit="10" width="378" height="371" xmlns:xlink="http://www.w3.org/1999/xlink" xmlns="http://www.w3.org/2000/svg"><path fill="#ffffff" d="M0 0L378.0 0L378.0 371.0L0 371.0L0 0Z" fill-rule="nonzero"/><path stroke="#333333" stroke-width="1.0" stroke-linecap="butt" d="M18.5 78.5L18.5 332.5" fill-rule="nonzero"/><path stroke="#cccccc" stroke-width="1.0" stroke-linecap="butt" d="M75.5 78.5L75.5 332.5" fill-rule="nonzero"/><path stroke="#cccccc" stroke-width="1.0" stroke-linecap="butt" d="M132.5 78.5L132.5 332.5" fill-rule="nonzero"/><path stroke="#cccccc" stroke-width="1.0" stroke-linecap="butt" d="M189.5 78.5L189.5 332.5" fill-rule="nonzero"/><path stroke="#cccccc" stroke-width="1.0" stroke-linecap="butt" d="M245.5 78.5L245.5 332.5" fill-rule="nonzero"/><path stroke="#cccccc" stroke-width="1.0" stroke-linecap="butt" d="M302.5 78.5L302.5 332.5" fill-rule="nonzero"/><path stroke="#cccccc" stroke-width="1.0" stroke-linecap="butt" d="M359.5 78.5L359.5 332.5" fill-rule="nonzero"/><clipPath id="id_0"><path d="M18.55 78.916664L359.45 78.916664L359.45 332.45L18.55 332.45L18.55 78.916664Z" clip-rule="nonzero"/></clipPath><path stroke="#000000" stroke-width="2.0" stroke-linecap="butt" stroke-opacity="0.0" clip-path="url(#id_0)" d="M19.0 306.0L19.0 257.0L28.0 257.0C29.10457 257.0 30.0 257.89542 30.0 259.0L30.0 304.0C30.0 305.10458 29.10457 306.0 28.0 306.0Z" fill-rule="nonzero"/><path fill="#4285f4" clip-path="url(#id_0)" d="M19.0 306.0L19.0 257.0L28.0 257.0C29.10457 257.0 30.0 257.89542 30.0 259.0L30.0 304.0C30.0 305.10458 29.10457 306.0 28.0 306.0Z" fill-rule="nonzero"/><path stroke="#000000" stroke-width="2.0" stroke-linecap="butt" stroke-opacity="0.0" clip-path="url(#id_0)" d="M19.0 231.0L19.0 182.0L84.0 182.0C85.10457 182.0 86.0 182.89543 86.0 184.0L86.0 229.0C86.0 230.10457 85.10457 231.0 84.0 231.0Z" fill-rule="nonzero"/><path fill="#4285f4" clip-path="url(#id_0)" d="M19.0 231.0L19.0 182.0L84.0 182.0C85.10457 182.0 86.0 182.89543 86.0 184.0L86.0 229.0C86.0 230.10457 85.10457 231.0 84.0 231.0Z" fill-rule="nonzero"/><path stroke="#000000" stroke-width="2.0" stroke-linecap="butt" stroke-opacity="0.0" clip-path="url(#id_0)" d="M19.0 155.0L19.0 106.0L141.0 106.0C142.10457 106.0 143.0 106.89543 143.0 108.0L143.0 153.0C143.0 154.10457 142.10457 155.0 141.0 155.0Z" fill-rule="nonzero"/><path fill="#4285f4" clip-path="url(#id_0)" d="M19.0 155.0L19.0 106.0L141.0 106.0C142.10457 106.0 143.0 106.89543 143.0 108.0L143.0 153.0C143.0 154.10457 142.10457 155.0 141.0 155.0Z" fill-rule="nonzero"/><path stroke="#ffffff" stroke-width="3.0" stroke-linejoin="round" stroke-linecap="round" d="M49.77997 285.5L48.65497 285.5L48.65497 281.5625L44.34247 281.5625L44.34247 285.5L43.21747 285.5L43.21747 276.96875L44.34247 276.96875L44.34247 280.64062L48.65497 280.64062L48.65497 276.96875L49.77997 276.96875L49.77997 285.5ZM58.12372 277.89062L55.37372 277.89062L55.37372 285.5L54.264343 285.5L54.264343 277.89062L51.514343 277.89062L51.514343 276.96875L58.12372 276.96875L58.12372 277.89062ZM65.12372 277.89062L62.37372 277.89062L62.37372 285.5L61.264343 285.5L61.264343 277.89062L58.514343 277.89062L58.514343 276.96875L65.12372 276.96875L65.12372 277.89062ZM67.34247 282.15625L67.34247 285.5L66.21747 285.5L66.21747 276.96875L69.37372 276.96875Q70.76434 276.96875 71.56122 277.6875Q72.35809 278.39062 72.35809 279.57812Q72.35809 280.8125 71.57684 281.48438Q70.81122 282.15625 69.35809 282.15625L67.34247 282.15625ZM67.34247 281.23438L69.37372 281.23438Q70.27997 281.23438 70.74872 280.8125Q71.23309 280.39062 71.23309 279.59375Q71.23309 278.82812 70.74872 278.375Q70.27997 277.90625 69.43622 277.89062L67.34247 277.89062L67.34247 281.23438ZM74.26434 286.23438L73.34247 286.23438L76.90497 276.96875L77.82684 276.96875L74.26434 286.23438ZM82.49872 285.5L81.42059 285.5L81.42059 278.28125L79.23309 279.07812L79.23309 278.09375L82.34247 276.92188L82.49872 276.92188L82.49872 285.5ZM86.07684 284.9375Q86.07684 284.65625 86.23309 284.46875Q86.40497 284.28125 86.73309 284.28125Q87.07684 284.28125 87.24872 284.46875Q87.42059 284.65625 87.42059 284.9375Q87.42059 285.20312 87.24872 285.39062Q87.07684 285.5625 86.73309 285.5625Q86.40497 285.5625 86.23309 285.39062Q86.07684 285.20312 86.07684 284.9375ZM92.49872 285.5L91.42059 285.5L91.42059 278.28125L89.23309 279.07812L89.23309 278.09375L92.34247 276.92188L92.49872 276.92188L92.49872 285.5ZM104.52997 285.5L98.93622 285.5L98.93622 284.71875L101.88934 281.4375Q102.54559 280.6875 102.79559 280.23438Q103.04559 279.76562 103.04559 279.26562Q103.04559 278.59375 102.63934 278.17188Q102.24872 277.73438 101.56122 277.73438Q100.76434 277.73438 100.31122 278.20312Q99.85809 278.65625 99.85809 279.48438L98.77997 279.48438Q98.77997 278.29688 99.52997 277.57812Q100.29559 276.84375 101.56122 276.84375Q102.76434 276.84375 103.45184 277.46875Q104.13934 278.09375 104.13934 279.14062Q104.13934 280.39062 102.52997 282.14062L100.24872 284.60938L104.52997 284.60938L104.52997 285.5ZM107.51434 280.70312L108.32684 280.70312Q109.10809 280.6875 109.54559 280.29688Q109.98309 279.90625 109.98309 279.23438Q109.98309 277.73438 108.48309 277.73438Q107.77997 277.73438 107.35809 278.14062Q106.95184 278.54688 106.95184 279.20312L105.85809 279.20312Q105.85809 278.1875 106.59247 277.51562Q107.34247 276.84375 108.48309 276.84375Q109.68622 276.84375 110.37372 277.48438Q111.06122 278.125 111.06122 279.26562Q111.06122 279.82812 110.70184 280.34375Q110.34247 280.85938 109.71747 281.125Q110.42059 281.34375 110.79559 281.85938Q111.18622 282.375 111.18622 283.125Q111.18622 284.26562 110.43622 284.95312Q109.68622 285.625 108.48309 285.625Q107.29559 285.625 106.52997 284.96875Q105.77997 284.3125 105.77997 283.25L106.87372 283.25Q106.87372 283.92188 107.31122 284.32812Q107.74872 284.73438 108.49872 284.73438Q109.27997 284.73438 109.68622 284.32812Q110.10809 283.90625 110.10809 283.14062Q110.10809 282.40625 109.65497 282.01562Q109.20184 281.60938 108.32684 281.59375L107.51434 281.59375L107.51434 280.70312ZM114.07684 279.15625L114.10809 279.85938Q114.79559 279.04688 115.98309 279.04688Q117.31122 279.04688 117.79559 280.0625Q118.10809 279.60938 118.60809 279.32812Q119.12372 279.04688 119.81122 279.04688Q121.90497 279.04688 121.93622 281.25L121.93622 285.5L120.85809 285.5L120.85809 281.3125Q120.85809 280.64062 120.54559 280.3125Q120.23309 279.96875 119.49872 279.96875Q118.88934 279.96875 118.48309 280.32812Q118.09247 280.6875 118.02997 281.29688L118.02997 285.5L116.95184 285.5L116.95184 281.34375Q116.95184 279.96875 115.59247 279.96875Q114.52997 279.96875 114.13934 280.875L114.13934 285.5L113.04559 285.5L113.04559 279.15625L114.07684 279.15625ZM127.74872 283.8125Q127.74872 283.375 127.40497 283.14062Q127.07684 282.89062 126.24872 282.71875Q125.43622 282.54688 124.95184 282.29688Q124.46747 282.04688 124.23309 281.71875Q124.01434 281.375 124.01434 280.90625Q124.01434 280.125 124.67059 279.59375Q125.32684 279.04688 126.35809 279.04688Q127.43622 279.04688 128.09247 279.60938Q128.76434 280.15625 128.76434 281.01562L127.68622 281.01562Q127.68622 280.57812 127.29559 280.26562Q126.92059 279.9375 126.35809 279.9375Q125.76434 279.9375 125.42059 280.20312Q125.09247 280.45312 125.09247 280.85938Q125.09247 281.25 125.40497 281.45312Q125.71747 281.65625 126.52997 281.84375Q127.34247 282.01562 127.84247 282.26562Q128.34247 282.51562 128.57684 282.875Q128.82684 283.23438 128.82684 283.73438Q128.82684 284.59375 128.13934 285.10938Q127.46747 285.625 126.38934 285.625Q125.62372 285.625 125.02997 285.35938Q124.45184 285.07812 124.12372 284.59375Q123.79559 284.10938 123.79559 283.54688L124.87372 283.54688Q124.90497 284.09375 125.31122 284.42188Q125.71747 284.73438 126.38934 284.73438Q126.99872 284.73438 127.37372 284.48438Q127.74872 284.23438 127.74872 283.8125ZM134.34247 282.15625L134.34247 285.5L133.21747 285.5L133.21747 276.96875L136.37372 276.96875Q137.76434 276.96875 138.56122 277.6875Q139.3581 278.39062 139.3581 279.57812Q139.3581 280.8125 138.57684 281.48438Q137.81122 282.15625 136.3581 282.15625L134.34247 282.15625ZM134.34247 281.23438L136.37372 281.23438Q137.27997 281.23438 137.74872 280.8125Q138.2331 280.39062 138.2331 279.59375Q138.2331 278.82812 137.74872 278.375Q137.27997 277.90625 136.43622 277.89062L134.34247 277.89062L134.34247 281.23438ZM142.2331 285.5L141.15497 285.5L141.15497 279.15625L142.2331 279.15625L142.2331 285.5ZM141.06122 277.48438Q141.06122 277.21875 141.21747 277.03125Q141.38934 276.84375 141.70184 276.84375Q142.01434 276.84375 142.1706 277.03125Q142.34247 277.21875 142.34247 277.48438Q142.34247 277.73438 142.1706 277.92188Q142.01434 278.09375 141.70184 278.09375Q141.38934 278.09375 141.21747 277.92188Q141.06122 277.73438 141.06122 277.48438ZM145.07684 279.15625L145.1081 279.95312Q145.84247 279.04688 147.01434 279.04688Q149.02997 279.04688 149.0456 281.3125L149.0456 285.5L147.95184 285.5L147.95184 281.29688Q147.95184 280.625 147.63934 280.29688Q147.34247 279.96875 146.68622 279.96875Q146.15497 279.96875 145.74872 280.25Q145.3581 280.53125 145.13934 280.98438L145.13934 285.5L144.06122 285.5L144.06122 279.15625L145.07684 279.15625ZM150.7956 282.28125Q150.7956 280.79688 151.4831 279.92188Q152.1706 279.04688 153.2956 279.04688Q154.45184 279.04688 155.1081 279.85938L155.15497 279.15625L156.15497 279.15625L156.15497 285.34375Q156.15497 286.57812 155.4206 287.28125Q154.68622 288.0 153.46747 288.0Q152.77997 288.0 152.12372 287.70312Q151.46747 287.40625 151.12372 286.90625L151.68622 286.25Q152.37372 287.10938 153.38934 287.10938Q154.1706 287.10938 154.6081 286.65625Q155.06122 286.21875 155.06122 285.40625L155.06122 284.85938Q154.40497 285.625 153.27997 285.625Q152.1706 285.625 151.4831 284.73438Q150.7956 283.82812 150.7956 282.28125ZM151.88934 282.40625Q151.88934 283.46875 152.32684 284.09375Q152.76434 284.70312 153.56122 284.70312Q154.57684 284.70312 155.06122 283.76562L155.06122 280.875Q154.56122 279.96875 153.56122 279.96875Q152.77997 279.96875 152.32684 280.57812Q151.88934 281.1875 151.88934 282.40625Z" fill-rule="nonzero"/><path fill="#4285f4" d="M49.77997 285.5L48.65497 285.5L48.65497 281.5625L44.34247 281.5625L44.34247 285.5L43.21747 285.5L43.21747 276.96875L44.34247 276.96875L44.34247 280.64062L48.65497 280.64062L48.65497 276.96875L49.77997 276.96875L49.77997 285.5ZM58.12372 277.89062L55.37372 277.89062L55.37372 285.5L54.264343 285.5L54.264343 277.89062L51.514343 277.89062L51.514343 276.96875L58.12372 276.96875L58.12372 277.89062ZM65.12372 277.89062L62.37372 277.89062L62.37372 285.5L61.264343 285.5L61.264343 277.89062L58.514343 277.89062L58.514343 276.96875L65.12372 276.96875L65.12372 277.89062ZM67.34247 282.15625L67.34247 285.5L66.21747 285.5L66.21747 276.96875L69.37372 276.96875Q70.76434 276.96875 71.56122 277.6875Q72.35809 278.39062 72.35809 279.57812Q72.35809 280.8125 71.57684 281.48438Q70.81122 282.15625 69.35809 282.15625L67.34247 282.15625ZM67.34247 281.23438L69.37372 281.23438Q70.27997 281.23438 70.74872 280.8125Q71.23309 280.39062 71.23309 279.59375Q71.23309 278.82812 70.74872 278.375Q70.27997 277.90625 69.43622 277.89062L67.34247 277.89062L67.34247 281.23438ZM74.26434 286.23438L73.34247 286.23438L76.90497 276.96875L77.82684 276.96875L74.26434 286.23438ZM82.49872 285.5L81.42059 285.5L81.42059 278.28125L79.23309 279.07812L79.23309 278.09375L82.34247 276.92188L82.49872 276.92188L82.49872 285.5ZM86.07684 284.9375Q86.07684 284.65625 86.23309 284.46875Q86.40497 284.28125 86.73309 284.28125Q87.07684 284.28125 87.24872 284.46875Q87.42059 284.65625 87.42059 284.9375Q87.42059 285.20312 87.24872 285.39062Q87.07684 285.5625 86.73309 285.5625Q86.40497 285.5625 86.23309 285.39062Q86.07684 285.20312 86.07684 284.9375ZM92.49872 285.5L91.42059 285.5L91.42059 278.28125L89.23309 279.07812L89.23309 278.09375L92.34247 276.92188L92.49872 276.92188L92.49872 285.5ZM104.52997 285.5L98.93622 285.5L98.93622 284.71875L101.88934 281.4375Q102.54559 280.6875 102.79559 280.23438Q103.04559 279.76562 103.04559 279.26562Q103.04559 278.59375 102.63934 278.17188Q102.24872 277.73438 101.56122 277.73438Q100.76434 277.73438 100.31122 278.20312Q99.85809 278.65625 99.85809 279.48438L98.77997 279.48438Q98.77997 278.29688 99.52997 277.57812Q100.29559 276.84375 101.56122 276.84375Q102.76434 276.84375 103.45184 277.46875Q104.13934 278.09375 104.13934 279.14062Q104.13934 280.39062 102.52997 282.14062L100.24872 284.60938L104.52997 284.60938L104.52997 285.5ZM107.51434 280.70312L108.32684 280.70312Q109.10809 280.6875 109.54559 280.29688Q109.98309 279.90625 109.98309 279.23438Q109.98309 277.73438 108.48309 277.73438Q107.77997 277.73438 107.35809 278.14062Q106.95184 278.54688 106.95184 279.20312L105.85809 279.20312Q105.85809 278.1875 106.59247 277.51562Q107.34247 276.84375 108.48309 276.84375Q109.68622 276.84375 110.37372 277.48438Q111.06122 278.125 111.06122 279.26562Q111.06122 279.82812 110.70184 280.34375Q110.34247 280.85938 109.71747 281.125Q110.42059 281.34375 110.79559 281.85938Q111.18622 282.375 111.18622 283.125Q111.18622 284.26562 110.43622 284.95312Q109.68622 285.625 108.48309 285.625Q107.29559 285.625 106.52997 284.96875Q105.77997 284.3125 105.77997 283.25L106.87372 283.25Q106.87372 283.92188 107.31122 284.32812Q107.74872 284.73438 108.49872 284.73438Q109.27997 284.73438 109.68622 284.32812Q110.10809 283.90625 110.10809 283.14062Q110.10809 282.40625 109.65497 282.01562Q109.20184 281.60938 108.32684 281.59375L107.51434 281.59375L107.51434 280.70312ZM114.07684 279.15625L114.10809 279.85938Q114.79559 279.04688 115.98309 279.04688Q117.31122 279.04688 117.79559 280.0625Q118.10809 279.60938 118.60809 279.32812Q119.12372 279.04688 119.81122 279.04688Q121.90497 279.04688 121.93622 281.25L121.93622 285.5L120.85809 285.5L120.85809 281.3125Q120.85809 280.64062 120.54559 280.3125Q120.23309 279.96875 119.49872 279.96875Q118.88934 279.96875 118.48309 280.32812Q118.09247 280.6875 118.02997 281.29688L118.02997 285.5L116.95184 285.5L116.95184 281.34375Q116.95184 279.96875 115.59247 279.96875Q114.52997 279.96875 114.13934 280.875L114.13934 285.5L113.04559 285.5L113.04559 279.15625L114.07684 279.15625ZM127.74872 283.8125Q127.74872 283.375 127.40497 283.14062Q127.07684 282.89062 126.24872 282.71875Q125.43622 282.54688 124.95184 282.29688Q124.46747 282.04688 124.23309 281.71875Q124.01434 281.375 124.01434 280.90625Q124.01434 280.125 124.67059 279.59375Q125.32684 279.04688 126.35809 279.04688Q127.43622 279.04688 128.09247 279.60938Q128.76434 280.15625 128.76434 281.01562L127.68622 281.01562Q127.68622 280.57812 127.29559 280.26562Q126.92059 279.9375 126.35809 279.9375Q125.76434 279.9375 125.42059 280.20312Q125.09247 280.45312 125.09247 280.85938Q125.09247 281.25 125.40497 281.45312Q125.71747 281.65625 126.52997 281.84375Q127.34247 282.01562 127.84247 282.26562Q128.34247 282.51562 128.57684 282.875Q128.82684 283.23438 128.82684 283.73438Q128.82684 284.59375 128.13934 285.10938Q127.46747 285.625 126.38934 285.625Q125.62372 285.625 125.02997 285.35938Q124.45184 285.07812 124.12372 284.59375Q123.79559 284.10938 123.79559 283.54688L124.87372 283.54688Q124.90497 284.09375 125.31122 284.42188Q125.71747 284.73438 126.38934 284.73438Q126.99872 284.73438 127.37372 284.48438Q127.74872 284.23438 127.74872 283.8125ZM134.34247 282.15625L134.34247 285.5L133.21747 285.5L133.21747 276.96875L136.37372 276.96875Q137.76434 276.96875 138.56122 277.6875Q139.3581 278.39062 139.3581 279.57812Q139.3581 280.8125 138.57684 281.48438Q137.81122 282.15625 136.3581 282.15625L134.34247 282.15625ZM134.34247 281.23438L136.37372 281.23438Q137.27997 281.23438 137.74872 280.8125Q138.2331 280.39062 138.2331 279.59375Q138.2331 278.82812 137.74872 278.375Q137.27997 277.90625 136.43622 277.89062L134.34247 277.89062L134.34247 281.23438ZM142.2331 285.5L141.15497 285.5L141.15497 279.15625L142.2331 279.15625L142.2331 285.5ZM141.06122 277.48438Q141.06122 277.21875 141.21747 277.03125Q141.38934 276.84375 141.70184 276.84375Q142.01434 276.84375 142.1706 277.03125Q142.34247 277.21875 142.34247 277.48438Q142.34247 277.73438 142.1706 277.92188Q142.01434 278.09375 141.70184 278.09375Q141.38934 278.09375 141.21747 277.92188Q141.06122 277.73438 141.06122 277.48438ZM145.07684 279.15625L145.1081 279.95312Q145.84247 279.04688 147.01434 279.04688Q149.02997 279.04688 149.0456 281.3125L149.0456 285.5L147.95184 285.5L147.95184 281.29688Q147.95184 280.625 147.63934 280.29688Q147.34247 279.96875 146.68622 279.96875Q146.15497 279.96875 145.74872 280.25Q145.3581 280.53125 145.13934 280.98438L145.13934 285.5L144.06122 285.5L144.06122 279.15625L145.07684 279.15625ZM150.7956 282.28125Q150.7956 280.79688 151.4831 279.92188Q152.1706 279.04688 153.2956 279.04688Q154.45184 279.04688 155.1081 279.85938L155.15497 279.15625L156.15497 279.15625L156.15497 285.34375Q156.15497 286.57812 155.4206 287.28125Q154.68622 288.0 153.46747 288.0Q152.77997 288.0 152.12372 287.70312Q151.46747 287.40625 151.12372 286.90625L151.68622 286.25Q152.37372 287.10938 153.38934 287.10938Q154.1706 287.10938 154.6081 286.65625Q155.06122 286.21875 155.06122 285.40625L155.06122 284.85938Q154.40497 285.625 153.27997 285.625Q152.1706 285.625 151.4831 284.73438Q150.7956 283.82812 150.7956 282.28125ZM151.88934 282.40625Q151.88934 283.46875 152.32684 284.09375Q152.76434 284.70312 153.56122 284.70312Q154.57684 284.70312 155.06122 283.76562L155.06122 280.875Q154.56122 279.96875 153.56122 279.96875Q152.77997 279.96875 152.32684 280.57812Q151.88934 281.1875 151.88934 282.40625Z" fill-rule="nonzero"/><path stroke="#ffffff" stroke-width="3.0" stroke-linejoin="round" stroke-linecap="round" d="M105.52584 210.5L104.40084 210.5L104.40084 206.5625L100.08834 206.5625L100.08834 210.5L98.96334 210.5L98.96334 201.96875L100.08834 201.96875L100.08834 205.64062L104.40084 205.64062L104.40084 201.96875L105.52584 201.96875L105.52584 210.5ZM113.86959 202.89062L111.11959 202.89062L111.11959 210.5L110.010216 210.5L110.010216 202.89062L107.260216 202.89062L107.260216 201.96875L113.86959 201.96875L113.86959 202.89062ZM120.86959 202.89062L118.11959 202.89062L118.11959 210.5L117.010216 210.5L117.010216 202.89062L114.260216 202.89062L114.260216 201.96875L120.86959 201.96875L120.86959 202.89062ZM123.08834 207.15625L123.08834 210.5L121.96334 210.5L121.96334 201.96875L125.11959 201.96875Q126.510216 201.96875 127.30709 202.6875Q128.10397 203.39062 128.10397 204.57812Q128.10397 205.8125 127.322716 206.48438Q126.55709 207.15625 125.103966 207.15625L123.08834 207.15625ZM123.08834 206.23438L125.11959 206.23438Q126.02584 206.23438 126.49459 205.8125Q126.978966 205.39062 126.978966 204.59375Q126.978966 203.82812 126.49459 203.375Q126.02584 202.90625 125.18209 202.89062L123.08834 202.89062L123.08834 206.23438ZM130.01022 211.23438L129.08835 211.23438L132.65085 201.96875L133.57272 201.96875L130.01022 211.23438ZM138.2446 210.5L137.16647 210.5L137.16647 203.28125L134.97897 204.07812L134.97897 203.09375L138.08835 201.92188L138.2446 201.92188L138.2446 210.5ZM141.82272 209.9375Q141.82272 209.65625 141.97897 209.46875Q142.15085 209.28125 142.47897 209.28125Q142.82272 209.28125 142.9946 209.46875Q143.16647 209.65625 143.16647 209.9375Q143.16647 210.20312 142.9946 210.39062Q142.82272 210.5625 142.47897 210.5625Q142.15085 210.5625 141.97897 210.39062Q141.82272 210.20312 141.82272 209.9375ZM148.2446 210.5L147.16647 210.5L147.16647 203.28125L144.97897 204.07812L144.97897 203.09375L148.08835 201.92188L148.2446 201.92188L148.2446 210.5ZM158.2446 210.5L157.16647 210.5L157.16647 203.28125L154.97897 204.07812L154.97897 203.09375L158.08835 201.92188L158.2446 201.92188L158.2446 210.5ZM167.27585 210.5L161.6821 210.5L161.6821 209.71875L164.63522 206.4375Q165.29147 205.6875 165.54147 205.23438Q165.79147 204.76562 165.79147 204.26562Q165.79147 203.59375 165.38522 203.17188Q164.9946 202.73438 164.3071 202.73438Q163.51022 202.73438 163.0571 203.20312Q162.60397 203.65625 162.60397 204.48438L161.52585 204.48438Q161.52585 203.29688 162.27585 202.57812Q163.04147 201.84375 164.3071 201.84375Q165.51022 201.84375 166.19772 202.46875Q166.88522 203.09375 166.88522 204.14062Q166.88522 205.39062 165.27585 207.14062L162.9946 209.60938L167.27585 209.60938L167.27585 210.5ZM170.26022 205.70312L171.07272 205.70312Q171.85397 205.6875 172.29147 205.29688Q172.72897 204.90625 172.72897 204.23438Q172.72897 202.73438 171.22897 202.73438Q170.52585 202.73438 170.10397 203.14062Q169.69772 203.54688 169.69772 204.20312L168.60397 204.20312Q168.60397 203.1875 169.33835 202.51562Q170.08835 201.84375 171.22897 201.84375Q172.4321 201.84375 173.1196 202.48438Q173.8071 203.125 173.8071 204.26562Q173.8071 204.82812 173.44772 205.34375Q173.08835 205.85938 172.46335 206.125Q173.16647 206.34375 173.54147 206.85938Q173.9321 207.375 173.9321 208.125Q173.9321 209.26562 173.1821 209.95312Q172.4321 210.625 171.22897 210.625Q170.04147 210.625 169.27585 209.96875Q168.52585 209.3125 168.52585 208.25L169.6196 208.25Q169.6196 208.92188 170.0571 209.32812Q170.4946 209.73438 171.2446 209.73438Q172.02585 209.73438 172.4321 209.32812Q172.85397 208.90625 172.85397 208.14062Q172.85397 207.40625 172.40085 207.01562Q171.94772 206.60938 171.07272 206.59375L170.26022 206.59375L170.26022 205.70312ZM176.82272 204.15625L176.85397 204.85938Q177.54147 204.04688 178.72897 204.04688Q180.0571 204.04688 180.54147 205.0625Q180.85397 204.60938 181.35397 204.32812Q181.8696 204.04688 182.5571 204.04688Q184.65085 204.04688 184.6821 206.25L184.6821 210.5L183.60397 210.5L183.60397 206.3125Q183.60397 205.64062 183.29147 205.3125Q182.97897 204.96875 182.2446 204.96875Q181.63522 204.96875 181.22897 205.32812Q180.83835 205.6875 180.77585 206.29688L180.77585 210.5L179.69772 210.5L179.69772 206.34375Q179.69772 204.96875 178.33835 204.96875Q177.27585 204.96875 176.88522 205.875L176.88522 210.5L175.79147 210.5L175.79147 204.15625L176.82272 204.15625ZM190.4946 208.8125Q190.4946 208.375 190.15085 208.14062Q189.82272 207.89062 188.9946 207.71875Q188.1821 207.54688 187.69772 207.29688Q187.21335 207.04688 186.97897 206.71875Q186.76022 206.375 186.76022 205.90625Q186.76022 205.125 187.41647 204.59375Q188.07272 204.04688 189.10397 204.04688Q190.1821 204.04688 190.83835 204.60938Q191.51022 205.15625 191.51022 206.01562L190.4321 206.01562Q190.4321 205.57812 190.04147 205.26562Q189.66647 204.9375 189.10397 204.9375Q188.51022 204.9375 188.16647 205.20312Q187.83835 205.45312 187.83835 205.85938Q187.83835 206.25 188.15085 206.45312Q188.46335 206.65625 189.27585 206.84375Q190.08835 207.01562 190.58835 207.26562Q191.08835 207.51562 191.32272 207.875Q191.57272 208.23438 191.57272 208.73438Q191.57272 209.59375 190.88522 210.10938Q190.21335 210.625 189.13522 210.625Q188.3696 210.625 187.77585 210.35938Q187.19772 210.07812 186.8696 209.59375Q186.54147 209.10938 186.54147 208.54688L187.6196 208.54688Q187.65085 209.09375 188.0571 209.42188Q188.46335 209.73438 189.13522 209.73438Q189.7446 209.73438 190.1196 209.48438Q190.4946 209.23438 190.4946 208.8125ZM197.08835 207.15625L197.08835 210.5L195.96335 210.5L195.96335 201.96875L199.1196 201.96875Q200.51022 201.96875 201.3071 202.6875Q202.10397 203.39062 202.10397 204.57812Q202.10397 205.8125 201.32272 206.48438Q200.5571 207.15625 199.10397 207.15625L197.08835 207.15625ZM197.08835 206.23438L199.1196 206.23438Q200.02585 206.23438 200.4946 205.8125Q200.97897 205.39062 200.97897 204.59375Q200.97897 203.82812 200.4946 203.375Q200.02585 202.90625 199.1821 202.89062L197.08835 202.89062L197.08835 206.23438ZM204.97897 210.5L203.90085 210.5L203.90085 204.15625L204.97897 204.15625L204.97897 210.5ZM203.8071 202.48438Q203.8071 202.21875 203.96335 202.03125Q204.13522 201.84375 204.44772 201.84375Q204.76022 201.84375 204.91647 202.03125Q205.08835 202.21875 205.08835 202.48438Q205.08835 202.73438 204.91647 202.92188Q204.76022 203.09375 204.44772 203.09375Q204.13522 203.09375 203.96335 202.92188Q203.8071 202.73438 203.8071 202.48438ZM207.82272 204.15625L207.85397 204.95312Q208.58835 204.04688 209.76022 204.04688Q211.77585 204.04688 211.79147 206.3125L211.79147 210.5L210.69772 210.5L210.69772 206.29688Q210.69772 205.625 210.38522 205.29688Q210.08835 204.96875 209.4321 204.96875Q208.90085 204.96875 208.4946 205.25Q208.10397 205.53125 207.88522 205.98438L207.88522 210.5L206.8071 210.5L206.8071 204.15625L207.82272 204.15625ZM213.54147 207.28125Q213.54147 205.79688 214.22897 204.92188Q214.91647 204.04688 216.04147 204.04688Q217.19772 204.04688 217.85397 204.85938L217.90085 204.15625L218.90085 204.15625L218.90085 210.34375Q218.90085 211.57812 218.16647 212.28125Q217.4321 213.0 216.21335 213.0Q215.52585 213.0 214.8696 212.70312Q214.21335 212.40625 213.8696 211.90625L214.4321 211.25Q215.1196 212.10938 216.13522 212.10938Q216.91647 212.10938 217.35397 211.65625Q217.8071 211.21875 217.8071 210.40625L217.8071 209.85938Q217.15085 210.625 216.02585 210.625Q214.91647 210.625 214.22897 209.73438Q213.54147 208.82812 213.54147 207.28125ZM214.63522 207.40625Q214.63522 208.46875 215.07272 209.09375Q215.51022 209.70312 216.3071 209.70312Q217.32272 209.70312 217.8071 208.76562L217.8071 205.875Q217.3071 204.96875 216.3071 204.96875Q215.52585 204.96875 215.07272 205.57812Q214.63522 206.1875 214.63522 207.40625Z" fill-rule="nonzero"/><path fill="#4285f4" d="M105.52584 210.5L104.40084 210.5L104.40084 206.5625L100.08834 206.5625L100.08834 210.5L98.96334 210.5L98.96334 201.96875L100.08834 201.96875L100.08834 205.64062L104.40084 205.64062L104.40084 201.96875L105.52584 201.96875L105.52584 210.5ZM113.86959 202.89062L111.11959 202.89062L111.11959 210.5L110.010216 210.5L110.010216 202.89062L107.260216 202.89062L107.260216 201.96875L113.86959 201.96875L113.86959 202.89062ZM120.86959 202.89062L118.11959 202.89062L118.11959 210.5L117.010216 210.5L117.010216 202.89062L114.260216 202.89062L114.260216 201.96875L120.86959 201.96875L120.86959 202.89062ZM123.08834 207.15625L123.08834 210.5L121.96334 210.5L121.96334 201.96875L125.11959 201.96875Q126.510216 201.96875 127.30709 202.6875Q128.10397 203.39062 128.10397 204.57812Q128.10397 205.8125 127.322716 206.48438Q126.55709 207.15625 125.103966 207.15625L123.08834 207.15625ZM123.08834 206.23438L125.11959 206.23438Q126.02584 206.23438 126.49459 205.8125Q126.978966 205.39062 126.978966 204.59375Q126.978966 203.82812 126.49459 203.375Q126.02584 202.90625 125.18209 202.89062L123.08834 202.89062L123.08834 206.23438ZM130.01022 211.23438L129.08835 211.23438L132.65085 201.96875L133.57272 201.96875L130.01022 211.23438ZM138.2446 210.5L137.16647 210.5L137.16647 203.28125L134.97897 204.07812L134.97897 203.09375L138.08835 201.92188L138.2446 201.92188L138.2446 210.5ZM141.82272 209.9375Q141.82272 209.65625 141.97897 209.46875Q142.15085 209.28125 142.47897 209.28125Q142.82272 209.28125 142.9946 209.46875Q143.16647 209.65625 143.16647 209.9375Q143.16647 210.20312 142.9946 210.39062Q142.82272 210.5625 142.47897 210.5625Q142.15085 210.5625 141.97897 210.39062Q141.82272 210.20312 141.82272 209.9375ZM148.2446 210.5L147.16647 210.5L147.16647 203.28125L144.97897 204.07812L144.97897 203.09375L148.08835 201.92188L148.2446 201.92188L148.2446 210.5ZM158.2446 210.5L157.16647 210.5L157.16647 203.28125L154.97897 204.07812L154.97897 203.09375L158.08835 201.92188L158.2446 201.92188L158.2446 210.5ZM167.27585 210.5L161.6821 210.5L161.6821 209.71875L164.63522 206.4375Q165.29147 205.6875 165.54147 205.23438Q165.79147 204.76562 165.79147 204.26562Q165.79147 203.59375 165.38522 203.17188Q164.9946 202.73438 164.3071 202.73438Q163.51022 202.73438 163.0571 203.20312Q162.60397 203.65625 162.60397 204.48438L161.52585 204.48438Q161.52585 203.29688 162.27585 202.57812Q163.04147 201.84375 164.3071 201.84375Q165.51022 201.84375 166.19772 202.46875Q166.88522 203.09375 166.88522 204.14062Q166.88522 205.39062 165.27585 207.14062L162.9946 209.60938L167.27585 209.60938L167.27585 210.5ZM170.26022 205.70312L171.07272 205.70312Q171.85397 205.6875 172.29147 205.29688Q172.72897 204.90625 172.72897 204.23438Q172.72897 202.73438 171.22897 202.73438Q170.52585 202.73438 170.10397 203.14062Q169.69772 203.54688 169.69772 204.20312L168.60397 204.20312Q168.60397 203.1875 169.33835 202.51562Q170.08835 201.84375 171.22897 201.84375Q172.4321 201.84375 173.1196 202.48438Q173.8071 203.125 173.8071 204.26562Q173.8071 204.82812 173.44772 205.34375Q173.08835 205.85938 172.46335 206.125Q173.16647 206.34375 173.54147 206.85938Q173.9321 207.375 173.9321 208.125Q173.9321 209.26562 173.1821 209.95312Q172.4321 210.625 171.22897 210.625Q170.04147 210.625 169.27585 209.96875Q168.52585 209.3125 168.52585 208.25L169.6196 208.25Q169.6196 208.92188 170.0571 209.32812Q170.4946 209.73438 171.2446 209.73438Q172.02585 209.73438 172.4321 209.32812Q172.85397 208.90625 172.85397 208.14062Q172.85397 207.40625 172.40085 207.01562Q171.94772 206.60938 171.07272 206.59375L170.26022 206.59375L170.26022 205.70312ZM176.82272 204.15625L176.85397 204.85938Q177.54147 204.04688 178.72897 204.04688Q180.0571 204.04688 180.54147 205.0625Q180.85397 204.60938 181.35397 204.32812Q181.8696 204.04688 182.5571 204.04688Q184.65085 204.04688 184.6821 206.25L184.6821 210.5L183.60397 210.5L183.60397 206.3125Q183.60397 205.64062 183.29147 205.3125Q182.97897 204.96875 182.2446 204.96875Q181.63522 204.96875 181.22897 205.32812Q180.83835 205.6875 180.77585 206.29688L180.77585 210.5L179.69772 210.5L179.69772 206.34375Q179.69772 204.96875 178.33835 204.96875Q177.27585 204.96875 176.88522 205.875L176.88522 210.5L175.79147 210.5L175.79147 204.15625L176.82272 204.15625ZM190.4946 208.8125Q190.4946 208.375 190.15085 208.14062Q189.82272 207.89062 188.9946 207.71875Q188.1821 207.54688 187.69772 207.29688Q187.21335 207.04688 186.97897 206.71875Q186.76022 206.375 186.76022 205.90625Q186.76022 205.125 187.41647 204.59375Q188.07272 204.04688 189.10397 204.04688Q190.1821 204.04688 190.83835 204.60938Q191.51022 205.15625 191.51022 206.01562L190.4321 206.01562Q190.4321 205.57812 190.04147 205.26562Q189.66647 204.9375 189.10397 204.9375Q188.51022 204.9375 188.16647 205.20312Q187.83835 205.45312 187.83835 205.85938Q187.83835 206.25 188.15085 206.45312Q188.46335 206.65625 189.27585 206.84375Q190.08835 207.01562 190.58835 207.26562Q191.08835 207.51562 191.32272 207.875Q191.57272 208.23438 191.57272 208.73438Q191.57272 209.59375 190.88522 210.10938Q190.21335 210.625 189.13522 210.625Q188.3696 210.625 187.77585 210.35938Q187.19772 210.07812 186.8696 209.59375Q186.54147 209.10938 186.54147 208.54688L187.6196 208.54688Q187.65085 209.09375 188.0571 209.42188Q188.46335 209.73438 189.13522 209.73438Q189.7446 209.73438 190.1196 209.48438Q190.4946 209.23438 190.4946 208.8125ZM197.08835 207.15625L197.08835 210.5L195.96335 210.5L195.96335 201.96875L199.1196 201.96875Q200.51022 201.96875 201.3071 202.6875Q202.10397 203.39062 202.10397 204.57812Q202.10397 205.8125 201.32272 206.48438Q200.5571 207.15625 199.10397 207.15625L197.08835 207.15625ZM197.08835 206.23438L199.1196 206.23438Q200.02585 206.23438 200.4946 205.8125Q200.97897 205.39062 200.97897 204.59375Q200.97897 203.82812 200.4946 203.375Q200.02585 202.90625 199.1821 202.89062L197.08835 202.89062L197.08835 206.23438ZM204.97897 210.5L203.90085 210.5L203.90085 204.15625L204.97897 204.15625L204.97897 210.5ZM203.8071 202.48438Q203.8071 202.21875 203.96335 202.03125Q204.13522 201.84375 204.44772 201.84375Q204.76022 201.84375 204.91647 202.03125Q205.08835 202.21875 205.08835 202.48438Q205.08835 202.73438 204.91647 202.92188Q204.76022 203.09375 204.44772 203.09375Q204.13522 203.09375 203.96335 202.92188Q203.8071 202.73438 203.8071 202.48438ZM207.82272 204.15625L207.85397 204.95312Q208.58835 204.04688 209.76022 204.04688Q211.77585 204.04688 211.79147 206.3125L211.79147 210.5L210.69772 210.5L210.69772 206.29688Q210.69772 205.625 210.38522 205.29688Q210.08835 204.96875 209.4321 204.96875Q208.90085 204.96875 208.4946 205.25Q208.10397 205.53125 207.88522 205.98438L207.88522 210.5L206.8071 210.5L206.8071 204.15625L207.82272 204.15625ZM213.54147 207.28125Q213.54147 205.79688 214.22897 204.92188Q214.91647 204.04688 216.04147 204.04688Q217.19772 204.04688 217.85397 204.85938L217.90085 204.15625L218.90085 204.15625L218.90085 210.34375Q218.90085 211.57812 218.16647 212.28125Q217.4321 213.0 216.21335 213.0Q215.52585 213.0 214.8696 212.70312Q214.21335 212.40625 213.8696 211.90625L214.4321 211.25Q215.1196 212.10938 216.13522 212.10938Q216.91647 212.10938 217.35397 211.65625Q217.8071 211.21875 217.8071 210.40625L217.8071 209.85938Q217.15085 210.625 216.02585 210.625Q214.91647 210.625 214.22897 209.73438Q213.54147 208.82812 213.54147 207.28125ZM214.63522 207.40625Q214.63522 208.46875 215.07272 209.09375Q215.51022 209.70312 216.3071 209.70312Q217.32272 209.70312 217.8071 208.76562L217.8071 205.875Q217.3071 204.96875 216.3071 204.96875Q215.52585 204.96875 215.07272 205.57812Q214.63522 206.1875 214.63522 207.40625Z" fill-rule="nonzero"/><path stroke="#ffffff" stroke-width="3.0" stroke-linejoin="round" stroke-linecap="round" d="M162.26962 134.5L161.14462 134.5L161.14462 130.5625L156.83212 130.5625L156.83212 134.5L155.70712 134.5L155.70712 125.96875L156.83212 125.96875L156.83212 129.64062L161.14462 129.64062L161.14462 125.96875L162.26962 125.96875L162.26962 134.5ZM170.61337 126.890625L167.86337 126.890625L167.86337 134.5L166.754 134.5L166.754 126.890625L164.004 126.890625L164.004 125.96875L170.61337 125.96875L170.61337 126.890625ZM177.61337 126.890625L174.86337 126.890625L174.86337 134.5L173.754 134.5L173.754 126.890625L171.004 126.890625L171.004 125.96875L177.61337 125.96875L177.61337 126.890625ZM179.83212 131.15625L179.83212 134.5L178.70712 134.5L178.70712 125.96875L181.86337 125.96875Q183.254 125.96875 184.05087 126.6875Q184.84775 127.390625 184.84775 128.57812Q184.84775 129.8125 184.0665 130.48438Q183.30087 131.15625 181.84775 131.15625L179.83212 131.15625ZM179.83212 130.23438L181.86337 130.23438Q182.76962 130.23438 183.23837 129.8125Q183.72275 129.39062 183.72275 128.59375Q183.72275 127.828125 183.23837 127.375Q182.76962 126.90625 181.92587 126.890625L179.83212 126.890625L179.83212 130.23438ZM186.754 135.23438L185.83212 135.23438L189.39462 125.96875L190.3165 125.96875L186.754 135.23438ZM194.98837 134.5L193.91025 134.5L193.91025 127.28125L191.72275 128.07812L191.72275 127.09375L194.83212 125.921875L194.98837 125.921875L194.98837 134.5ZM198.5665 133.9375Q198.5665 133.65625 198.72275 133.46875Q198.89462 133.28125 199.22275 133.28125Q199.5665 133.28125 199.73837 133.46875Q199.91025 133.65625 199.91025 133.9375Q199.91025 134.20312 199.73837 134.39062Q199.5665 134.5625 199.22275 134.5625Q198.89462 134.5625 198.72275 134.39062Q198.5665 134.20312 198.5665 133.9375ZM204.98837 134.5L203.91025 134.5L203.91025 127.28125L201.72275 128.07812L201.72275 127.09375L204.83212 125.921875L204.98837 125.921875L204.98837 134.5ZM217.01962 134.5L211.42587 134.5L211.42587 133.71875L214.379 130.4375Q215.03525 129.6875 215.28525 129.23438Q215.53525 128.76562 215.53525 128.26562Q215.53525 127.59375 215.129 127.171875Q214.73837 126.734375 214.05087 126.734375Q213.254 126.734375 212.80087 127.203125Q212.34775 127.65625 212.34775 128.48438L211.26962 128.48438Q211.26962 127.296875 212.01962 126.578125Q212.78525 125.84375 214.05087 125.84375Q215.254 125.84375 215.9415 126.46875Q216.629 127.09375 216.629 128.14062Q216.629 129.39062 215.01962 131.14062L212.73837 133.60938L217.01962 133.60938L217.01962 134.5ZM224.01962 134.5L218.42587 134.5L218.42587 133.71875L221.379 130.4375Q222.03525 129.6875 222.28525 129.23438Q222.53525 128.76562 222.53525 128.26562Q222.53525 127.59375 222.129 127.171875Q221.73837 126.734375 221.05087 126.734375Q220.254 126.734375 219.80087 127.203125Q219.34775 127.65625 219.34775 128.48438L218.26962 128.48438Q218.26962 127.296875 219.01962 126.578125Q219.78525 125.84375 221.05087 125.84375Q222.254 125.84375 222.9415 126.46875Q223.629 127.09375 223.629 128.14062Q223.629 129.39062 222.01962 131.14062L219.73837 133.60938L224.01962 133.60938L224.01962 134.5ZM227.004 129.70312L227.8165 129.70312Q228.59775 129.6875 229.03525 129.29688Q229.47275 128.90625 229.47275 128.23438Q229.47275 126.734375 227.97275 126.734375Q227.26962 126.734375 226.84775 127.140625Q226.4415 127.546875 226.4415 128.20312L225.34775 128.20312Q225.34775 127.1875 226.08212 126.515625Q226.83212 125.84375 227.97275 125.84375Q229.17587 125.84375 229.86337 126.484375Q230.55087 127.125 230.55087 128.26562Q230.55087 128.82812 230.1915 129.34375Q229.83212 129.85938 229.20712 130.125Q229.91025 130.34375 230.28525 130.85938Q230.67587 131.375 230.67587 132.125Q230.67587 133.26562 229.92587 133.95312Q229.17587 134.625 227.97275 134.625Q226.78525 134.625 226.01962 133.96875Q225.26962 133.3125 225.26962 132.25L226.36337 132.25Q226.36337 132.92188 226.80087 133.32812Q227.23837 133.73438 227.98837 133.73438Q228.76962 133.73438 229.17587 133.32812Q229.59775 132.90625 229.59775 132.14062Q229.59775 131.40625 229.14462 131.01562Q228.6915 130.60938 227.8165 130.59375L227.004 130.59375L227.004 129.70312ZM233.5665 128.15625L233.59775 128.85938Q234.28525 128.04688 235.47275 128.04688Q236.80087 128.04688 237.28525 129.0625Q237.59775 128.60938 238.09775 128.32812Q238.61337 128.04688 239.30087 128.04688Q241.39462 128.04688 241.42587 130.25L241.42587 134.5L240.34775 134.5L240.34775 130.3125Q240.34775 129.64062 240.03525 129.3125Q239.72275 128.96875 238.98837 128.96875Q238.379 128.96875 237.97275 129.32812Q237.58212 129.6875 237.51962 130.29688L237.51962 134.5L236.4415 134.5L236.4415 130.34375Q236.4415 128.96875 235.08212 128.96875Q234.01962 128.96875 233.629 129.875L233.629 134.5L232.53525 134.5L232.53525 128.15625L233.5665 128.15625ZM247.23837 132.8125Q247.23837 132.375 246.89462 132.14062Q246.5665 131.89062 245.73837 131.71875Q244.92587 131.54688 244.4415 131.29688Q243.95712 131.04688 243.72275 130.71875Q243.504 130.375 243.504 129.90625Q243.504 129.125 244.16025 128.59375Q244.8165 128.04688 245.84775 128.04688Q246.92587 128.04688 247.58212 128.60938Q248.254 129.15625 248.254 130.01562L247.17587 130.01562Q247.17587 129.57812 246.78525 129.26562Q246.41025 128.9375 245.84775 128.9375Q245.254 128.9375 244.91025 129.20312Q244.58212 129.45312 244.58212 129.85938Q244.58212 130.25 244.89462 130.45312Q245.20712 130.65625 246.01962 130.84375Q246.83212 131.01562 247.33212 131.26562Q247.83212 131.51562 248.0665 131.875Q248.3165 132.23438 248.3165 132.73438Q248.3165 133.59375 247.629 134.10938Q246.95712 134.625 245.879 134.625Q245.11337 134.625 244.51962 134.35938Q243.9415 134.07812 243.61337 133.59375Q243.28525 133.10938 243.28525 132.54688L244.36337 132.54688Q244.39462 133.09375 244.80087 133.42188Q245.20712 133.73438 245.879 133.73438Q246.48837 133.73438 246.86337 133.48438Q247.23837 133.23438 247.23837 132.8125ZM253.83212 131.15625L253.83212 134.5L252.70712 134.5L252.70712 125.96875L255.86337 125.96875Q257.254 125.96875 258.05087 126.6875Q258.84775 127.390625 258.84775 128.57812Q258.84775 129.8125 258.0665 130.48438Q257.30087 131.15625 255.84775 131.15625L253.83212 131.15625ZM253.83212 130.23438L255.86337 130.23438Q256.76962 130.23438 257.23837 129.8125Q257.72275 129.39062 257.72275 128.59375Q257.72275 127.828125 257.23837 127.375Q256.76962 126.90625 255.92587 126.890625L253.83212 126.890625L253.83212 130.23438ZM261.72275 134.5L260.64462 134.5L260.64462 128.15625L261.72275 128.15625L261.72275 134.5ZM260.55087 126.484375Q260.55087 126.21875 260.70712 126.03125Q260.879 125.84375 261.1915 125.84375Q261.504 125.84375 261.66025 126.03125Q261.83212 126.21875 261.83212 126.484375Q261.83212 126.734375 261.66025 126.921875Q261.504 127.09375 261.1915 127.09375Q260.879 127.09375 260.70712 126.921875Q260.55087 126.734375 260.55087 126.484375ZM264.5665 128.15625L264.59775 128.95312Q265.33212 128.04688 266.504 128.04688Q268.51962 128.04688 268.53525 130.3125L268.53525 134.5L267.4415 134.5L267.4415 130.29688Q267.4415 129.625 267.129 129.29688Q266.83212 128.96875 266.17587 128.96875Q265.64462 128.96875 265.23837 129.25Q264.84775 129.53125 264.629 129.98438L264.629 134.5L263.55087 134.5L263.55087 128.15625L264.5665 128.15625ZM270.28525 131.28125Q270.28525 129.79688 270.97275 128.92188Q271.66025 128.04688 272.78525 128.04688Q273.9415 128.04688 274.59775 128.85938L274.64462 128.15625L275.64462 128.15625L275.64462 134.34375Q275.64462 135.57812 274.91025 136.28125Q274.17587 137.0 272.95712 137.0Q272.26962 137.0 271.61337 136.70312Q270.95712 136.40625 270.61337 135.90625L271.17587 135.25Q271.86337 136.10938 272.879 136.10938Q273.66025 136.10938 274.09775 135.65625Q274.55087 135.21875 274.55087 134.40625L274.55087 133.85938Q273.89462 134.625 272.76962 134.625Q271.66025 134.625 270.97275 133.73438Q270.28525 132.82812 270.28525 131.28125ZM271.379 131.40625Q271.379 132.46875 271.8165 133.09375Q272.254 133.70312 273.05087 133.70312Q274.0665 133.70312 274.55087 132.76562L274.55087 129.875Q274.05087 128.96875 273.05087 128.96875Q272.26962 128.96875 271.8165 129.57812Q271.379 130.1875 271.379 131.40625Z" fill-rule="nonzero"/><path fill="#4285f4" d="M162.26962 134.5L161.14462 134.5L161.14462 130.5625L156.83212 130.5625L156.83212 134.5L155.70712 134.5L155.70712 125.96875L156.83212 125.96875L156.83212 129.64062L161.14462 129.64062L161.14462 125.96875L162.26962 125.96875L162.26962 134.5ZM170.61337 126.890625L167.86337 126.890625L167.86337 134.5L166.754 134.5L166.754 126.890625L164.004 126.890625L164.004 125.96875L170.61337 125.96875L170.61337 126.890625ZM177.61337 126.890625L174.86337 126.890625L174.86337 134.5L173.754 134.5L173.754 126.890625L171.004 126.890625L171.004 125.96875L177.61337 125.96875L177.61337 126.890625ZM179.83212 131.15625L179.83212 134.5L178.70712 134.5L178.70712 125.96875L181.86337 125.96875Q183.254 125.96875 184.05087 126.6875Q184.84775 127.390625 184.84775 128.57812Q184.84775 129.8125 184.0665 130.48438Q183.30087 131.15625 181.84775 131.15625L179.83212 131.15625ZM179.83212 130.23438L181.86337 130.23438Q182.76962 130.23438 183.23837 129.8125Q183.72275 129.39062 183.72275 128.59375Q183.72275 127.828125 183.23837 127.375Q182.76962 126.90625 181.92587 126.890625L179.83212 126.890625L179.83212 130.23438ZM186.754 135.23438L185.83212 135.23438L189.39462 125.96875L190.3165 125.96875L186.754 135.23438ZM194.98837 134.5L193.91025 134.5L193.91025 127.28125L191.72275 128.07812L191.72275 127.09375L194.83212 125.921875L194.98837 125.921875L194.98837 134.5ZM198.5665 133.9375Q198.5665 133.65625 198.72275 133.46875Q198.89462 133.28125 199.22275 133.28125Q199.5665 133.28125 199.73837 133.46875Q199.91025 133.65625 199.91025 133.9375Q199.91025 134.20312 199.73837 134.39062Q199.5665 134.5625 199.22275 134.5625Q198.89462 134.5625 198.72275 134.39062Q198.5665 134.20312 198.5665 133.9375ZM204.98837 134.5L203.91025 134.5L203.91025 127.28125L201.72275 128.07812L201.72275 127.09375L204.83212 125.921875L204.98837 125.921875L204.98837 134.5ZM217.01962 134.5L211.42587 134.5L211.42587 133.71875L214.379 130.4375Q215.03525 129.6875 215.28525 129.23438Q215.53525 128.76562 215.53525 128.26562Q215.53525 127.59375 215.129 127.171875Q214.73837 126.734375 214.05087 126.734375Q213.254 126.734375 212.80087 127.203125Q212.34775 127.65625 212.34775 128.48438L211.26962 128.48438Q211.26962 127.296875 212.01962 126.578125Q212.78525 125.84375 214.05087 125.84375Q215.254 125.84375 215.9415 126.46875Q216.629 127.09375 216.629 128.14062Q216.629 129.39062 215.01962 131.14062L212.73837 133.60938L217.01962 133.60938L217.01962 134.5ZM224.01962 134.5L218.42587 134.5L218.42587 133.71875L221.379 130.4375Q222.03525 129.6875 222.28525 129.23438Q222.53525 128.76562 222.53525 128.26562Q222.53525 127.59375 222.129 127.171875Q221.73837 126.734375 221.05087 126.734375Q220.254 126.734375 219.80087 127.203125Q219.34775 127.65625 219.34775 128.48438L218.26962 128.48438Q218.26962 127.296875 219.01962 126.578125Q219.78525 125.84375 221.05087 125.84375Q222.254 125.84375 222.9415 126.46875Q223.629 127.09375 223.629 128.14062Q223.629 129.39062 222.01962 131.14062L219.73837 133.60938L224.01962 133.60938L224.01962 134.5ZM227.004 129.70312L227.8165 129.70312Q228.59775 129.6875 229.03525 129.29688Q229.47275 128.90625 229.47275 128.23438Q229.47275 126.734375 227.97275 126.734375Q227.26962 126.734375 226.84775 127.140625Q226.4415 127.546875 226.4415 128.20312L225.34775 128.20312Q225.34775 127.1875 226.08212 126.515625Q226.83212 125.84375 227.97275 125.84375Q229.17587 125.84375 229.86337 126.484375Q230.55087 127.125 230.55087 128.26562Q230.55087 128.82812 230.1915 129.34375Q229.83212 129.85938 229.20712 130.125Q229.91025 130.34375 230.28525 130.85938Q230.67587 131.375 230.67587 132.125Q230.67587 133.26562 229.92587 133.95312Q229.17587 134.625 227.97275 134.625Q226.78525 134.625 226.01962 133.96875Q225.26962 133.3125 225.26962 132.25L226.36337 132.25Q226.36337 132.92188 226.80087 133.32812Q227.23837 133.73438 227.98837 133.73438Q228.76962 133.73438 229.17587 133.32812Q229.59775 132.90625 229.59775 132.14062Q229.59775 131.40625 229.14462 131.01562Q228.6915 130.60938 227.8165 130.59375L227.004 130.59375L227.004 129.70312ZM233.5665 128.15625L233.59775 128.85938Q234.28525 128.04688 235.47275 128.04688Q236.80087 128.04688 237.28525 129.0625Q237.59775 128.60938 238.09775 128.32812Q238.61337 128.04688 239.30087 128.04688Q241.39462 128.04688 241.42587 130.25L241.42587 134.5L240.34775 134.5L240.34775 130.3125Q240.34775 129.64062 240.03525 129.3125Q239.72275 128.96875 238.98837 128.96875Q238.379 128.96875 237.97275 129.32812Q237.58212 129.6875 237.51962 130.29688L237.51962 134.5L236.4415 134.5L236.4415 130.34375Q236.4415 128.96875 235.08212 128.96875Q234.01962 128.96875 233.629 129.875L233.629 134.5L232.53525 134.5L232.53525 128.15625L233.5665 128.15625ZM247.23837 132.8125Q247.23837 132.375 246.89462 132.14062Q246.5665 131.89062 245.73837 131.71875Q244.92587 131.54688 244.4415 131.29688Q243.95712 131.04688 243.72275 130.71875Q243.504 130.375 243.504 129.90625Q243.504 129.125 244.16025 128.59375Q244.8165 128.04688 245.84775 128.04688Q246.92587 128.04688 247.58212 128.60938Q248.254 129.15625 248.254 130.01562L247.17587 130.01562Q247.17587 129.57812 246.78525 129.26562Q246.41025 128.9375 245.84775 128.9375Q245.254 128.9375 244.91025 129.20312Q244.58212 129.45312 244.58212 129.85938Q244.58212 130.25 244.89462 130.45312Q245.20712 130.65625 246.01962 130.84375Q246.83212 131.01562 247.33212 131.26562Q247.83212 131.51562 248.0665 131.875Q248.3165 132.23438 248.3165 132.73438Q248.3165 133.59375 247.629 134.10938Q246.95712 134.625 245.879 134.625Q245.11337 134.625 244.51962 134.35938Q243.9415 134.07812 243.61337 133.59375Q243.28525 133.10938 243.28525 132.54688L244.36337 132.54688Q244.39462 133.09375 244.80087 133.42188Q245.20712 133.73438 245.879 133.73438Q246.48837 133.73438 246.86337 133.48438Q247.23837 133.23438 247.23837 132.8125ZM253.83212 131.15625L253.83212 134.5L252.70712 134.5L252.70712 125.96875L255.86337 125.96875Q257.254 125.96875 258.05087 126.6875Q258.84775 127.390625 258.84775 128.57812Q258.84775 129.8125 258.0665 130.48438Q257.30087 131.15625 255.84775 131.15625L253.83212 131.15625ZM253.83212 130.23438L255.86337 130.23438Q256.76962 130.23438 257.23837 129.8125Q257.72275 129.39062 257.72275 128.59375Q257.72275 127.828125 257.23837 127.375Q256.76962 126.90625 255.92587 126.890625L253.83212 126.890625L253.83212 130.23438ZM261.72275 134.5L260.64462 134.5L260.64462 128.15625L261.72275 128.15625L261.72275 134.5ZM260.55087 126.484375Q260.55087 126.21875 260.70712 126.03125Q260.879 125.84375 261.1915 125.84375Q261.504 125.84375 261.66025 126.03125Q261.83212 126.21875 261.83212 126.484375Q261.83212 126.734375 261.66025 126.921875Q261.504 127.09375 261.1915 127.09375Q260.879 127.09375 260.70712 126.921875Q260.55087 126.734375 260.55087 126.484375ZM264.5665 128.15625L264.59775 128.95312Q265.33212 128.04688 266.504 128.04688Q268.51962 128.04688 268.53525 130.3125L268.53525 134.5L267.4415 134.5L267.4415 130.29688Q267.4415 129.625 267.129 129.29688Q266.83212 128.96875 266.17587 128.96875Q265.64462 128.96875 265.23837 129.25Q264.84775 129.53125 264.629 129.98438L264.629 134.5L263.55087 134.5L263.55087 128.15625L264.5665 128.15625ZM270.28525 131.28125Q270.28525 129.79688 270.97275 128.92188Q271.66025 128.04688 272.78525 128.04688Q273.9415 128.04688 274.59775 128.85938L274.64462 128.15625L275.64462 128.15625L275.64462 134.34375Q275.64462 135.57812 274.91025 136.28125Q274.17587 137.0 272.95712 137.0Q272.26962 137.0 271.61337 136.70312Q270.95712 136.40625 270.61337 135.90625L271.17587 135.25Q271.86337 136.10938 272.879 136.10938Q273.66025 136.10938 274.09775 135.65625Q274.55087 135.21875 274.55087 134.40625L274.55087 133.85938Q273.89462 134.625 272.76962 134.625Q271.66025 134.625 270.97275 133.73438Q270.28525 132.82812 270.28525 131.28125ZM271.379 131.40625Q271.379 132.46875 271.8165 133.09375Q272.254 133.70312 273.05087 133.70312Q274.0665 133.70312 274.55087 132.76562L274.55087 129.875Q274.05087 128.96875 273.05087 128.96875Q272.26962 128.96875 271.8165 129.57812Q271.379 130.1875 271.379 131.40625Z" fill-rule="nonzero"/><path fill="#000000" d="M15.55 345.21564Q15.55 343.6844 15.8625 342.7625Q16.175 341.825 16.784374 341.325Q17.409374 340.825 18.346874 340.825Q19.034374 340.825 19.55 341.10626Q20.08125 341.3875 20.425 341.91876Q20.76875 342.4344 20.95625 343.1844Q21.14375 343.9344 21.14375 345.21564Q21.14375 346.73126 20.83125 347.65314Q20.534374 348.575 19.909374 349.09064Q19.3 349.59064 18.346874 349.59064Q17.1125 349.59064 16.39375 348.7Q15.55 347.6375 15.55 345.21564ZM16.628124 345.21564Q16.628124 347.325 17.128124 348.02814Q17.628124 348.73126 18.346874 348.73126Q19.08125 348.73126 19.565624 348.02814Q20.065624 347.325 20.065624 345.21564Q20.065624 343.09064 19.565624 342.40314Q19.08125 341.7 18.33125 341.7Q17.6125 341.7 17.175 342.3094Q16.628124 343.09064 16.628124 345.21564Z" fill-rule="nonzero"/><path fill="#000000" d="M77.91354 348.4344L77.91354 349.45L72.22604 349.45Q72.22604 349.075 72.35104 348.71564Q72.56979 348.1375 73.03854 347.575Q73.52292 347.0125 74.42917 346.27814Q75.83542 345.1219 76.31979 344.45Q76.81979 343.77814 76.81979 343.1844Q76.81979 342.5594 76.36667 342.1375Q75.91354 341.7 75.19479 341.7Q74.42917 341.7 73.97604 342.15314Q73.52292 342.60626 73.50729 343.41876L72.42917 343.3094Q72.53854 342.09064 73.25729 341.46564Q73.99167 340.825 75.22604 340.825Q76.46042 340.825 77.17917 341.5125Q77.89792 342.2 77.89792 343.21564Q77.89792 343.73126 77.67917 344.23126Q77.47604 344.71564 76.97604 345.27814Q76.49167 345.825 75.36667 346.77814Q74.41354 347.575 74.13229 347.8719Q73.86667 348.15314 73.69479 348.4344L77.91354 348.4344Z" fill-rule="nonzero"/><path fill="#000000" d="M132.55833 349.45L132.55833 347.3875L128.83958 347.3875L128.83958 346.41876L132.76146 340.85626L133.62083 340.85626L133.62083 346.41876L134.77708 346.41876L134.77708 347.3875L133.62083 347.3875L133.62083 349.45L132.55833 349.45ZM132.55833 346.41876L132.55833 342.5594L129.87083 346.41876L132.55833 346.41876Z" fill-rule="nonzero"/><path fill="#000000" d="M191.46875 342.96564L190.42188 343.04376Q190.28125 342.41876 190.03125 342.1375Q189.59375 341.6844 188.96875 341.6844Q188.46875 341.6844 188.07812 341.96564Q187.59375 342.34064 187.29688 343.04376Q187.01562 343.73126 187.0 345.0125Q187.375 344.4344 187.92188 344.15314Q188.48438 343.8719 189.09375 343.8719Q190.14062 343.8719 190.875 344.65314Q191.625 345.4344 191.625 346.65314Q191.625 347.46564 191.26562 348.16876Q190.92188 348.85626 190.3125 349.23126Q189.70312 349.59064 188.9375 349.59064Q187.60938 349.59064 186.78125 348.6219Q185.95312 347.65314 185.95312 345.4344Q185.95312 342.9344 186.875 341.8094Q187.67188 340.825 189.03125 340.825Q190.04688 340.825 190.6875 341.40314Q191.34375 341.96564 191.46875 342.96564ZM187.17188 346.66876Q187.17188 347.21564 187.39062 347.71564Q187.625 348.2 188.03125 348.46564Q188.45312 348.73126 188.92188 348.73126Q189.57812 348.73126 190.0625 348.2Q190.54688 347.65314 190.54688 346.73126Q190.54688 345.84064 190.0625 345.325Q189.59375 344.8094 188.875 344.8094Q188.15625 344.8094 187.65625 345.325Q187.17188 345.84064 187.17188 346.66876Z" fill-rule="nonzero"/><path fill="#000000" d="M244.44167 344.79376Q243.78542 344.54376 243.45729 344.10626Q243.14479 343.65314 243.14479 343.04376Q243.14479 342.10626 243.81667 341.46564Q244.50417 340.825 245.61354 340.825Q246.73854 340.825 247.42604 341.48126Q248.11354 342.1375 248.11354 343.075Q248.11354 343.66876 247.80104 344.10626Q247.48854 344.54376 246.84792 344.79376Q247.64479 345.04376 248.05104 345.6219Q248.45729 346.2 248.45729 346.9969Q248.45729 348.09064 247.67604 348.84064Q246.91042 349.59064 245.62917 349.59064Q244.36354 349.59064 243.58229 348.84064Q242.80104 348.09064 242.80104 346.96564Q242.80104 346.1219 243.22292 345.5594Q243.66042 344.9969 244.44167 344.79376ZM244.22292 342.9969Q244.22292 343.60626 244.61354 343.9969Q245.01979 344.3875 245.64479 344.3875Q246.25417 344.3875 246.64479 344.0125Q247.03542 343.6219 247.03542 343.0594Q247.03542 342.48126 246.62917 342.09064Q246.22292 341.6844 245.62917 341.6844Q245.01979 341.6844 244.61354 342.075Q244.22292 342.46564 244.22292 342.9969ZM243.89479 346.96564Q243.89479 347.41876 244.09792 347.84064Q244.31667 348.2625 244.73854 348.4969Q245.16042 348.73126 245.64479 348.73126Q246.39479 348.73126 246.87917 348.2469Q247.37917 347.7625 247.37917 347.0125Q247.37917 346.2469 246.87917 345.7469Q246.37917 345.2469 245.61354 345.2469Q244.86354 345.2469 244.37917 345.7469Q243.89479 346.23126 243.89479 346.96564Z" fill-rule="nonzero"/><path fill="#000000" d="M300.10208 349.45L299.0552 349.45L299.0552 342.73126Q298.66458 343.09064 298.03958 343.46564Q297.4302 343.825 296.94583 343.9969L296.94583 342.98126Q297.82083 342.5594 298.47708 341.98126Q299.14896 341.3875 299.4302 340.825L300.10208 340.825L300.10208 349.45ZM303.13333 345.21564Q303.13333 343.6844 303.44583 342.7625Q303.75833 341.825 304.3677 341.325Q304.9927 340.825 305.9302 340.825Q306.6177 340.825 307.13333 341.10626Q307.66458 341.3875 308.00833 341.91876Q308.35208 342.4344 308.53958 343.1844Q308.72708 343.9344 308.72708 345.21564Q308.72708 346.73126 308.41458 347.65314Q308.1177 348.575 307.4927 349.09064Q306.88333 349.59064 305.9302 349.59064Q304.69583 349.59064 303.97708 348.7Q303.13333 347.6375 303.13333 345.21564ZM304.21146 345.21564Q304.21146 347.325 304.71146 348.02814Q305.21146 348.73126 305.9302 348.73126Q306.66458 348.73126 307.14896 348.02814Q307.64896 347.325 307.64896 345.21564Q307.64896 343.09064 307.14896 342.40314Q306.66458 341.7 305.91458 341.7Q305.19583 341.7 304.75833 342.3094Q304.21146 343.09064 304.21146 345.21564Z" fill-rule="nonzero"/><path fill="#000000" d="M356.91876 349.45L355.8719 349.45L355.8719 342.73126Q355.48126 343.09064 354.85626 343.46564Q354.2469 343.825 353.7625 343.9969L353.7625 342.98126Q354.6375 342.5594 355.29376 341.98126Q355.96564 341.3875 356.2469 340.825L356.91876 340.825L356.91876 349.45ZM365.4969 348.4344L365.4969 349.45L359.8094 349.45Q359.8094 349.075 359.9344 348.71564Q360.15314 348.1375 360.6219 347.575Q361.10626 347.0125 362.0125 346.27814Q363.41876 345.1219 363.90314 344.45Q364.40314 343.77814 364.40314 343.1844Q364.40314 342.5594 363.95 342.1375Q363.4969 341.7 362.77814 341.7Q362.0125 341.7 361.5594 342.15314Q361.10626 342.60626 361.09064 343.41876L360.0125 343.3094Q360.1219 342.09064 360.84064 341.46564Q361.575 340.825 362.8094 340.825Q364.04376 340.825 364.7625 341.5125Q365.48126 342.2 365.48126 343.21564Q365.48126 343.73126 365.2625 344.23126Q365.0594 344.71564 364.5594 345.27814Q364.075 345.825 362.95 346.77814Q361.9969 347.575 361.71564 347.8719Q361.45 348.15314 361.27814 348.4344L365.4969 348.4344Z" fill-rule="nonzero"/><path fill="#757575" d="M20.128124 37.55L20.128124 23.2375L30.4875 23.2375L30.4875 24.925L22.034374 24.925L22.034374 29.3L29.940624 29.3L29.940624 30.9875L22.034374 30.9875L22.034374 35.8625L30.815624 35.8625L30.815624 37.55L20.128124 37.55ZM33.284374 37.55L33.284374 28.55L31.7375 28.55L31.7375 27.175L33.284374 27.175L33.284374 26.08125Q33.284374 25.034374 33.471874 24.51875Q33.721874 23.83125 34.3625 23.409374Q35.003124 22.9875 36.159374 22.9875Q36.909374 22.9875 37.8 23.159374L37.534374 24.690624Q36.9875 24.596874 36.503124 24.596874Q35.70625 24.596874 35.3625 24.940624Q35.034374 25.284374 35.034374 26.221874L35.034374 27.175L37.065624 27.175L37.065624 28.55L35.034374 28.55L35.034374 37.55L33.284374 37.55ZM39.284374 37.55L39.284374 28.55L37.7375 28.55L37.7375 27.175L39.284374 27.175L39.284374 26.08125Q39.284374 25.034374 39.471874 24.51875Q39.721874 23.83125 40.3625 23.409374Q41.003124 22.9875 42.159374 22.9875Q42.909374 22.9875 43.8 23.159374L43.534374 24.690624Q42.9875 24.596874 42.503124 24.596874Q41.70625 24.596874 41.3625 24.940624Q41.034374 25.284374 41.034374 26.221874L41.034374 27.175L43.065624 27.175L43.065624 28.55L41.034374 28.55L41.034374 37.55L39.284374 37.55ZM51.971874 34.20625L53.784374 34.440624Q53.3625 36.01875 52.190624 36.909374Q51.034374 37.784374 49.221874 37.784374Q46.95625 37.784374 45.6125 36.39375Q44.284374 34.9875 44.284374 32.45625Q44.284374 29.83125 45.628124 28.39375Q46.971874 26.940624 49.128124 26.940624Q51.20625 26.940624 52.51875 28.3625Q53.846874 29.76875 53.846874 32.346874Q53.846874 32.503124 53.83125 32.815624L46.096874 32.815624Q46.190624 34.51875 47.065624 35.425Q47.940624 36.33125 49.2375 36.33125Q50.20625 36.33125 50.878124 35.83125Q51.565624 35.315624 51.971874 34.20625ZM46.190624 31.3625L51.9875 31.3625Q51.878124 30.065624 51.33125 29.409374Q50.4875 28.39375 49.14375 28.39375Q47.940624 28.39375 47.1125 29.20625Q46.284374 30.003124 46.190624 31.3625ZM62.64375 33.753124L64.3625 33.971874Q64.08125 35.76875 62.909374 36.784374Q61.753124 37.784374 60.05 37.784374Q57.925 37.784374 56.628124 36.39375Q55.33125 35.003124 55.33125 32.409374Q55.33125 30.721874 55.878124 29.471874Q56.440624 28.20625 57.58125 27.58125Q58.721874 26.940624 60.065624 26.940624Q61.753124 26.940624 62.815624 27.8Q63.89375 28.659374 64.20625 30.221874L62.4875 30.4875Q62.253124 29.440624 61.628124 28.925Q61.003124 28.39375 60.128124 28.39375Q58.8 28.39375 57.971874 29.346874Q57.14375 30.3 57.14375 32.346874Q57.14375 34.440624 57.940624 35.39375Q58.7375 36.33125 60.034374 36.33125Q61.065624 36.33125 61.753124 35.70625Q62.45625 35.065624 62.64375 33.753124ZM69.70625 35.971874L69.95625 37.534374Q69.22188 37.690624 68.62813 37.690624Q67.675 37.690624 67.14375 37.39375Q66.62813 37.08125 66.40938 36.596874Q66.19063 36.096874 66.19063 34.51875L66.19063 28.55L64.90938 28.55L64.90938 27.175L66.19063 27.175L66.19063 24.6125L67.94063 23.55L67.94063 27.175L69.70625 27.175L69.70625 28.55L67.94063 28.55L67.94063 34.6125Q67.94063 35.3625 68.03438 35.58125Q68.12813 35.784374 68.33125 35.925Q68.55 36.05 68.94063 36.05Q69.22188 36.05 69.70625 35.971874ZM77.22188 32.3625Q77.22188 29.4875 78.81563 28.096874Q80.15938 26.940624 82.08125 26.940624Q84.22188 26.940624 85.56563 28.346874Q86.925 29.753124 86.925 32.221874Q86.925 34.221874 86.33125 35.378124Q85.7375 36.51875 84.58125 37.159374Q83.44063 37.784374 82.08125 37.784374Q79.89375 37.784374 78.55 36.39375Q77.22188 34.9875 77.22188 32.3625ZM79.01875 32.3625Q79.01875 34.3625 79.87813 35.346874Q80.75313 36.33125 82.08125 36.33125Q83.39375 36.33125 84.25313 35.346874Q85.12813 34.346874 85.12813 32.3Q85.12813 30.378124 84.25313 29.39375Q83.37813 28.39375 82.08125 28.39375Q80.75313 28.39375 79.87813 29.39375Q79.01875 30.378124 79.01875 32.3625ZM89.28438 37.55L89.28438 28.55L87.7375 28.55L87.7375 27.175L89.28438 27.175L89.28438 26.08125Q89.28438 25.034374 89.47188 24.51875Q89.72188 23.83125 90.3625 23.409374Q91.00313 22.9875 92.15938 22.9875Q92.90938 22.9875 93.8 23.159374L93.53438 24.690624Q92.9875 24.596874 92.50313 24.596874Q91.70625 24.596874 91.3625 24.940624Q91.03438 25.284374 91.03438 26.221874L91.03438 27.175L93.06563 27.175L93.06563 28.55L91.03438 28.55L91.03438 37.55L89.28438 37.55ZM101.01875 37.55L101.01875 23.2375L102.90938 23.2375L102.90938 35.8625L109.95625 35.8625L109.95625 37.55L101.01875 37.55ZM118.64375 36.26875Q117.65938 37.096874 116.75313 37.440624Q115.84688 37.784374 114.81563 37.784374Q113.1125 37.784374 112.19063 36.95625Q111.26875 36.1125 111.26875 34.815624Q111.26875 34.05 111.6125 33.425Q111.97188 32.8 112.53438 32.425Q113.09688 32.034374 113.8 31.83125Q114.31563 31.70625 115.3625 31.565624Q117.4875 31.315624 118.4875 30.971874Q118.50313 30.6125 118.50313 30.503124Q118.50313 29.440624 118.00313 28.9875Q117.33125 28.39375 116.00313 28.39375Q114.75313 28.39375 114.15938 28.83125Q113.58125 29.26875 113.3 30.378124L111.58125 30.14375Q111.81563 29.034374 112.34688 28.3625Q112.87813 27.675 113.89375 27.315624Q114.90938 26.940624 116.25313 26.940624Q117.58125 26.940624 118.40938 27.253124Q119.2375 27.565624 119.62813 28.05Q120.01875 28.51875 120.175 29.2375Q120.26875 29.690624 120.26875 30.8625L120.26875 33.20625Q120.26875 35.659374 120.37813 36.315624Q120.4875 36.95625 120.83125 37.55L118.9875 37.55Q118.72188 37.003124 118.64375 36.26875ZM118.4875 32.346874Q117.53438 32.7375 115.6125 33.003124Q114.53438 33.159374 114.08125 33.3625Q113.64375 33.55 113.39375 33.925Q113.14375 34.3 113.14375 34.76875Q113.14375 35.471874 113.675 35.940624Q114.20625 36.409374 115.2375 36.409374Q116.25313 36.409374 117.03438 35.971874Q117.83125 35.51875 118.20625 34.753124Q118.4875 34.14375 118.4875 32.9875L118.4875 32.346874ZM126.70625 35.971874L126.95625 37.534374Q126.22188 37.690624 125.62813 37.690624Q124.675 37.690624 124.14375 37.39375Q123.62813 37.08125 123.40938 36.596874Q123.19063 36.096874 123.19063 34.51875L123.19063 28.55L121.90938 28.55L121.90938 27.175L123.19063 27.175L123.19063 24.6125L124.94063 23.55L124.94063 27.175L126.70625 27.175L126.70625 28.55L124.94063 28.55L124.94063 34.6125Q124.94063 35.3625 125.03438 35.58125Q125.12813 35.784374 125.33125 35.925Q125.55 36.05 125.94063 36.05Q126.22188 36.05 126.70625 35.971874ZM135.97188 34.20625L137.78438 34.440624Q137.3625 36.01875 136.19063 36.909374Q135.03438 37.784374 133.22188 37.784374Q130.95625 37.784374 129.6125 36.39375Q128.28438 34.9875 128.28438 32.45625Q128.28438 29.83125 129.62813 28.39375Q130.97188 26.940624 133.12813 26.940624Q135.20625 26.940624 136.51875 28.3625Q137.84688 29.76875 137.84688 32.346874Q137.84688 32.503124 137.83125 32.815624L130.09688 32.815624Q130.19063 34.51875 131.06563 35.425Q131.94063 36.33125 133.2375 36.33125Q134.20625 36.33125 134.87813 35.83125Q135.56563 35.315624 135.97188 34.20625ZM130.19063 31.3625L135.9875 31.3625Q135.87813 30.065624 135.33125 29.409374Q134.4875 28.39375 133.14375 28.39375Q131.94063 28.39375 131.1125 29.20625Q130.28438 30.003124 130.19063 31.3625ZM139.8625 37.55L139.8625 27.175L141.45625 27.175L141.45625 28.659374Q142.59688 26.940624 144.75313 26.940624Q145.69063 26.940624 146.47188 27.284374Q147.26875 27.6125 147.65938 28.159374Q148.05 28.70625 148.20625 29.45625Q148.3 29.95625 148.3 31.175L148.3 37.55L146.53438 37.55L146.53438 31.2375Q146.53438 30.159374 146.33125 29.628124Q146.12813 29.096874 145.59688 28.784374Q145.08125 28.471874 144.37813 28.471874Q143.25313 28.471874 142.44063 29.190624Q141.62813 29.89375 141.62813 31.878124L141.62813 37.55L139.8625 37.55ZM156.64375 33.753124L158.3625 33.971874Q158.08125 35.76875 156.90938 36.784374Q155.75313 37.784374 154.05 37.784374Q151.925 37.784374 150.62813 36.39375Q149.33125 35.003124 149.33125 32.409374Q149.33125 30.721874 149.87813 29.471874Q150.44063 28.20625 151.58125 27.58125Q152.72188 26.940624 154.06563 26.940624Q155.75313 26.940624 156.81563 27.8Q157.89375 28.659374 158.20625 30.221874L156.4875 30.4875Q156.25313 29.440624 155.62813 28.925Q155.00313 28.39375 154.12813 28.39375Q152.8 28.39375 151.97188 29.346874Q151.14375 30.3 151.14375 32.346874Q151.14375 34.440624 151.94063 35.39375Q152.7375 36.33125 154.03438 36.33125Q155.06563 36.33125 155.75313 35.70625Q156.45625 35.065624 156.64375 33.753124ZM159.78438 41.55L159.59688 39.89375Q160.175 40.05 160.59688 40.05Q161.19063 40.05 161.53438 39.846874Q161.89375 39.659374 162.1125 39.315624Q162.28438 39.05 162.65938 38.003124Q162.70625 37.846874 162.81563 37.565624L158.87813 27.175L160.76875 27.175L162.925 33.190624Q163.34688 34.33125 163.675 35.58125Q163.9875 34.378124 164.39375 33.221874L166.6125 27.175L168.37813 27.175L164.425 37.721874Q163.8 39.440624 163.44063 40.08125Q162.97188 40.95625 162.3625 41.346874Q161.76875 41.753124 160.925 41.753124Q160.40938 41.753124 159.78438 41.55ZM175.22188 32.3625Q175.22188 29.4875 176.81563 28.096874Q178.15938 26.940624 180.08125 26.940624Q182.22188 26.940624 183.56563 28.346874Q184.925 29.753124 184.925 32.221874Q184.925 34.221874 184.33125 35.378124Q183.7375 36.51875 182.58125 37.159374Q181.44063 37.784374 180.08125 37.784374Q177.89375 37.784374 176.55 36.39375Q175.22188 34.9875 175.22188 32.3625ZM177.01875 32.3625Q177.01875 34.3625 177.87813 35.346874Q178.75313 36.33125 180.08125 36.33125Q181.39375 36.33125 182.25313 35.346874Q183.12813 34.346874 183.12813 32.3Q183.12813 30.378124 182.25313 29.39375Q181.37813 28.39375 180.08125 28.39375Q178.75313 28.39375 177.87813 29.39375Q177.01875 30.378124 177.01875 32.3625ZM186.8625 37.55L186.8625 27.175L188.45625 27.175L188.45625 28.659374Q189.59688 26.940624 191.75313 26.940624Q192.69063 26.940624 193.47188 27.284374Q194.26875 27.6125 194.65938 28.159374Q195.05 28.70625 195.20625 29.45625Q195.3 29.95625 195.3 31.175L195.3 37.55L193.53438 37.55L193.53438 31.2375Q193.53438 30.159374 193.33125 29.628124Q193.12813 29.096874 192.59688 28.784374Q192.08125 28.471874 191.37813 28.471874Q190.25313 28.471874 189.44063 29.190624Q188.62813 29.89375 188.62813 31.878124L188.62813 37.55L186.8625 37.55ZM203.15938 37.55L203.15938 23.2375L205.05 23.2375L205.05 29.1125L212.4875 29.1125L212.4875 23.2375L214.37813 23.2375L214.37813 37.55L212.4875 37.55L212.4875 30.8L205.05 30.8L205.05 37.55L203.15938 37.55ZM219.7375 37.55L219.7375 24.925L215.01875 24.925L215.01875 23.2375L226.3625 23.2375L226.3625 24.925L221.62813 24.925L221.62813 37.55L219.7375 37.55ZM231.7375 37.55L231.7375 24.925L227.01875 24.925L227.01875 23.2375L238.3625 23.2375L238.3625 24.925L233.62813 24.925L233.62813 37.55L231.7375 37.55ZM240.09688 37.55L240.09688 23.2375L245.4875 23.2375Q246.925 23.2375 247.675 23.3625Q248.72188 23.55 249.44063 24.05Q250.15938 24.534374 250.58125 25.425Q251.01875 26.315624 251.01875 27.378124Q251.01875 29.20625 249.84688 30.471874Q248.69063 31.721874 245.65938 31.721874L241.9875 31.721874L241.9875 37.55L240.09688 37.55ZM241.9875 30.034374L245.69063 30.034374Q247.51875 30.034374 248.28438 29.3625Q249.06563 28.675 249.06563 27.425Q249.06563 26.534374 248.6125 25.89375Q248.15938 25.253124 247.425 25.05Q246.94063 24.925 245.64375 24.925L241.9875 24.925L241.9875 30.034374ZM251.55 37.8L255.70625 22.9875L257.1125 22.9875L252.97188 37.8L251.55 37.8ZM265.0031 37.55L263.2375 37.55L263.2375 26.346874Q262.6125 26.95625 261.58124 27.565624Q260.55 28.159374 259.72186 28.471874L259.72186 26.76875Q261.20624 26.08125 262.3 25.096874Q263.40936 24.096874 263.8625 23.175L265.0031 23.175L265.0031 37.55ZM270.3625 37.55L270.3625 35.55L272.3625 35.55L272.3625 37.55L270.3625 37.55ZM282.0031 37.55L280.2375 37.55L280.2375 26.346874Q279.6125 26.95625 278.58124 27.565624Q277.55 28.159374 276.72186 28.471874L276.72186 26.76875Q278.20624 26.08125 279.3 25.096874Q280.40936 24.096874 280.8625 23.175L282.0031 23.175L282.0031 37.55Z" fill-rule="nonzero"/><path fill="#757575" d="M26.596874 61.55L26.596874 60.2375Q25.6125 61.784374 23.690624 61.784374Q22.45625 61.784374 21.409374 61.096874Q20.378124 60.409374 19.8 59.190624Q19.2375 57.971874 19.2375 56.378124Q19.2375 54.815624 19.753124 53.55Q20.26875 52.284374 21.3 51.6125Q22.346874 50.940624 23.6125 50.940624Q24.55 50.940624 25.284374 51.346874Q26.01875 51.7375 26.4875 52.3625L26.4875 47.2375L28.221874 47.2375L28.221874 61.55L26.596874 61.55ZM21.034374 56.378124Q21.034374 58.3625 21.878124 59.346874Q22.721874 60.33125 23.8625 60.33125Q25.01875 60.33125 25.815624 59.39375Q26.628124 58.45625 26.628124 56.51875Q26.628124 54.39375 25.8 53.39375Q24.9875 52.39375 23.784374 52.39375Q22.6125 52.39375 21.815624 53.3625Q21.034374 54.315624 21.034374 56.378124ZM30.221874 56.3625Q30.221874 53.4875 31.815624 52.096874Q33.159374 50.940624 35.08125 50.940624Q37.221874 50.940624 38.565624 52.346874Q39.925 53.753124 39.925 56.221874Q39.925 58.221874 39.33125 59.378124Q38.7375 60.51875 37.58125 61.159374Q36.440624 61.784374 35.08125 61.784374Q32.89375 61.784374 31.55 60.39375Q30.221874 58.9875 30.221874 56.3625ZM32.01875 56.3625Q32.01875 58.3625 32.878124 59.346874Q33.753124 60.33125 35.08125 60.33125Q36.39375 60.33125 37.253124 59.346874Q38.128124 58.346874 38.128124 56.3Q38.128124 54.378124 37.253124 53.39375Q36.378124 52.39375 35.08125 52.39375Q33.753124 52.39375 32.878124 53.39375Q32.01875 54.378124 32.01875 56.3625ZM43.784374 61.55L40.6125 51.175L42.425 51.175L44.08125 57.159374L44.690624 59.39375Q44.7375 59.221874 45.221874 57.253124L46.878124 51.175L48.690624 51.175L50.2375 57.190624L50.753124 59.175L51.346874 57.175L53.128124 51.175L54.83125 51.175L51.596874 61.55L49.76875 61.55L48.1125 55.33125L47.721874 53.565624L45.6125 61.55L43.784374 61.55ZM56.8625 61.55L56.8625 51.175L58.45625 51.175L58.45625 52.659374Q59.596874 50.940624 61.753124 50.940624Q62.690624 50.940624 63.471874 51.284374Q64.26875 51.6125 64.65938 52.159374Q65.05 52.70625 65.20625 53.45625Q65.3 53.95625 65.3 55.175L65.3 61.55L63.534374 61.55L63.534374 55.2375Q63.534374 54.159374 63.33125 53.628124Q63.128124 53.096874 62.596874 52.784374Q62.08125 52.471874 61.378124 52.471874Q60.253124 52.471874 59.440624 53.190624Q58.628124 53.89375 58.628124 55.878124L58.628124 61.55L56.8625 61.55ZM66.83125 61.55L66.83125 47.2375L68.58125 47.2375L68.58125 61.55L66.83125 61.55ZM70.22188 56.3625Q70.22188 53.4875 71.81563 52.096874Q73.15938 50.940624 75.08125 50.940624Q77.22188 50.940624 78.56563 52.346874Q79.925 53.753124 79.925 56.221874Q79.925 58.221874 79.33125 59.378124Q78.7375 60.51875 77.58125 61.159374Q76.44063 61.784374 75.08125 61.784374Q72.89375 61.784374 71.55 60.39375Q70.22188 58.9875 70.22188 56.3625ZM72.01875 56.3625Q72.01875 58.3625 72.87813 59.346874Q73.75313 60.33125 75.08125 60.33125Q76.39375 60.33125 77.25313 59.346874Q78.12813 58.346874 78.12813 56.3Q78.12813 54.378124 77.25313 53.39375Q76.37813 52.39375 75.08125 52.39375Q73.75313 52.39375 72.87813 53.39375Q72.01875 54.378124 72.01875 56.3625ZM88.64375 60.26875Q87.65938 61.096874 86.75313 61.440624Q85.84688 61.784374 84.81563 61.784374Q83.1125 61.784374 82.19063 60.95625Q81.26875 60.1125 81.26875 58.815624Q81.26875 58.05 81.6125 57.425Q81.97188 56.8 82.53438 56.425Q83.09688 56.034374 83.8 55.83125Q84.31563 55.70625 85.3625 55.565624Q87.4875 55.315624 88.4875 54.971874Q88.50313 54.6125 88.50313 54.503124Q88.50313 53.440624 88.00313 52.9875Q87.33125 52.39375 86.00313 52.39375Q84.75313 52.39375 84.15938 52.83125Q83.58125 53.26875 83.3 54.378124L81.58125 54.14375Q81.81563 53.034374 82.34688 52.3625Q82.87813 51.675 83.89375 51.315624Q84.90938 50.940624 86.25313 50.940624Q87.58125 50.940624 88.40938 51.253124Q89.2375 51.565624 89.62813 52.05Q90.01875 52.51875 90.175 53.2375Q90.26875 53.690624 90.26875 54.8625L90.26875 57.20625Q90.26875 59.659374 90.37813 60.315624Q90.4875 60.95625 90.83125 61.55L88.9875 61.55Q88.72188 61.003124 88.64375 60.26875ZM88.4875 56.346874Q87.53438 56.7375 85.6125 57.003124Q84.53438 57.159374 84.08125 57.3625Q83.64375 57.55 83.39375 57.925Q83.14375 58.3 83.14375 58.76875Q83.14375 59.471874 83.675 59.940624Q84.20625 60.409374 85.2375 60.409374Q86.25313 60.409374 87.03438 59.971874Q87.83125 59.51875 88.20625 58.753124Q88.4875 58.14375 88.4875 56.9875L88.4875 56.346874ZM99.59688 61.55L99.59688 60.2375Q98.6125 61.784374 96.69063 61.784374Q95.45625 61.784374 94.40938 61.096874Q93.37813 60.409374 92.8 59.190624Q92.2375 57.971874 92.2375 56.378124Q92.2375 54.815624 92.75313 53.55Q93.26875 52.284374 94.3 51.6125Q95.34688 50.940624 96.6125 50.940624Q97.55 50.940624 98.28438 51.346874Q99.01875 51.7375 99.4875 52.3625L99.4875 47.2375L101.22188 47.2375L101.22188 61.55L99.59688 61.55ZM94.03438 56.378124Q94.03438 58.3625 94.87813 59.346874Q95.72188 60.33125 96.8625 60.33125Q98.01875 60.33125 98.81563 59.39375Q99.62813 58.45625 99.62813 56.51875Q99.62813 54.39375 98.8 53.39375Q97.9875 52.39375 96.78438 52.39375Q95.6125 52.39375 94.81563 53.3625Q94.03438 54.315624 94.03438 56.378124ZM103.87813 49.253124L103.87813 47.2375L105.64375 47.2375L105.64375 49.253124L103.87813 49.253124ZM103.87813 61.55L103.87813 51.175L105.64375 51.175L105.64375 61.55L103.87813 61.55ZM107.8625 61.55L107.8625 51.175L109.45625 51.175L109.45625 52.659374Q110.59688 50.940624 112.75313 50.940624Q113.69063 50.940624 114.47188 51.284374Q115.26875 51.6125 115.65938 52.159374Q116.05 52.70625 116.20625 53.45625Q116.3 53.95625 116.3 55.175L116.3 61.55L114.53438 61.55L114.53438 55.2375Q114.53438 54.159374 114.33125 53.628124Q114.12813 53.096874 113.59688 52.784374Q113.08125 52.471874 112.37813 52.471874Q111.25313 52.471874 110.44063 53.190624Q109.62813 53.89375 109.62813 55.878124L109.62813 61.55L107.8625 61.55ZM117.55 62.409374L119.25313 62.659374Q119.3625 63.45625 119.84688 63.815624Q120.50313 64.3 121.64375 64.3Q122.8625 64.3 123.51875 63.815624Q124.19063 63.33125 124.425 62.45625Q124.56563 61.909374 124.55 60.190624Q123.39375 61.55 121.675 61.55Q119.53438 61.55 118.3625 60.003124Q117.19063 58.45625 117.19063 56.3Q117.19063 54.815624 117.72188 53.565624Q118.26875 52.315624 119.28438 51.628124Q120.31563 50.940624 121.69063 50.940624Q123.51875 50.940624 124.72188 52.425L124.72188 51.175L126.33125 51.175L126.33125 60.14375Q126.33125 62.565624 125.83125 63.565624Q125.34688 64.58125 124.26875 65.15938Q123.20625 65.75313 121.64375 65.75313Q119.8 65.75313 118.64375 64.925Q117.50313 64.09688 117.55 62.409374ZM119.00313 56.175Q119.00313 58.221874 119.81563 59.159374Q120.62813 60.096874 121.84688 60.096874Q123.05 60.096874 123.8625 59.159374Q124.69063 58.221874 124.69063 56.2375Q124.69063 54.33125 123.84688 53.3625Q123.00313 52.39375 121.81563 52.39375Q120.64375 52.39375 119.81563 53.346874Q119.00313 54.3 119.00313 56.175ZM143.6125 59.8625L143.6125 61.55L134.15938 61.55Q134.14375 60.909374 134.3625 60.33125Q134.72188 59.3625 135.51875 58.425Q136.31563 57.4875 137.81563 56.253124Q140.15938 54.346874 140.97188 53.2375Q141.8 52.1125 141.8 51.1125Q141.8 50.065624 141.05 49.346874Q140.3 48.628124 139.09688 48.628124Q137.83125 48.628124 137.06563 49.39375Q136.3 50.159374 136.3 51.503124L134.4875 51.315624Q134.675 49.3 135.87813 48.2375Q137.09688 47.175 139.14375 47.175Q141.19063 47.175 142.39375 48.315624Q143.59688 49.45625 143.59688 51.14375Q143.59688 52.003124 143.2375 52.846874Q142.89375 53.675 142.08125 54.596874Q141.26875 55.503124 139.37813 57.1125Q137.78438 58.440624 137.33125 58.909374Q136.89375 59.378124 136.59688 59.8625L143.6125 59.8625ZM146.03438 61.55L146.03438 47.2375L148.89375 47.2375L152.26875 57.3625Q152.7375 58.784374 152.95625 59.4875Q153.20625 58.70625 153.72188 57.190624L157.14375 47.2375L159.69063 47.2375L159.69063 61.55L157.87813 61.55L157.87813 49.565624L153.70625 61.55L152.00313 61.55L147.8625 49.3625L147.8625 61.55L146.03438 61.55ZM163.01875 61.55L163.01875 47.2375L168.39375 47.2375Q170.03438 47.2375 171.01875 47.675Q172.00313 48.096874 172.56563 49.003124Q173.12813 49.909374 173.12813 50.89375Q173.12813 51.815624 172.62813 52.628124Q172.14375 53.440624 171.12813 53.925Q172.425 54.315624 173.12813 55.2375Q173.83125 56.14375 173.83125 57.39375Q173.83125 58.409374 173.39375 59.26875Q172.97188 60.128124 172.34688 60.596874Q171.72188 61.065624 170.78438 61.315624Q169.84688 61.55 168.47188 61.55L163.01875 61.55ZM164.90938 53.253124L168.00313 53.253124Q169.26875 53.253124 169.81563 53.08125Q170.53438 52.8625 170.89375 52.378124Q171.26875 51.878124 171.26875 51.1125Q171.26875 50.409374 170.925 49.8625Q170.58125 49.315624 169.94063 49.128124Q169.31563 48.925 167.76875 48.925L164.90938 48.925L164.90938 53.253124ZM164.90938 59.8625L168.47188 59.8625Q169.39375 59.8625 169.76875 59.784374Q170.425 59.675 170.8625 59.409374Q171.3 59.128124 171.58125 58.6125Q171.8625 58.08125 171.8625 57.39375Q171.8625 56.596874 171.45625 56.003124Q171.05 55.409374 170.31563 55.175Q169.58125 54.940624 168.22188 54.940624L164.90938 54.940624L164.90938 59.8625ZM182.28438 61.55L182.28438 52.55L180.7375 52.55L180.7375 51.175L182.28438 51.175L182.28438 50.08125Q182.28438 49.034374 182.47188 48.51875Q182.72188 47.83125 183.3625 47.409374Q184.00313 46.9875 185.15938 46.9875Q185.90938 46.9875 186.8 47.159374L186.53438 48.690624Q185.9875 48.596874 185.50313 48.596874Q184.70625 48.596874 184.3625 48.940624Q184.03438 49.284374 184.03438 50.221874L184.03438 51.175L186.06563 51.175L186.06563 52.55L184.03438 52.55L184.03438 61.55L182.28438 61.55ZM187.87813 49.253124L187.87813 47.2375L189.64375 47.2375L189.64375 49.253124L187.87813 49.253124ZM187.87813 61.55L187.87813 51.175L189.64375 51.175L189.64375 61.55L187.87813 61.55ZM191.83125 61.55L191.83125 47.2375L193.58125 47.2375L193.58125 61.55L191.83125 61.55ZM202.97188 58.20625L204.78438 58.440624Q204.3625 60.01875 203.19063 60.909374Q202.03438 61.784374 200.22188 61.784374Q197.95625 61.784374 196.6125 60.39375Q195.28438 58.9875 195.28438 56.45625Q195.28438 53.83125 196.62813 52.39375Q197.97188 50.940624 200.12813 50.940624Q202.20625 50.940624 203.51875 52.3625Q204.84688 53.76875 204.84688 56.346874Q204.84688 56.503124 204.83125 56.815624L197.09688 56.815624Q197.19063 58.51875 198.06563 59.425Q198.94063 60.33125 200.2375 60.33125Q201.20625 60.33125 201.87813 59.83125Q202.56563 59.315624 202.97188 58.20625ZM197.19063 55.3625L202.9875 55.3625Q202.87813 54.065624 202.33125 53.409374Q201.4875 52.39375 200.14375 52.39375Q198.94063 52.39375 198.1125 53.20625Q197.28438 54.003124 197.19063 55.3625Z" fill-rule="nonzero"/></svg>