<svg version="1.1" viewBox="0.0 0.0 598.0 371.0" fill="none" stroke="none" stroke-linecap="square" stroke-miterlimit="10" width="598" height="371" xmlns:xlink="http://www.w3.org/1999/xlink" xmlns="http://www.w3.org/2000/svg"><path fill="#ffffff" d="M0 0L598.0 0L598.0 371.0L0 371.0L0 0Z" fill-rule="nonzero"/><path stroke="#333333" stroke-width="1.0" stroke-linecap="butt" d="M77.5 345.5L579.5 345.5" fill-rule="nonzero"/><path stroke="#cccccc" stroke-width="1.0" stroke-linecap="butt" d="M77.5 274.5L579.5 274.5" fill-rule="nonzero"/><path stroke="#cccccc" stroke-width="1.0" stroke-linecap="butt" d="M77.5 203.5L579.5 203.5" fill-rule="nonzero"/><path stroke="#cccccc" stroke-width="1.0" stroke-linecap="butt" d="M77.5 132.5L579.5 132.5" fill-rule="nonzero"/><path stroke="#cccccc" stroke-width="1.0" stroke-linecap="butt" d="M77.5 61.5L579.5 61.5" fill-rule="nonzero"/><clipPath id="id_0"><path d="M77.55 61.916668L579.45 61.916668L579.45 345.45L77.55 345.45L77.55 61.916668Z" clip-rule="nonzero"/></clipPath><path stroke="#000000" stroke-width="2.0" stroke-linecap="butt" stroke-opacity="0.0" clip-path="url(#id_0)" d="M172.0 345.0L111.0 345.0L111.0 340.0C111.0 338.89542 111.89543 338.0 113.0 338.0L170.0 338.0C171.10457 338.0 172.0 338.89542 172.0 340.0Z" fill-rule="nonzero"/><path fill="#4285f4" clip-path="url(#id_0)" d="M172.0 345.0L111.0 345.0L111.0 340.0C111.0 338.89542 111.89543 338.0 113.0 338.0L170.0 338.0C171.10457 338.0 172.0 338.89542 172.0 340.0Z" fill-rule="nonzero"/><path stroke="#000000" stroke-width="2.0" stroke-linecap="butt" stroke-opacity="0.0" clip-path="url(#id_0)" d="M266.0 345.0L205.0 345.0L205.0 335.0C205.0 333.89542 205.89543 333.0 207.0 333.0L264.0 333.0C265.10458 333.0 266.0 333.89542 266.0 335.0Z" fill-rule="nonzero"/><path fill="#4285f4" clip-path="url(#id_0)" d="M266.0 345.0L205.0 345.0L205.0 335.0C205.0 333.89542 205.89543 333.0 207.0 333.0L264.0 333.0C265.10458 333.0 266.0 333.89542 266.0 335.0Z" fill-rule="nonzero"/><path stroke="#000000" stroke-width="2.0" stroke-linecap="butt" stroke-opacity="0.0" clip-path="url(#id_0)" d="M360.0 345.0L299.0 345.0L299.0 321.0C299.0 319.89542 299.89542 319.0 301.0 319.0L358.0 319.0C359.10458 319.0 360.0 319.89542 360.0 321.0Z" fill-rule="nonzero"/><path fill="#4285f4" clip-path="url(#id_0)" d="M360.0 345.0L299.0 345.0L299.0 321.0C299.0 319.89542 299.89542 319.0 301.0 319.0L358.0 319.0C359.10458 319.0 360.0 319.89542 360.0 321.0Z" fill-rule="nonzero"/><path stroke="#000000" stroke-width="2.0" stroke-linecap="butt" stroke-opacity="0.0" clip-path="url(#id_0)" d="M453.0 345.0L392.0 345.0L392.0 293.0C392.0 291.89542 392.89542 291.0 394.0 291.0L451.0 291.0C452.10458 291.0 453.0 291.89542 453.0 293.0Z" fill-rule="nonzero"/><path fill="#4285f4" clip-path="url(#id_0)" d="M453.0 345.0L392.0 345.0L392.0 293.0C392.0 291.89542 392.89542 291.0 394.0 291.0L451.0 291.0C452.10458 291.0 453.0 291.89542 453.0 293.0Z" fill-rule="nonzero"/><path stroke="#000000" stroke-width="2.0" stroke-linecap="butt" stroke-opacity="0.0" clip-path="url(#id_0)" d="M547.0 345.0L486.0 345.0L486.0 96.0C486.0 94.89543 486.89542 94.0 488.0 94.0L545.0 94.0C546.10455 94.0 547.0 94.89543 547.0 96.0Z" fill-rule="nonzero"/><path fill="#4285f4" clip-path="url(#id_0)" d="M547.0 345.0L486.0 345.0L486.0 96.0C486.0 94.89543 486.89542 94.0 488.0 94.0L545.0 94.0C546.10455 94.0 547.0 94.89543 547.0 96.0Z" fill-rule="nonzero"/><path stroke="#ffffff" stroke-width="3.0" stroke-linejoin="round" stroke-linecap="round" d="M98.546875 323.28845L97.421875 323.28845L97.421875 319.35095L93.109375 319.35095L93.109375 323.28845L91.984375 323.28845L91.984375 314.7572L93.109375 314.7572L93.109375 318.42908L97.421875 318.42908L97.421875 314.7572L98.546875 314.7572L98.546875 323.28845ZM106.890625 315.67908L104.140625 315.67908L104.140625 323.28845L103.03125 323.28845L103.03125 315.67908L100.28125 315.67908L100.28125 314.7572L106.890625 314.7572L106.890625 315.67908ZM113.890625 315.67908L111.140625 315.67908L111.140625 323.28845L110.03125 323.28845L110.03125 315.67908L107.28125 315.67908L107.28125 314.7572L113.890625 314.7572L113.890625 315.67908ZM116.109375 319.9447L116.109375 323.28845L114.984375 323.28845L114.984375 314.7572L118.140625 314.7572Q119.53125 314.7572 120.328125 315.47595Q121.125 316.17908 121.125 317.36658Q121.125 318.60095 120.34375 319.27283Q119.578125 319.9447 118.125 319.9447L116.109375 319.9447ZM116.109375 319.02283L118.140625 319.02283Q119.046875 319.02283 119.515625 318.60095Q120.0 318.17908 120.0 317.3822Q120.0 316.61658 119.515625 316.16345Q119.046875 315.6947 118.203125 315.67908L116.109375 315.67908L116.109375 319.02283ZM123.03125 324.02283L122.109375 324.02283L125.671875 314.7572L126.59375 314.7572L123.03125 324.02283ZM131.26562 323.28845L130.1875 323.28845L130.1875 316.0697L128.0 316.86658L128.0 315.8822L131.10938 314.71033L131.26562 314.71033L131.26562 323.28845ZM134.84375 322.72595Q134.84375 322.4447 135.0 322.2572Q135.17188 322.0697 135.5 322.0697Q135.84375 322.0697 136.01562 322.2572Q136.1875 322.4447 136.1875 322.72595Q136.1875 322.99158 136.01562 323.17908Q135.84375 323.35095 135.5 323.35095Q135.17188 323.35095 135.0 323.17908Q134.84375 322.99158 134.84375 322.72595ZM141.26562 323.28845L140.1875 323.28845L140.1875 316.0697L138.0 316.86658L138.0 315.8822L141.10938 314.71033L141.26562 314.71033L141.26562 323.28845ZM148.20312 319.0072L148.64062 314.7572L153.01562 314.7572L153.01562 315.7572L149.5625 315.7572L149.29688 318.08533Q149.9375 317.71033 150.73438 317.71033Q151.89062 317.71033 152.57812 318.49158Q153.26562 319.2572 153.26562 320.5697Q153.26562 321.8822 152.54688 322.64783Q151.84375 323.41345 150.5625 323.41345Q149.4375 323.41345 148.71875 322.78845Q148.0 322.14783 147.90625 321.03845L148.92188 321.03845Q149.03125 321.77283 149.45312 322.14783Q149.875 322.52283 150.5625 322.52283Q151.3125 322.52283 151.75 322.0072Q152.1875 321.49158 152.1875 320.58533Q152.1875 319.72595 151.71875 319.21033Q151.25 318.6947 150.46875 318.6947Q149.76562 318.6947 149.35938 318.99158L149.07812 319.22595L148.20312 319.0072ZM160.0625 319.64783Q160.0625 321.55408 159.40625 322.49158Q158.76562 323.41345 157.375 323.41345Q156.01562 323.41345 155.35938 322.5072Q154.70312 321.60095 154.67188 319.78845L154.67188 318.35095Q154.67188 316.46033 155.3125 315.55408Q155.96875 314.6322 157.35938 314.6322Q158.73438 314.6322 159.39062 315.52283Q160.04688 316.39783 160.0625 318.24158L160.0625 319.64783ZM158.96875 318.16345Q158.96875 316.78845 158.57812 316.16345Q158.20312 315.52283 157.35938 315.52283Q156.53125 315.52283 156.14062 316.16345Q155.76562 316.78845 155.76562 318.08533L155.76562 319.8197Q155.76562 321.1947 156.15625 321.86658Q156.5625 322.52283 157.375 322.52283Q158.17188 322.52283 158.5625 321.89783Q158.95312 321.27283 158.96875 319.9447L158.96875 318.16345ZM163.4375 314.7572L166.23438 321.71033L169.01562 314.7572L170.48438 314.7572L170.48438 323.28845L169.35938 323.28845L169.35938 319.96033L169.46875 316.3822L166.65625 323.28845L165.79688 323.28845L163.0 316.39783L163.10938 319.96033L163.10938 323.28845L161.98438 323.28845L161.98438 314.7572L163.4375 314.7572ZM177.1875 320.1947Q177.1875 321.64783 176.51562 322.53845Q175.85938 323.41345 174.73438 323.41345Q173.53125 323.41345 172.875 322.55408L172.8125 323.28845L171.82812 323.28845L171.82812 314.28845L172.90625 314.28845L172.90625 317.64783Q173.5625 316.83533 174.71875 316.83533Q175.875 316.83533 176.53125 317.71033Q177.1875 318.5697 177.1875 320.10095L177.1875 320.1947ZM176.10938 320.0697Q176.10938 318.96033 175.67188 318.36658Q175.25 317.7572 174.45312 317.7572Q173.375 317.7572 172.90625 318.74158L172.90625 321.49158Q173.40625 322.49158 174.45312 322.49158Q175.23438 322.49158 175.67188 321.8822Q176.10938 321.27283 176.10938 320.0697ZM184.17188 320.1947Q184.17188 321.6322 183.51562 322.52283Q182.85938 323.41345 181.71875 323.41345Q180.5625 323.41345 179.90625 322.67908L179.90625 325.72595L178.82812 325.72595L178.82812 316.9447L179.8125 316.9447L179.85938 317.64783Q180.53125 316.83533 181.70312 316.83533Q182.84375 316.83533 183.5 317.6947Q184.17188 318.55408 184.17188 320.08533L184.17188 320.1947ZM183.09375 320.0697Q183.09375 318.99158 182.625 318.3822Q182.17188 317.7572 181.375 317.7572Q180.39062 317.7572 179.90625 318.61658L179.90625 321.64783Q180.39062 322.52283 181.39062 322.52283Q182.17188 322.52283 182.625 321.91345Q183.09375 321.28845 183.09375 320.0697ZM189.51562 321.60095Q189.51562 321.16345 189.17188 320.92908Q188.84375 320.67908 188.01562 320.5072Q187.20312 320.33533 186.71875 320.08533Q186.23438 319.83533 186.0 319.5072Q185.78125 319.16345 185.78125 318.6947Q185.78125 317.91345 186.4375 317.3822Q187.09375 316.83533 188.125 316.83533Q189.20312 316.83533 189.85938 317.39783Q190.53125 317.9447 190.53125 318.80408L189.45312 318.80408Q189.45312 318.36658 189.0625 318.05408Q188.6875 317.72595 188.125 317.72595Q187.53125 317.72595 187.1875 317.99158Q186.85938 318.24158 186.85938 318.64783Q186.85938 319.03845 187.17188 319.24158Q187.48438 319.4447 188.29688 319.6322Q189.10938 319.80408 189.60938 320.05408Q190.10938 320.30408 190.34375 320.66345Q190.59375 321.02283 190.59375 321.52283Q190.59375 322.3822 189.90625 322.89783Q189.23438 323.41345 188.15625 323.41345Q187.39062 323.41345 186.79688 323.14783Q186.21875 322.86658 185.89062 322.3822Q185.5625 321.89783 185.5625 321.33533L186.64062 321.33533Q186.67188 321.8822 187.07812 322.21033Q187.48438 322.52283 188.15625 322.52283Q188.76562 322.52283 189.14062 322.27283Q189.51562 322.02283 189.51562 321.60095Z" fill-rule="nonzero"/><path fill="#4285f4" d="M98.546875 323.28845L97.421875 323.28845L97.421875 319.35095L93.109375 319.35095L93.109375 323.28845L91.984375 323.28845L91.984375 314.7572L93.109375 314.7572L93.109375 318.42908L97.421875 318.42908L97.421875 314.7572L98.546875 314.7572L98.546875 323.28845ZM106.890625 315.67908L104.140625 315.67908L104.140625 323.28845L103.03125 323.28845L103.03125 315.67908L100.28125 315.67908L100.28125 314.7572L106.890625 314.7572L106.890625 315.67908ZM113.890625 315.67908L111.140625 315.67908L111.140625 323.28845L110.03125 323.28845L110.03125 315.67908L107.28125 315.67908L107.28125 314.7572L113.890625 314.7572L113.890625 315.67908ZM116.109375 319.9447L116.109375 323.28845L114.984375 323.28845L114.984375 314.7572L118.140625 314.7572Q119.53125 314.7572 120.328125 315.47595Q121.125 316.17908 121.125 317.36658Q121.125 318.60095 120.34375 319.27283Q119.578125 319.9447 118.125 319.9447L116.109375 319.9447ZM116.109375 319.02283L118.140625 319.02283Q119.046875 319.02283 119.515625 318.60095Q120.0 318.17908 120.0 317.3822Q120.0 316.61658 119.515625 316.16345Q119.046875 315.6947 118.203125 315.67908L116.109375 315.67908L116.109375 319.02283ZM123.03125 324.02283L122.109375 324.02283L125.671875 314.7572L126.59375 314.7572L123.03125 324.02283ZM131.26562 323.28845L130.1875 323.28845L130.1875 316.0697L128.0 316.86658L128.0 315.8822L131.10938 314.71033L131.26562 314.71033L131.26562 323.28845ZM134.84375 322.72595Q134.84375 322.4447 135.0 322.2572Q135.17188 322.0697 135.5 322.0697Q135.84375 322.0697 136.01562 322.2572Q136.1875 322.4447 136.1875 322.72595Q136.1875 322.99158 136.01562 323.17908Q135.84375 323.35095 135.5 323.35095Q135.17188 323.35095 135.0 323.17908Q134.84375 322.99158 134.84375 322.72595ZM141.26562 323.28845L140.1875 323.28845L140.1875 316.0697L138.0 316.86658L138.0 315.8822L141.10938 314.71033L141.26562 314.71033L141.26562 323.28845ZM148.20312 319.0072L148.64062 314.7572L153.01562 314.7572L153.01562 315.7572L149.5625 315.7572L149.29688 318.08533Q149.9375 317.71033 150.73438 317.71033Q151.89062 317.71033 152.57812 318.49158Q153.26562 319.2572 153.26562 320.5697Q153.26562 321.8822 152.54688 322.64783Q151.84375 323.41345 150.5625 323.41345Q149.4375 323.41345 148.71875 322.78845Q148.0 322.14783 147.90625 321.03845L148.92188 321.03845Q149.03125 321.77283 149.45312 322.14783Q149.875 322.52283 150.5625 322.52283Q151.3125 322.52283 151.75 322.0072Q152.1875 321.49158 152.1875 320.58533Q152.1875 319.72595 151.71875 319.21033Q151.25 318.6947 150.46875 318.6947Q149.76562 318.6947 149.35938 318.99158L149.07812 319.22595L148.20312 319.0072ZM160.0625 319.64783Q160.0625 321.55408 159.40625 322.49158Q158.76562 323.41345 157.375 323.41345Q156.01562 323.41345 155.35938 322.5072Q154.70312 321.60095 154.67188 319.78845L154.67188 318.35095Q154.67188 316.46033 155.3125 315.55408Q155.96875 314.6322 157.35938 314.6322Q158.73438 314.6322 159.39062 315.52283Q160.04688 316.39783 160.0625 318.24158L160.0625 319.64783ZM158.96875 318.16345Q158.96875 316.78845 158.57812 316.16345Q158.20312 315.52283 157.35938 315.52283Q156.53125 315.52283 156.14062 316.16345Q155.76562 316.78845 155.76562 318.08533L155.76562 319.8197Q155.76562 321.1947 156.15625 321.86658Q156.5625 322.52283 157.375 322.52283Q158.17188 322.52283 158.5625 321.89783Q158.95312 321.27283 158.96875 319.9447L158.96875 318.16345ZM163.4375 314.7572L166.23438 321.71033L169.01562 314.7572L170.48438 314.7572L170.48438 323.28845L169.35938 323.28845L169.35938 319.96033L169.46875 316.3822L166.65625 323.28845L165.79688 323.28845L163.0 316.39783L163.10938 319.96033L163.10938 323.28845L161.98438 323.28845L161.98438 314.7572L163.4375 314.7572ZM177.1875 320.1947Q177.1875 321.64783 176.51562 322.53845Q175.85938 323.41345 174.73438 323.41345Q173.53125 323.41345 172.875 322.55408L172.8125 323.28845L171.82812 323.28845L171.82812 314.28845L172.90625 314.28845L172.90625 317.64783Q173.5625 316.83533 174.71875 316.83533Q175.875 316.83533 176.53125 317.71033Q177.1875 318.5697 177.1875 320.10095L177.1875 320.1947ZM176.10938 320.0697Q176.10938 318.96033 175.67188 318.36658Q175.25 317.7572 174.45312 317.7572Q173.375 317.7572 172.90625 318.74158L172.90625 321.49158Q173.40625 322.49158 174.45312 322.49158Q175.23438 322.49158 175.67188 321.8822Q176.10938 321.27283 176.10938 320.0697ZM184.17188 320.1947Q184.17188 321.6322 183.51562 322.52283Q182.85938 323.41345 181.71875 323.41345Q180.5625 323.41345 179.90625 322.67908L179.90625 325.72595L178.82812 325.72595L178.82812 316.9447L179.8125 316.9447L179.85938 317.64783Q180.53125 316.83533 181.70312 316.83533Q182.84375 316.83533 183.5 317.6947Q184.17188 318.55408 184.17188 320.08533L184.17188 320.1947ZM183.09375 320.0697Q183.09375 318.99158 182.625 318.3822Q182.17188 317.7572 181.375 317.7572Q180.39062 317.7572 179.90625 318.61658L179.90625 321.64783Q180.39062 322.52283 181.39062 322.52283Q182.17188 322.52283 182.625 321.91345Q183.09375 321.28845 183.09375 320.0697ZM189.51562 321.60095Q189.51562 321.16345 189.17188 320.92908Q188.84375 320.67908 188.01562 320.5072Q187.20312 320.33533 186.71875 320.08533Q186.23438 319.83533 186.0 319.5072Q185.78125 319.16345 185.78125 318.6947Q185.78125 317.91345 186.4375 317.3822Q187.09375 316.83533 188.125 316.83533Q189.20312 316.83533 189.85938 317.39783Q190.53125 317.9447 190.53125 318.80408L189.45312 318.80408Q189.45312 318.36658 189.0625 318.05408Q188.6875 317.72595 188.125 317.72595Q187.53125 317.72595 187.1875 317.99158Q186.85938 318.24158 186.85938 318.64783Q186.85938 319.03845 187.17188 319.24158Q187.48438 319.4447 188.29688 319.6322Q189.10938 319.80408 189.60938 320.05408Q190.10938 320.30408 190.34375 320.66345Q190.59375 321.02283 190.59375 321.52283Q190.59375 322.3822 189.90625 322.89783Q189.23438 323.41345 188.15625 323.41345Q187.39062 323.41345 186.79688 323.14783Q186.21875 322.86658 185.89062 322.3822Q185.5625 321.89783 185.5625 321.33533L186.64062 321.33533Q186.67188 321.8822 187.07812 322.21033Q187.48438 322.52283 188.15625 322.52283Q188.76562 322.52283 189.14062 322.27283Q189.51562 322.02283 189.51562 321.60095Z" fill-rule="nonzero"/><path stroke="#ffffff" stroke-width="3.0" stroke-linejoin="round" stroke-linecap="round" d="M192.54688 317.61642L191.42188 317.61642L191.42188 313.67892L187.10938 313.67892L187.10938 317.61642L185.98438 317.61642L185.98438 309.08517L187.10938 309.08517L187.10938 312.75705L191.42188 312.75705L191.42188 309.08517L192.54688 309.08517L192.54688 317.61642ZM200.89062 310.00705L198.14062 310.00705L198.14062 317.61642L197.03125 317.61642L197.03125 310.00705L194.28125 310.00705L194.28125 309.08517L200.89062 309.08517L200.89062 310.00705ZM207.89062 310.00705L205.14062 310.00705L205.14062 317.61642L204.03125 317.61642L204.03125 310.00705L201.28125 310.00705L201.28125 309.08517L207.89062 309.08517L207.89062 310.00705ZM210.10938 314.27267L210.10938 317.61642L208.98438 317.61642L208.98438 309.08517L212.14062 309.08517Q213.53125 309.08517 214.32812 309.80392Q215.125 310.50705 215.125 311.69455Q215.125 312.92892 214.34375 313.6008Q213.57812 314.27267 212.125 314.27267L210.10938 314.27267ZM210.10938 313.3508L212.14062 313.3508Q213.04688 313.3508 213.51562 312.92892Q214.0 312.50705 214.0 311.71017Q214.0 310.94455 213.51562 310.49142Q213.04688 310.02267 212.20312 310.00705L210.10938 310.00705L210.10938 313.3508ZM217.03125 318.3508L216.10938 318.3508L219.67188 309.08517L220.59375 309.08517L217.03125 318.3508ZM225.26562 317.61642L224.1875 317.61642L224.1875 310.39767L222.0 311.19455L222.0 310.21017L225.10938 309.0383L225.26562 309.0383L225.26562 317.61642ZM228.84375 317.05392Q228.84375 316.77267 229.0 316.58517Q229.17188 316.39767 229.5 316.39767Q229.84375 316.39767 230.01562 316.58517Q230.1875 316.77267 230.1875 317.05392Q230.1875 317.31955 230.01562 317.50705Q229.84375 317.67892 229.5 317.67892Q229.17188 317.67892 229.0 317.50705Q228.84375 317.31955 228.84375 317.05392ZM235.26562 317.61642L234.1875 317.61642L234.1875 310.39767L232.0 311.19455L232.0 310.21017L235.10938 309.0383L235.26562 309.0383L235.26562 317.61642ZM247.29688 317.61642L241.70312 317.61642L241.70312 316.83517L244.65625 313.55392Q245.3125 312.80392 245.5625 312.3508Q245.8125 311.88205 245.8125 311.38205Q245.8125 310.71017 245.40625 310.2883Q245.01562 309.8508 244.32812 309.8508Q243.53125 309.8508 243.07812 310.31955Q242.625 310.77267 242.625 311.6008L241.54688 311.6008Q241.54688 310.4133 242.29688 309.69455Q243.0625 308.96017 244.32812 308.96017Q245.53125 308.96017 246.21875 309.58517Q246.90625 310.21017 246.90625 311.25705Q246.90625 312.50705 245.29688 314.25705L243.01562 316.7258L247.29688 316.7258L247.29688 317.61642ZM249.20312 313.33517L249.64062 309.08517L254.01562 309.08517L254.01562 310.08517L250.5625 310.08517L250.29688 312.4133Q250.9375 312.0383 251.73438 312.0383Q252.89062 312.0383 253.57812 312.81955Q254.26562 313.58517 254.26562 314.89767Q254.26562 316.21017 253.54688 316.9758Q252.84375 317.74142 251.5625 317.74142Q250.4375 317.74142 249.71875 317.11642Q249.0 316.4758 248.90625 315.36642L249.92188 315.36642Q250.03125 316.1008 250.45312 316.4758Q250.875 316.8508 251.5625 316.8508Q252.3125 316.8508 252.75 316.33517Q253.1875 315.81955 253.1875 314.9133Q253.1875 314.05392 252.71875 313.5383Q252.25 313.02267 251.46875 313.02267Q250.76562 313.02267 250.35938 313.31955L250.07812 313.55392L249.20312 313.33517ZM257.4375 309.08517L260.23438 316.0383L263.01562 309.08517L264.48438 309.08517L264.48438 317.61642L263.35938 317.61642L263.35938 314.2883L263.46875 310.71017L260.65625 317.61642L259.79688 317.61642L257.0 310.7258L257.10938 314.2883L257.10938 317.61642L255.98438 317.61642L255.98438 309.08517L257.4375 309.08517ZM271.1875 314.52267Q271.1875 315.9758 270.51562 316.86642Q269.85938 317.74142 268.73438 317.74142Q267.53125 317.74142 266.875 316.88205L266.8125 317.61642L265.82812 317.61642L265.82812 308.61642L266.90625 308.61642L266.90625 311.9758Q267.5625 311.1633 268.71875 311.1633Q269.875 311.1633 270.53125 312.0383Q271.1875 312.89767 271.1875 314.42892L271.1875 314.52267ZM270.10938 314.39767Q270.10938 313.2883 269.67188 312.69455Q269.25 312.08517 268.45312 312.08517Q267.375 312.08517 266.90625 313.06955L266.90625 315.81955Q267.40625 316.81955 268.45312 316.81955Q269.23438 316.81955 269.67188 316.21017Q270.10938 315.6008 270.10938 314.39767ZM278.17188 314.52267Q278.17188 315.96017 277.51562 316.8508Q276.85938 317.74142 275.71875 317.74142Q274.5625 317.74142 273.90625 317.00705L273.90625 320.05392L272.82812 320.05392L272.82812 311.27267L273.8125 311.27267L273.85938 311.9758Q274.53125 311.1633 275.70312 311.1633Q276.84375 311.1633 277.5 312.02267Q278.17188 312.88205 278.17188 314.4133L278.17188 314.52267ZM277.09375 314.39767Q277.09375 313.31955 276.625 312.71017Q276.17188 312.08517 275.375 312.08517Q274.39062 312.08517 273.90625 312.94455L273.90625 315.9758Q274.39062 316.8508 275.39062 316.8508Q276.17188 316.8508 276.625 316.24142Q277.09375 315.61642 277.09375 314.39767ZM283.51562 315.92892Q283.51562 315.49142 283.17188 315.25705Q282.84375 315.00705 282.01562 314.83517Q281.20312 314.6633 280.71875 314.4133Q280.23438 314.1633 280.0 313.83517Q279.78125 313.49142 279.78125 313.02267Q279.78125 312.24142 280.4375 311.71017Q281.09375 311.1633 282.125 311.1633Q283.20312 311.1633 283.85938 311.7258Q284.53125 312.27267 284.53125 313.13205L283.45312 313.13205Q283.45312 312.69455 283.0625 312.38205Q282.6875 312.05392 282.125 312.05392Q281.53125 312.05392 281.1875 312.31955Q280.85938 312.56955 280.85938 312.9758Q280.85938 313.36642 281.17188 313.56955Q281.48438 313.77267 282.29688 313.96017Q283.10938 314.13205 283.60938 314.38205Q284.10938 314.63205 284.34375 314.99142Q284.59375 315.3508 284.59375 315.8508Q284.59375 316.71017 283.90625 317.2258Q283.23438 317.74142 282.15625 317.74142Q281.39062 317.74142 280.79688 317.4758Q280.21875 317.19455 279.89062 316.71017Q279.5625 316.2258 279.5625 315.6633L280.64062 315.6633Q280.67188 316.21017 281.07812 316.5383Q281.48438 316.8508 282.15625 316.8508Q282.76562 316.8508 283.14062 316.6008Q283.51562 316.3508 283.51562 315.92892Z" fill-rule="nonzero"/><path fill="#4285f4" d="M192.54688 317.61642L191.42188 317.61642L191.42188 313.67892L187.10938 313.67892L187.10938 317.61642L185.98438 317.61642L185.98438 309.08517L187.10938 309.08517L187.10938 312.75705L191.42188 312.75705L191.42188 309.08517L192.54688 309.08517L192.54688 317.61642ZM200.89062 310.00705L198.14062 310.00705L198.14062 317.61642L197.03125 317.61642L197.03125 310.00705L194.28125 310.00705L194.28125 309.08517L200.89062 309.08517L200.89062 310.00705ZM207.89062 310.00705L205.14062 310.00705L205.14062 317.61642L204.03125 317.61642L204.03125 310.00705L201.28125 310.00705L201.28125 309.08517L207.89062 309.08517L207.89062 310.00705ZM210.10938 314.27267L210.10938 317.61642L208.98438 317.61642L208.98438 309.08517L212.14062 309.08517Q213.53125 309.08517 214.32812 309.80392Q215.125 310.50705 215.125 311.69455Q215.125 312.92892 214.34375 313.6008Q213.57812 314.27267 212.125 314.27267L210.10938 314.27267ZM210.10938 313.3508L212.14062 313.3508Q213.04688 313.3508 213.51562 312.92892Q214.0 312.50705 214.0 311.71017Q214.0 310.94455 213.51562 310.49142Q213.04688 310.02267 212.20312 310.00705L210.10938 310.00705L210.10938 313.3508ZM217.03125 318.3508L216.10938 318.3508L219.67188 309.08517L220.59375 309.08517L217.03125 318.3508ZM225.26562 317.61642L224.1875 317.61642L224.1875 310.39767L222.0 311.19455L222.0 310.21017L225.10938 309.0383L225.26562 309.0383L225.26562 317.61642ZM228.84375 317.05392Q228.84375 316.77267 229.0 316.58517Q229.17188 316.39767 229.5 316.39767Q229.84375 316.39767 230.01562 316.58517Q230.1875 316.77267 230.1875 317.05392Q230.1875 317.31955 230.01562 317.50705Q229.84375 317.67892 229.5 317.67892Q229.17188 317.67892 229.0 317.50705Q228.84375 317.31955 228.84375 317.05392ZM235.26562 317.61642L234.1875 317.61642L234.1875 310.39767L232.0 311.19455L232.0 310.21017L235.10938 309.0383L235.26562 309.0383L235.26562 317.61642ZM247.29688 317.61642L241.70312 317.61642L241.70312 316.83517L244.65625 313.55392Q245.3125 312.80392 245.5625 312.3508Q245.8125 311.88205 245.8125 311.38205Q245.8125 310.71017 245.40625 310.2883Q245.01562 309.8508 244.32812 309.8508Q243.53125 309.8508 243.07812 310.31955Q242.625 310.77267 242.625 311.6008L241.54688 311.6008Q241.54688 310.4133 242.29688 309.69455Q243.0625 308.96017 244.32812 308.96017Q245.53125 308.96017 246.21875 309.58517Q246.90625 310.21017 246.90625 311.25705Q246.90625 312.50705 245.29688 314.25705L243.01562 316.7258L247.29688 316.7258L247.29688 317.61642ZM249.20312 313.33517L249.64062 309.08517L254.01562 309.08517L254.01562 310.08517L250.5625 310.08517L250.29688 312.4133Q250.9375 312.0383 251.73438 312.0383Q252.89062 312.0383 253.57812 312.81955Q254.26562 313.58517 254.26562 314.89767Q254.26562 316.21017 253.54688 316.9758Q252.84375 317.74142 251.5625 317.74142Q250.4375 317.74142 249.71875 317.11642Q249.0 316.4758 248.90625 315.36642L249.92188 315.36642Q250.03125 316.1008 250.45312 316.4758Q250.875 316.8508 251.5625 316.8508Q252.3125 316.8508 252.75 316.33517Q253.1875 315.81955 253.1875 314.9133Q253.1875 314.05392 252.71875 313.5383Q252.25 313.02267 251.46875 313.02267Q250.76562 313.02267 250.35938 313.31955L250.07812 313.55392L249.20312 313.33517ZM257.4375 309.08517L260.23438 316.0383L263.01562 309.08517L264.48438 309.08517L264.48438 317.61642L263.35938 317.61642L263.35938 314.2883L263.46875 310.71017L260.65625 317.61642L259.79688 317.61642L257.0 310.7258L257.10938 314.2883L257.10938 317.61642L255.98438 317.61642L255.98438 309.08517L257.4375 309.08517ZM271.1875 314.52267Q271.1875 315.9758 270.51562 316.86642Q269.85938 317.74142 268.73438 317.74142Q267.53125 317.74142 266.875 316.88205L266.8125 317.61642L265.82812 317.61642L265.82812 308.61642L266.90625 308.61642L266.90625 311.9758Q267.5625 311.1633 268.71875 311.1633Q269.875 311.1633 270.53125 312.0383Q271.1875 312.89767 271.1875 314.42892L271.1875 314.52267ZM270.10938 314.39767Q270.10938 313.2883 269.67188 312.69455Q269.25 312.08517 268.45312 312.08517Q267.375 312.08517 266.90625 313.06955L266.90625 315.81955Q267.40625 316.81955 268.45312 316.81955Q269.23438 316.81955 269.67188 316.21017Q270.10938 315.6008 270.10938 314.39767ZM278.17188 314.52267Q278.17188 315.96017 277.51562 316.8508Q276.85938 317.74142 275.71875 317.74142Q274.5625 317.74142 273.90625 317.00705L273.90625 320.05392L272.82812 320.05392L272.82812 311.27267L273.8125 311.27267L273.85938 311.9758Q274.53125 311.1633 275.70312 311.1633Q276.84375 311.1633 277.5 312.02267Q278.17188 312.88205 278.17188 314.4133L278.17188 314.52267ZM277.09375 314.39767Q277.09375 313.31955 276.625 312.71017Q276.17188 312.08517 275.375 312.08517Q274.39062 312.08517 273.90625 312.94455L273.90625 315.9758Q274.39062 316.8508 275.39062 316.8508Q276.17188 316.8508 276.625 316.24142Q277.09375 315.61642 277.09375 314.39767ZM283.51562 315.92892Q283.51562 315.49142 283.17188 315.25705Q282.84375 315.00705 282.01562 314.83517Q281.20312 314.6633 280.71875 314.4133Q280.23438 314.1633 280.0 313.83517Q279.78125 313.49142 279.78125 313.02267Q279.78125 312.24142 280.4375 311.71017Q281.09375 311.1633 282.125 311.1633Q283.20312 311.1633 283.85938 311.7258Q284.53125 312.27267 284.53125 313.13205L283.45312 313.13205Q283.45312 312.69455 283.0625 312.38205Q282.6875 312.05392 282.125 312.05392Q281.53125 312.05392 281.1875 312.31955Q280.85938 312.56955 280.85938 312.9758Q280.85938 313.36642 281.17188 313.56955Q281.48438 313.77267 282.29688 313.96017Q283.10938 314.13205 283.60938 314.38205Q284.10938 314.63205 284.34375 314.99142Q284.59375 315.3508 284.59375 315.8508Q284.59375 316.71017 283.90625 317.2258Q283.23438 317.74142 282.15625 317.74142Q281.39062 317.74142 280.79688 317.4758Q280.21875 317.19455 279.89062 316.71017Q279.5625 316.2258 279.5625 315.6633L280.64062 315.6633Q280.67188 316.21017 281.07812 316.5383Q281.48438 316.8508 282.15625 316.8508Q282.76562 316.8508 283.14062 316.6008Q283.51562 316.3508 283.51562 315.92892Z" fill-rule="nonzero"/><path stroke="#ffffff" stroke-width="3.0" stroke-linejoin="round" stroke-linecap="round" d="M286.54688 303.88266L285.42188 303.88266L285.42188 299.94516L281.10938 299.94516L281.10938 303.88266L279.98438 303.88266L279.98438 295.3514L281.10938 295.3514L281.10938 299.0233L285.42188 299.0233L285.42188 295.3514L286.54688 295.3514L286.54688 303.88266ZM294.89062 296.2733L292.14062 296.2733L292.14062 303.88266L291.03125 303.88266L291.03125 296.2733L288.28125 296.2733L288.28125 295.3514L294.89062 295.3514L294.89062 296.2733ZM301.89062 296.2733L299.14062 296.2733L299.14062 303.88266L298.03125 303.88266L298.03125 296.2733L295.28125 296.2733L295.28125 295.3514L301.89062 295.3514L301.89062 296.2733ZM304.10938 300.5389L304.10938 303.88266L302.98438 303.88266L302.98438 295.3514L306.14062 295.3514Q307.53125 295.3514 308.32812 296.07016Q309.125 296.7733 309.125 297.9608Q309.125 299.19516 308.34375 299.86703Q307.57812 300.5389 306.125 300.5389L304.10938 300.5389ZM304.10938 299.61703L306.14062 299.61703Q307.04688 299.61703 307.51562 299.19516Q308.0 298.7733 308.0 297.9764Q308.0 297.2108 307.51562 296.75766Q307.04688 296.2889 306.20312 296.2733L304.10938 296.2733L304.10938 299.61703ZM311.03125 304.61703L310.10938 304.61703L313.67188 295.3514L314.59375 295.3514L311.03125 304.61703ZM319.26562 303.88266L318.1875 303.88266L318.1875 296.6639L316.0 297.4608L316.0 296.4764L319.10938 295.30453L319.26562 295.30453L319.26562 303.88266ZM322.84375 303.32016Q322.84375 303.0389 323.0 302.8514Q323.17188 302.6639 323.5 302.6639Q323.84375 302.6639 324.01562 302.8514Q324.1875 303.0389 324.1875 303.32016Q324.1875 303.5858 324.01562 303.7733Q323.84375 303.94516 323.5 303.94516Q323.17188 303.94516 323.0 303.7733Q322.84375 303.5858 322.84375 303.32016ZM329.26562 303.88266L328.1875 303.88266L328.1875 296.6639L326.0 297.4608L326.0 296.4764L329.10938 295.30453L329.26562 295.30453L329.26562 303.88266ZM339.26562 303.88266L338.1875 303.88266L338.1875 296.6639L336.0 297.4608L336.0 296.4764L339.10938 295.30453L339.26562 295.30453L339.26562 303.88266ZM348.0625 300.24203Q348.0625 302.1483 347.40625 303.0858Q346.76562 304.00766 345.375 304.00766Q344.01562 304.00766 343.35938 303.1014Q342.70312 302.19516 342.67188 300.38266L342.67188 298.94516Q342.67188 297.05453 343.3125 296.1483Q343.96875 295.2264 345.35938 295.2264Q346.73438 295.2264 347.39062 296.11703Q348.04688 296.99203 348.0625 298.8358L348.0625 300.24203ZM346.96875 298.75766Q346.96875 297.38266 346.57812 296.75766Q346.20312 296.11703 345.35938 296.11703Q344.53125 296.11703 344.14062 296.75766Q343.76562 297.38266 343.76562 298.67953L343.76562 300.4139Q343.76562 301.7889 344.15625 302.4608Q344.5625 303.11703 345.375 303.11703Q346.17188 303.11703 346.5625 302.49203Q346.95312 301.86703 346.96875 300.5389L346.96875 298.75766ZM351.4375 295.3514L354.23438 302.30453L357.01562 295.3514L358.48438 295.3514L358.48438 303.88266L357.35938 303.88266L357.35938 300.55453L357.46875 296.9764L354.65625 303.88266L353.79688 303.88266L351.0 296.99203L351.10938 300.55453L351.10938 303.88266L349.98438 303.88266L349.98438 295.3514L351.4375 295.3514ZM365.1875 300.7889Q365.1875 302.24203 364.51562 303.13266Q363.85938 304.00766 362.73438 304.00766Q361.53125 304.00766 360.875 303.1483L360.8125 303.88266L359.82812 303.88266L359.82812 294.88266L360.90625 294.88266L360.90625 298.24203Q361.5625 297.42953 362.71875 297.42953Q363.875 297.42953 364.53125 298.30453Q365.1875 299.1639 365.1875 300.69516L365.1875 300.7889ZM364.10938 300.6639Q364.10938 299.55453 363.67188 298.9608Q363.25 298.3514 362.45312 298.3514Q361.375 298.3514 360.90625 299.3358L360.90625 302.0858Q361.40625 303.0858 362.45312 303.0858Q363.23438 303.0858 363.67188 302.4764Q364.10938 301.86703 364.10938 300.6639ZM372.17188 300.7889Q372.17188 302.2264 371.51562 303.11703Q370.85938 304.00766 369.71875 304.00766Q368.5625 304.00766 367.90625 303.2733L367.90625 306.32016L366.82812 306.32016L366.82812 297.5389L367.8125 297.5389L367.85938 298.24203Q368.53125 297.42953 369.70312 297.42953Q370.84375 297.42953 371.5 298.2889Q372.17188 299.1483 372.17188 300.67953L372.17188 300.7889ZM371.09375 300.6639Q371.09375 299.5858 370.625 298.9764Q370.17188 298.3514 369.375 298.3514Q368.39062 298.3514 367.90625 299.2108L367.90625 302.24203Q368.39062 303.11703 369.39062 303.11703Q370.17188 303.11703 370.625 302.50766Q371.09375 301.88266 371.09375 300.6639ZM377.51562 302.19516Q377.51562 301.75766 377.17188 301.5233Q376.84375 301.2733 376.01562 301.1014Q375.20312 300.92953 374.71875 300.67953Q374.23438 300.42953 374.0 300.1014Q373.78125 299.75766 373.78125 299.2889Q373.78125 298.50766 374.4375 297.9764Q375.09375 297.42953 376.125 297.42953Q377.20312 297.42953 377.85938 297.99203Q378.53125 298.5389 378.53125 299.3983L377.45312 299.3983Q377.45312 298.9608 377.0625 298.6483Q376.6875 298.32016 376.125 298.32016Q375.53125 298.32016 375.1875 298.5858Q374.85938 298.8358 374.85938 299.24203Q374.85938 299.63266 375.17188 299.8358Q375.48438 300.0389 376.29688 300.2264Q377.10938 300.3983 377.60938 300.6483Q378.10938 300.8983 378.34375 301.25766Q378.59375 301.61703 378.59375 302.11703Q378.59375 302.9764 377.90625 303.49203Q377.23438 304.00766 376.15625 304.00766Q375.39062 304.00766 374.79688 303.74203Q374.21875 303.4608 373.89062 302.9764Q373.5625 302.49203 373.5625 301.92953L374.64062 301.92953Q374.67188 302.4764 375.07812 302.80453Q375.48438 303.11703 376.15625 303.11703Q376.76562 303.11703 377.14062 302.86703Q377.51562 302.61703 377.51562 302.19516Z" fill-rule="nonzero"/><path fill="#4285f4" d="M286.54688 303.88266L285.42188 303.88266L285.42188 299.94516L281.10938 299.94516L281.10938 303.88266L279.98438 303.88266L279.98438 295.3514L281.10938 295.3514L281.10938 299.0233L285.42188 299.0233L285.42188 295.3514L286.54688 295.3514L286.54688 303.88266ZM294.89062 296.2733L292.14062 296.2733L292.14062 303.88266L291.03125 303.88266L291.03125 296.2733L288.28125 296.2733L288.28125 295.3514L294.89062 295.3514L294.89062 296.2733ZM301.89062 296.2733L299.14062 296.2733L299.14062 303.88266L298.03125 303.88266L298.03125 296.2733L295.28125 296.2733L295.28125 295.3514L301.89062 295.3514L301.89062 296.2733ZM304.10938 300.5389L304.10938 303.88266L302.98438 303.88266L302.98438 295.3514L306.14062 295.3514Q307.53125 295.3514 308.32812 296.07016Q309.125 296.7733 309.125 297.9608Q309.125 299.19516 308.34375 299.86703Q307.57812 300.5389 306.125 300.5389L304.10938 300.5389ZM304.10938 299.61703L306.14062 299.61703Q307.04688 299.61703 307.51562 299.19516Q308.0 298.7733 308.0 297.9764Q308.0 297.2108 307.51562 296.75766Q307.04688 296.2889 306.20312 296.2733L304.10938 296.2733L304.10938 299.61703ZM311.03125 304.61703L310.10938 304.61703L313.67188 295.3514L314.59375 295.3514L311.03125 304.61703ZM319.26562 303.88266L318.1875 303.88266L318.1875 296.6639L316.0 297.4608L316.0 296.4764L319.10938 295.30453L319.26562 295.30453L319.26562 303.88266ZM322.84375 303.32016Q322.84375 303.0389 323.0 302.8514Q323.17188 302.6639 323.5 302.6639Q323.84375 302.6639 324.01562 302.8514Q324.1875 303.0389 324.1875 303.32016Q324.1875 303.5858 324.01562 303.7733Q323.84375 303.94516 323.5 303.94516Q323.17188 303.94516 323.0 303.7733Q322.84375 303.5858 322.84375 303.32016ZM329.26562 303.88266L328.1875 303.88266L328.1875 296.6639L326.0 297.4608L326.0 296.4764L329.10938 295.30453L329.26562 295.30453L329.26562 303.88266ZM339.26562 303.88266L338.1875 303.88266L338.1875 296.6639L336.0 297.4608L336.0 296.4764L339.10938 295.30453L339.26562 295.30453L339.26562 303.88266ZM348.0625 300.24203Q348.0625 302.1483 347.40625 303.0858Q346.76562 304.00766 345.375 304.00766Q344.01562 304.00766 343.35938 303.1014Q342.70312 302.19516 342.67188 300.38266L342.67188 298.94516Q342.67188 297.05453 343.3125 296.1483Q343.96875 295.2264 345.35938 295.2264Q346.73438 295.2264 347.39062 296.11703Q348.04688 296.99203 348.0625 298.8358L348.0625 300.24203ZM346.96875 298.75766Q346.96875 297.38266 346.57812 296.75766Q346.20312 296.11703 345.35938 296.11703Q344.53125 296.11703 344.14062 296.75766Q343.76562 297.38266 343.76562 298.67953L343.76562 300.4139Q343.76562 301.7889 344.15625 302.4608Q344.5625 303.11703 345.375 303.11703Q346.17188 303.11703 346.5625 302.49203Q346.95312 301.86703 346.96875 300.5389L346.96875 298.75766ZM351.4375 295.3514L354.23438 302.30453L357.01562 295.3514L358.48438 295.3514L358.48438 303.88266L357.35938 303.88266L357.35938 300.55453L357.46875 296.9764L354.65625 303.88266L353.79688 303.88266L351.0 296.99203L351.10938 300.55453L351.10938 303.88266L349.98438 303.88266L349.98438 295.3514L351.4375 295.3514ZM365.1875 300.7889Q365.1875 302.24203 364.51562 303.13266Q363.85938 304.00766 362.73438 304.00766Q361.53125 304.00766 360.875 303.1483L360.8125 303.88266L359.82812 303.88266L359.82812 294.88266L360.90625 294.88266L360.90625 298.24203Q361.5625 297.42953 362.71875 297.42953Q363.875 297.42953 364.53125 298.30453Q365.1875 299.1639 365.1875 300.69516L365.1875 300.7889ZM364.10938 300.6639Q364.10938 299.55453 363.67188 298.9608Q363.25 298.3514 362.45312 298.3514Q361.375 298.3514 360.90625 299.3358L360.90625 302.0858Q361.40625 303.0858 362.45312 303.0858Q363.23438 303.0858 363.67188 302.4764Q364.10938 301.86703 364.10938 300.6639ZM372.17188 300.7889Q372.17188 302.2264 371.51562 303.11703Q370.85938 304.00766 369.71875 304.00766Q368.5625 304.00766 367.90625 303.2733L367.90625 306.32016L366.82812 306.32016L366.82812 297.5389L367.8125 297.5389L367.85938 298.24203Q368.53125 297.42953 369.70312 297.42953Q370.84375 297.42953 371.5 298.2889Q372.17188 299.1483 372.17188 300.67953L372.17188 300.7889ZM371.09375 300.6639Q371.09375 299.5858 370.625 298.9764Q370.17188 298.3514 369.375 298.3514Q368.39062 298.3514 367.90625 299.2108L367.90625 302.24203Q368.39062 303.11703 369.39062 303.11703Q370.17188 303.11703 370.625 302.50766Q371.09375 301.88266 371.09375 300.6639ZM377.51562 302.19516Q377.51562 301.75766 377.17188 301.5233Q376.84375 301.2733 376.01562 301.1014Q375.20312 300.92953 374.71875 300.67953Q374.23438 300.42953 374.0 300.1014Q373.78125 299.75766 373.78125 299.2889Q373.78125 298.50766 374.4375 297.9764Q375.09375 297.42953 376.125 297.42953Q377.20312 297.42953 377.85938 297.99203Q378.53125 298.5389 378.53125 299.3983L377.45312 299.3983Q377.45312 298.9608 377.0625 298.6483Q376.6875 298.32016 376.125 298.32016Q375.53125 298.32016 375.1875 298.5858Q374.85938 298.8358 374.85938 299.24203Q374.85938 299.63266 375.17188 299.8358Q375.48438 300.0389 376.29688 300.2264Q377.10938 300.3983 377.60938 300.6483Q378.10938 300.8983 378.34375 301.25766Q378.59375 301.61703 378.59375 302.11703Q378.59375 302.9764 377.90625 303.49203Q377.23438 304.00766 376.15625 304.00766Q375.39062 304.00766 374.79688 303.74203Q374.21875 303.4608 373.89062 302.9764Q373.5625 302.49203 373.5625 301.92953L374.64062 301.92953Q374.67188 302.4764 375.07812 302.80453Q375.48438 303.11703 376.15625 303.11703Q376.76562 303.11703 377.14062 302.86703Q377.51562 302.61703 377.51562 302.19516Z" fill-rule="nonzero"/><path stroke="#ffffff" stroke-width="3.0" stroke-linejoin="round" stroke-linecap="round" d="M383.04688 276.00452L381.92188 276.00452L381.92188 272.06702L377.60938 272.06702L377.60938 276.00452L376.48438 276.00452L376.48438 267.47327L377.60938 267.47327L377.60938 271.14514L381.92188 271.14514L381.92188 267.47327L383.04688 267.47327L383.04688 276.00452ZM391.39062 268.39514L388.64062 268.39514L388.64062 276.00452L387.53125 276.00452L387.53125 268.39514L384.78125 268.39514L384.78125 267.47327L391.39062 267.47327L391.39062 268.39514ZM398.39062 268.39514L395.64062 268.39514L395.64062 276.00452L394.53125 276.00452L394.53125 268.39514L391.78125 268.39514L391.78125 267.47327L398.39062 267.47327L398.39062 268.39514ZM400.60938 272.66077L400.60938 276.00452L399.48438 276.00452L399.48438 267.47327L402.64062 267.47327Q404.03125 267.47327 404.82812 268.19202Q405.625 268.89514 405.625 270.08264Q405.625 271.31702 404.84375 271.9889Q404.07812 272.66077 402.625 272.66077L400.60938 272.66077ZM400.60938 271.7389L402.64062 271.7389Q403.54688 271.7389 404.01562 271.31702Q404.5 270.89514 404.5 270.09827Q404.5 269.33264 404.01562 268.87952Q403.54688 268.41077 402.70312 268.39514L400.60938 268.39514L400.60938 271.7389ZM407.53125 276.7389L406.60938 276.7389L410.17188 267.47327L411.09375 267.47327L407.53125 276.7389ZM415.76562 276.00452L414.6875 276.00452L414.6875 268.78577L412.5 269.58264L412.5 268.59827L415.60938 267.4264L415.76562 267.4264L415.76562 276.00452ZM419.34375 275.44202Q419.34375 275.16077 419.5 274.97327Q419.67188 274.78577 420.0 274.78577Q420.34375 274.78577 420.51562 274.97327Q420.6875 275.16077 420.6875 275.44202Q420.6875 275.70764 420.51562 275.89514Q420.34375 276.06702 420.0 276.06702Q419.67188 276.06702 419.5 275.89514Q419.34375 275.70764 419.34375 275.44202ZM425.76562 276.00452L424.6875 276.00452L424.6875 268.78577L422.5 269.58264L422.5 268.59827L425.60938 267.4264L425.76562 267.4264L425.76562 276.00452ZM432.70312 271.72327L433.14062 267.47327L437.51562 267.47327L437.51562 268.47327L434.0625 268.47327L433.79688 270.8014Q434.4375 270.4264 435.23438 270.4264Q436.39062 270.4264 437.07812 271.20764Q437.76562 271.97327 437.76562 273.28577Q437.76562 274.59827 437.04688 275.3639Q436.34375 276.12952 435.0625 276.12952Q433.9375 276.12952 433.21875 275.50452Q432.5 274.8639 432.40625 273.75452L433.42188 273.75452Q433.53125 274.4889 433.95312 274.8639Q434.375 275.2389 435.0625 275.2389Q435.8125 275.2389 436.25 274.72327Q436.6875 274.20764 436.6875 273.3014Q436.6875 272.44202 436.21875 271.9264Q435.75 271.41077 434.96875 271.41077Q434.26562 271.41077 433.85938 271.70764L433.57812 271.94202L432.70312 271.72327ZM440.9375 267.47327L443.73438 274.4264L446.51562 267.47327L447.98438 267.47327L447.98438 276.00452L446.85938 276.00452L446.85938 272.6764L446.96875 269.09827L444.15625 276.00452L443.29688 276.00452L440.5 269.1139L440.60938 272.6764L440.60938 276.00452L439.48438 276.00452L439.48438 267.47327L440.9375 267.47327ZM454.6875 272.91077Q454.6875 274.3639 454.01562 275.25452Q453.35938 276.12952 452.23438 276.12952Q451.03125 276.12952 450.375 275.27014L450.3125 276.00452L449.32812 276.00452L449.32812 267.00452L450.40625 267.00452L450.40625 270.3639Q451.0625 269.5514 452.21875 269.5514Q453.375 269.5514 454.03125 270.4264Q454.6875 271.28577 454.6875 272.81702L454.6875 272.91077ZM453.60938 272.78577Q453.60938 271.6764 453.17188 271.08264Q452.75 270.47327 451.95312 270.47327Q450.875 270.47327 450.40625 271.45764L450.40625 274.20764Q450.90625 275.20764 451.95312 275.20764Q452.73438 275.20764 453.17188 274.59827Q453.60938 273.9889 453.60938 272.78577ZM461.67188 272.91077Q461.67188 274.34827 461.01562 275.2389Q460.35938 276.12952 459.21875 276.12952Q458.0625 276.12952 457.40625 275.39514L457.40625 278.44202L456.32812 278.44202L456.32812 269.66077L457.3125 269.66077L457.35938 270.3639Q458.03125 269.5514 459.20312 269.5514Q460.34375 269.5514 461.0 270.41077Q461.67188 271.27014 461.67188 272.8014L461.67188 272.91077ZM460.59375 272.78577Q460.59375 271.70764 460.125 271.09827Q459.67188 270.47327 458.875 270.47327Q457.89062 270.47327 457.40625 271.33264L457.40625 274.3639Q457.89062 275.2389 458.89062 275.2389Q459.67188 275.2389 460.125 274.62952Q460.59375 274.00452 460.59375 272.78577ZM467.01562 274.31702Q467.01562 273.87952 466.67188 273.64514Q466.34375 273.39514 465.51562 273.22327Q464.70312 273.0514 464.21875 272.8014Q463.73438 272.5514 463.5 272.22327Q463.28125 271.87952 463.28125 271.41077Q463.28125 270.62952 463.9375 270.09827Q464.59375 269.5514 465.625 269.5514Q466.70312 269.5514 467.35938 270.1139Q468.03125 270.66077 468.03125 271.52014L466.95312 271.52014Q466.95312 271.08264 466.5625 270.77014Q466.1875 270.44202 465.625 270.44202Q465.03125 270.44202 464.6875 270.70764Q464.35938 270.95764 464.35938 271.3639Q464.35938 271.75452 464.67188 271.95764Q464.98438 272.16077 465.79688 272.34827Q466.60938 272.52014 467.10938 272.77014Q467.60938 273.02014 467.84375 273.37952Q468.09375 273.7389 468.09375 274.2389Q468.09375 275.09827 467.40625 275.6139Q466.73438 276.12952 465.65625 276.12952Q464.89062 276.12952 464.29688 275.8639Q463.71875 275.58264 463.39062 275.09827Q463.0625 274.6139 463.0625 274.0514L464.14062 274.0514Q464.17188 274.59827 464.57812 274.9264Q464.98438 275.2389 465.65625 275.2389Q466.26562 275.2389 466.64062 274.9889Q467.01562 274.7389 467.01562 274.31702Z" fill-rule="nonzero"/><path fill="#4285f4" d="M383.04688 276.00452L381.92188 276.00452L381.92188 272.06702L377.60938 272.06702L377.60938 276.00452L376.48438 276.00452L376.48438 267.47327L377.60938 267.47327L377.60938 271.14514L381.92188 271.14514L381.92188 267.47327L383.04688 267.47327L383.04688 276.00452ZM391.39062 268.39514L388.64062 268.39514L388.64062 276.00452L387.53125 276.00452L387.53125 268.39514L384.78125 268.39514L384.78125 267.47327L391.39062 267.47327L391.39062 268.39514ZM398.39062 268.39514L395.64062 268.39514L395.64062 276.00452L394.53125 276.00452L394.53125 268.39514L391.78125 268.39514L391.78125 267.47327L398.39062 267.47327L398.39062 268.39514ZM400.60938 272.66077L400.60938 276.00452L399.48438 276.00452L399.48438 267.47327L402.64062 267.47327Q404.03125 267.47327 404.82812 268.19202Q405.625 268.89514 405.625 270.08264Q405.625 271.31702 404.84375 271.9889Q404.07812 272.66077 402.625 272.66077L400.60938 272.66077ZM400.60938 271.7389L402.64062 271.7389Q403.54688 271.7389 404.01562 271.31702Q404.5 270.89514 404.5 270.09827Q404.5 269.33264 404.01562 268.87952Q403.54688 268.41077 402.70312 268.39514L400.60938 268.39514L400.60938 271.7389ZM407.53125 276.7389L406.60938 276.7389L410.17188 267.47327L411.09375 267.47327L407.53125 276.7389ZM415.76562 276.00452L414.6875 276.00452L414.6875 268.78577L412.5 269.58264L412.5 268.59827L415.60938 267.4264L415.76562 267.4264L415.76562 276.00452ZM419.34375 275.44202Q419.34375 275.16077 419.5 274.97327Q419.67188 274.78577 420.0 274.78577Q420.34375 274.78577 420.51562 274.97327Q420.6875 275.16077 420.6875 275.44202Q420.6875 275.70764 420.51562 275.89514Q420.34375 276.06702 420.0 276.06702Q419.67188 276.06702 419.5 275.89514Q419.34375 275.70764 419.34375 275.44202ZM425.76562 276.00452L424.6875 276.00452L424.6875 268.78577L422.5 269.58264L422.5 268.59827L425.60938 267.4264L425.76562 267.4264L425.76562 276.00452ZM432.70312 271.72327L433.14062 267.47327L437.51562 267.47327L437.51562 268.47327L434.0625 268.47327L433.79688 270.8014Q434.4375 270.4264 435.23438 270.4264Q436.39062 270.4264 437.07812 271.20764Q437.76562 271.97327 437.76562 273.28577Q437.76562 274.59827 437.04688 275.3639Q436.34375 276.12952 435.0625 276.12952Q433.9375 276.12952 433.21875 275.50452Q432.5 274.8639 432.40625 273.75452L433.42188 273.75452Q433.53125 274.4889 433.95312 274.8639Q434.375 275.2389 435.0625 275.2389Q435.8125 275.2389 436.25 274.72327Q436.6875 274.20764 436.6875 273.3014Q436.6875 272.44202 436.21875 271.9264Q435.75 271.41077 434.96875 271.41077Q434.26562 271.41077 433.85938 271.70764L433.57812 271.94202L432.70312 271.72327ZM440.9375 267.47327L443.73438 274.4264L446.51562 267.47327L447.98438 267.47327L447.98438 276.00452L446.85938 276.00452L446.85938 272.6764L446.96875 269.09827L444.15625 276.00452L443.29688 276.00452L440.5 269.1139L440.60938 272.6764L440.60938 276.00452L439.48438 276.00452L439.48438 267.47327L440.9375 267.47327ZM454.6875 272.91077Q454.6875 274.3639 454.01562 275.25452Q453.35938 276.12952 452.23438 276.12952Q451.03125 276.12952 450.375 275.27014L450.3125 276.00452L449.32812 276.00452L449.32812 267.00452L450.40625 267.00452L450.40625 270.3639Q451.0625 269.5514 452.21875 269.5514Q453.375 269.5514 454.03125 270.4264Q454.6875 271.28577 454.6875 272.81702L454.6875 272.91077ZM453.60938 272.78577Q453.60938 271.6764 453.17188 271.08264Q452.75 270.47327 451.95312 270.47327Q450.875 270.47327 450.40625 271.45764L450.40625 274.20764Q450.90625 275.20764 451.95312 275.20764Q452.73438 275.20764 453.17188 274.59827Q453.60938 273.9889 453.60938 272.78577ZM461.67188 272.91077Q461.67188 274.34827 461.01562 275.2389Q460.35938 276.12952 459.21875 276.12952Q458.0625 276.12952 457.40625 275.39514L457.40625 278.44202L456.32812 278.44202L456.32812 269.66077L457.3125 269.66077L457.35938 270.3639Q458.03125 269.5514 459.20312 269.5514Q460.34375 269.5514 461.0 270.41077Q461.67188 271.27014 461.67188 272.8014L461.67188 272.91077ZM460.59375 272.78577Q460.59375 271.70764 460.125 271.09827Q459.67188 270.47327 458.875 270.47327Q457.89062 270.47327 457.40625 271.33264L457.40625 274.3639Q457.89062 275.2389 458.89062 275.2389Q459.67188 275.2389 460.125 274.62952Q460.59375 274.00452 460.59375 272.78577ZM467.01562 274.31702Q467.01562 273.87952 466.67188 273.64514Q466.34375 273.39514 465.51562 273.22327Q464.70312 273.0514 464.21875 272.8014Q463.73438 272.5514 463.5 272.22327Q463.28125 271.87952 463.28125 271.41077Q463.28125 270.62952 463.9375 270.09827Q464.59375 269.5514 465.625 269.5514Q466.70312 269.5514 467.35938 270.1139Q468.03125 270.66077 468.03125 271.52014L466.95312 271.52014Q466.95312 271.08264 466.5625 270.77014Q466.1875 270.44202 465.625 270.44202Q465.03125 270.44202 464.6875 270.70764Q464.35938 270.95764 464.35938 271.3639Q464.35938 271.75452 464.67188 271.95764Q464.98438 272.16077 465.79688 272.34827Q466.60938 272.52014 467.10938 272.77014Q467.60938 273.02014 467.84375 273.37952Q468.09375 273.7389 468.09375 274.2389Q468.09375 275.09827 467.40625 275.6139Q466.73438 276.12952 465.65625 276.12952Q464.89062 276.12952 464.29688 275.8639Q463.71875 275.58264 463.39062 275.09827Q463.0625 274.6139 463.0625 274.0514L464.14062 274.0514Q464.17188 274.59827 464.57812 274.9264Q464.98438 275.2389 465.65625 275.2389Q466.26562 275.2389 466.64062 274.9889Q467.01562 274.7389 467.01562 274.31702Z" fill-rule="nonzero"/><path stroke="#ffffff" stroke-width="3.0" stroke-linejoin="round" stroke-linecap="round" d="M477.04688 79.14753L475.92188 79.14753L475.92188 75.21003L471.60938 75.21003L471.60938 79.14753L470.48438 79.14753L470.48438 70.61628L471.60938 70.61628L471.60938 74.288155L475.92188 74.288155L475.92188 70.61628L477.04688 70.61628L477.04688 79.14753ZM485.39062 71.538155L482.64062 71.538155L482.64062 79.14753L481.53125 79.14753L481.53125 71.538155L478.78125 71.538155L478.78125 70.61628L485.39062 70.61628L485.39062 71.538155ZM492.39062 71.538155L489.64062 71.538155L489.64062 79.14753L488.53125 79.14753L488.53125 71.538155L485.78125 71.538155L485.78125 70.61628L492.39062 70.61628L492.39062 71.538155ZM494.60938 75.80378L494.60938 79.14753L493.48438 79.14753L493.48438 70.61628L496.64062 70.61628Q498.03125 70.61628 498.82812 71.33503Q499.625 72.038155 499.625 73.225655Q499.625 74.46003 498.84375 75.131905Q498.07812 75.80378 496.625 75.80378L494.60938 75.80378ZM494.60938 74.881905L496.64062 74.881905Q497.54688 74.881905 498.01562 74.46003Q498.5 74.038155 498.5 73.24128Q498.5 72.475655 498.01562 72.02253Q497.54688 71.55378 496.70312 71.538155L494.60938 71.538155L494.60938 74.881905ZM501.53125 79.881905L500.60938 79.881905L504.17188 70.61628L505.09375 70.61628L501.53125 79.881905ZM509.76562 79.14753L508.6875 79.14753L508.6875 71.92878L506.5 72.725655L506.5 71.74128L509.60938 70.569405L509.76562 70.569405L509.76562 79.14753ZM513.34375 78.58503Q513.34375 78.30378 513.5 78.11628Q513.6719 77.92878 514.0 77.92878Q514.34375 77.92878 514.5156 78.11628Q514.6875 78.30378 514.6875 78.58503Q514.6875 78.850655 514.5156 79.038155Q514.34375 79.21003 514.0 79.21003Q513.6719 79.21003 513.5 79.038155Q513.34375 78.850655 513.34375 78.58503ZM519.7656 79.14753L518.6875 79.14753L518.6875 71.92878L516.5 72.725655L516.5 71.74128L519.6094 70.569405L519.7656 70.569405L519.7656 79.14753ZM529.7656 79.14753L528.6875 79.14753L528.6875 71.92878L526.5 72.725655L526.5 71.74128L529.6094 70.569405L529.7656 70.569405L529.7656 79.14753ZM534.9375 70.61628L537.7344 77.569405L540.5156 70.61628L541.9844 70.61628L541.9844 79.14753L540.8594 79.14753L540.8594 75.819405L540.96875 72.24128L538.15625 79.14753L537.2969 79.14753L534.5 72.256905L534.6094 75.819405L534.6094 79.14753L533.4844 79.14753L533.4844 70.61628L534.9375 70.61628ZM548.6875 76.05378Q548.6875 77.506905 548.0156 78.39753Q547.3594 79.27253 546.2344 79.27253Q545.03125 79.27253 544.375 78.413155L544.3125 79.14753L543.3281 79.14753L543.3281 70.14753L544.40625 70.14753L544.40625 73.506905Q545.0625 72.694405 546.21875 72.694405Q547.375 72.694405 548.03125 73.569405Q548.6875 74.42878 548.6875 75.96003L548.6875 76.05378ZM547.6094 75.92878Q547.6094 74.819405 547.1719 74.225655Q546.75 73.61628 545.9531 73.61628Q544.875 73.61628 544.40625 74.600655L544.40625 77.350655Q544.90625 78.350655 545.9531 78.350655Q546.7344 78.350655 547.1719 77.74128Q547.6094 77.131905 547.6094 75.92878ZM555.6719 76.05378Q555.6719 77.49128 555.0156 78.381905Q554.3594 79.27253 553.21875 79.27253Q552.0625 79.27253 551.40625 78.538155L551.40625 81.58503L550.3281 81.58503L550.3281 72.80378L551.3125 72.80378L551.3594 73.506905Q552.03125 72.694405 553.2031 72.694405Q554.34375 72.694405 555.0 73.55378Q555.6719 74.413155 555.6719 75.944405L555.6719 76.05378ZM554.59375 75.92878Q554.59375 74.850655 554.125 74.24128Q553.6719 73.61628 552.875 73.61628Q551.8906 73.61628 551.40625 74.475655L551.40625 77.506905Q551.8906 78.381905 552.8906 78.381905Q553.6719 78.381905 554.125 77.77253Q554.59375 77.14753 554.59375 75.92878ZM561.0156 77.46003Q561.0156 77.02253 560.6719 76.788155Q560.34375 76.538155 559.5156 76.36628Q558.7031 76.194405 558.21875 75.944405Q557.7344 75.694405 557.5 75.36628Q557.28125 75.02253 557.28125 74.55378Q557.28125 73.77253 557.9375 73.24128Q558.59375 72.694405 559.625 72.694405Q560.7031 72.694405 561.3594 73.256905Q562.03125 73.80378 562.03125 74.663155L560.9531 74.663155Q560.9531 74.225655 560.5625 73.913155Q560.1875 73.58503 559.625 73.58503Q559.03125 73.58503 558.6875 73.850655Q558.3594 74.100655 558.3594 74.506905Q558.3594 74.89753 558.6719 75.100655Q558.9844 75.30378 559.7969 75.49128Q560.6094 75.663155 561.1094 75.913155Q561.6094 76.163155 561.84375 76.52253Q562.09375 76.881905 562.09375 77.381905Q562.09375 78.24128 561.40625 78.756905Q560.7344 79.27253 559.65625 79.27253Q558.8906 79.27253 558.2969 79.006905Q557.71875 78.725655 557.3906 78.24128Q557.0625 77.756905 557.0625 77.194405L558.1406 77.194405Q558.1719 77.74128 558.5781 78.069405Q558.9844 78.381905 559.65625 78.381905Q560.2656 78.381905 560.6406 78.131905Q561.0156 77.881905 561.0156 77.46003Z" fill-rule="nonzero"/><path fill="#4285f4" d="M477.04688 79.14753L475.92188 79.14753L475.92188 75.21003L471.60938 75.21003L471.60938 79.14753L470.48438 79.14753L470.48438 70.61628L471.60938 70.61628L471.60938 74.288155L475.92188 74.288155L475.92188 70.61628L477.04688 70.61628L477.04688 79.14753ZM485.39062 71.538155L482.64062 71.538155L482.64062 79.14753L481.53125 79.14753L481.53125 71.538155L478.78125 71.538155L478.78125 70.61628L485.39062 70.61628L485.39062 71.538155ZM492.39062 71.538155L489.64062 71.538155L489.64062 79.14753L488.53125 79.14753L488.53125 71.538155L485.78125 71.538155L485.78125 70.61628L492.39062 70.61628L492.39062 71.538155ZM494.60938 75.80378L494.60938 79.14753L493.48438 79.14753L493.48438 70.61628L496.64062 70.61628Q498.03125 70.61628 498.82812 71.33503Q499.625 72.038155 499.625 73.225655Q499.625 74.46003 498.84375 75.131905Q498.07812 75.80378 496.625 75.80378L494.60938 75.80378ZM494.60938 74.881905L496.64062 74.881905Q497.54688 74.881905 498.01562 74.46003Q498.5 74.038155 498.5 73.24128Q498.5 72.475655 498.01562 72.02253Q497.54688 71.55378 496.70312 71.538155L494.60938 71.538155L494.60938 74.881905ZM501.53125 79.881905L500.60938 79.881905L504.17188 70.61628L505.09375 70.61628L501.53125 79.881905ZM509.76562 79.14753L508.6875 79.14753L508.6875 71.92878L506.5 72.725655L506.5 71.74128L509.60938 70.569405L509.76562 70.569405L509.76562 79.14753ZM513.34375 78.58503Q513.34375 78.30378 513.5 78.11628Q513.6719 77.92878 514.0 77.92878Q514.34375 77.92878 514.5156 78.11628Q514.6875 78.30378 514.6875 78.58503Q514.6875 78.850655 514.5156 79.038155Q514.34375 79.21003 514.0 79.21003Q513.6719 79.21003 513.5 79.038155Q513.34375 78.850655 513.34375 78.58503ZM519.7656 79.14753L518.6875 79.14753L518.6875 71.92878L516.5 72.725655L516.5 71.74128L519.6094 70.569405L519.7656 70.569405L519.7656 79.14753ZM529.7656 79.14753L528.6875 79.14753L528.6875 71.92878L526.5 72.725655L526.5 71.74128L529.6094 70.569405L529.7656 70.569405L529.7656 79.14753ZM534.9375 70.61628L537.7344 77.569405L540.5156 70.61628L541.9844 70.61628L541.9844 79.14753L540.8594 79.14753L540.8594 75.819405L540.96875 72.24128L538.15625 79.14753L537.2969 79.14753L534.5 72.256905L534.6094 75.819405L534.6094 79.14753L533.4844 79.14753L533.4844 70.61628L534.9375 70.61628ZM548.6875 76.05378Q548.6875 77.506905 548.0156 78.39753Q547.3594 79.27253 546.2344 79.27253Q545.03125 79.27253 544.375 78.413155L544.3125 79.14753L543.3281 79.14753L543.3281 70.14753L544.40625 70.14753L544.40625 73.506905Q545.0625 72.694405 546.21875 72.694405Q547.375 72.694405 548.03125 73.569405Q548.6875 74.42878 548.6875 75.96003L548.6875 76.05378ZM547.6094 75.92878Q547.6094 74.819405 547.1719 74.225655Q546.75 73.61628 545.9531 73.61628Q544.875 73.61628 544.40625 74.600655L544.40625 77.350655Q544.90625 78.350655 545.9531 78.350655Q546.7344 78.350655 547.1719 77.74128Q547.6094 77.131905 547.6094 75.92878ZM555.6719 76.05378Q555.6719 77.49128 555.0156 78.381905Q554.3594 79.27253 553.21875 79.27253Q552.0625 79.27253 551.40625 78.538155L551.40625 81.58503L550.3281 81.58503L550.3281 72.80378L551.3125 72.80378L551.3594 73.506905Q552.03125 72.694405 553.2031 72.694405Q554.34375 72.694405 555.0 73.55378Q555.6719 74.413155 555.6719 75.944405L555.6719 76.05378ZM554.59375 75.92878Q554.59375 74.850655 554.125 74.24128Q553.6719 73.61628 552.875 73.61628Q551.8906 73.61628 551.40625 74.475655L551.40625 77.506905Q551.8906 78.381905 552.8906 78.381905Q553.6719 78.381905 554.125 77.77253Q554.59375 77.14753 554.59375 75.92878ZM561.0156 77.46003Q561.0156 77.02253 560.6719 76.788155Q560.34375 76.538155 559.5156 76.36628Q558.7031 76.194405 558.21875 75.944405Q557.7344 75.694405 557.5 75.36628Q557.28125 75.02253 557.28125 74.55378Q557.28125 73.77253 557.9375 73.24128Q558.59375 72.694405 559.625 72.694405Q560.7031 72.694405 561.3594 73.256905Q562.03125 73.80378 562.03125 74.663155L560.9531 74.663155Q560.9531 74.225655 560.5625 73.913155Q560.1875 73.58503 559.625 73.58503Q559.03125 73.58503 558.6875 73.850655Q558.3594 74.100655 558.3594 74.506905Q558.3594 74.89753 558.6719 75.100655Q558.9844 75.30378 559.7969 75.49128Q560.6094 75.663155 561.1094 75.913155Q561.6094 76.163155 561.84375 76.52253Q562.09375 76.881905 562.09375 77.381905Q562.09375 78.24128 561.40625 78.756905Q560.7344 79.27253 559.65625 79.27253Q558.8906 79.27253 558.2969 79.006905Q557.71875 78.725655 557.3906 78.24128Q557.0625 77.756905 557.0625 77.194405L558.1406 77.194405Q558.1719 77.74128 558.5781 78.069405Q558.9844 78.381905 559.65625 78.381905Q560.2656 78.381905 560.6406 78.131905Q561.0156 77.881905 561.0156 77.46003Z" fill-rule="nonzero"/><path fill="#000000" d="M26.784388 227.63646L26.690638 226.57396Q27.346888 226.49583 27.753138 226.21458Q28.159388 225.93333 28.425013 225.35521Q28.675013 224.76146 28.675013 224.02708Q28.675013 223.38646 28.487513 222.88646Q28.284388 222.38646 27.956263 222.15208Q27.612513 221.90208 27.221888 221.90208Q26.815638 221.90208 26.518763 222.13646Q26.206263 222.37083 26.003138 222.90208Q25.862513 223.26146 25.581263 224.44896Q25.300013 225.62083 25.050013 226.08958Q24.721888 226.71458 24.253138 227.01146Q23.768763 227.30833 23.175013 227.30833Q22.534388 227.30833 21.971888 226.94896Q21.393763 226.57396 21.112513 225.87083Q20.815638 225.15208 20.815638 224.29271Q20.815638 223.33958 21.128138 222.60521Q21.425013 221.87083 22.034388 221.48021Q22.628138 221.08958 23.378138 221.05833L23.456263 222.15208Q22.643763 222.24583 22.237513 222.76146Q21.815638 223.26146 21.815638 224.24583Q21.815638 225.27708 22.190638 225.74583Q22.565638 226.21458 23.096888 226.21458Q23.565638 226.21458 23.862513 225.88646Q24.159388 225.55833 24.471888 224.18333Q24.784388 222.79271 25.018763 222.27708Q25.378138 221.52708 25.909388 221.16771Q26.425013 220.80833 27.128138 220.80833Q27.815638 220.80833 28.425013 221.19896Q29.018763 221.58958 29.362513 222.32396Q29.690638 223.05833 29.690638 223.98021Q29.690638 225.15208 29.362513 225.94896Q29.018763 226.73021 28.331263 227.18333Q27.643763 227.62083 26.784388 227.63646ZM27.550013 215.13646L27.675013 214.04271Q28.628138 214.29271 29.159388 214.99583Q29.690638 215.69896 29.690638 216.77708Q29.690638 218.13646 28.846888 218.94896Q28.003138 219.74583 26.487513 219.74583Q24.925013 219.74583 24.065638 218.93333Q23.190638 218.12083 23.190638 216.83958Q23.190638 215.58958 24.034388 214.80833Q24.878138 214.01146 26.425013 214.01146Q26.518763 214.01146 26.706263 214.01146L26.706263 218.65208Q27.737513 218.58958 28.284388 218.07396Q28.815638 217.55833 28.815638 216.77708Q28.815638 216.19896 28.518763 215.79271Q28.206263 215.37083 27.550013 215.13646ZM25.846888 218.58958L25.846888 215.12083Q25.050013 215.18333 24.659388 215.51146Q24.050013 216.02708 24.050013 216.82396Q24.050013 217.55833 24.534388 218.05833Q25.018763 218.54271 25.846888 218.58958ZM27.268763 208.32396L27.409388 207.29271Q28.471888 207.46458 29.081263 208.16771Q29.690638 208.87083 29.690638 209.88646Q29.690638 211.16771 28.862513 211.94896Q28.018763 212.71458 26.456263 212.71458Q25.456263 212.71458 24.706263 212.38646Q23.940638 212.04271 23.565638 211.37083Q23.190638 210.68333 23.190638 209.87083Q23.190638 208.87083 23.706263 208.23021Q24.206263 207.57396 25.159388 207.38646L25.315638 208.41771Q24.690638 208.55833 24.378138 208.93333Q24.050013 209.30833 24.050013 209.83958Q24.050013 210.63646 24.628138 211.13646Q25.190638 211.63646 26.425013 211.63646Q27.690638 211.63646 28.253138 211.15208Q28.815638 210.66771 28.815638 209.90208Q28.815638 209.27708 28.440638 208.87083Q28.065638 208.44896 27.268763 208.32396ZM26.440638 206.77708Q24.706263 206.77708 23.878138 205.82396Q23.190638 205.02708 23.190638 203.87083Q23.190638 202.58958 24.034388 201.77708Q24.862513 200.94896 26.346888 200.94896Q27.550013 200.94896 28.237513 201.30833Q28.925013 201.66771 29.315638 202.37083Q29.690638 203.05833 29.690638 203.87083Q29.690638 205.16771 28.862513 205.98021Q28.018763 206.77708 26.440638 206.77708ZM26.440638 205.69896Q27.628138 205.69896 28.221888 205.18333Q28.815638 204.65208 28.815638 203.87083Q28.815638 203.07396 28.221888 202.55833Q27.628138 202.04271 26.409388 202.04271Q25.253138 202.04271 24.659388 202.57396Q24.065638 203.08958 24.065638 203.87083Q24.065638 204.65208 24.659388 205.18333Q25.237513 205.69896 26.440638 205.69896ZM29.550013 199.38646L23.331263 199.38646L23.331263 198.44896L24.206263 198.44896Q23.190638 197.76146 23.190638 196.46458Q23.190638 195.90208 23.393763 195.43333Q23.596888 194.94896 23.925013 194.71458Q24.253138 194.48021 24.690638 194.38646Q24.987513 194.33958 25.721888 194.33958L29.550013 194.33958L29.550013 195.38646L25.768763 195.38646Q25.112513 195.38646 24.800013 195.51146Q24.487513 195.63646 24.300013 195.94896Q24.096888 196.26146 24.096888 196.68333Q24.096888 197.35521 24.534388 197.85521Q24.956263 198.33958 26.143763 198.33958L29.550013 198.33958L29.550013 199.38646ZM29.550013 188.35521L28.768763 188.35521Q29.690638 188.94896 29.690638 190.08958Q29.690638 190.83958 29.284388 191.46458Q28.862513 192.08958 28.128138 192.43333Q27.393763 192.77708 26.440638 192.77708Q25.518763 192.77708 24.753138 192.46458Q23.987513 192.15208 23.596888 191.52708Q23.190638 190.90208 23.190638 190.13646Q23.190638 189.57396 23.425013 189.13646Q23.659388 188.69896 24.034388 188.41771L20.956263 188.41771L20.956263 187.37083L29.550013 187.37083L29.550013 188.35521ZM26.440638 191.68333Q27.643763 191.68333 28.237513 191.18333Q28.815638 190.68333 28.815638 189.99583Q28.815638 189.30833 28.253138 188.82396Q27.690638 188.33958 26.534388 188.33958Q25.253138 188.33958 24.659388 188.83958Q24.065638 189.32396 24.065638 190.04271Q24.065638 190.74583 24.643763 191.21458Q25.206263 191.68333 26.440638 191.68333ZM27.690638 185.80833L27.534388 184.77708Q28.159388 184.68333 28.487513 184.29271Q28.815638 183.88646 28.815638 183.15208Q28.815638 182.43333 28.534388 182.08958Q28.237513 181.73021 27.831263 181.73021Q27.471888 181.73021 27.268763 182.04271Q27.128138 182.26146 26.909388 183.12083Q26.612513 184.27708 26.409388 184.73021Q26.190638 185.16771 25.815638 185.40208Q25.440638 185.63646 24.971888 185.63646Q24.565638 185.63646 24.206263 185.44896Q23.846888 185.26146 23.612513 184.93333Q23.440638 184.68333 23.315638 184.26146Q23.190638 183.83958 23.190638 183.33958Q23.190638 182.62083 23.409388 182.07396Q23.612513 181.51146 23.971888 181.24583Q24.331263 180.98021 24.925013 180.88646L25.065638 181.91771Q24.596888 181.98021 24.331263 182.32396Q24.050013 182.65208 24.050013 183.27708Q24.050013 183.99583 24.300013 184.30833Q24.534388 184.62083 24.862513 184.62083Q25.065638 184.62083 25.221888 184.49583Q25.393763 184.35521 25.503138 184.08958Q25.565638 183.93333 25.768763 183.15208Q26.081263 182.02708 26.268763 181.58958Q26.456263 181.15208 26.815638 180.90208Q27.175013 180.65208 27.721888 180.65208Q28.253138 180.65208 28.721888 180.96458Q29.175013 181.26146 29.440638 181.83958Q29.690638 182.41771 29.690638 183.15208Q29.690638 184.37083 29.190638 185.01146Q28.675013 185.63646 27.690638 185.80833Z" fill-rule="nonzero"/><path fill="#000000" d="M65.05 345.21564Q65.05 343.6844 65.3625 342.7625Q65.675 341.825 66.28438 341.325Q66.90938 340.825 67.84688 340.825Q68.53438 340.825 69.05 341.10626Q69.58125 341.3875 69.925 341.91876Q70.26875 342.4344 70.45625 343.1844Q70.64375 343.9344 70.64375 345.21564Q70.64375 346.73126 70.33125 347.65314Q70.03438 348.575 69.40938 349.09064Q68.8 349.59064 67.84688 349.59064Q66.6125 349.59064 65.89375 348.7Q65.05 347.6375 65.05 345.21564ZM66.12813 345.21564Q66.12813 347.325 66.62813 348.02814Q67.12813 348.73126 67.84688 348.73126Q68.58125 348.73126 69.06563 348.02814Q69.56563 347.325 69.56563 345.21564Q69.56563 343.09064 69.06563 342.40314Q68.58125 341.7 67.83125 341.7Q67.1125 341.7 66.675 342.3094Q66.12813 343.09064 66.12813 345.21564Z" fill-rule="nonzero"/><path fill="#000000" d="M65.05 276.31668L66.15938 276.22293Q66.28438 277.03543 66.72188 277.44168Q67.175 277.84793 67.81563 277.84793Q68.56563 277.84793 69.09688 277.2698Q69.62813 276.69168 69.62813 275.75418Q69.62813 274.84793 69.1125 274.3323Q68.6125 273.80106 67.78438 273.80106Q67.28438 273.80106 66.8625 274.03543Q66.45625 274.2698 66.22188 274.62918L65.2375 274.50418L66.06563 270.09793L70.34688 270.09793L70.34688 271.09793L66.90938 271.09793L66.45625 273.41043Q67.22188 272.86356 68.06563 272.86356Q69.19063 272.86356 69.95625 273.6448Q70.7375 274.42606 70.7375 275.66043Q70.7375 276.81668 70.06563 277.67606Q69.2375 278.7073 67.81563 278.7073Q66.64375 278.7073 65.89375 278.05106Q65.15938 277.3948 65.05 276.31668Z" fill-rule="nonzero"/><path fill="#000000" d="M62.01875 207.68333L60.971874 207.68333L60.971874 200.96458Q60.58125 201.32396 59.95625 201.69896Q59.346874 202.05833 58.8625 202.23021L58.8625 201.21458Q59.7375 200.79271 60.39375 200.21458Q61.065624 199.62083 61.346874 199.05833L62.01875 199.05833L62.01875 207.68333ZM65.05 203.44896Q65.05 201.91771 65.3625 200.99583Q65.675 200.05833 66.28438 199.55833Q66.90938 199.05833 67.84688 199.05833Q68.53438 199.05833 69.05 199.33958Q69.58125 199.62083 69.925 200.15208Q70.26875 200.66771 70.45625 201.41771Q70.64375 202.16771 70.64375 203.44896Q70.64375 204.96458 70.33125 205.88646Q70.03438 206.80833 69.40938 207.32396Q68.8 207.82396 67.84688 207.82396Q66.6125 207.82396 65.89375 206.93333Q65.05 205.87083 65.05 203.44896ZM66.12813 203.44896Q66.12813 205.55833 66.62813 206.26146Q67.12813 206.96458 67.84688 206.96458Q68.58125 206.96458 69.06563 206.26146Q69.56563 205.55833 69.56563 203.44896Q69.56563 201.32396 69.06563 200.63646Q68.58125 199.93333 67.83125 199.93333Q67.1125 199.93333 66.675 200.54271Q66.12813 201.32396 66.12813 203.44896Z" fill-rule="nonzero"/><path fill="#000000" d="M62.01875 136.8L60.971874 136.8L60.971874 130.08125Q60.58125 130.44063 59.95625 130.81563Q59.346874 131.175 58.8625 131.34688L58.8625 130.33125Q59.7375 129.90938 60.39375 129.33125Q61.065624 128.7375 61.346874 128.175L62.01875 128.175L62.01875 136.8ZM65.05 134.55L66.15938 134.45625Q66.28438 135.26875 66.72188 135.675Q67.175 136.08125 67.81563 136.08125Q68.56563 136.08125 69.09688 135.50313Q69.62813 134.925 69.62813 133.9875Q69.62813 133.08125 69.1125 132.56563Q68.6125 132.03438 67.78438 132.03438Q67.28438 132.03438 66.8625 132.26875Q66.45625 132.50313 66.22188 132.8625L65.2375 132.7375L66.06563 128.33125L70.34688 128.33125L70.34688 129.33125L66.90938 129.33125L66.45625 131.64375Q67.22188 131.09688 68.06563 131.09688Q69.19063 131.09688 69.95625 131.87813Q70.7375 132.65938 70.7375 133.89375Q70.7375 135.05 70.06563 135.90938Q69.2375 136.94063 67.81563 136.94063Q66.64375 136.94063 65.89375 136.28438Q65.15938 135.62813 65.05 134.55Z" fill-rule="nonzero"/><path fill="#000000" d="M63.596874 64.90104L63.596874 65.916664L57.909374 65.916664Q57.909374 65.541664 58.034374 65.18229Q58.253124 64.604164 58.721874 64.041664Q59.20625 63.479164 60.1125 62.74479Q61.51875 61.58854 62.003124 60.916664Q62.503124 60.24479 62.503124 59.65104Q62.503124 59.02604 62.05 58.604164Q61.596874 58.166664 60.878124 58.166664Q60.1125 58.166664 59.659374 58.61979Q59.20625 59.072914 59.190624 59.885414L58.1125 59.77604Q58.221874 58.55729 58.940624 57.93229Q59.675 57.291664 60.909374 57.291664Q62.14375 57.291664 62.8625 57.979164Q63.58125 58.666664 63.58125 59.68229Q63.58125 60.197914 63.3625 60.697914Q63.159374 61.18229 62.659374 61.74479Q62.175 62.291664 61.05 63.24479Q60.096874 64.041664 59.815624 64.33854Q59.55 64.61979 59.378124 64.90104L63.596874 64.90104ZM65.05 61.68229Q65.05 60.15104 65.3625 59.229164Q65.675 58.291664 66.28438 57.791664Q66.90938 57.291664 67.84688 57.291664Q68.53438 57.291664 69.05 57.572914Q69.58125 57.854164 69.925 58.385414Q70.26875 58.90104 70.45625 59.65104Q70.64375 60.40104 70.64375 61.68229Q70.64375 63.197914 70.33125 64.11979Q70.03438 65.041664 69.40938 65.55729Q68.8 66.05729 67.84688 66.05729Q66.6125 66.05729 65.89375 65.166664Q65.05 64.104164 65.05 61.68229ZM66.12813 61.68229Q66.12813 63.791664 66.62813 64.49479Q67.12813 65.197914 67.84688 65.197914Q68.58125 65.197914 69.06563 64.49479Q69.56563 63.791664 69.56563 61.68229Q69.56563 59.55729 69.06563 58.86979Q68.58125 58.166664 67.83125 58.166664Q67.1125 58.166664 66.675 58.77604Q66.12813 59.55729 66.12813 61.68229Z" fill-rule="nonzero"/><path fill="#757575" d="M20.128124 37.55L20.128124 23.2375L30.4875 23.2375L30.4875 24.925L22.034374 24.925L22.034374 29.3L29.940624 29.3L29.940624 30.9875L22.034374 30.9875L22.034374 35.8625L30.815624 35.8625L30.815624 37.55L20.128124 37.55ZM33.284374 37.55L33.284374 28.55L31.7375 28.55L31.7375 27.175L33.284374 27.175L33.284374 26.08125Q33.284374 25.034374 33.471874 24.51875Q33.721874 23.83125 34.3625 23.409374Q35.003124 22.9875 36.159374 22.9875Q36.909374 22.9875 37.8 23.159374L37.534374 24.690624Q36.9875 24.596874 36.503124 24.596874Q35.70625 24.596874 35.3625 24.940624Q35.034374 25.284374 35.034374 26.221874L35.034374 27.175L37.065624 27.175L37.065624 28.55L35.034374 28.55L35.034374 37.55L33.284374 37.55ZM39.284374 37.55L39.284374 28.55L37.7375 28.55L37.7375 27.175L39.284374 27.175L39.284374 26.08125Q39.284374 25.034374 39.471874 24.51875Q39.721874 23.83125 40.3625 23.409374Q41.003124 22.9875 42.159374 22.9875Q42.909374 22.9875 43.8 23.159374L43.534374 24.690624Q42.9875 24.596874 42.503124 24.596874Q41.70625 24.596874 41.3625 24.940624Q41.034374 25.284374 41.034374 26.221874L41.034374 27.175L43.065624 27.175L43.065624 28.55L41.034374 28.55L41.034374 37.55L39.284374 37.55ZM51.971874 34.20625L53.784374 34.440624Q53.3625 36.01875 52.190624 36.909374Q51.034374 37.784374 49.221874 37.784374Q46.95625 37.784374 45.6125 36.39375Q44.284374 34.9875 44.284374 32.45625Q44.284374 29.83125 45.628124 28.39375Q46.971874 26.940624 49.128124 26.940624Q51.20625 26.940624 52.51875 28.3625Q53.846874 29.76875 53.846874 32.346874Q53.846874 32.503124 53.83125 32.815624L46.096874 32.815624Q46.190624 34.51875 47.065624 35.425Q47.940624 36.33125 49.2375 36.33125Q50.20625 36.33125 50.878124 35.83125Q51.565624 35.315624 51.971874 34.20625ZM46.190624 31.3625L51.9875 31.3625Q51.878124 30.065624 51.33125 29.409374Q50.4875 28.39375 49.14375 28.39375Q47.940624 28.39375 47.1125 29.20625Q46.284374 30.003124 46.190624 31.3625ZM62.64375 33.753124L64.3625 33.971874Q64.08125 35.76875 62.909374 36.784374Q61.753124 37.784374 60.05 37.784374Q57.925 37.784374 56.628124 36.39375Q55.33125 35.003124 55.33125 32.409374Q55.33125 30.721874 55.878124 29.471874Q56.440624 28.20625 57.58125 27.58125Q58.721874 26.940624 60.065624 26.940624Q61.753124 26.940624 62.815624 27.8Q63.89375 28.659374 64.20625 30.221874L62.4875 30.4875Q62.253124 29.440624 61.628124 28.925Q61.003124 28.39375 60.128124 28.39375Q58.8 28.39375 57.971874 29.346874Q57.14375 30.3 57.14375 32.346874Q57.14375 34.440624 57.940624 35.39375Q58.7375 36.33125 60.034374 36.33125Q61.065624 36.33125 61.753124 35.70625Q62.45625 35.065624 62.64375 33.753124ZM69.70625 35.971874L69.95625 37.534374Q69.22188 37.690624 68.62813 37.690624Q67.675 37.690624 67.14375 37.39375Q66.62813 37.08125 66.40938 36.596874Q66.19063 36.096874 66.19063 34.51875L66.19063 28.55L64.90938 28.55L64.90938 27.175L66.19063 27.175L66.19063 24.6125L67.94063 23.55L67.94063 27.175L69.70625 27.175L69.70625 28.55L67.94063 28.55L67.94063 34.6125Q67.94063 35.3625 68.03438 35.58125Q68.12813 35.784374 68.33125 35.925Q68.55 36.05 68.94063 36.05Q69.22188 36.05 69.70625 35.971874ZM77.22188 32.3625Q77.22188 29.4875 78.81563 28.096874Q80.15938 26.940624 82.08125 26.940624Q84.22188 26.940624 85.56563 28.346874Q86.925 29.753124 86.925 32.221874Q86.925 34.221874 86.33125 35.378124Q85.7375 36.51875 84.58125 37.159374Q83.44063 37.784374 82.08125 37.784374Q79.89375 37.784374 78.55 36.39375Q77.22188 34.9875 77.22188 32.3625ZM79.01875 32.3625Q79.01875 34.3625 79.87813 35.346874Q80.75313 36.33125 82.08125 36.33125Q83.39375 36.33125 84.25313 35.346874Q85.12813 34.346874 85.12813 32.3Q85.12813 30.378124 84.25313 29.39375Q83.37813 28.39375 82.08125 28.39375Q80.75313 28.39375 79.87813 29.39375Q79.01875 30.378124 79.01875 32.3625ZM89.28438 37.55L89.28438 28.55L87.7375 28.55L87.7375 27.175L89.28438 27.175L89.28438 26.08125Q89.28438 25.034374 89.47188 24.51875Q89.72188 23.83125 90.3625 23.409374Q91.00313 22.9875 92.15938 22.9875Q92.90938 22.9875 93.8 23.159374L93.53438 24.690624Q92.9875 24.596874 92.50313 24.596874Q91.70625 24.596874 91.3625 24.940624Q91.03438 25.284374 91.03438 26.221874L91.03438 27.175L93.06563 27.175L93.06563 28.55L91.03438 28.55L91.03438 37.55L89.28438 37.55ZM100.83125 37.55L100.83125 23.2375L102.58125 23.2375L102.58125 37.55L100.83125 37.55ZM104.22188 32.3625Q104.22188 29.4875 105.81563 28.096874Q107.15938 26.940624 109.08125 26.940624Q111.22188 26.940624 112.56563 28.346874Q113.925 29.753124 113.925 32.221874Q113.925 34.221874 113.33125 35.378124Q112.7375 36.51875 111.58125 37.159374Q110.44063 37.784374 109.08125 37.784374Q106.89375 37.784374 105.55 36.39375Q104.22188 34.9875 104.22188 32.3625ZM106.01875 32.3625Q106.01875 34.3625 106.87813 35.346874Q107.75313 36.33125 109.08125 36.33125Q110.39375 36.33125 111.25313 35.346874Q112.12813 34.346874 112.12813 32.3Q112.12813 30.378124 111.25313 29.39375Q110.37813 28.39375 109.08125 28.39375Q107.75313 28.39375 106.87813 29.39375Q106.01875 30.378124 106.01875 32.3625ZM117.78438 37.55L114.6125 27.175L116.425 27.175L118.08125 33.159374L118.69063 35.39375Q118.7375 35.221874 119.22188 33.253124L120.87813 27.175L122.69063 27.175L124.2375 33.190624L124.75313 35.175L125.34688 33.175L127.12813 27.175L128.83125 27.175L125.59688 37.55L123.76875 37.55L122.1125 31.33125L121.72188 29.565624L119.6125 37.55L117.78438 37.55ZM137.97188 34.20625L139.78438 34.440624Q139.3625 36.01875 138.19063 36.909374Q137.03438 37.784374 135.22188 37.784374Q132.95625 37.784374 131.6125 36.39375Q130.28438 34.9875 130.28438 32.45625Q130.28438 29.83125 131.62813 28.39375Q132.97188 26.940624 135.12813 26.940624Q137.20625 26.940624 138.51875 28.3625Q139.84688 29.76875 139.84688 32.346874Q139.84688 32.503124 139.83125 32.815624L132.09688 32.815624Q132.19063 34.51875 133.06563 35.425Q133.94063 36.33125 135.2375 36.33125Q136.20625 36.33125 136.87813 35.83125Q137.56563 35.315624 137.97188 34.20625ZM132.19063 31.3625L137.9875 31.3625Q137.87813 30.065624 137.33125 29.409374Q136.4875 28.39375 135.14375 28.39375Q133.94063 28.39375 133.1125 29.20625Q132.28438 30.003124 132.19063 31.3625ZM141.84688 37.55L141.84688 27.175L143.425 27.175L143.425 28.753124Q144.03438 27.64375 144.55 27.3Q145.06563 26.940624 145.675 26.940624Q146.56563 26.940624 147.4875 27.503124L146.87813 29.14375Q146.2375 28.753124 145.59688 28.753124Q145.01875 28.753124 144.55 29.1125Q144.09688 29.45625 143.89375 30.065624Q143.6125 31.003124 143.6125 32.1125L143.6125 37.55L141.84688 37.55ZM148.87813 25.253124L148.87813 23.2375L150.64375 23.2375L150.64375 25.253124L148.87813 25.253124ZM148.87813 37.55L148.87813 27.175L150.64375 27.175L150.64375 37.55L148.87813 37.55ZM152.8625 37.55L152.8625 27.175L154.45625 27.175L154.45625 28.659374Q155.59688 26.940624 157.75313 26.940624Q158.69063 26.940624 159.47188 27.284374Q160.26875 27.6125 160.65938 28.159374Q161.05 28.70625 161.20625 29.45625Q161.3 29.95625 161.3 31.175L161.3 37.55L159.53438 37.55L159.53438 31.2375Q159.53438 30.159374 159.33125 29.628124Q159.12813 29.096874 158.59688 28.784374Q158.08125 28.471874 157.37813 28.471874Q156.25313 28.471874 155.44063 29.190624Q154.62813 29.89375 154.62813 31.878124L154.62813 37.55L152.8625 37.55ZM162.55 38.409374L164.25313 38.659374Q164.3625 39.45625 164.84688 39.815624Q165.50313 40.3 166.64375 40.3Q167.8625 40.3 168.51875 39.815624Q169.19063 39.33125 169.425 38.45625Q169.56563 37.909374 169.55 36.190624Q168.39375 37.55 166.675 37.55Q164.53438 37.55 163.3625 36.003124Q162.19063 34.45625 162.19063 32.3Q162.19063 30.815624 162.72188 29.565624Q163.26875 28.315624 164.28438 27.628124Q165.31563 26.940624 166.69063 26.940624Q168.51875 26.940624 169.72188 28.425L169.72188 27.175L171.33125 27.175L171.33125 36.14375Q171.33125 38.565624 170.83125 39.565624Q170.34688 40.58125 169.26875 41.159374Q168.20625 41.753124 166.64375 41.753124Q164.8 41.753124 163.64375 40.925Q162.50313 40.096874 162.55 38.409374ZM164.00313 32.175Q164.00313 34.221874 164.81563 35.159374Q165.62813 36.096874 166.84688 36.096874Q168.05 36.096874 168.8625 35.159374Q169.69063 34.221874 169.69063 32.2375Q169.69063 30.33125 168.84688 29.3625Q168.00313 28.39375 166.81563 28.39375Q165.64375 28.39375 164.81563 29.346874Q164.00313 30.3 164.00313 32.175ZM181.4875 37.55L179.8625 37.55L179.8625 23.2375L181.6125 23.2375L181.6125 28.346874Q182.7375 26.940624 184.45625 26.940624Q185.40938 26.940624 186.26875 27.33125Q187.12813 27.721874 187.675 28.425Q188.22188 29.1125 188.53438 30.096874Q188.84688 31.08125 188.84688 32.20625Q188.84688 34.878124 187.53438 36.33125Q186.22188 37.784374 184.37813 37.784374Q182.53438 37.784374 181.4875 36.253124L181.4875 37.55ZM181.47188 32.284374Q181.47188 34.14375 181.97188 34.9875Q182.81563 36.33125 184.22188 36.33125Q185.37813 36.33125 186.20625 35.33125Q187.05 34.33125 187.05 32.346874Q187.05 30.315624 186.2375 29.3625Q185.44063 28.39375 184.3 28.39375Q183.14375 28.39375 182.3 29.39375Q181.47188 30.39375 181.47188 32.284374ZM197.64375 36.26875Q196.65938 37.096874 195.75313 37.440624Q194.84688 37.784374 193.81563 37.784374Q192.1125 37.784374 191.19063 36.95625Q190.26875 36.1125 190.26875 34.815624Q190.26875 34.05 190.6125 33.425Q190.97188 32.8 191.53438 32.425Q192.09688 32.034374 192.8 31.83125Q193.31563 31.70625 194.3625 31.565624Q196.4875 31.315624 197.4875 30.971874Q197.50313 30.6125 197.50313 30.503124Q197.50313 29.440624 197.00313 28.9875Q196.33125 28.39375 195.00313 28.39375Q193.75313 28.39375 193.15938 28.83125Q192.58125 29.26875 192.3 30.378124L190.58125 30.14375Q190.81563 29.034374 191.34688 28.3625Q191.87813 27.675 192.89375 27.315624Q193.90938 26.940624 195.25313 26.940624Q196.58125 26.940624 197.40938 27.253124Q198.2375 27.565624 198.62813 28.05Q199.01875 28.51875 199.175 29.2375Q199.26875 29.690624 199.26875 30.8625L199.26875 33.20625Q199.26875 35.659374 199.37813 36.315624Q199.4875 36.95625 199.83125 37.55L197.9875 37.55Q197.72188 37.003124 197.64375 36.26875ZM197.4875 32.346874Q196.53438 32.7375 194.6125 33.003124Q193.53438 33.159374 193.08125 33.3625Q192.64375 33.55 192.39375 33.925Q192.14375 34.3 192.14375 34.76875Q192.14375 35.471874 192.675 35.940624Q193.20625 36.409374 194.2375 36.409374Q195.25313 36.409374 196.03438 35.971874Q196.83125 35.51875 197.20625 34.753124Q197.4875 34.14375 197.4875 32.9875L197.4875 32.346874ZM201.8625 37.55L201.8625 27.175L203.45625 27.175L203.45625 28.659374Q204.59688 26.940624 206.75313 26.940624Q207.69063 26.940624 208.47188 27.284374Q209.26875 27.6125 209.65938 28.159374Q210.05 28.70625 210.20625 29.45625Q210.3 29.95625 210.3 31.175L210.3 37.55L208.53438 37.55L208.53438 31.2375Q208.53438 30.159374 208.33125 29.628124Q208.12813 29.096874 207.59688 28.784374Q207.08125 28.471874 206.37813 28.471874Q205.25313 28.471874 204.44063 29.190624Q203.62813 29.89375 203.62813 31.878124L203.62813 37.55L201.8625 37.55ZM218.59688 37.55L218.59688 36.2375Q217.6125 37.784374 215.69063 37.784374Q214.45625 37.784374 213.40938 37.096874Q212.37813 36.409374 211.8 35.190624Q211.2375 33.971874 211.2375 32.378124Q211.2375 30.815624 211.75313 29.55Q212.26875 28.284374 213.3 27.6125Q214.34688 26.940624 215.6125 26.940624Q216.55 26.940624 217.28438 27.346874Q218.01875 27.7375 218.4875 28.3625L218.4875 23.2375L220.22188 23.2375L220.22188 37.55L218.59688 37.55ZM213.03438 32.378124Q213.03438 34.3625 213.87813 35.346874Q214.72188 36.33125 215.8625 36.33125Q217.01875 36.33125 217.81563 35.39375Q218.62813 34.45625 218.62813 32.51875Q218.62813 30.39375 217.8 29.39375Q216.9875 28.39375 215.78438 28.39375Q214.6125 28.39375 213.81563 29.3625Q213.03438 30.315624 213.03438 32.378124ZM224.78438 37.55L221.6125 27.175L223.425 27.175L225.08125 33.159374L225.69063 35.39375Q225.7375 35.221874 226.22188 33.253124L227.87813 27.175L229.69063 27.175L231.2375 33.190624L231.75313 35.175L232.34688 33.175L234.12813 27.175L235.83125 27.175L232.59688 37.55L230.76875 37.55L229.1125 31.33125L228.72188 29.565624L226.6125 37.55L224.78438 37.55ZM237.87813 25.253124L237.87813 23.2375L239.64375 23.2375L239.64375 25.253124L237.87813 25.253124ZM237.87813 37.55L237.87813 27.175L239.64375 27.175L239.64375 37.55L237.87813 37.55ZM248.59688 37.55L248.59688 36.2375Q247.6125 37.784374 245.69063 37.784374Q244.45625 37.784374 243.40938 37.096874Q242.37813 36.409374 241.8 35.190624Q241.2375 33.971874 241.2375 32.378124Q241.2375 30.815624 241.75313 29.55Q242.26875 28.284374 243.3 27.6125Q244.34688 26.940624 245.6125 26.940624Q246.55 26.940624 247.28438 27.346874Q248.01875 27.7375 248.4875 28.3625L248.4875 23.2375L250.22188 23.2375L250.22188 37.55L248.59688 37.55ZM243.03438 32.378124Q243.03438 34.3625 243.87813 35.346874Q244.72188 36.33125 245.8625 36.33125Q247.01875 36.33125 247.81563 35.39375Q248.62813 34.45625 248.62813 32.51875Q248.62813 30.39375 247.8 29.39375Q246.9875 28.39375 245.78438 28.39375Q244.6125 28.39375 243.81563 29.3625Q243.03438 30.315624 243.03438 32.378124ZM256.70624 35.971874L256.95624 37.534374Q256.22186 37.690624 255.62813 37.690624Q254.675 37.690624 254.14375 37.39375Q253.62813 37.08125 253.40938 36.596874Q253.19063 36.096874 253.19063 34.51875L253.19063 28.55L251.90938 28.55L251.90938 27.175L253.19063 27.175L253.19063 24.6125L254.94063 23.55L254.94063 27.175L256.70624 27.175L256.70624 28.55L254.94063 28.55L254.94063 34.6125Q254.94063 35.3625 255.03438 35.58125Q255.12813 35.784374 255.33125 35.925Q255.55 36.05 255.94063 36.05Q256.22186 36.05 256.70624 35.971874ZM258.8625 37.55L258.8625 23.2375L260.6281 23.2375L260.6281 28.3625Q261.8625 26.940624 263.7375 26.940624Q264.8781 26.940624 265.72186 27.39375Q266.58124 27.846874 266.9406 28.659374Q267.3156 29.45625 267.3156 30.971874L267.3156 37.55L265.5656 37.55L265.5656 30.971874Q265.5656 29.659374 264.9875 29.065624Q264.40936 28.45625 263.3781 28.45625Q262.59686 28.45625 261.89374 28.8625Q261.20624 29.26875 260.90936 29.971874Q260.6281 30.659374 260.6281 31.878124L260.6281 37.55L258.8625 37.55ZM274.22186 32.3625Q274.22186 29.4875 275.8156 28.096874Q277.15936 26.940624 279.08124 26.940624Q281.22186 26.940624 282.5656 28.346874Q283.925 29.753124 283.925 32.221874Q283.925 34.221874 283.33124 35.378124Q282.7375 36.51875 281.58124 37.159374Q280.4406 37.784374 279.08124 37.784374Q276.89374 37.784374 275.55 36.39375Q274.22186 34.9875 274.22186 32.3625ZM276.01874 32.3625Q276.01874 34.3625 276.8781 35.346874Q277.7531 36.33125 279.08124 36.33125Q280.39374 36.33125 281.2531 35.346874Q282.1281 34.346874 282.1281 32.3Q282.1281 30.378124 281.2531 29.39375Q280.3781 28.39375 279.08124 28.39375Q277.7531 28.39375 276.8781 29.39375Q276.01874 30.378124 276.01874 32.3625ZM285.8625 37.55L285.8625 27.175L287.45624 27.175L287.45624 28.659374Q288.59686 26.940624 290.7531 26.940624Q291.6906 26.940624 292.47186 27.284374Q293.26874 27.6125 293.65936 28.159374Q294.05 28.70625 294.20624 29.45625Q294.3 29.95625 294.3 31.175L294.3 37.55L292.53436 37.55L292.53436 31.2375Q292.53436 30.159374 292.33124 29.628124Q292.1281 29.096874 291.59686 28.784374Q291.08124 28.471874 290.3781 28.471874Q289.2531 28.471874 288.4406 29.190624Q287.6281 29.89375 287.6281 31.878124L287.6281 37.55L285.8625 37.55ZM302.15936 37.55L302.15936 23.2375L304.05 23.2375L304.05 29.1125L311.4875 29.1125L311.4875 23.2375L313.3781 23.2375L313.3781 37.55L311.4875 37.55L311.4875 30.8L304.05 30.8L304.05 37.55L302.15936 37.55ZM318.7375 37.55L318.7375 24.925L314.01874 24.925L314.01874 23.2375L325.3625 23.2375L325.3625 24.925L320.6281 24.925L320.6281 37.55L318.7375 37.55ZM330.7375 37.55L330.7375 24.925L326.01874 24.925L326.01874 23.2375L337.3625 23.2375L337.3625 24.925L332.6281 24.925L332.6281 37.55L330.7375 37.55ZM339.09686 37.55L339.09686 23.2375L344.4875 23.2375Q345.925 23.2375 346.675 23.3625Q347.72186 23.55 348.4406 24.05Q349.15936 24.534374 349.58124 25.425Q350.01874 26.315624 350.01874 27.378124Q350.01874 29.20625 348.84686 30.471874Q347.6906 31.721874 344.65936 31.721874L340.9875 31.721874L340.9875 37.55L339.09686 37.55ZM340.9875 30.034374L344.6906 30.034374Q346.51874 30.034374 347.28436 29.3625Q348.0656 28.675 348.0656 27.425Q348.0656 26.534374 347.6125 25.89375Q347.15936 25.253124 346.425 25.05Q345.9406 24.925 344.64374 24.925L340.9875 24.925L340.9875 30.034374ZM350.55 37.8L354.70624 22.9875L356.1125 22.9875L351.97186 37.8L350.55 37.8ZM364.0031 37.55L362.2375 37.55L362.2375 26.346874Q361.6125 26.95625 360.58124 27.565624Q359.55 28.159374 358.72186 28.471874L358.72186 26.76875Q360.20624 26.08125 361.3 25.096874Q362.40936 24.096874 362.8625 23.175L364.0031 23.175L364.0031 37.55ZM369.3625 37.55L369.3625 35.55L371.3625 35.55L371.3625 37.55L369.3625 37.55ZM381.0031 37.55L379.2375 37.55L379.2375 26.346874Q378.6125 26.95625 377.58124 27.565624Q376.55 28.159374 375.72186 28.471874L375.72186 26.76875Q377.20624 26.08125 378.3 25.096874Q379.40936 24.096874 379.8625 23.175L381.0031 23.175L381.0031 37.55ZM398.59686 37.55L398.59686 36.2375Q397.6125 37.784374 395.6906 37.784374Q394.45624 37.784374 393.40936 37.096874Q392.3781 36.409374 391.8 35.190624Q391.2375 33.971874 391.2375 32.378124Q391.2375 30.815624 391.7531 29.55Q392.26874 28.284374 393.3 27.6125Q394.34686 26.940624 395.6125 26.940624Q396.55 26.940624 397.28436 27.346874Q398.01874 27.7375 398.4875 28.3625L398.4875 23.2375L400.22186 23.2375L400.22186 37.55L398.59686 37.55ZM393.03436 32.378124Q393.03436 34.3625 393.8781 35.346874Q394.72186 36.33125 395.8625 36.33125Q397.01874 36.33125 397.8156 35.39375Q398.6281 34.45625 398.6281 32.51875Q398.6281 30.39375 397.8 29.39375Q396.9875 28.39375 395.78436 28.39375Q394.6125 28.39375 393.8156 29.3625Q393.03436 30.315624 393.03436 32.378124ZM402.22186 32.3625Q402.22186 29.4875 403.8156 28.096874Q405.15936 26.940624 407.08124 26.940624Q409.22186 26.940624 410.5656 28.346874Q411.925 29.753124 411.925 32.221874Q411.925 34.221874 411.33124 35.378124Q410.7375 36.51875 409.58124 37.159374Q408.4406 37.784374 407.08124 37.784374Q404.89374 37.784374 403.55 36.39375Q402.22186 34.9875 402.22186 32.3625ZM404.01874 32.3625Q404.01874 34.3625 404.8781 35.346874Q405.7531 36.33125 407.08124 36.33125Q408.39374 36.33125 409.2531 35.346874Q410.1281 34.346874 410.1281 32.3Q410.1281 30.378124 409.2531 29.39375Q408.3781 28.39375 407.08124 28.39375Q405.7531 28.39375 404.8781 29.39375Q404.01874 30.378124 404.01874 32.3625ZM415.78436 37.55L412.6125 27.175L414.425 27.175L416.08124 33.159374L416.6906 35.39375Q416.7375 35.221874 417.22186 33.253124L418.8781 27.175L420.6906 27.175L422.2375 33.190624L422.7531 35.175L423.34686 33.175L425.1281 27.175L426.83124 27.175L423.59686 37.55L421.76874 37.55L420.1125 31.33125L419.72186 29.565624L417.6125 37.55L415.78436 37.55ZM428.8625 37.55L428.8625 27.175L430.45624 27.175L430.45624 28.659374Q431.59686 26.940624 433.7531 26.940624Q434.6906 26.940624 435.47186 27.284374Q436.26874 27.6125 436.65936 28.159374Q437.05 28.70625 437.20624 29.45625Q437.3 29.95625 437.3 31.175L437.3 37.55L435.53436 37.55L435.53436 31.2375Q435.53436 30.159374 435.33124 29.628124Q435.1281 29.096874 434.59686 28.784374Q434.08124 28.471874 433.3781 28.471874Q432.2531 28.471874 431.4406 29.190624Q430.6281 29.89375 430.6281 31.878124L430.6281 37.55L428.8625 37.55ZM438.83124 37.55L438.83124 23.2375L440.58124 23.2375L440.58124 37.55L438.83124 37.55ZM442.22186 32.3625Q442.22186 29.4875 443.8156 28.096874Q445.15936 26.940624 447.08124 26.940624Q449.22186 26.940624 450.5656 28.346874Q451.925 29.753124 451.925 32.221874Q451.925 34.221874 451.33124 35.378124Q450.7375 36.51875 449.58124 37.159374Q448.4406 37.784374 447.08124 37.784374Q444.89374 37.784374 443.55 36.39375Q442.22186 34.9875 442.22186 32.3625ZM444.01874 32.3625Q444.01874 34.3625 444.8781 35.346874Q445.7531 36.33125 447.08124 36.33125Q448.39374 36.33125 449.2531 35.346874Q450.1281 34.346874 450.1281 32.3Q450.1281 30.378124 449.2531 29.39375Q448.3781 28.39375 447.08124 28.39375Q445.7531 28.39375 444.8781 29.39375Q444.01874 30.378124 444.01874 32.3625ZM460.64374 36.26875Q459.65936 37.096874 458.7531 37.440624Q457.84686 37.784374 456.8156 37.784374Q455.1125 37.784374 454.1906 36.95625Q453.26874 36.1125 453.26874 34.815624Q453.26874 34.05 453.6125 33.425Q453.97186 32.8 454.53436 32.425Q455.09686 32.034374 455.8 31.83125Q456.3156 31.70625 457.3625 31.565624Q459.4875 31.315624 460.4875 30.971874Q460.5031 30.6125 460.5031 30.503124Q460.5031 29.440624 460.0031 28.9875Q459.33124 28.39375 458.0031 28.39375Q456.7531 28.39375 456.15936 28.83125Q455.58124 29.26875 455.3 30.378124L453.58124 30.14375Q453.8156 29.034374 454.34686 28.3625Q454.8781 27.675 455.89374 27.315624Q456.90936 26.940624 458.2531 26.940624Q459.58124 26.940624 460.40936 27.253124Q461.2375 27.565624 461.6281 28.05Q462.01874 28.51875 462.175 29.2375Q462.26874 29.690624 462.26874 30.8625L462.26874 33.20625Q462.26874 35.659374 462.3781 36.315624Q462.4875 36.95625 462.83124 37.55L460.9875 37.55Q460.72186 37.003124 460.64374 36.26875ZM460.4875 32.346874Q459.53436 32.7375 457.6125 33.003124Q456.53436 33.159374 456.08124 33.3625Q455.64374 33.55 455.39374 33.925Q455.14374 34.3 455.14374 34.76875Q455.14374 35.471874 455.675 35.940624Q456.20624 36.409374 457.2375 36.409374Q458.2531 36.409374 459.03436 35.971874Q459.83124 35.51875 460.20624 34.753124Q460.4875 34.14375 460.4875 32.9875L460.4875 32.346874ZM471.59686 37.55L471.59686 36.2375Q470.6125 37.784374 468.6906 37.784374Q467.45624 37.784374 466.40936 37.096874Q465.3781 36.409374 464.8 35.190624Q464.2375 33.971874 464.2375 32.378124Q464.2375 30.815624 464.7531 29.55Q465.26874 28.284374 466.3 27.6125Q467.34686 26.940624 468.6125 26.940624Q469.55 26.940624 470.28436 27.346874Q471.01874 27.7375 471.4875 28.3625L471.4875 23.2375L473.22186 23.2375L473.22186 37.55L471.59686 37.55ZM466.03436 32.378124Q466.03436 34.3625 466.8781 35.346874Q467.72186 36.33125 468.8625 36.33125Q470.01874 36.33125 470.8156 35.39375Q471.6281 34.45625 471.6281 32.51875Q471.6281 30.39375 470.8 29.39375Q469.9875 28.39375 468.78436 28.39375Q467.6125 28.39375 466.8156 29.3625Q466.03436 30.315624 466.03436 32.378124ZM475.8781 25.253124L475.8781 23.2375L477.64374 23.2375L477.64374 25.253124L475.8781 25.253124ZM475.8781 37.55L475.8781 27.175L477.64374 27.175L477.64374 37.55L475.8781 37.55ZM479.8625 37.55L479.8625 27.175L481.45624 27.175L481.45624 28.659374Q482.59686 26.940624 484.7531 26.940624Q485.6906 26.940624 486.47186 27.284374Q487.26874 27.6125 487.65936 28.159374Q488.05 28.70625 488.20624 29.45625Q488.3 29.95625 488.3 31.175L488.3 37.55L486.53436 37.55L486.53436 31.2375Q486.53436 30.159374 486.33124 29.628124Q486.1281 29.096874 485.59686 28.784374Q485.08124 28.471874 484.3781 28.471874Q483.2531 28.471874 482.4406 29.190624Q481.6281 29.89375 481.6281 31.878124L481.6281 37.55L479.8625 37.55ZM489.55 38.409374L491.2531 38.659374Q491.3625 39.45625 491.84686 39.815624Q492.5031 40.3 493.64374 40.3Q494.8625 40.3 495.51874 39.815624Q496.1906 39.33125 496.425 38.45625Q496.5656 37.909374 496.55 36.190624Q495.39374 37.55 493.675 37.55Q491.53436 37.55 490.3625 36.003124Q489.1906 34.45625 489.1906 32.3Q489.1906 30.815624 489.72186 29.565624Q490.26874 28.315624 491.28436 27.628124Q492.3156 26.940624 493.6906 26.940624Q495.51874 26.940624 496.72186 28.425L496.72186 27.175L498.33124 27.175L498.33124 36.14375Q498.33124 38.565624 497.83124 39.565624Q497.34686 40.58125 496.26874 41.159374Q495.20624 41.753124 493.64374 41.753124Q491.8 41.753124 490.64374 40.925Q489.5031 40.096874 489.55 38.409374ZM491.0031 32.175Q491.0031 34.221874 491.8156 35.159374Q492.6281 36.096874 493.84686 36.096874Q495.05 36.096874 495.8625 35.159374Q496.6906 34.221874 496.6906 32.2375Q496.6906 30.33125 495.84686 29.3625Q495.0031 28.39375 493.8156 28.39375Q492.64374 28.39375 491.8156 29.346874Q491.0031 30.3 491.0031 32.175ZM515.6125 35.8625L515.6125 37.55L506.15936 37.55Q506.14374 36.909374 506.3625 36.33125Q506.72186 35.3625 507.51874 34.425Q508.3156 33.4875 509.8156 32.253124Q512.15936 30.346874 512.97186 29.2375Q513.8 28.1125 513.8 27.1125Q513.8 26.065624 513.05 25.346874Q512.3 24.628124 511.09686 24.628124Q509.83124 24.628124 509.0656 25.39375Q508.3 26.159374 508.3 27.503124L506.4875 27.315624Q506.675 25.3 507.8781 24.2375Q509.09686 23.175 511.14374 23.175Q513.1906 23.175 514.39374 24.315624Q515.59686 25.45625 515.59686 27.14375Q515.59686 28.003124 515.2375 28.846874Q514.89374 29.675 514.08124 30.596874Q513.26874 31.503124 511.3781 33.1125Q509.78436 34.440624 509.33124 34.909374Q508.89374 35.378124 508.59686 35.8625L515.6125 35.8625ZM518.03436 37.55L518.03436 23.2375L520.89374 23.2375L524.26874 33.3625Q524.7375 34.784374 524.95624 35.4875Q525.20624 34.70625 525.72186 33.190624L529.14374 23.2375L531.6906 23.2375L531.6906 37.55L529.8781 37.55L529.8781 25.565624L525.70624 37.55L524.0031 37.55L519.8625 25.3625L519.8625 37.55L518.03436 37.55ZM535.01874 37.55L535.01874 23.2375L540.39374 23.2375Q542.03436 23.2375 543.01874 23.675Q544.0031 24.096874 544.5656 25.003124Q545.1281 25.909374 545.1281 26.89375Q545.1281 27.815624 544.6281 28.628124Q544.14374 29.440624 543.1281 29.925Q544.425 30.315624 545.1281 31.2375Q545.83124 32.14375 545.83124 33.39375Q545.83124 34.409374 545.39374 35.26875Q544.97186 36.128124 544.34686 36.596874Q543.72186 37.065624 542.78436 37.315624Q541.84686 37.55 540.47186 37.55L535.01874 37.55ZM536.90936 29.253124L540.0031 29.253124Q541.26874 29.253124 541.8156 29.08125Q542.53436 28.8625 542.89374 28.378124Q543.26874 27.878124 543.26874 27.1125Q543.26874 26.409374 542.925 25.8625Q542.58124 25.315624 541.9406 25.128124Q541.3156 24.925 539.76874 24.925L536.90936 24.925L536.90936 29.253124ZM536.90936 35.8625L540.47186 35.8625Q541.39374 35.8625 541.76874 35.784374Q542.425 35.675 542.8625 35.409374Q543.3 35.128124 543.58124 34.6125Q543.8625 34.08125 543.8625 33.39375Q543.8625 32.596874 543.45624 32.003124Q543.05 31.409374 542.3156 31.175Q541.58124 30.940624 540.22186 30.940624L536.90936 30.940624L536.90936 35.8625ZM554.28436 37.55L554.28436 28.55L552.7375 28.55L552.7375 27.175L554.28436 27.175L554.28436 26.08125Q554.28436 25.034374 554.47186 24.51875Q554.72186 23.83125 555.3625 23.409374Q556.0031 22.9875 557.15936 22.9875Q557.90936 22.9875 558.8 23.159374L558.53436 24.690624Q557.9875 24.596874 557.5031 24.596874Q556.70624 24.596874 556.3625 24.940624Q556.03436 25.284374 556.03436 26.221874L556.03436 27.175L558.0656 27.175L558.0656 28.55L556.03436 28.55L556.03436 37.55L554.28436 37.55ZM559.8781 25.253124L559.8781 23.2375L561.64374 23.2375L561.64374 25.253124L559.8781 25.253124ZM559.8781 37.55L559.8781 27.175L561.64374 27.175L561.64374 37.55L559.8781 37.55ZM563.83124 37.55L563.83124 23.2375L565.58124 23.2375L565.58124 37.55L563.83124 37.55ZM574.97186 34.20625L576.78436 34.440624Q576.3625 36.01875 575.1906 36.909374Q574.03436 37.784374 572.22186 37.784374Q569.95624 37.784374 568.6125 36.39375Q567.28436 34.9875 567.28436 32.45625Q567.28436 29.83125 568.6281 28.39375Q569.97186 26.940624 572.1281 26.940624Q574.20624 26.940624 575.51874 28.3625Q576.84686 29.76875 576.84686 32.346874Q576.84686 32.503124 576.83124 32.815624L569.09686 32.815624Q569.1906 34.51875 570.0656 35.425Q570.9406 36.33125 572.2375 36.33125Q573.20624 36.33125 573.8781 35.83125Q574.5656 35.315624 574.97186 34.20625ZM569.1906 31.3625L574.9875 31.3625Q574.8781 30.065624 574.33124 29.409374Q573.4875 28.39375 572.14374 28.39375Q570.9406 28.39375 570.1125 29.20625Q569.28436 30.003124 569.1906 31.3625Z" fill-rule="nonzero"/></svg>