<svg version="1.1" viewBox="0.0 0.0 598.0 371.0" fill="none" stroke="none" stroke-linecap="square" stroke-miterlimit="10" width="598" height="371" xmlns:xlink="http://www.w3.org/1999/xlink" xmlns="http://www.w3.org/2000/svg"><path fill="#ffffff" d="M0 0L598.0 0L598.0 371.0L0 371.0L0 0Z" fill-rule="nonzero"/><path stroke="#333333" stroke-width="1.0" stroke-linecap="butt" d="M75.5 345.5L579.5 345.5" fill-rule="nonzero"/><path stroke="#cccccc" stroke-width="1.0" stroke-linecap="butt" d="M75.5 274.5L579.5 274.5" fill-rule="nonzero"/><path stroke="#cccccc" stroke-width="1.0" stroke-linecap="butt" d="M75.5 203.5L579.5 203.5" fill-rule="nonzero"/><path stroke="#cccccc" stroke-width="1.0" stroke-linecap="butt" d="M75.5 132.5L579.5 132.5" fill-rule="nonzero"/><path stroke="#cccccc" stroke-width="1.0" stroke-linecap="butt" d="M75.5 61.5L579.5 61.5" fill-rule="nonzero"/><clipPath id="id_0"><path d="M75.55 61.916668L579.45 61.916668L579.45 345.45L75.55 345.45L75.55 61.916668Z" clip-rule="nonzero"/></clipPath><path stroke="#000000" stroke-width="2.0" stroke-linecap="butt" stroke-opacity="0.0" clip-path="url(#id_0)" d="M170.0 345.0L109.0 345.0L109.0 340.0C109.0 338.89542 109.89543 338.0 111.0 338.0L168.0 338.0C169.10457 338.0 170.0 338.89542 170.0 340.0Z" fill-rule="nonzero"/><path fill="#fbbc04" clip-path="url(#id_0)" d="M170.0 345.0L109.0 345.0L109.0 340.0C109.0 338.89542 109.89543 338.0 111.0 338.0L168.0 338.0C169.10457 338.0 170.0 338.89542 170.0 340.0Z" fill-rule="nonzero"/><path stroke="#000000" stroke-width="2.0" stroke-linecap="butt" stroke-opacity="0.0" clip-path="url(#id_0)" d="M264.0 345.0L203.0 345.0L203.0 335.0C203.0 333.89542 203.89543 333.0 205.0 333.0L262.0 333.0C263.10458 333.0 264.0 333.89542 264.0 335.0Z" fill-rule="nonzero"/><path fill="#fbbc04" clip-path="url(#id_0)" d="M264.0 345.0L203.0 345.0L203.0 335.0C203.0 333.89542 203.89543 333.0 205.0 333.0L262.0 333.0C263.10458 333.0 264.0 333.89542 264.0 335.0Z" fill-rule="nonzero"/><path stroke="#000000" stroke-width="2.0" stroke-linecap="butt" stroke-opacity="0.0" clip-path="url(#id_0)" d="M359.0 345.0L298.0 345.0L298.0 321.0C298.0 319.89542 298.89542 319.0 300.0 319.0L357.0 319.0C358.10458 319.0 359.0 319.89542 359.0 321.0Z" fill-rule="nonzero"/><path fill="#fbbc04" clip-path="url(#id_0)" d="M359.0 345.0L298.0 345.0L298.0 321.0C298.0 319.89542 298.89542 319.0 300.0 319.0L357.0 319.0C358.10458 319.0 359.0 319.89542 359.0 321.0Z" fill-rule="nonzero"/><path stroke="#000000" stroke-width="2.0" stroke-linecap="butt" stroke-opacity="0.0" clip-path="url(#id_0)" d="M453.0 345.0L392.0 345.0L392.0 293.0C392.0 291.89542 392.89542 291.0 394.0 291.0L451.0 291.0C452.10458 291.0 453.0 291.89542 453.0 293.0Z" fill-rule="nonzero"/><path fill="#fbbc04" clip-path="url(#id_0)" d="M453.0 345.0L392.0 345.0L392.0 293.0C392.0 291.89542 392.89542 291.0 394.0 291.0L451.0 291.0C452.10458 291.0 453.0 291.89542 453.0 293.0Z" fill-rule="nonzero"/><path stroke="#000000" stroke-width="2.0" stroke-linecap="butt" stroke-opacity="0.0" clip-path="url(#id_0)" d="M547.0 345.0L486.0 345.0L486.0 96.0C486.0 94.89543 486.89542 94.0 488.0 94.0L545.0 94.0C546.10455 94.0 547.0 94.89543 547.0 96.0Z" fill-rule="nonzero"/><path fill="#fbbc04" clip-path="url(#id_0)" d="M547.0 345.0L486.0 345.0L486.0 96.0C486.0 94.89543 486.89542 94.0 488.0 94.0L545.0 94.0C546.10455 94.0 547.0 94.89543 547.0 96.0Z" fill-rule="nonzero"/><path stroke="#ffffff" stroke-width="3.0" stroke-linejoin="round" stroke-linecap="round" d="M101.546875 323.05548L100.421875 323.05548L100.421875 319.11798L96.109375 319.11798L96.109375 323.05548L94.984375 323.05548L94.984375 314.52423L96.109375 314.52423L96.109375 318.1961L100.421875 318.1961L100.421875 314.52423L101.546875 314.52423L101.546875 323.05548ZM109.890625 315.4461L107.140625 315.4461L107.140625 323.05548L106.03125 323.05548L106.03125 315.4461L103.28125 315.4461L103.28125 314.52423L109.890625 314.52423L109.890625 315.4461ZM116.890625 315.4461L114.140625 315.4461L114.140625 323.05548L113.03125 323.05548L113.03125 315.4461L110.28125 315.4461L110.28125 314.52423L116.890625 314.52423L116.890625 315.4461ZM119.109375 319.71173L119.109375 323.05548L117.984375 323.05548L117.984375 314.52423L121.140625 314.52423Q122.53125 314.52423 123.328125 315.24298Q124.125 315.9461 124.125 317.1336Q124.125 318.36798 123.34375 319.03986Q122.578125 319.71173 121.125 319.71173L119.109375 319.71173ZM119.109375 318.78986L121.140625 318.78986Q122.046875 318.78986 122.515625 318.36798Q123.0 317.9461 123.0 317.14923Q123.0 316.3836 122.515625 315.93048Q122.046875 315.46173 121.203125 315.4461L119.109375 315.4461L119.109375 318.78986ZM126.03125 323.78986L125.109375 323.78986L128.67188 314.52423L129.59375 314.52423L126.03125 323.78986ZM136.29688 323.05548L130.70312 323.05548L130.70312 322.27423L133.65625 318.99298Q134.3125 318.24298 134.5625 317.78986Q134.8125 317.3211 134.8125 316.8211Q134.8125 316.14923 134.40625 315.72736Q134.01562 315.28986 133.32812 315.28986Q132.53125 315.28986 132.07812 315.7586Q131.625 316.21173 131.625 317.03986L130.54688 317.03986Q130.54688 315.85236 131.29688 315.1336Q132.0625 314.39923 133.32812 314.39923Q134.53125 314.39923 135.21875 315.02423Q135.90625 315.64923 135.90625 316.6961Q135.90625 317.9461 134.29688 319.6961L132.01562 322.16486L136.29688 322.16486L136.29688 323.05548ZM141.20312 318.77423L141.64062 314.52423L146.01562 314.52423L146.01562 315.52423L142.5625 315.52423L142.29688 317.85236Q142.9375 317.47736 143.73438 317.47736Q144.89062 317.47736 145.57812 318.2586Q146.26562 319.02423 146.26562 320.33673Q146.26562 321.64923 145.54688 322.41486Q144.84375 323.18048 143.5625 323.18048Q142.4375 323.18048 141.71875 322.55548Q141.0 321.91486 140.90625 320.80548L141.92188 320.80548Q142.03125 321.53986 142.45312 321.91486Q142.875 322.28986 143.5625 322.28986Q144.3125 322.28986 144.75 321.77423Q145.1875 321.2586 145.1875 320.35236Q145.1875 319.49298 144.71875 318.97736Q144.25 318.46173 143.46875 318.46173Q142.76562 318.46173 142.35938 318.7586L142.07812 318.99298L141.20312 318.77423ZM153.0625 319.41486Q153.0625 321.3211 152.40625 322.2586Q151.76562 323.18048 150.375 323.18048Q149.01562 323.18048 148.35938 322.27423Q147.70312 321.36798 147.67188 319.55548L147.67188 318.11798Q147.67188 316.22736 148.3125 315.3211Q148.96875 314.39923 150.35938 314.39923Q151.73438 314.39923 152.39062 315.28986Q153.04688 316.16486 153.0625 318.0086L153.0625 319.41486ZM151.96875 317.93048Q151.96875 316.55548 151.57812 315.93048Q151.20312 315.28986 150.35938 315.28986Q149.53125 315.28986 149.14062 315.93048Q148.76562 316.55548 148.76562 317.85236L148.76562 319.58673Q148.76562 320.96173 149.15625 321.6336Q149.5625 322.28986 150.375 322.28986Q151.17188 322.28986 151.5625 321.66486Q151.95312 321.03986 151.96875 319.71173L151.96875 317.93048ZM156.4375 314.52423L159.23438 321.47736L162.01562 314.52423L163.48438 314.52423L163.48438 323.05548L162.35938 323.05548L162.35938 319.72736L162.46875 316.14923L159.65625 323.05548L158.79688 323.05548L156.0 316.16486L156.10938 319.72736L156.10938 323.05548L154.98438 323.05548L154.98438 314.52423L156.4375 314.52423ZM170.1875 319.96173Q170.1875 321.41486 169.51562 322.30548Q168.85938 323.18048 167.73438 323.18048Q166.53125 323.18048 165.875 322.3211L165.8125 323.05548L164.82812 323.05548L164.82812 314.05548L165.90625 314.05548L165.90625 317.41486Q166.5625 316.60236 167.71875 316.60236Q168.875 316.60236 169.53125 317.47736Q170.1875 318.33673 170.1875 319.86798L170.1875 319.96173ZM169.10938 319.83673Q169.10938 318.72736 168.67188 318.1336Q168.25 317.52423 167.45312 317.52423Q166.375 317.52423 165.90625 318.5086L165.90625 321.2586Q166.40625 322.2586 167.45312 322.2586Q168.23438 322.2586 168.67188 321.64923Q169.10938 321.03986 169.10938 319.83673ZM177.17188 319.96173Q177.17188 321.39923 176.51562 322.28986Q175.85938 323.18048 174.71875 323.18048Q173.5625 323.18048 172.90625 322.4461L172.90625 325.49298L171.82812 325.49298L171.82812 316.71173L172.8125 316.71173L172.85938 317.41486Q173.53125 316.60236 174.70312 316.60236Q175.84375 316.60236 176.5 317.46173Q177.17188 318.3211 177.17188 319.85236L177.17188 319.96173ZM176.09375 319.83673Q176.09375 318.7586 175.625 318.14923Q175.17188 317.52423 174.375 317.52423Q173.39062 317.52423 172.90625 318.3836L172.90625 321.41486Q173.39062 322.28986 174.39062 322.28986Q175.17188 322.28986 175.625 321.68048Q176.09375 321.05548 176.09375 319.83673ZM182.51562 321.36798Q182.51562 320.93048 182.17188 320.6961Q181.84375 320.4461 181.01562 320.27423Q180.20312 320.10236 179.71875 319.85236Q179.23438 319.60236 179.0 319.27423Q178.78125 318.93048 178.78125 318.46173Q178.78125 317.68048 179.4375 317.14923Q180.09375 316.60236 181.125 316.60236Q182.20312 316.60236 182.85938 317.16486Q183.53125 317.71173 183.53125 318.5711L182.45312 318.5711Q182.45312 318.1336 182.0625 317.8211Q181.6875 317.49298 181.125 317.49298Q180.53125 317.49298 180.1875 317.7586Q179.85938 318.0086 179.85938 318.41486Q179.85938 318.80548 180.17188 319.0086Q180.48438 319.21173 181.29688 319.39923Q182.10938 319.5711 182.60938 319.8211Q183.10938 320.0711 183.34375 320.43048Q183.59375 320.78986 183.59375 321.28986Q183.59375 322.14923 182.90625 322.66486Q182.23438 323.18048 181.15625 323.18048Q180.39062 323.18048 179.79688 322.91486Q179.21875 322.6336 178.89062 322.14923Q178.5625 321.66486 178.5625 321.10236L179.64062 321.10236Q179.67188 321.64923 180.07812 321.97736Q180.48438 322.28986 181.15625 322.28986Q181.76562 322.28986 182.14062 322.03986Q182.51562 321.78986 182.51562 321.36798Z" fill-rule="nonzero"/><path fill="#fbbc04" d="M101.546875 323.05548L100.421875 323.05548L100.421875 319.11798L96.109375 319.11798L96.109375 323.05548L94.984375 323.05548L94.984375 314.52423L96.109375 314.52423L96.109375 318.1961L100.421875 318.1961L100.421875 314.52423L101.546875 314.52423L101.546875 323.05548ZM109.890625 315.4461L107.140625 315.4461L107.140625 323.05548L106.03125 323.05548L106.03125 315.4461L103.28125 315.4461L103.28125 314.52423L109.890625 314.52423L109.890625 315.4461ZM116.890625 315.4461L114.140625 315.4461L114.140625 323.05548L113.03125 323.05548L113.03125 315.4461L110.28125 315.4461L110.28125 314.52423L116.890625 314.52423L116.890625 315.4461ZM119.109375 319.71173L119.109375 323.05548L117.984375 323.05548L117.984375 314.52423L121.140625 314.52423Q122.53125 314.52423 123.328125 315.24298Q124.125 315.9461 124.125 317.1336Q124.125 318.36798 123.34375 319.03986Q122.578125 319.71173 121.125 319.71173L119.109375 319.71173ZM119.109375 318.78986L121.140625 318.78986Q122.046875 318.78986 122.515625 318.36798Q123.0 317.9461 123.0 317.14923Q123.0 316.3836 122.515625 315.93048Q122.046875 315.46173 121.203125 315.4461L119.109375 315.4461L119.109375 318.78986ZM126.03125 323.78986L125.109375 323.78986L128.67188 314.52423L129.59375 314.52423L126.03125 323.78986ZM136.29688 323.05548L130.70312 323.05548L130.70312 322.27423L133.65625 318.99298Q134.3125 318.24298 134.5625 317.78986Q134.8125 317.3211 134.8125 316.8211Q134.8125 316.14923 134.40625 315.72736Q134.01562 315.28986 133.32812 315.28986Q132.53125 315.28986 132.07812 315.7586Q131.625 316.21173 131.625 317.03986L130.54688 317.03986Q130.54688 315.85236 131.29688 315.1336Q132.0625 314.39923 133.32812 314.39923Q134.53125 314.39923 135.21875 315.02423Q135.90625 315.64923 135.90625 316.6961Q135.90625 317.9461 134.29688 319.6961L132.01562 322.16486L136.29688 322.16486L136.29688 323.05548ZM141.20312 318.77423L141.64062 314.52423L146.01562 314.52423L146.01562 315.52423L142.5625 315.52423L142.29688 317.85236Q142.9375 317.47736 143.73438 317.47736Q144.89062 317.47736 145.57812 318.2586Q146.26562 319.02423 146.26562 320.33673Q146.26562 321.64923 145.54688 322.41486Q144.84375 323.18048 143.5625 323.18048Q142.4375 323.18048 141.71875 322.55548Q141.0 321.91486 140.90625 320.80548L141.92188 320.80548Q142.03125 321.53986 142.45312 321.91486Q142.875 322.28986 143.5625 322.28986Q144.3125 322.28986 144.75 321.77423Q145.1875 321.2586 145.1875 320.35236Q145.1875 319.49298 144.71875 318.97736Q144.25 318.46173 143.46875 318.46173Q142.76562 318.46173 142.35938 318.7586L142.07812 318.99298L141.20312 318.77423ZM153.0625 319.41486Q153.0625 321.3211 152.40625 322.2586Q151.76562 323.18048 150.375 323.18048Q149.01562 323.18048 148.35938 322.27423Q147.70312 321.36798 147.67188 319.55548L147.67188 318.11798Q147.67188 316.22736 148.3125 315.3211Q148.96875 314.39923 150.35938 314.39923Q151.73438 314.39923 152.39062 315.28986Q153.04688 316.16486 153.0625 318.0086L153.0625 319.41486ZM151.96875 317.93048Q151.96875 316.55548 151.57812 315.93048Q151.20312 315.28986 150.35938 315.28986Q149.53125 315.28986 149.14062 315.93048Q148.76562 316.55548 148.76562 317.85236L148.76562 319.58673Q148.76562 320.96173 149.15625 321.6336Q149.5625 322.28986 150.375 322.28986Q151.17188 322.28986 151.5625 321.66486Q151.95312 321.03986 151.96875 319.71173L151.96875 317.93048ZM156.4375 314.52423L159.23438 321.47736L162.01562 314.52423L163.48438 314.52423L163.48438 323.05548L162.35938 323.05548L162.35938 319.72736L162.46875 316.14923L159.65625 323.05548L158.79688 323.05548L156.0 316.16486L156.10938 319.72736L156.10938 323.05548L154.98438 323.05548L154.98438 314.52423L156.4375 314.52423ZM170.1875 319.96173Q170.1875 321.41486 169.51562 322.30548Q168.85938 323.18048 167.73438 323.18048Q166.53125 323.18048 165.875 322.3211L165.8125 323.05548L164.82812 323.05548L164.82812 314.05548L165.90625 314.05548L165.90625 317.41486Q166.5625 316.60236 167.71875 316.60236Q168.875 316.60236 169.53125 317.47736Q170.1875 318.33673 170.1875 319.86798L170.1875 319.96173ZM169.10938 319.83673Q169.10938 318.72736 168.67188 318.1336Q168.25 317.52423 167.45312 317.52423Q166.375 317.52423 165.90625 318.5086L165.90625 321.2586Q166.40625 322.2586 167.45312 322.2586Q168.23438 322.2586 168.67188 321.64923Q169.10938 321.03986 169.10938 319.83673ZM177.17188 319.96173Q177.17188 321.39923 176.51562 322.28986Q175.85938 323.18048 174.71875 323.18048Q173.5625 323.18048 172.90625 322.4461L172.90625 325.49298L171.82812 325.49298L171.82812 316.71173L172.8125 316.71173L172.85938 317.41486Q173.53125 316.60236 174.70312 316.60236Q175.84375 316.60236 176.5 317.46173Q177.17188 318.3211 177.17188 319.85236L177.17188 319.96173ZM176.09375 319.83673Q176.09375 318.7586 175.625 318.14923Q175.17188 317.52423 174.375 317.52423Q173.39062 317.52423 172.90625 318.3836L172.90625 321.41486Q173.39062 322.28986 174.39062 322.28986Q175.17188 322.28986 175.625 321.68048Q176.09375 321.05548 176.09375 319.83673ZM182.51562 321.36798Q182.51562 320.93048 182.17188 320.6961Q181.84375 320.4461 181.01562 320.27423Q180.20312 320.10236 179.71875 319.85236Q179.23438 319.60236 179.0 319.27423Q178.78125 318.93048 178.78125 318.46173Q178.78125 317.68048 179.4375 317.14923Q180.09375 316.60236 181.125 316.60236Q182.20312 316.60236 182.85938 317.16486Q183.53125 317.71173 183.53125 318.5711L182.45312 318.5711Q182.45312 318.1336 182.0625 317.8211Q181.6875 317.49298 181.125 317.49298Q180.53125 317.49298 180.1875 317.7586Q179.85938 318.0086 179.85938 318.41486Q179.85938 318.80548 180.17188 319.0086Q180.48438 319.21173 181.29688 319.39923Q182.10938 319.5711 182.60938 319.8211Q183.10938 320.0711 183.34375 320.43048Q183.59375 320.78986 183.59375 321.28986Q183.59375 322.14923 182.90625 322.66486Q182.23438 323.18048 181.15625 323.18048Q180.39062 323.18048 179.79688 322.91486Q179.21875 322.6336 178.89062 322.14923Q178.5625 321.66486 178.5625 321.10236L179.64062 321.10236Q179.67188 321.64923 180.07812 321.97736Q180.48438 322.28986 181.15625 322.28986Q181.76562 322.28986 182.14062 322.03986Q182.51562 321.78986 182.51562 321.36798Z" fill-rule="nonzero"/><path stroke="#ffffff" stroke-width="3.0" stroke-linejoin="round" stroke-linecap="round" d="M195.54688 318.39044L194.42188 318.39044L194.42188 314.45294L190.10938 314.45294L190.10938 318.39044L188.98438 318.39044L188.98438 309.8592L190.10938 309.8592L190.10938 313.53107L194.42188 313.53107L194.42188 309.8592L195.54688 309.8592L195.54688 318.39044ZM203.89062 310.78107L201.14062 310.78107L201.14062 318.39044L200.03125 318.39044L200.03125 310.78107L197.28125 310.78107L197.28125 309.8592L203.89062 309.8592L203.89062 310.78107ZM210.89062 310.78107L208.14062 310.78107L208.14062 318.39044L207.03125 318.39044L207.03125 310.78107L204.28125 310.78107L204.28125 309.8592L210.89062 309.8592L210.89062 310.78107ZM213.10938 315.0467L213.10938 318.39044L211.98438 318.39044L211.98438 309.8592L215.14062 309.8592Q216.53125 309.8592 217.32812 310.57794Q218.125 311.28107 218.125 312.46857Q218.125 313.70294 217.34375 314.37482Q216.57812 315.0467 215.125 315.0467L213.10938 315.0467ZM213.10938 314.12482L215.14062 314.12482Q216.04688 314.12482 216.51562 313.70294Q217.0 313.28107 217.0 312.4842Q217.0 311.71857 216.51562 311.26544Q216.04688 310.7967 215.20312 310.78107L213.10938 310.78107L213.10938 314.12482ZM220.03125 319.12482L219.10938 319.12482L222.67188 309.8592L223.59375 309.8592L220.03125 319.12482ZM230.29688 318.39044L224.70312 318.39044L224.70312 317.6092L227.65625 314.32794Q228.3125 313.57794 228.5625 313.12482Q228.8125 312.65607 228.8125 312.15607Q228.8125 311.4842 228.40625 311.06232Q228.01562 310.62482 227.32812 310.62482Q226.53125 310.62482 226.07812 311.09357Q225.625 311.5467 225.625 312.37482L224.54688 312.37482Q224.54688 311.18732 225.29688 310.46857Q226.0625 309.7342 227.32812 309.7342Q228.53125 309.7342 229.21875 310.3592Q229.90625 310.9842 229.90625 312.03107Q229.90625 313.28107 228.29688 315.03107L226.01562 317.49982L230.29688 317.49982L230.29688 318.39044ZM240.29688 318.39044L234.70312 318.39044L234.70312 317.6092L237.65625 314.32794Q238.3125 313.57794 238.5625 313.12482Q238.8125 312.65607 238.8125 312.15607Q238.8125 311.4842 238.40625 311.06232Q238.01562 310.62482 237.32812 310.62482Q236.53125 310.62482 236.07812 311.09357Q235.625 311.5467 235.625 312.37482L234.54688 312.37482Q234.54688 311.18732 235.29688 310.46857Q236.0625 309.7342 237.32812 309.7342Q238.53125 309.7342 239.21875 310.3592Q239.90625 310.9842 239.90625 312.03107Q239.90625 313.28107 238.29688 315.03107L236.01562 317.49982L240.29688 317.49982L240.29688 318.39044ZM242.20312 314.1092L242.64062 309.8592L247.01562 309.8592L247.01562 310.8592L243.5625 310.8592L243.29688 313.18732Q243.9375 312.81232 244.73438 312.81232Q245.89062 312.81232 246.57812 313.59357Q247.26562 314.3592 247.26562 315.6717Q247.26562 316.9842 246.54688 317.74982Q245.84375 318.51544 244.5625 318.51544Q243.4375 318.51544 242.71875 317.89044Q242.0 317.24982 241.90625 316.14044L242.92188 316.14044Q243.03125 316.87482 243.45312 317.24982Q243.875 317.62482 244.5625 317.62482Q245.3125 317.62482 245.75 317.1092Q246.1875 316.59357 246.1875 315.68732Q246.1875 314.82794 245.71875 314.31232Q245.25 313.7967 244.46875 313.7967Q243.76562 313.7967 243.35938 314.09357L243.07812 314.32794L242.20312 314.1092ZM250.4375 309.8592L253.23438 316.81232L256.01562 309.8592L257.48438 309.8592L257.48438 318.39044L256.35938 318.39044L256.35938 315.06232L256.46875 311.4842L253.65625 318.39044L252.79688 318.39044L250.0 311.49982L250.10938 315.06232L250.10938 318.39044L248.98438 318.39044L248.98438 309.8592L250.4375 309.8592ZM264.1875 315.2967Q264.1875 316.74982 263.51562 317.64044Q262.85938 318.51544 261.73438 318.51544Q260.53125 318.51544 259.875 317.65607L259.8125 318.39044L258.82812 318.39044L258.82812 309.39044L259.90625 309.39044L259.90625 312.74982Q260.5625 311.93732 261.71875 311.93732Q262.875 311.93732 263.53125 312.81232Q264.1875 313.6717 264.1875 315.20294L264.1875 315.2967ZM263.10938 315.1717Q263.10938 314.06232 262.67188 313.46857Q262.25 312.8592 261.45312 312.8592Q260.375 312.8592 259.90625 313.84357L259.90625 316.59357Q260.40625 317.59357 261.45312 317.59357Q262.23438 317.59357 262.67188 316.9842Q263.10938 316.37482 263.10938 315.1717ZM271.17188 315.2967Q271.17188 316.7342 270.51562 317.62482Q269.85938 318.51544 268.71875 318.51544Q267.5625 318.51544 266.90625 317.78107L266.90625 320.82794L265.82812 320.82794L265.82812 312.0467L266.8125 312.0467L266.85938 312.74982Q267.53125 311.93732 268.70312 311.93732Q269.84375 311.93732 270.5 312.7967Q271.17188 313.65607 271.17188 315.18732L271.17188 315.2967ZM270.09375 315.1717Q270.09375 314.09357 269.625 313.4842Q269.17188 312.8592 268.375 312.8592Q267.39062 312.8592 266.90625 313.71857L266.90625 316.74982Q267.39062 317.62482 268.39062 317.62482Q269.17188 317.62482 269.625 317.01544Q270.09375 316.39044 270.09375 315.1717ZM276.51562 316.70294Q276.51562 316.26544 276.17188 316.03107Q275.84375 315.78107 275.01562 315.6092Q274.20312 315.43732 273.71875 315.18732Q273.23438 314.93732 273.0 314.6092Q272.78125 314.26544 272.78125 313.7967Q272.78125 313.01544 273.4375 312.4842Q274.09375 311.93732 275.125 311.93732Q276.20312 311.93732 276.85938 312.49982Q277.53125 313.0467 277.53125 313.90607L276.45312 313.90607Q276.45312 313.46857 276.0625 313.15607Q275.6875 312.82794 275.125 312.82794Q274.53125 312.82794 274.1875 313.09357Q273.85938 313.34357 273.85938 313.74982Q273.85938 314.14044 274.17188 314.34357Q274.48438 314.5467 275.29688 314.7342Q276.10938 314.90607 276.60938 315.15607Q277.10938 315.40607 277.34375 315.76544Q277.59375 316.12482 277.59375 316.62482Q277.59375 317.4842 276.90625 317.99982Q276.23438 318.51544 275.15625 318.51544Q274.39062 318.51544 273.79688 318.24982Q273.21875 317.96857 272.89062 317.4842Q272.5625 316.99982 272.5625 316.43732L273.64062 316.43732Q273.67188 316.9842 274.07812 317.31232Q274.48438 317.62482 275.15625 317.62482Q275.76562 317.62482 276.14062 317.37482Q276.51562 317.12482 276.51562 316.70294Z" fill-rule="nonzero"/><path fill="#fbbc04" d="M195.54688 318.39044L194.42188 318.39044L194.42188 314.45294L190.10938 314.45294L190.10938 318.39044L188.98438 318.39044L188.98438 309.8592L190.10938 309.8592L190.10938 313.53107L194.42188 313.53107L194.42188 309.8592L195.54688 309.8592L195.54688 318.39044ZM203.89062 310.78107L201.14062 310.78107L201.14062 318.39044L200.03125 318.39044L200.03125 310.78107L197.28125 310.78107L197.28125 309.8592L203.89062 309.8592L203.89062 310.78107ZM210.89062 310.78107L208.14062 310.78107L208.14062 318.39044L207.03125 318.39044L207.03125 310.78107L204.28125 310.78107L204.28125 309.8592L210.89062 309.8592L210.89062 310.78107ZM213.10938 315.0467L213.10938 318.39044L211.98438 318.39044L211.98438 309.8592L215.14062 309.8592Q216.53125 309.8592 217.32812 310.57794Q218.125 311.28107 218.125 312.46857Q218.125 313.70294 217.34375 314.37482Q216.57812 315.0467 215.125 315.0467L213.10938 315.0467ZM213.10938 314.12482L215.14062 314.12482Q216.04688 314.12482 216.51562 313.70294Q217.0 313.28107 217.0 312.4842Q217.0 311.71857 216.51562 311.26544Q216.04688 310.7967 215.20312 310.78107L213.10938 310.78107L213.10938 314.12482ZM220.03125 319.12482L219.10938 319.12482L222.67188 309.8592L223.59375 309.8592L220.03125 319.12482ZM230.29688 318.39044L224.70312 318.39044L224.70312 317.6092L227.65625 314.32794Q228.3125 313.57794 228.5625 313.12482Q228.8125 312.65607 228.8125 312.15607Q228.8125 311.4842 228.40625 311.06232Q228.01562 310.62482 227.32812 310.62482Q226.53125 310.62482 226.07812 311.09357Q225.625 311.5467 225.625 312.37482L224.54688 312.37482Q224.54688 311.18732 225.29688 310.46857Q226.0625 309.7342 227.32812 309.7342Q228.53125 309.7342 229.21875 310.3592Q229.90625 310.9842 229.90625 312.03107Q229.90625 313.28107 228.29688 315.03107L226.01562 317.49982L230.29688 317.49982L230.29688 318.39044ZM240.29688 318.39044L234.70312 318.39044L234.70312 317.6092L237.65625 314.32794Q238.3125 313.57794 238.5625 313.12482Q238.8125 312.65607 238.8125 312.15607Q238.8125 311.4842 238.40625 311.06232Q238.01562 310.62482 237.32812 310.62482Q236.53125 310.62482 236.07812 311.09357Q235.625 311.5467 235.625 312.37482L234.54688 312.37482Q234.54688 311.18732 235.29688 310.46857Q236.0625 309.7342 237.32812 309.7342Q238.53125 309.7342 239.21875 310.3592Q239.90625 310.9842 239.90625 312.03107Q239.90625 313.28107 238.29688 315.03107L236.01562 317.49982L240.29688 317.49982L240.29688 318.39044ZM242.20312 314.1092L242.64062 309.8592L247.01562 309.8592L247.01562 310.8592L243.5625 310.8592L243.29688 313.18732Q243.9375 312.81232 244.73438 312.81232Q245.89062 312.81232 246.57812 313.59357Q247.26562 314.3592 247.26562 315.6717Q247.26562 316.9842 246.54688 317.74982Q245.84375 318.51544 244.5625 318.51544Q243.4375 318.51544 242.71875 317.89044Q242.0 317.24982 241.90625 316.14044L242.92188 316.14044Q243.03125 316.87482 243.45312 317.24982Q243.875 317.62482 244.5625 317.62482Q245.3125 317.62482 245.75 317.1092Q246.1875 316.59357 246.1875 315.68732Q246.1875 314.82794 245.71875 314.31232Q245.25 313.7967 244.46875 313.7967Q243.76562 313.7967 243.35938 314.09357L243.07812 314.32794L242.20312 314.1092ZM250.4375 309.8592L253.23438 316.81232L256.01562 309.8592L257.48438 309.8592L257.48438 318.39044L256.35938 318.39044L256.35938 315.06232L256.46875 311.4842L253.65625 318.39044L252.79688 318.39044L250.0 311.49982L250.10938 315.06232L250.10938 318.39044L248.98438 318.39044L248.98438 309.8592L250.4375 309.8592ZM264.1875 315.2967Q264.1875 316.74982 263.51562 317.64044Q262.85938 318.51544 261.73438 318.51544Q260.53125 318.51544 259.875 317.65607L259.8125 318.39044L258.82812 318.39044L258.82812 309.39044L259.90625 309.39044L259.90625 312.74982Q260.5625 311.93732 261.71875 311.93732Q262.875 311.93732 263.53125 312.81232Q264.1875 313.6717 264.1875 315.20294L264.1875 315.2967ZM263.10938 315.1717Q263.10938 314.06232 262.67188 313.46857Q262.25 312.8592 261.45312 312.8592Q260.375 312.8592 259.90625 313.84357L259.90625 316.59357Q260.40625 317.59357 261.45312 317.59357Q262.23438 317.59357 262.67188 316.9842Q263.10938 316.37482 263.10938 315.1717ZM271.17188 315.2967Q271.17188 316.7342 270.51562 317.62482Q269.85938 318.51544 268.71875 318.51544Q267.5625 318.51544 266.90625 317.78107L266.90625 320.82794L265.82812 320.82794L265.82812 312.0467L266.8125 312.0467L266.85938 312.74982Q267.53125 311.93732 268.70312 311.93732Q269.84375 311.93732 270.5 312.7967Q271.17188 313.65607 271.17188 315.18732L271.17188 315.2967ZM270.09375 315.1717Q270.09375 314.09357 269.625 313.4842Q269.17188 312.8592 268.375 312.8592Q267.39062 312.8592 266.90625 313.71857L266.90625 316.74982Q267.39062 317.62482 268.39062 317.62482Q269.17188 317.62482 269.625 317.01544Q270.09375 316.39044 270.09375 315.1717ZM276.51562 316.70294Q276.51562 316.26544 276.17188 316.03107Q275.84375 315.78107 275.01562 315.6092Q274.20312 315.43732 273.71875 315.18732Q273.23438 314.93732 273.0 314.6092Q272.78125 314.26544 272.78125 313.7967Q272.78125 313.01544 273.4375 312.4842Q274.09375 311.93732 275.125 311.93732Q276.20312 311.93732 276.85938 312.49982Q277.53125 313.0467 277.53125 313.90607L276.45312 313.90607Q276.45312 313.46857 276.0625 313.15607Q275.6875 312.82794 275.125 312.82794Q274.53125 312.82794 274.1875 313.09357Q273.85938 313.34357 273.85938 313.74982Q273.85938 314.14044 274.17188 314.34357Q274.48438 314.5467 275.29688 314.7342Q276.10938 314.90607 276.60938 315.15607Q277.10938 315.40607 277.34375 315.76544Q277.59375 316.12482 277.59375 316.62482Q277.59375 317.4842 276.90625 317.99982Q276.23438 318.51544 275.15625 318.51544Q274.39062 318.51544 273.79688 318.24982Q273.21875 317.96857 272.89062 317.4842Q272.5625 316.99982 272.5625 316.43732L273.64062 316.43732Q273.67188 316.9842 274.07812 317.31232Q274.48438 317.62482 275.15625 317.62482Q275.76562 317.62482 276.14062 317.37482Q276.51562 317.12482 276.51562 316.70294Z" fill-rule="nonzero"/><path stroke="#ffffff" stroke-width="3.0" stroke-linejoin="round" stroke-linecap="round" d="M290.54688 303.8766L289.42188 303.8766L289.42188 299.9391L285.10938 299.9391L285.10938 303.8766L283.98438 303.8766L283.98438 295.34534L285.10938 295.34534L285.10938 299.0172L289.42188 299.0172L289.42188 295.34534L290.54688 295.34534L290.54688 303.8766ZM298.89062 296.2672L296.14062 296.2672L296.14062 303.8766L295.03125 303.8766L295.03125 296.2672L292.28125 296.2672L292.28125 295.34534L298.89062 295.34534L298.89062 296.2672ZM305.89062 296.2672L303.14062 296.2672L303.14062 303.8766L302.03125 303.8766L302.03125 296.2672L299.28125 296.2672L299.28125 295.34534L305.89062 295.34534L305.89062 296.2672ZM308.10938 300.53284L308.10938 303.8766L306.98438 303.8766L306.98438 295.34534L310.14062 295.34534Q311.53125 295.34534 312.32812 296.0641Q313.125 296.7672 313.125 297.9547Q313.125 299.1891 312.34375 299.86096Q311.57812 300.53284 310.125 300.53284L308.10938 300.53284ZM308.10938 299.61096L310.14062 299.61096Q311.04688 299.61096 311.51562 299.1891Q312.0 298.7672 312.0 297.97034Q312.0 297.2047 311.51562 296.7516Q311.04688 296.28284 310.20312 296.2672L308.10938 296.2672L308.10938 299.61096ZM315.03125 304.61096L314.10938 304.61096L317.67188 295.34534L318.59375 295.34534L315.03125 304.61096ZM325.29688 303.8766L319.70312 303.8766L319.70312 303.09534L322.65625 299.8141Q323.3125 299.0641 323.5625 298.61096Q323.8125 298.1422 323.8125 297.6422Q323.8125 296.97034 323.40625 296.54846Q323.01562 296.11096 322.32812 296.11096Q321.53125 296.11096 321.07812 296.5797Q320.625 297.03284 320.625 297.86096L319.54688 297.86096Q319.54688 296.67346 320.29688 295.9547Q321.0625 295.22034 322.32812 295.22034Q323.53125 295.22034 324.21875 295.84534Q324.90625 296.47034 324.90625 297.5172Q324.90625 298.7672 323.29688 300.5172L321.01562 302.98596L325.29688 302.98596L325.29688 303.8766ZM333.26562 303.8766L332.1875 303.8766L332.1875 296.65784L330.0 297.4547L330.0 296.47034L333.10938 295.29846L333.26562 295.29846L333.26562 303.8766ZM342.0625 300.23596Q342.0625 302.1422 341.40625 303.0797Q340.76562 304.0016 339.375 304.0016Q338.01562 304.0016 337.35938 303.09534Q336.70312 302.1891 336.67188 300.3766L336.67188 298.9391Q336.67188 297.04846 337.3125 296.1422Q337.96875 295.22034 339.35938 295.22034Q340.73438 295.22034 341.39062 296.11096Q342.04688 296.98596 342.0625 298.8297L342.0625 300.23596ZM340.96875 298.7516Q340.96875 297.3766 340.57812 296.7516Q340.20312 296.11096 339.35938 296.11096Q338.53125 296.11096 338.14062 296.7516Q337.76562 297.3766 337.76562 298.67346L337.76562 300.40784Q337.76562 301.78284 338.15625 302.4547Q338.5625 303.11096 339.375 303.11096Q340.17188 303.11096 340.5625 302.48596Q340.95312 301.86096 340.96875 300.53284L340.96875 298.7516ZM345.4375 295.34534L348.23438 302.29846L351.01562 295.34534L352.48438 295.34534L352.48438 303.8766L351.35938 303.8766L351.35938 300.54846L351.46875 296.97034L348.65625 303.8766L347.79688 303.8766L345.0 296.98596L345.10938 300.54846L345.10938 303.8766L343.98438 303.8766L343.98438 295.34534L345.4375 295.34534ZM359.1875 300.78284Q359.1875 302.23596 358.51562 303.1266Q357.85938 304.0016 356.73438 304.0016Q355.53125 304.0016 354.875 303.1422L354.8125 303.8766L353.82812 303.8766L353.82812 294.8766L354.90625 294.8766L354.90625 298.23596Q355.5625 297.42346 356.71875 297.42346Q357.875 297.42346 358.53125 298.29846Q359.1875 299.15784 359.1875 300.6891L359.1875 300.78284ZM358.10938 300.65784Q358.10938 299.54846 357.67188 298.9547Q357.25 298.34534 356.45312 298.34534Q355.375 298.34534 354.90625 299.3297L354.90625 302.0797Q355.40625 303.0797 356.45312 303.0797Q357.23438 303.0797 357.67188 302.47034Q358.10938 301.86096 358.10938 300.65784ZM366.17188 300.78284Q366.17188 302.22034 365.51562 303.11096Q364.85938 304.0016 363.71875 304.0016Q362.5625 304.0016 361.90625 303.2672L361.90625 306.3141L360.82812 306.3141L360.82812 297.53284L361.8125 297.53284L361.85938 298.23596Q362.53125 297.42346 363.70312 297.42346Q364.84375 297.42346 365.5 298.28284Q366.17188 299.1422 366.17188 300.67346L366.17188 300.78284ZM365.09375 300.65784Q365.09375 299.5797 364.625 298.97034Q364.17188 298.34534 363.375 298.34534Q362.39062 298.34534 361.90625 299.2047L361.90625 302.23596Q362.39062 303.11096 363.39062 303.11096Q364.17188 303.11096 364.625 302.5016Q365.09375 301.8766 365.09375 300.65784ZM371.51562 302.1891Q371.51562 301.7516 371.17188 301.5172Q370.84375 301.2672 370.01562 301.09534Q369.20312 300.92346 368.71875 300.67346Q368.23438 300.42346 368.0 300.09534Q367.78125 299.7516 367.78125 299.28284Q367.78125 298.5016 368.4375 297.97034Q369.09375 297.42346 370.125 297.42346Q371.20312 297.42346 371.85938 297.98596Q372.53125 298.53284 372.53125 299.3922L371.45312 299.3922Q371.45312 298.9547 371.0625 298.6422Q370.6875 298.3141 370.125 298.3141Q369.53125 298.3141 369.1875 298.5797Q368.85938 298.8297 368.85938 299.23596Q368.85938 299.6266 369.17188 299.8297Q369.48438 300.03284 370.29688 300.22034Q371.10938 300.3922 371.60938 300.6422Q372.10938 300.8922 372.34375 301.2516Q372.59375 301.61096 372.59375 302.11096Q372.59375 302.97034 371.90625 303.48596Q371.23438 304.0016 370.15625 304.0016Q369.39062 304.0016 368.79688 303.73596Q368.21875 303.4547 367.89062 302.97034Q367.5625 302.48596 367.5625 301.92346L368.64062 301.92346Q368.67188 302.47034 369.07812 302.79846Q369.48438 303.11096 370.15625 303.11096Q370.76562 303.11096 371.14062 302.86096Q371.51562 302.61096 371.51562 302.1891Z" fill-rule="nonzero"/><path fill="#fbbc04" d="M290.54688 303.8766L289.42188 303.8766L289.42188 299.9391L285.10938 299.9391L285.10938 303.8766L283.98438 303.8766L283.98438 295.34534L285.10938 295.34534L285.10938 299.0172L289.42188 299.0172L289.42188 295.34534L290.54688 295.34534L290.54688 303.8766ZM298.89062 296.2672L296.14062 296.2672L296.14062 303.8766L295.03125 303.8766L295.03125 296.2672L292.28125 296.2672L292.28125 295.34534L298.89062 295.34534L298.89062 296.2672ZM305.89062 296.2672L303.14062 296.2672L303.14062 303.8766L302.03125 303.8766L302.03125 296.2672L299.28125 296.2672L299.28125 295.34534L305.89062 295.34534L305.89062 296.2672ZM308.10938 300.53284L308.10938 303.8766L306.98438 303.8766L306.98438 295.34534L310.14062 295.34534Q311.53125 295.34534 312.32812 296.0641Q313.125 296.7672 313.125 297.9547Q313.125 299.1891 312.34375 299.86096Q311.57812 300.53284 310.125 300.53284L308.10938 300.53284ZM308.10938 299.61096L310.14062 299.61096Q311.04688 299.61096 311.51562 299.1891Q312.0 298.7672 312.0 297.97034Q312.0 297.2047 311.51562 296.7516Q311.04688 296.28284 310.20312 296.2672L308.10938 296.2672L308.10938 299.61096ZM315.03125 304.61096L314.10938 304.61096L317.67188 295.34534L318.59375 295.34534L315.03125 304.61096ZM325.29688 303.8766L319.70312 303.8766L319.70312 303.09534L322.65625 299.8141Q323.3125 299.0641 323.5625 298.61096Q323.8125 298.1422 323.8125 297.6422Q323.8125 296.97034 323.40625 296.54846Q323.01562 296.11096 322.32812 296.11096Q321.53125 296.11096 321.07812 296.5797Q320.625 297.03284 320.625 297.86096L319.54688 297.86096Q319.54688 296.67346 320.29688 295.9547Q321.0625 295.22034 322.32812 295.22034Q323.53125 295.22034 324.21875 295.84534Q324.90625 296.47034 324.90625 297.5172Q324.90625 298.7672 323.29688 300.5172L321.01562 302.98596L325.29688 302.98596L325.29688 303.8766ZM333.26562 303.8766L332.1875 303.8766L332.1875 296.65784L330.0 297.4547L330.0 296.47034L333.10938 295.29846L333.26562 295.29846L333.26562 303.8766ZM342.0625 300.23596Q342.0625 302.1422 341.40625 303.0797Q340.76562 304.0016 339.375 304.0016Q338.01562 304.0016 337.35938 303.09534Q336.70312 302.1891 336.67188 300.3766L336.67188 298.9391Q336.67188 297.04846 337.3125 296.1422Q337.96875 295.22034 339.35938 295.22034Q340.73438 295.22034 341.39062 296.11096Q342.04688 296.98596 342.0625 298.8297L342.0625 300.23596ZM340.96875 298.7516Q340.96875 297.3766 340.57812 296.7516Q340.20312 296.11096 339.35938 296.11096Q338.53125 296.11096 338.14062 296.7516Q337.76562 297.3766 337.76562 298.67346L337.76562 300.40784Q337.76562 301.78284 338.15625 302.4547Q338.5625 303.11096 339.375 303.11096Q340.17188 303.11096 340.5625 302.48596Q340.95312 301.86096 340.96875 300.53284L340.96875 298.7516ZM345.4375 295.34534L348.23438 302.29846L351.01562 295.34534L352.48438 295.34534L352.48438 303.8766L351.35938 303.8766L351.35938 300.54846L351.46875 296.97034L348.65625 303.8766L347.79688 303.8766L345.0 296.98596L345.10938 300.54846L345.10938 303.8766L343.98438 303.8766L343.98438 295.34534L345.4375 295.34534ZM359.1875 300.78284Q359.1875 302.23596 358.51562 303.1266Q357.85938 304.0016 356.73438 304.0016Q355.53125 304.0016 354.875 303.1422L354.8125 303.8766L353.82812 303.8766L353.82812 294.8766L354.90625 294.8766L354.90625 298.23596Q355.5625 297.42346 356.71875 297.42346Q357.875 297.42346 358.53125 298.29846Q359.1875 299.15784 359.1875 300.6891L359.1875 300.78284ZM358.10938 300.65784Q358.10938 299.54846 357.67188 298.9547Q357.25 298.34534 356.45312 298.34534Q355.375 298.34534 354.90625 299.3297L354.90625 302.0797Q355.40625 303.0797 356.45312 303.0797Q357.23438 303.0797 357.67188 302.47034Q358.10938 301.86096 358.10938 300.65784ZM366.17188 300.78284Q366.17188 302.22034 365.51562 303.11096Q364.85938 304.0016 363.71875 304.0016Q362.5625 304.0016 361.90625 303.2672L361.90625 306.3141L360.82812 306.3141L360.82812 297.53284L361.8125 297.53284L361.85938 298.23596Q362.53125 297.42346 363.70312 297.42346Q364.84375 297.42346 365.5 298.28284Q366.17188 299.1422 366.17188 300.67346L366.17188 300.78284ZM365.09375 300.65784Q365.09375 299.5797 364.625 298.97034Q364.17188 298.34534 363.375 298.34534Q362.39062 298.34534 361.90625 299.2047L361.90625 302.23596Q362.39062 303.11096 363.39062 303.11096Q364.17188 303.11096 364.625 302.5016Q365.09375 301.8766 365.09375 300.65784ZM371.51562 302.1891Q371.51562 301.7516 371.17188 301.5172Q370.84375 301.2672 370.01562 301.09534Q369.20312 300.92346 368.71875 300.67346Q368.23438 300.42346 368.0 300.09534Q367.78125 299.7516 367.78125 299.28284Q367.78125 298.5016 368.4375 297.97034Q369.09375 297.42346 370.125 297.42346Q371.20312 297.42346 371.85938 297.98596Q372.53125 298.53284 372.53125 299.3922L371.45312 299.3922Q371.45312 298.9547 371.0625 298.6422Q370.6875 298.3141 370.125 298.3141Q369.53125 298.3141 369.1875 298.5797Q368.85938 298.8297 368.85938 299.23596Q368.85938 299.6266 369.17188 299.8297Q369.48438 300.03284 370.29688 300.22034Q371.10938 300.3922 371.60938 300.6422Q372.10938 300.8922 372.34375 301.2516Q372.59375 301.61096 372.59375 302.11096Q372.59375 302.97034 371.90625 303.48596Q371.23438 304.0016 370.15625 304.0016Q369.39062 304.0016 368.79688 303.73596Q368.21875 303.4547 367.89062 302.97034Q367.5625 302.48596 367.5625 301.92346L368.64062 301.92346Q368.67188 302.47034 369.07812 302.79846Q369.48438 303.11096 370.15625 303.11096Q370.76562 303.11096 371.14062 302.86096Q371.51562 302.61096 371.51562 302.1891Z" fill-rule="nonzero"/><path stroke="#ffffff" stroke-width="3.0" stroke-linejoin="round" stroke-linecap="round" d="M388.04688 276.43448L386.92188 276.43448L386.92188 272.49698L382.60938 272.49698L382.60938 276.43448L381.48438 276.43448L381.48438 267.90323L382.60938 267.90323L382.60938 271.5751L386.92188 271.5751L386.92188 267.90323L388.04688 267.90323L388.04688 276.43448ZM396.39062 268.8251L393.64062 268.8251L393.64062 276.43448L392.53125 276.43448L392.53125 268.8251L389.78125 268.8251L389.78125 267.90323L396.39062 267.90323L396.39062 268.8251ZM403.39062 268.8251L400.64062 268.8251L400.64062 276.43448L399.53125 276.43448L399.53125 268.8251L396.78125 268.8251L396.78125 267.90323L403.39062 267.90323L403.39062 268.8251ZM405.60938 273.09073L405.60938 276.43448L404.48438 276.43448L404.48438 267.90323L407.64062 267.90323Q409.03125 267.90323 409.82812 268.62198Q410.625 269.3251 410.625 270.5126Q410.625 271.74698 409.84375 272.41885Q409.07812 273.09073 407.625 273.09073L405.60938 273.09073ZM405.60938 272.16885L407.64062 272.16885Q408.54688 272.16885 409.01562 271.74698Q409.5 271.3251 409.5 270.52823Q409.5 269.7626 409.01562 269.30948Q408.54688 268.84073 407.70312 268.8251L405.60938 268.8251L405.60938 272.16885ZM412.53125 277.16885L411.60938 277.16885L415.17188 267.90323L416.09375 267.90323L412.53125 277.16885ZM422.79688 276.43448L417.20312 276.43448L417.20312 275.65323L420.15625 272.37198Q420.8125 271.62198 421.0625 271.16885Q421.3125 270.7001 421.3125 270.2001Q421.3125 269.52823 420.90625 269.10635Q420.51562 268.66885 419.82812 268.66885Q419.03125 268.66885 418.57812 269.1376Q418.125 269.59073 418.125 270.41885L417.04688 270.41885Q417.04688 269.23135 417.79688 268.5126Q418.5625 267.77823 419.82812 267.77823Q421.03125 267.77823 421.71875 268.40323Q422.40625 269.02823 422.40625 270.0751Q422.40625 271.3251 420.79688 273.0751L418.51562 275.54385L422.79688 275.54385L422.79688 276.43448ZM427.70312 272.15323L428.14062 267.90323L432.51562 267.90323L432.51562 268.90323L429.0625 268.90323L428.79688 271.23135Q429.4375 270.85635 430.23438 270.85635Q431.39062 270.85635 432.07812 271.6376Q432.76562 272.40323 432.76562 273.71573Q432.76562 275.02823 432.04688 275.79385Q431.34375 276.55948 430.0625 276.55948Q428.9375 276.55948 428.21875 275.93448Q427.5 275.29385 427.40625 274.18448L428.42188 274.18448Q428.53125 274.91885 428.95312 275.29385Q429.375 275.66885 430.0625 275.66885Q430.8125 275.66885 431.25 275.15323Q431.6875 274.6376 431.6875 273.73135Q431.6875 272.87198 431.21875 272.35635Q430.75 271.84073 429.96875 271.84073Q429.26562 271.84073 428.85938 272.1376L428.57812 272.37198L427.70312 272.15323ZM435.9375 267.90323L438.73438 274.85635L441.51562 267.90323L442.98438 267.90323L442.98438 276.43448L441.85938 276.43448L441.85938 273.10635L441.96875 269.52823L439.15625 276.43448L438.29688 276.43448L435.5 269.54385L435.60938 273.10635L435.60938 276.43448L434.48438 276.43448L434.48438 267.90323L435.9375 267.90323ZM449.6875 273.34073Q449.6875 274.79385 449.01562 275.68448Q448.35938 276.55948 447.23438 276.55948Q446.03125 276.55948 445.375 275.7001L445.3125 276.43448L444.32812 276.43448L444.32812 267.43448L445.40625 267.43448L445.40625 270.79385Q446.0625 269.98135 447.21875 269.98135Q448.375 269.98135 449.03125 270.85635Q449.6875 271.71573 449.6875 273.24698L449.6875 273.34073ZM448.60938 273.21573Q448.60938 272.10635 448.17188 271.5126Q447.75 270.90323 446.95312 270.90323Q445.875 270.90323 445.40625 271.8876L445.40625 274.6376Q445.90625 275.6376 446.95312 275.6376Q447.73438 275.6376 448.17188 275.02823Q448.60938 274.41885 448.60938 273.21573ZM456.67188 273.34073Q456.67188 274.77823 456.01562 275.66885Q455.35938 276.55948 454.21875 276.55948Q453.0625 276.55948 452.40625 275.8251L452.40625 278.87198L451.32812 278.87198L451.32812 270.09073L452.3125 270.09073L452.35938 270.79385Q453.03125 269.98135 454.20312 269.98135Q455.34375 269.98135 456.0 270.84073Q456.67188 271.7001 456.67188 273.23135L456.67188 273.34073ZM455.59375 273.21573Q455.59375 272.1376 455.125 271.52823Q454.67188 270.90323 453.875 270.90323Q452.89062 270.90323 452.40625 271.7626L452.40625 274.79385Q452.89062 275.66885 453.89062 275.66885Q454.67188 275.66885 455.125 275.05948Q455.59375 274.43448 455.59375 273.21573ZM462.01562 274.74698Q462.01562 274.30948 461.67188 274.0751Q461.34375 273.8251 460.51562 273.65323Q459.70312 273.48135 459.21875 273.23135Q458.73438 272.98135 458.5 272.65323Q458.28125 272.30948 458.28125 271.84073Q458.28125 271.05948 458.9375 270.52823Q459.59375 269.98135 460.625 269.98135Q461.70312 269.98135 462.35938 270.54385Q463.03125 271.09073 463.03125 271.9501L461.95312 271.9501Q461.95312 271.5126 461.5625 271.2001Q461.1875 270.87198 460.625 270.87198Q460.03125 270.87198 459.6875 271.1376Q459.35938 271.3876 459.35938 271.79385Q459.35938 272.18448 459.67188 272.3876Q459.98438 272.59073 460.79688 272.77823Q461.60938 272.9501 462.10938 273.2001Q462.60938 273.4501 462.84375 273.80948Q463.09375 274.16885 463.09375 274.66885Q463.09375 275.52823 462.40625 276.04385Q461.73438 276.55948 460.65625 276.55948Q459.89062 276.55948 459.29688 276.29385Q458.71875 276.0126 458.39062 275.52823Q458.0625 275.04385 458.0625 274.48135L459.14062 274.48135Q459.17188 275.02823 459.57812 275.35635Q459.98438 275.66885 460.65625 275.66885Q461.26562 275.66885 461.64062 275.41885Q462.01562 275.16885 462.01562 274.74698Z" fill-rule="nonzero"/><path fill="#fbbc04" d="M388.04688 276.43448L386.92188 276.43448L386.92188 272.49698L382.60938 272.49698L382.60938 276.43448L381.48438 276.43448L381.48438 267.90323L382.60938 267.90323L382.60938 271.5751L386.92188 271.5751L386.92188 267.90323L388.04688 267.90323L388.04688 276.43448ZM396.39062 268.8251L393.64062 268.8251L393.64062 276.43448L392.53125 276.43448L392.53125 268.8251L389.78125 268.8251L389.78125 267.90323L396.39062 267.90323L396.39062 268.8251ZM403.39062 268.8251L400.64062 268.8251L400.64062 276.43448L399.53125 276.43448L399.53125 268.8251L396.78125 268.8251L396.78125 267.90323L403.39062 267.90323L403.39062 268.8251ZM405.60938 273.09073L405.60938 276.43448L404.48438 276.43448L404.48438 267.90323L407.64062 267.90323Q409.03125 267.90323 409.82812 268.62198Q410.625 269.3251 410.625 270.5126Q410.625 271.74698 409.84375 272.41885Q409.07812 273.09073 407.625 273.09073L405.60938 273.09073ZM405.60938 272.16885L407.64062 272.16885Q408.54688 272.16885 409.01562 271.74698Q409.5 271.3251 409.5 270.52823Q409.5 269.7626 409.01562 269.30948Q408.54688 268.84073 407.70312 268.8251L405.60938 268.8251L405.60938 272.16885ZM412.53125 277.16885L411.60938 277.16885L415.17188 267.90323L416.09375 267.90323L412.53125 277.16885ZM422.79688 276.43448L417.20312 276.43448L417.20312 275.65323L420.15625 272.37198Q420.8125 271.62198 421.0625 271.16885Q421.3125 270.7001 421.3125 270.2001Q421.3125 269.52823 420.90625 269.10635Q420.51562 268.66885 419.82812 268.66885Q419.03125 268.66885 418.57812 269.1376Q418.125 269.59073 418.125 270.41885L417.04688 270.41885Q417.04688 269.23135 417.79688 268.5126Q418.5625 267.77823 419.82812 267.77823Q421.03125 267.77823 421.71875 268.40323Q422.40625 269.02823 422.40625 270.0751Q422.40625 271.3251 420.79688 273.0751L418.51562 275.54385L422.79688 275.54385L422.79688 276.43448ZM427.70312 272.15323L428.14062 267.90323L432.51562 267.90323L432.51562 268.90323L429.0625 268.90323L428.79688 271.23135Q429.4375 270.85635 430.23438 270.85635Q431.39062 270.85635 432.07812 271.6376Q432.76562 272.40323 432.76562 273.71573Q432.76562 275.02823 432.04688 275.79385Q431.34375 276.55948 430.0625 276.55948Q428.9375 276.55948 428.21875 275.93448Q427.5 275.29385 427.40625 274.18448L428.42188 274.18448Q428.53125 274.91885 428.95312 275.29385Q429.375 275.66885 430.0625 275.66885Q430.8125 275.66885 431.25 275.15323Q431.6875 274.6376 431.6875 273.73135Q431.6875 272.87198 431.21875 272.35635Q430.75 271.84073 429.96875 271.84073Q429.26562 271.84073 428.85938 272.1376L428.57812 272.37198L427.70312 272.15323ZM435.9375 267.90323L438.73438 274.85635L441.51562 267.90323L442.98438 267.90323L442.98438 276.43448L441.85938 276.43448L441.85938 273.10635L441.96875 269.52823L439.15625 276.43448L438.29688 276.43448L435.5 269.54385L435.60938 273.10635L435.60938 276.43448L434.48438 276.43448L434.48438 267.90323L435.9375 267.90323ZM449.6875 273.34073Q449.6875 274.79385 449.01562 275.68448Q448.35938 276.55948 447.23438 276.55948Q446.03125 276.55948 445.375 275.7001L445.3125 276.43448L444.32812 276.43448L444.32812 267.43448L445.40625 267.43448L445.40625 270.79385Q446.0625 269.98135 447.21875 269.98135Q448.375 269.98135 449.03125 270.85635Q449.6875 271.71573 449.6875 273.24698L449.6875 273.34073ZM448.60938 273.21573Q448.60938 272.10635 448.17188 271.5126Q447.75 270.90323 446.95312 270.90323Q445.875 270.90323 445.40625 271.8876L445.40625 274.6376Q445.90625 275.6376 446.95312 275.6376Q447.73438 275.6376 448.17188 275.02823Q448.60938 274.41885 448.60938 273.21573ZM456.67188 273.34073Q456.67188 274.77823 456.01562 275.66885Q455.35938 276.55948 454.21875 276.55948Q453.0625 276.55948 452.40625 275.8251L452.40625 278.87198L451.32812 278.87198L451.32812 270.09073L452.3125 270.09073L452.35938 270.79385Q453.03125 269.98135 454.20312 269.98135Q455.34375 269.98135 456.0 270.84073Q456.67188 271.7001 456.67188 273.23135L456.67188 273.34073ZM455.59375 273.21573Q455.59375 272.1376 455.125 271.52823Q454.67188 270.90323 453.875 270.90323Q452.89062 270.90323 452.40625 271.7626L452.40625 274.79385Q452.89062 275.66885 453.89062 275.66885Q454.67188 275.66885 455.125 275.05948Q455.59375 274.43448 455.59375 273.21573ZM462.01562 274.74698Q462.01562 274.30948 461.67188 274.0751Q461.34375 273.8251 460.51562 273.65323Q459.70312 273.48135 459.21875 273.23135Q458.73438 272.98135 458.5 272.65323Q458.28125 272.30948 458.28125 271.84073Q458.28125 271.05948 458.9375 270.52823Q459.59375 269.98135 460.625 269.98135Q461.70312 269.98135 462.35938 270.54385Q463.03125 271.09073 463.03125 271.9501L461.95312 271.9501Q461.95312 271.5126 461.5625 271.2001Q461.1875 270.87198 460.625 270.87198Q460.03125 270.87198 459.6875 271.1376Q459.35938 271.3876 459.35938 271.79385Q459.35938 272.18448 459.67188 272.3876Q459.98438 272.59073 460.79688 272.77823Q461.60938 272.9501 462.10938 273.2001Q462.60938 273.4501 462.84375 273.80948Q463.09375 274.16885 463.09375 274.66885Q463.09375 275.52823 462.40625 276.04385Q461.73438 276.55948 460.65625 276.55948Q459.89062 276.55948 459.29688 276.29385Q458.71875 276.0126 458.39062 275.52823Q458.0625 275.04385 458.0625 274.48135L459.14062 274.48135Q459.17188 275.02823 459.57812 275.35635Q459.98438 275.66885 460.65625 275.66885Q461.26562 275.66885 461.64062 275.41885Q462.01562 275.16885 462.01562 274.74698Z" fill-rule="nonzero"/><path stroke="#ffffff" stroke-width="3.0" stroke-linejoin="round" stroke-linecap="round" d="M482.04688 79.41671L480.92188 79.41671L480.92188 75.47921L476.60938 75.47921L476.60938 79.41671L475.48438 79.41671L475.48438 70.88546L476.60938 70.88546L476.60938 74.557335L480.92188 74.557335L480.92188 70.88546L482.04688 70.88546L482.04688 79.41671ZM490.39062 71.807335L487.64062 71.807335L487.64062 79.41671L486.53125 79.41671L486.53125 71.807335L483.78125 71.807335L483.78125 70.88546L490.39062 70.88546L490.39062 71.807335ZM497.39062 71.807335L494.64062 71.807335L494.64062 79.41671L493.53125 79.41671L493.53125 71.807335L490.78125 71.807335L490.78125 70.88546L497.39062 70.88546L497.39062 71.807335ZM499.60938 76.07296L499.60938 79.41671L498.48438 79.41671L498.48438 70.88546L501.64062 70.88546Q503.03125 70.88546 503.82812 71.60421Q504.625 72.307335 504.625 73.494835Q504.625 74.72921 503.84375 75.401085Q503.07812 76.07296 501.625 76.07296L499.60938 76.07296ZM499.60938 75.151085L501.64062 75.151085Q502.54688 75.151085 503.01562 74.72921Q503.5 74.307335 503.5 73.51046Q503.5 72.744835 503.01562 72.29171Q502.54688 71.82296 501.70312 71.807335L499.60938 71.807335L499.60938 75.151085ZM506.53125 80.151085L505.60938 80.151085L509.17188 70.88546L510.09375 70.88546L506.53125 80.151085ZM516.7969 79.41671L511.20312 79.41671L511.20312 78.63546L514.15625 75.35421Q514.8125 74.60421 515.0625 74.151085Q515.3125 73.682335 515.3125 73.182335Q515.3125 72.51046 514.90625 72.088585Q514.5156 71.651085 513.8281 71.651085Q513.03125 71.651085 512.5781 72.119835Q512.125 72.57296 512.125 73.401085L511.04688 73.401085Q511.04688 72.213585 511.79688 71.494835Q512.5625 70.76046 513.8281 70.76046Q515.03125 70.76046 515.71875 71.38546Q516.40625 72.01046 516.40625 73.057335Q516.40625 74.307335 514.7969 76.057335L512.5156 78.526085L516.7969 78.526085L516.7969 79.41671ZM524.7656 79.41671L523.6875 79.41671L523.6875 72.19796L521.5 72.994835L521.5 72.01046L524.6094 70.838585L524.7656 70.838585L524.7656 79.41671ZM529.9375 70.88546L532.7344 77.838585L535.5156 70.88546L536.9844 70.88546L536.9844 79.41671L535.8594 79.41671L535.8594 76.088585L535.96875 72.51046L533.15625 79.41671L532.2969 79.41671L529.5 72.526085L529.6094 76.088585L529.6094 79.41671L528.4844 79.41671L528.4844 70.88546L529.9375 70.88546ZM543.6875 76.32296Q543.6875 77.776085 543.0156 78.66671Q542.3594 79.54171 541.2344 79.54171Q540.03125 79.54171 539.375 78.682335L539.3125 79.41671L538.3281 79.41671L538.3281 70.41671L539.40625 70.41671L539.40625 73.776085Q540.0625 72.963585 541.21875 72.963585Q542.375 72.963585 543.03125 73.838585Q543.6875 74.69796 543.6875 76.22921L543.6875 76.32296ZM542.6094 76.19796Q542.6094 75.088585 542.1719 74.494835Q541.75 73.88546 540.9531 73.88546Q539.875 73.88546 539.40625 74.869835L539.40625 77.619835Q539.90625 78.619835 540.9531 78.619835Q541.7344 78.619835 542.1719 78.01046Q542.6094 77.401085 542.6094 76.19796ZM550.6719 76.32296Q550.6719 77.76046 550.0156 78.651085Q549.3594 79.54171 548.21875 79.54171Q547.0625 79.54171 546.40625 78.807335L546.40625 81.85421L545.3281 81.85421L545.3281 73.07296L546.3125 73.07296L546.3594 73.776085Q547.03125 72.963585 548.2031 72.963585Q549.34375 72.963585 550.0 73.82296Q550.6719 74.682335 550.6719 76.213585L550.6719 76.32296ZM549.59375 76.19796Q549.59375 75.119835 549.125 74.51046Q548.6719 73.88546 547.875 73.88546Q546.8906 73.88546 546.40625 74.744835L546.40625 77.776085Q546.8906 78.651085 547.8906 78.651085Q548.6719 78.651085 549.125 78.04171Q549.59375 77.41671 549.59375 76.19796ZM556.0156 77.72921Q556.0156 77.29171 555.6719 77.057335Q555.34375 76.807335 554.5156 76.63546Q553.7031 76.463585 553.21875 76.213585Q552.7344 75.963585 552.5 75.63546Q552.28125 75.29171 552.28125 74.82296Q552.28125 74.04171 552.9375 73.51046Q553.59375 72.963585 554.625 72.963585Q555.7031 72.963585 556.3594 73.526085Q557.03125 74.07296 557.03125 74.932335L555.9531 74.932335Q555.9531 74.494835 555.5625 74.182335Q555.1875 73.85421 554.625 73.85421Q554.03125 73.85421 553.6875 74.119835Q553.3594 74.369835 553.3594 74.776085Q553.3594 75.16671 553.6719 75.369835Q553.9844 75.57296 554.7969 75.76046Q555.6094 75.932335 556.1094 76.182335Q556.6094 76.432335 556.84375 76.79171Q557.09375 77.151085 557.09375 77.651085Q557.09375 78.51046 556.40625 79.026085Q555.7344 79.54171 554.65625 79.54171Q553.8906 79.54171 553.2969 79.276085Q552.71875 78.994835 552.3906 78.51046Q552.0625 78.026085 552.0625 77.463585L553.1406 77.463585Q553.1719 78.01046 553.5781 78.338585Q553.9844 78.651085 554.65625 78.651085Q555.2656 78.651085 555.6406 78.401085Q556.0156 78.151085 556.0156 77.72921Z" fill-rule="nonzero"/><path fill="#fbbc04" d="M482.04688 79.41671L480.92188 79.41671L480.92188 75.47921L476.60938 75.47921L476.60938 79.41671L475.48438 79.41671L475.48438 70.88546L476.60938 70.88546L476.60938 74.557335L480.92188 74.557335L480.92188 70.88546L482.04688 70.88546L482.04688 79.41671ZM490.39062 71.807335L487.64062 71.807335L487.64062 79.41671L486.53125 79.41671L486.53125 71.807335L483.78125 71.807335L483.78125 70.88546L490.39062 70.88546L490.39062 71.807335ZM497.39062 71.807335L494.64062 71.807335L494.64062 79.41671L493.53125 79.41671L493.53125 71.807335L490.78125 71.807335L490.78125 70.88546L497.39062 70.88546L497.39062 71.807335ZM499.60938 76.07296L499.60938 79.41671L498.48438 79.41671L498.48438 70.88546L501.64062 70.88546Q503.03125 70.88546 503.82812 71.60421Q504.625 72.307335 504.625 73.494835Q504.625 74.72921 503.84375 75.401085Q503.07812 76.07296 501.625 76.07296L499.60938 76.07296ZM499.60938 75.151085L501.64062 75.151085Q502.54688 75.151085 503.01562 74.72921Q503.5 74.307335 503.5 73.51046Q503.5 72.744835 503.01562 72.29171Q502.54688 71.82296 501.70312 71.807335L499.60938 71.807335L499.60938 75.151085ZM506.53125 80.151085L505.60938 80.151085L509.17188 70.88546L510.09375 70.88546L506.53125 80.151085ZM516.7969 79.41671L511.20312 79.41671L511.20312 78.63546L514.15625 75.35421Q514.8125 74.60421 515.0625 74.151085Q515.3125 73.682335 515.3125 73.182335Q515.3125 72.51046 514.90625 72.088585Q514.5156 71.651085 513.8281 71.651085Q513.03125 71.651085 512.5781 72.119835Q512.125 72.57296 512.125 73.401085L511.04688 73.401085Q511.04688 72.213585 511.79688 71.494835Q512.5625 70.76046 513.8281 70.76046Q515.03125 70.76046 515.71875 71.38546Q516.40625 72.01046 516.40625 73.057335Q516.40625 74.307335 514.7969 76.057335L512.5156 78.526085L516.7969 78.526085L516.7969 79.41671ZM524.7656 79.41671L523.6875 79.41671L523.6875 72.19796L521.5 72.994835L521.5 72.01046L524.6094 70.838585L524.7656 70.838585L524.7656 79.41671ZM529.9375 70.88546L532.7344 77.838585L535.5156 70.88546L536.9844 70.88546L536.9844 79.41671L535.8594 79.41671L535.8594 76.088585L535.96875 72.51046L533.15625 79.41671L532.2969 79.41671L529.5 72.526085L529.6094 76.088585L529.6094 79.41671L528.4844 79.41671L528.4844 70.88546L529.9375 70.88546ZM543.6875 76.32296Q543.6875 77.776085 543.0156 78.66671Q542.3594 79.54171 541.2344 79.54171Q540.03125 79.54171 539.375 78.682335L539.3125 79.41671L538.3281 79.41671L538.3281 70.41671L539.40625 70.41671L539.40625 73.776085Q540.0625 72.963585 541.21875 72.963585Q542.375 72.963585 543.03125 73.838585Q543.6875 74.69796 543.6875 76.22921L543.6875 76.32296ZM542.6094 76.19796Q542.6094 75.088585 542.1719 74.494835Q541.75 73.88546 540.9531 73.88546Q539.875 73.88546 539.40625 74.869835L539.40625 77.619835Q539.90625 78.619835 540.9531 78.619835Q541.7344 78.619835 542.1719 78.01046Q542.6094 77.401085 542.6094 76.19796ZM550.6719 76.32296Q550.6719 77.76046 550.0156 78.651085Q549.3594 79.54171 548.21875 79.54171Q547.0625 79.54171 546.40625 78.807335L546.40625 81.85421L545.3281 81.85421L545.3281 73.07296L546.3125 73.07296L546.3594 73.776085Q547.03125 72.963585 548.2031 72.963585Q549.34375 72.963585 550.0 73.82296Q550.6719 74.682335 550.6719 76.213585L550.6719 76.32296ZM549.59375 76.19796Q549.59375 75.119835 549.125 74.51046Q548.6719 73.88546 547.875 73.88546Q546.8906 73.88546 546.40625 74.744835L546.40625 77.776085Q546.8906 78.651085 547.8906 78.651085Q548.6719 78.651085 549.125 78.04171Q549.59375 77.41671 549.59375 76.19796ZM556.0156 77.72921Q556.0156 77.29171 555.6719 77.057335Q555.34375 76.807335 554.5156 76.63546Q553.7031 76.463585 553.21875 76.213585Q552.7344 75.963585 552.5 75.63546Q552.28125 75.29171 552.28125 74.82296Q552.28125 74.04171 552.9375 73.51046Q553.59375 72.963585 554.625 72.963585Q555.7031 72.963585 556.3594 73.526085Q557.03125 74.07296 557.03125 74.932335L555.9531 74.932335Q555.9531 74.494835 555.5625 74.182335Q555.1875 73.85421 554.625 73.85421Q554.03125 73.85421 553.6875 74.119835Q553.3594 74.369835 553.3594 74.776085Q553.3594 75.16671 553.6719 75.369835Q553.9844 75.57296 554.7969 75.76046Q555.6094 75.932335 556.1094 76.182335Q556.6094 76.432335 556.84375 76.79171Q557.09375 77.151085 557.09375 77.651085Q557.09375 78.51046 556.40625 79.026085Q555.7344 79.54171 554.65625 79.54171Q553.8906 79.54171 553.2969 79.276085Q552.71875 78.994835 552.3906 78.51046Q552.0625 78.026085 552.0625 77.463585L553.1406 77.463585Q553.1719 78.01046 553.5781 78.338585Q553.9844 78.651085 554.65625 78.651085Q555.2656 78.651085 555.6406 78.401085Q556.0156 78.151085 556.0156 77.72921Z" fill-rule="nonzero"/><path fill="#000000" d="M27.784388 225.63646L27.690638 224.57396Q28.346888 224.49583 28.753138 224.21458Q29.159388 223.93333 29.425013 223.35521Q29.675013 222.76146 29.675013 222.02708Q29.675013 221.38646 29.487513 220.88646Q29.284388 220.38646 28.956263 220.15208Q28.612513 219.90208 28.221888 219.90208Q27.815638 219.90208 27.518763 220.13646Q27.206263 220.37083 27.003138 220.90208Q26.862513 221.26146 26.581263 222.44896Q26.300013 223.62083 26.050013 224.08958Q25.721888 224.71458 25.253138 225.01146Q24.768763 225.30833 24.175013 225.30833Q23.534388 225.30833 22.971888 224.94896Q22.393763 224.57396 22.112513 223.87083Q21.815638 223.15208 21.815638 222.29271Q21.815638 221.33958 22.128138 220.60521Q22.425013 219.87083 23.034388 219.48021Q23.628138 219.08958 24.378138 219.05833L24.456263 220.15208Q23.643763 220.24583 23.237513 220.76146Q22.815638 221.26146 22.815638 222.24583Q22.815638 223.27708 23.190638 223.74583Q23.565638 224.21458 24.096888 224.21458Q24.565638 224.21458 24.862513 223.88646Q25.159388 223.55833 25.471888 222.18333Q25.784388 220.79271 26.018763 220.27708Q26.378138 219.52708 26.909388 219.16771Q27.425013 218.80833 28.128138 218.80833Q28.815638 218.80833 29.425013 219.19896Q30.018763 219.58958 30.362513 220.32396Q30.690638 221.05833 30.690638 221.98021Q30.690638 223.15208 30.362513 223.94896Q30.018763 224.73021 29.331263 225.18333Q28.643763 225.62083 27.784388 225.63646ZM28.550013 213.13646L28.675013 212.04271Q29.628138 212.29271 30.159388 212.99583Q30.690638 213.69896 30.690638 214.77708Q30.690638 216.13646 29.846888 216.94896Q29.003138 217.74583 27.487513 217.74583Q25.925013 217.74583 25.065638 216.93333Q24.190638 216.12083 24.190638 214.83958Q24.190638 213.58958 25.034388 212.80833Q25.878138 212.01146 27.425013 212.01146Q27.518763 212.01146 27.706263 212.01146L27.706263 216.65208Q28.737513 216.58958 29.284388 216.07396Q29.815638 215.55833 29.815638 214.77708Q29.815638 214.19896 29.518763 213.79271Q29.206263 213.37083 28.550013 213.13646ZM26.846888 216.58958L26.846888 213.12083Q26.050013 213.18333 25.659388 213.51146Q25.050013 214.02708 25.050013 214.82396Q25.050013 215.55833 25.534388 216.05833Q26.018763 216.54271 26.846888 216.58958ZM28.268763 206.32396L28.409388 205.29271Q29.471888 205.46458 30.081263 206.16771Q30.690638 206.87083 30.690638 207.88646Q30.690638 209.16771 29.862513 209.94896Q29.018763 210.71458 27.456263 210.71458Q26.456263 210.71458 25.706263 210.38646Q24.940638 210.04271 24.565638 209.37083Q24.190638 208.68333 24.190638 207.87083Q24.190638 206.87083 24.706263 206.23021Q25.206263 205.57396 26.159388 205.38646L26.315638 206.41771Q25.690638 206.55833 25.378138 206.93333Q25.050013 207.30833 25.050013 207.83958Q25.050013 208.63646 25.628138 209.13646Q26.190638 209.63646 27.425013 209.63646Q28.690638 209.63646 29.253138 209.15208Q29.815638 208.66771 29.815638 207.90208Q29.815638 207.27708 29.440638 206.87083Q29.065638 206.44896 28.268763 206.32396ZM27.440638 204.77708Q25.706263 204.77708 24.878138 203.82396Q24.190638 203.02708 24.190638 201.87083Q24.190638 200.58958 25.034388 199.77708Q25.862513 198.94896 27.346888 198.94896Q28.550013 198.94896 29.237513 199.30833Q29.925013 199.66771 30.315638 200.37083Q30.690638 201.05833 30.690638 201.87083Q30.690638 203.16771 29.862513 203.98021Q29.018763 204.77708 27.440638 204.77708ZM27.440638 203.69896Q28.628138 203.69896 29.221888 203.18333Q29.815638 202.65208 29.815638 201.87083Q29.815638 201.07396 29.221888 200.55833Q28.628138 200.04271 27.409388 200.04271Q26.253138 200.04271 25.659388 200.57396Q25.065638 201.08958 25.065638 201.87083Q25.065638 202.65208 25.659388 203.18333Q26.237513 203.69896 27.440638 203.69896ZM30.550013 197.38646L24.331263 197.38646L24.331263 196.44896L25.206263 196.44896Q24.190638 195.76146 24.190638 194.46458Q24.190638 193.90208 24.393763 193.43333Q24.596888 192.94896 24.925013 192.71458Q25.253138 192.48021 25.690638 192.38646Q25.987513 192.33958 26.721888 192.33958L30.550013 192.33958L30.550013 193.38646L26.768763 193.38646Q26.112513 193.38646 25.800013 193.51146Q25.487513 193.63646 25.300013 193.94896Q25.096888 194.26146 25.096888 194.68333Q25.096888 195.35521 25.534388 195.85521Q25.956263 196.33958 27.143763 196.33958L30.550013 196.33958L30.550013 197.38646ZM30.550013 186.35521L29.768763 186.35521Q30.690638 186.94896 30.690638 188.08958Q30.690638 188.83958 30.284388 189.46458Q29.862513 190.08958 29.128138 190.43333Q28.393763 190.77708 27.440638 190.77708Q26.518763 190.77708 25.753138 190.46458Q24.987513 190.15208 24.596888 189.52708Q24.190638 188.90208 24.190638 188.13646Q24.190638 187.57396 24.425013 187.13646Q24.659388 186.69896 25.034388 186.41771L21.956263 186.41771L21.956263 185.37083L30.550013 185.37083L30.550013 186.35521ZM27.440638 189.68333Q28.643763 189.68333 29.237513 189.18333Q29.815638 188.68333 29.815638 187.99583Q29.815638 187.30833 29.253138 186.82396Q28.690638 186.33958 27.534388 186.33958Q26.253138 186.33958 25.659388 186.83958Q25.065638 187.32396 25.065638 188.04271Q25.065638 188.74583 25.643763 189.21458Q26.206263 189.68333 27.440638 189.68333ZM28.690638 183.80833L28.534388 182.77708Q29.159388 182.68333 29.487513 182.29271Q29.815638 181.88646 29.815638 181.15208Q29.815638 180.43333 29.534388 180.08958Q29.237513 179.73021 28.831263 179.73021Q28.471888 179.73021 28.268763 180.04271Q28.128138 180.26146 27.909388 181.12083Q27.612513 182.27708 27.409388 182.73021Q27.190638 183.16771 26.815638 183.40208Q26.440638 183.63646 25.971888 183.63646Q25.565638 183.63646 25.206263 183.44896Q24.846888 183.26146 24.612513 182.93333Q24.440638 182.68333 24.315638 182.26146Q24.190638 181.83958 24.190638 181.33958Q24.190638 180.62083 24.409388 180.07396Q24.612513 179.51146 24.971888 179.24583Q25.331263 178.98021 25.925013 178.88646L26.065638 179.91771Q25.596888 179.98021 25.331263 180.32396Q25.050013 180.65208 25.050013 181.27708Q25.050013 181.99583 25.300013 182.30833Q25.534388 182.62083 25.862513 182.62083Q26.065638 182.62083 26.221888 182.49583Q26.393763 182.35521 26.503138 182.08958Q26.565638 181.93333 26.768763 181.15208Q27.081263 180.02708 27.268763 179.58958Q27.456263 179.15208 27.815638 178.90208Q28.175013 178.65208 28.721888 178.65208Q29.253138 178.65208 29.721888 178.96458Q30.175013 179.26146 30.440638 179.83958Q30.690638 180.41771 30.690638 181.15208Q30.690638 182.37083 30.190638 183.01146Q29.675013 183.63646 28.690638 183.80833Z" fill-rule="nonzero"/><path fill="#000000" d="M63.05 345.21564Q63.05 343.6844 63.3625 342.7625Q63.675 341.825 64.28438 341.325Q64.90938 340.825 65.84688 340.825Q66.53438 340.825 67.05 341.10626Q67.58125 341.3875 67.925 341.91876Q68.26875 342.4344 68.45625 343.1844Q68.64375 343.9344 68.64375 345.21564Q68.64375 346.73126 68.33125 347.65314Q68.03438 348.575 67.40938 349.09064Q66.8 349.59064 65.84688 349.59064Q64.6125 349.59064 63.89375 348.7Q63.05 347.6375 63.05 345.21564ZM64.12813 345.21564Q64.12813 347.325 64.62813 348.02814Q65.12813 348.73126 65.84688 348.73126Q66.58125 348.73126 67.06563 348.02814Q67.56563 347.325 67.56563 345.21564Q67.56563 343.09064 67.06563 342.40314Q66.58125 341.7 65.83125 341.7Q65.1125 341.7 64.675 342.3094Q64.12813 343.09064 64.12813 345.21564Z" fill-rule="nonzero"/><path fill="#000000" d="M63.05 276.31668L64.15938 276.22293Q64.28438 277.03543 64.72188 277.44168Q65.175 277.84793 65.81563 277.84793Q66.56563 277.84793 67.09688 277.2698Q67.62813 276.69168 67.62813 275.75418Q67.62813 274.84793 67.1125 274.3323Q66.6125 273.80106 65.78438 273.80106Q65.28438 273.80106 64.8625 274.03543Q64.45625 274.2698 64.22188 274.62918L63.2375 274.50418L64.06563 270.09793L68.34688 270.09793L68.34688 271.09793L64.90938 271.09793L64.45625 273.41043Q65.22188 272.86356 66.06563 272.86356Q67.19063 272.86356 67.95625 273.6448Q68.7375 274.42606 68.7375 275.66043Q68.7375 276.81668 68.06563 277.67606Q67.2375 278.7073 65.81563 278.7073Q64.64375 278.7073 63.89375 278.05106Q63.159374 277.3948 63.05 276.31668Z" fill-rule="nonzero"/><path fill="#000000" d="M60.01875 207.68333L58.971874 207.68333L58.971874 200.96458Q58.58125 201.32396 57.95625 201.69896Q57.346874 202.05833 56.8625 202.23021L56.8625 201.21458Q57.7375 200.79271 58.39375 200.21458Q59.065624 199.62083 59.346874 199.05833L60.01875 199.05833L60.01875 207.68333ZM63.05 203.44896Q63.05 201.91771 63.3625 200.99583Q63.675 200.05833 64.28438 199.55833Q64.90938 199.05833 65.84688 199.05833Q66.53438 199.05833 67.05 199.33958Q67.58125 199.62083 67.925 200.15208Q68.26875 200.66771 68.45625 201.41771Q68.64375 202.16771 68.64375 203.44896Q68.64375 204.96458 68.33125 205.88646Q68.03438 206.80833 67.40938 207.32396Q66.8 207.82396 65.84688 207.82396Q64.6125 207.82396 63.89375 206.93333Q63.05 205.87083 63.05 203.44896ZM64.12813 203.44896Q64.12813 205.55833 64.62813 206.26146Q65.12813 206.96458 65.84688 206.96458Q66.58125 206.96458 67.06563 206.26146Q67.56563 205.55833 67.56563 203.44896Q67.56563 201.32396 67.06563 200.63646Q66.58125 199.93333 65.83125 199.93333Q65.1125 199.93333 64.675 200.54271Q64.12813 201.32396 64.12813 203.44896Z" fill-rule="nonzero"/><path fill="#000000" d="M60.01875 136.8L58.971874 136.8L58.971874 130.08125Q58.58125 130.44063 57.95625 130.81563Q57.346874 131.175 56.8625 131.34688L56.8625 130.33125Q57.7375 129.90938 58.39375 129.33125Q59.065624 128.7375 59.346874 128.175L60.01875 128.175L60.01875 136.8ZM63.05 134.55L64.15938 134.45625Q64.28438 135.26875 64.72188 135.675Q65.175 136.08125 65.81563 136.08125Q66.56563 136.08125 67.09688 135.50313Q67.62813 134.925 67.62813 133.9875Q67.62813 133.08125 67.1125 132.56563Q66.6125 132.03438 65.78438 132.03438Q65.28438 132.03438 64.8625 132.26875Q64.45625 132.50313 64.22188 132.8625L63.2375 132.7375L64.06563 128.33125L68.34688 128.33125L68.34688 129.33125L64.90938 129.33125L64.45625 131.64375Q65.22188 131.09688 66.06563 131.09688Q67.19063 131.09688 67.95625 131.87813Q68.7375 132.65938 68.7375 133.89375Q68.7375 135.05 68.06563 135.90938Q67.2375 136.94063 65.81563 136.94063Q64.64375 136.94063 63.89375 136.28438Q63.159374 135.62813 63.05 134.55Z" fill-rule="nonzero"/><path fill="#000000" d="M61.596874 64.90104L61.596874 65.916664L55.909374 65.916664Q55.909374 65.541664 56.034374 65.18229Q56.253124 64.604164 56.721874 64.041664Q57.20625 63.479164 58.1125 62.74479Q59.51875 61.58854 60.003124 60.916664Q60.503124 60.24479 60.503124 59.65104Q60.503124 59.02604 60.05 58.604164Q59.596874 58.166664 58.878124 58.166664Q58.1125 58.166664 57.659374 58.61979Q57.20625 59.072914 57.190624 59.885414L56.1125 59.77604Q56.221874 58.55729 56.940624 57.93229Q57.675 57.291664 58.909374 57.291664Q60.14375 57.291664 60.8625 57.979164Q61.58125 58.666664 61.58125 59.68229Q61.58125 60.197914 61.3625 60.697914Q61.159374 61.18229 60.659374 61.74479Q60.175 62.291664 59.05 63.24479Q58.096874 64.041664 57.815624 64.33854Q57.55 64.61979 57.378124 64.90104L61.596874 64.90104ZM63.05 61.68229Q63.05 60.15104 63.3625 59.229164Q63.675 58.291664 64.28438 57.791664Q64.90938 57.291664 65.84688 57.291664Q66.53438 57.291664 67.05 57.572914Q67.58125 57.854164 67.925 58.385414Q68.26875 58.90104 68.45625 59.65104Q68.64375 60.40104 68.64375 61.68229Q68.64375 63.197914 68.33125 64.11979Q68.03438 65.041664 67.40938 65.55729Q66.8 66.05729 65.84688 66.05729Q64.6125 66.05729 63.89375 65.166664Q63.05 64.104164 63.05 61.68229ZM64.12813 61.68229Q64.12813 63.791664 64.62813 64.49479Q65.12813 65.197914 65.84688 65.197914Q66.58125 65.197914 67.06563 64.49479Q67.56563 63.791664 67.56563 61.68229Q67.56563 59.55729 67.06563 58.86979Q66.58125 58.166664 65.83125 58.166664Q65.1125 58.166664 64.675 58.77604Q64.12813 59.55729 64.12813 61.68229Z" fill-rule="nonzero"/><path fill="#757575" d="M20.128124 37.55L20.128124 23.2375L30.4875 23.2375L30.4875 24.925L22.034374 24.925L22.034374 29.3L29.940624 29.3L29.940624 30.9875L22.034374 30.9875L22.034374 35.8625L30.815624 35.8625L30.815624 37.55L20.128124 37.55ZM33.284374 37.55L33.284374 28.55L31.7375 28.55L31.7375 27.175L33.284374 27.175L33.284374 26.08125Q33.284374 25.034374 33.471874 24.51875Q33.721874 23.83125 34.3625 23.409374Q35.003124 22.9875 36.159374 22.9875Q36.909374 22.9875 37.8 23.159374L37.534374 24.690624Q36.9875 24.596874 36.503124 24.596874Q35.70625 24.596874 35.3625 24.940624Q35.034374 25.284374 35.034374 26.221874L35.034374 27.175L37.065624 27.175L37.065624 28.55L35.034374 28.55L35.034374 37.55L33.284374 37.55ZM39.284374 37.55L39.284374 28.55L37.7375 28.55L37.7375 27.175L39.284374 27.175L39.284374 26.08125Q39.284374 25.034374 39.471874 24.51875Q39.721874 23.83125 40.3625 23.409374Q41.003124 22.9875 42.159374 22.9875Q42.909374 22.9875 43.8 23.159374L43.534374 24.690624Q42.9875 24.596874 42.503124 24.596874Q41.70625 24.596874 41.3625 24.940624Q41.034374 25.284374 41.034374 26.221874L41.034374 27.175L43.065624 27.175L43.065624 28.55L41.034374 28.55L41.034374 37.55L39.284374 37.55ZM51.971874 34.20625L53.784374 34.440624Q53.3625 36.01875 52.190624 36.909374Q51.034374 37.784374 49.221874 37.784374Q46.95625 37.784374 45.6125 36.39375Q44.284374 34.9875 44.284374 32.45625Q44.284374 29.83125 45.628124 28.39375Q46.971874 26.940624 49.128124 26.940624Q51.20625 26.940624 52.51875 28.3625Q53.846874 29.76875 53.846874 32.346874Q53.846874 32.503124 53.83125 32.815624L46.096874 32.815624Q46.190624 34.51875 47.065624 35.425Q47.940624 36.33125 49.2375 36.33125Q50.20625 36.33125 50.878124 35.83125Q51.565624 35.315624 51.971874 34.20625ZM46.190624 31.3625L51.9875 31.3625Q51.878124 30.065624 51.33125 29.409374Q50.4875 28.39375 49.14375 28.39375Q47.940624 28.39375 47.1125 29.20625Q46.284374 30.003124 46.190624 31.3625ZM62.64375 33.753124L64.3625 33.971874Q64.08125 35.76875 62.909374 36.784374Q61.753124 37.784374 60.05 37.784374Q57.925 37.784374 56.628124 36.39375Q55.33125 35.003124 55.33125 32.409374Q55.33125 30.721874 55.878124 29.471874Q56.440624 28.20625 57.58125 27.58125Q58.721874 26.940624 60.065624 26.940624Q61.753124 26.940624 62.815624 27.8Q63.89375 28.659374 64.20625 30.221874L62.4875 30.4875Q62.253124 29.440624 61.628124 28.925Q61.003124 28.39375 60.128124 28.39375Q58.8 28.39375 57.971874 29.346874Q57.14375 30.3 57.14375 32.346874Q57.14375 34.440624 57.940624 35.39375Q58.7375 36.33125 60.034374 36.33125Q61.065624 36.33125 61.753124 35.70625Q62.45625 35.065624 62.64375 33.753124ZM69.70625 35.971874L69.95625 37.534374Q69.22188 37.690624 68.62813 37.690624Q67.675 37.690624 67.14375 37.39375Q66.62813 37.08125 66.40938 36.596874Q66.19063 36.096874 66.19063 34.51875L66.19063 28.55L64.90938 28.55L64.90938 27.175L66.19063 27.175L66.19063 24.6125L67.94063 23.55L67.94063 27.175L69.70625 27.175L69.70625 28.55L67.94063 28.55L67.94063 34.6125Q67.94063 35.3625 68.03438 35.58125Q68.12813 35.784374 68.33125 35.925Q68.55 36.05 68.94063 36.05Q69.22188 36.05 69.70625 35.971874ZM77.22188 32.3625Q77.22188 29.4875 78.81563 28.096874Q80.15938 26.940624 82.08125 26.940624Q84.22188 26.940624 85.56563 28.346874Q86.925 29.753124 86.925 32.221874Q86.925 34.221874 86.33125 35.378124Q85.7375 36.51875 84.58125 37.159374Q83.44063 37.784374 82.08125 37.784374Q79.89375 37.784374 78.55 36.39375Q77.22188 34.9875 77.22188 32.3625ZM79.01875 32.3625Q79.01875 34.3625 79.87813 35.346874Q80.75313 36.33125 82.08125 36.33125Q83.39375 36.33125 84.25313 35.346874Q85.12813 34.346874 85.12813 32.3Q85.12813 30.378124 84.25313 29.39375Q83.37813 28.39375 82.08125 28.39375Q80.75313 28.39375 79.87813 29.39375Q79.01875 30.378124 79.01875 32.3625ZM89.28438 37.55L89.28438 28.55L87.7375 28.55L87.7375 27.175L89.28438 27.175L89.28438 26.08125Q89.28438 25.034374 89.47188 24.51875Q89.72188 23.83125 90.3625 23.409374Q91.00313 22.9875 92.15938 22.9875Q92.90938 22.9875 93.8 23.159374L93.53438 24.690624Q92.9875 24.596874 92.50313 24.596874Q91.70625 24.596874 91.3625 24.940624Q91.03438 25.284374 91.03438 26.221874L91.03438 27.175L93.06563 27.175L93.06563 28.55L91.03438 28.55L91.03438 37.55L89.28438 37.55ZM100.83125 37.55L100.83125 23.2375L102.58125 23.2375L102.58125 37.55L100.83125 37.55ZM104.22188 32.3625Q104.22188 29.4875 105.81563 28.096874Q107.15938 26.940624 109.08125 26.940624Q111.22188 26.940624 112.56563 28.346874Q113.925 29.753124 113.925 32.221874Q113.925 34.221874 113.33125 35.378124Q112.7375 36.51875 111.58125 37.159374Q110.44063 37.784374 109.08125 37.784374Q106.89375 37.784374 105.55 36.39375Q104.22188 34.9875 104.22188 32.3625ZM106.01875 32.3625Q106.01875 34.3625 106.87813 35.346874Q107.75313 36.33125 109.08125 36.33125Q110.39375 36.33125 111.25313 35.346874Q112.12813 34.346874 112.12813 32.3Q112.12813 30.378124 111.25313 29.39375Q110.37813 28.39375 109.08125 28.39375Q107.75313 28.39375 106.87813 29.39375Q106.01875 30.378124 106.01875 32.3625ZM117.78438 37.55L114.6125 27.175L116.425 27.175L118.08125 33.159374L118.69063 35.39375Q118.7375 35.221874 119.22188 33.253124L120.87813 27.175L122.69063 27.175L124.2375 33.190624L124.75313 35.175L125.34688 33.175L127.12813 27.175L128.83125 27.175L125.59688 37.55L123.76875 37.55L122.1125 31.33125L121.72188 29.565624L119.6125 37.55L117.78438 37.55ZM137.97188 34.20625L139.78438 34.440624Q139.3625 36.01875 138.19063 36.909374Q137.03438 37.784374 135.22188 37.784374Q132.95625 37.784374 131.6125 36.39375Q130.28438 34.9875 130.28438 32.45625Q130.28438 29.83125 131.62813 28.39375Q132.97188 26.940624 135.12813 26.940624Q137.20625 26.940624 138.51875 28.3625Q139.84688 29.76875 139.84688 32.346874Q139.84688 32.503124 139.83125 32.815624L132.09688 32.815624Q132.19063 34.51875 133.06563 35.425Q133.94063 36.33125 135.2375 36.33125Q136.20625 36.33125 136.87813 35.83125Q137.56563 35.315624 137.97188 34.20625ZM132.19063 31.3625L137.9875 31.3625Q137.87813 30.065624 137.33125 29.409374Q136.4875 28.39375 135.14375 28.39375Q133.94063 28.39375 133.1125 29.20625Q132.28438 30.003124 132.19063 31.3625ZM141.84688 37.55L141.84688 27.175L143.425 27.175L143.425 28.753124Q144.03438 27.64375 144.55 27.3Q145.06563 26.940624 145.675 26.940624Q146.56563 26.940624 147.4875 27.503124L146.87813 29.14375Q146.2375 28.753124 145.59688 28.753124Q145.01875 28.753124 144.55 29.1125Q144.09688 29.45625 143.89375 30.065624Q143.6125 31.003124 143.6125 32.1125L143.6125 37.55L141.84688 37.55ZM148.87813 25.253124L148.87813 23.2375L150.64375 23.2375L150.64375 25.253124L148.87813 25.253124ZM148.87813 37.55L148.87813 27.175L150.64375 27.175L150.64375 37.55L148.87813 37.55ZM152.8625 37.55L152.8625 27.175L154.45625 27.175L154.45625 28.659374Q155.59688 26.940624 157.75313 26.940624Q158.69063 26.940624 159.47188 27.284374Q160.26875 27.6125 160.65938 28.159374Q161.05 28.70625 161.20625 29.45625Q161.3 29.95625 161.3 31.175L161.3 37.55L159.53438 37.55L159.53438 31.2375Q159.53438 30.159374 159.33125 29.628124Q159.12813 29.096874 158.59688 28.784374Q158.08125 28.471874 157.37813 28.471874Q156.25313 28.471874 155.44063 29.190624Q154.62813 29.89375 154.62813 31.878124L154.62813 37.55L152.8625 37.55ZM162.55 38.409374L164.25313 38.659374Q164.3625 39.45625 164.84688 39.815624Q165.50313 40.3 166.64375 40.3Q167.8625 40.3 168.51875 39.815624Q169.19063 39.33125 169.425 38.45625Q169.56563 37.909374 169.55 36.190624Q168.39375 37.55 166.675 37.55Q164.53438 37.55 163.3625 36.003124Q162.19063 34.45625 162.19063 32.3Q162.19063 30.815624 162.72188 29.565624Q163.26875 28.315624 164.28438 27.628124Q165.31563 26.940624 166.69063 26.940624Q168.51875 26.940624 169.72188 28.425L169.72188 27.175L171.33125 27.175L171.33125 36.14375Q171.33125 38.565624 170.83125 39.565624Q170.34688 40.58125 169.26875 41.159374Q168.20625 41.753124 166.64375 41.753124Q164.8 41.753124 163.64375 40.925Q162.50313 40.096874 162.55 38.409374ZM164.00313 32.175Q164.00313 34.221874 164.81563 35.159374Q165.62813 36.096874 166.84688 36.096874Q168.05 36.096874 168.8625 35.159374Q169.69063 34.221874 169.69063 32.2375Q169.69063 30.33125 168.84688 29.3625Q168.00313 28.39375 166.81563 28.39375Q165.64375 28.39375 164.81563 29.346874Q164.00313 30.3 164.00313 32.175ZM181.4875 37.55L179.8625 37.55L179.8625 23.2375L181.6125 23.2375L181.6125 28.346874Q182.7375 26.940624 184.45625 26.940624Q185.40938 26.940624 186.26875 27.33125Q187.12813 27.721874 187.675 28.425Q188.22188 29.1125 188.53438 30.096874Q188.84688 31.08125 188.84688 32.20625Q188.84688 34.878124 187.53438 36.33125Q186.22188 37.784374 184.37813 37.784374Q182.53438 37.784374 181.4875 36.253124L181.4875 37.55ZM181.47188 32.284374Q181.47188 34.14375 181.97188 34.9875Q182.81563 36.33125 184.22188 36.33125Q185.37813 36.33125 186.20625 35.33125Q187.05 34.33125 187.05 32.346874Q187.05 30.315624 186.2375 29.3625Q185.44063 28.39375 184.3 28.39375Q183.14375 28.39375 182.3 29.39375Q181.47188 30.39375 181.47188 32.284374ZM197.64375 36.26875Q196.65938 37.096874 195.75313 37.440624Q194.84688 37.784374 193.81563 37.784374Q192.1125 37.784374 191.19063 36.95625Q190.26875 36.1125 190.26875 34.815624Q190.26875 34.05 190.6125 33.425Q190.97188 32.8 191.53438 32.425Q192.09688 32.034374 192.8 31.83125Q193.31563 31.70625 194.3625 31.565624Q196.4875 31.315624 197.4875 30.971874Q197.50313 30.6125 197.50313 30.503124Q197.50313 29.440624 197.00313 28.9875Q196.33125 28.39375 195.00313 28.39375Q193.75313 28.39375 193.15938 28.83125Q192.58125 29.26875 192.3 30.378124L190.58125 30.14375Q190.81563 29.034374 191.34688 28.3625Q191.87813 27.675 192.89375 27.315624Q193.90938 26.940624 195.25313 26.940624Q196.58125 26.940624 197.40938 27.253124Q198.2375 27.565624 198.62813 28.05Q199.01875 28.51875 199.175 29.2375Q199.26875 29.690624 199.26875 30.8625L199.26875 33.20625Q199.26875 35.659374 199.37813 36.315624Q199.4875 36.95625 199.83125 37.55L197.9875 37.55Q197.72188 37.003124 197.64375 36.26875ZM197.4875 32.346874Q196.53438 32.7375 194.6125 33.003124Q193.53438 33.159374 193.08125 33.3625Q192.64375 33.55 192.39375 33.925Q192.14375 34.3 192.14375 34.76875Q192.14375 35.471874 192.675 35.940624Q193.20625 36.409374 194.2375 36.409374Q195.25313 36.409374 196.03438 35.971874Q196.83125 35.51875 197.20625 34.753124Q197.4875 34.14375 197.4875 32.9875L197.4875 32.346874ZM201.8625 37.55L201.8625 27.175L203.45625 27.175L203.45625 28.659374Q204.59688 26.940624 206.75313 26.940624Q207.69063 26.940624 208.47188 27.284374Q209.26875 27.6125 209.65938 28.159374Q210.05 28.70625 210.20625 29.45625Q210.3 29.95625 210.3 31.175L210.3 37.55L208.53438 37.55L208.53438 31.2375Q208.53438 30.159374 208.33125 29.628124Q208.12813 29.096874 207.59688 28.784374Q207.08125 28.471874 206.37813 28.471874Q205.25313 28.471874 204.44063 29.190624Q203.62813 29.89375 203.62813 31.878124L203.62813 37.55L201.8625 37.55ZM218.59688 37.55L218.59688 36.2375Q217.6125 37.784374 215.69063 37.784374Q214.45625 37.784374 213.40938 37.096874Q212.37813 36.409374 211.8 35.190624Q211.2375 33.971874 211.2375 32.378124Q211.2375 30.815624 211.75313 29.55Q212.26875 28.284374 213.3 27.6125Q214.34688 26.940624 215.6125 26.940624Q216.55 26.940624 217.28438 27.346874Q218.01875 27.7375 218.4875 28.3625L218.4875 23.2375L220.22188 23.2375L220.22188 37.55L218.59688 37.55ZM213.03438 32.378124Q213.03438 34.3625 213.87813 35.346874Q214.72188 36.33125 215.8625 36.33125Q217.01875 36.33125 217.81563 35.39375Q218.62813 34.45625 218.62813 32.51875Q218.62813 30.39375 217.8 29.39375Q216.9875 28.39375 215.78438 28.39375Q214.6125 28.39375 213.81563 29.3625Q213.03438 30.315624 213.03438 32.378124ZM224.78438 37.55L221.6125 27.175L223.425 27.175L225.08125 33.159374L225.69063 35.39375Q225.7375 35.221874 226.22188 33.253124L227.87813 27.175L229.69063 27.175L231.2375 33.190624L231.75313 35.175L232.34688 33.175L234.12813 27.175L235.83125 27.175L232.59688 37.55L230.76875 37.55L229.1125 31.33125L228.72188 29.565624L226.6125 37.55L224.78438 37.55ZM237.87813 25.253124L237.87813 23.2375L239.64375 23.2375L239.64375 25.253124L237.87813 25.253124ZM237.87813 37.55L237.87813 27.175L239.64375 27.175L239.64375 37.55L237.87813 37.55ZM248.59688 37.55L248.59688 36.2375Q247.6125 37.784374 245.69063 37.784374Q244.45625 37.784374 243.40938 37.096874Q242.37813 36.409374 241.8 35.190624Q241.2375 33.971874 241.2375 32.378124Q241.2375 30.815624 241.75313 29.55Q242.26875 28.284374 243.3 27.6125Q244.34688 26.940624 245.6125 26.940624Q246.55 26.940624 247.28438 27.346874Q248.01875 27.7375 248.4875 28.3625L248.4875 23.2375L250.22188 23.2375L250.22188 37.55L248.59688 37.55ZM243.03438 32.378124Q243.03438 34.3625 243.87813 35.346874Q244.72188 36.33125 245.8625 36.33125Q247.01875 36.33125 247.81563 35.39375Q248.62813 34.45625 248.62813 32.51875Q248.62813 30.39375 247.8 29.39375Q246.9875 28.39375 245.78438 28.39375Q244.6125 28.39375 243.81563 29.3625Q243.03438 30.315624 243.03438 32.378124ZM256.70624 35.971874L256.95624 37.534374Q256.22186 37.690624 255.62813 37.690624Q254.675 37.690624 254.14375 37.39375Q253.62813 37.08125 253.40938 36.596874Q253.19063 36.096874 253.19063 34.51875L253.19063 28.55L251.90938 28.55L251.90938 27.175L253.19063 27.175L253.19063 24.6125L254.94063 23.55L254.94063 27.175L256.70624 27.175L256.70624 28.55L254.94063 28.55L254.94063 34.6125Q254.94063 35.3625 255.03438 35.58125Q255.12813 35.784374 255.33125 35.925Q255.55 36.05 255.94063 36.05Q256.22186 36.05 256.70624 35.971874ZM258.8625 37.55L258.8625 23.2375L260.6281 23.2375L260.6281 28.3625Q261.8625 26.940624 263.7375 26.940624Q264.8781 26.940624 265.72186 27.39375Q266.58124 27.846874 266.9406 28.659374Q267.3156 29.45625 267.3156 30.971874L267.3156 37.55L265.5656 37.55L265.5656 30.971874Q265.5656 29.659374 264.9875 29.065624Q264.40936 28.45625 263.3781 28.45625Q262.59686 28.45625 261.89374 28.8625Q261.20624 29.26875 260.90936 29.971874Q260.6281 30.659374 260.6281 31.878124L260.6281 37.55L258.8625 37.55ZM274.22186 32.3625Q274.22186 29.4875 275.8156 28.096874Q277.15936 26.940624 279.08124 26.940624Q281.22186 26.940624 282.5656 28.346874Q283.925 29.753124 283.925 32.221874Q283.925 34.221874 283.33124 35.378124Q282.7375 36.51875 281.58124 37.159374Q280.4406 37.784374 279.08124 37.784374Q276.89374 37.784374 275.55 36.39375Q274.22186 34.9875 274.22186 32.3625ZM276.01874 32.3625Q276.01874 34.3625 276.8781 35.346874Q277.7531 36.33125 279.08124 36.33125Q280.39374 36.33125 281.2531 35.346874Q282.1281 34.346874 282.1281 32.3Q282.1281 30.378124 281.2531 29.39375Q280.3781 28.39375 279.08124 28.39375Q277.7531 28.39375 276.8781 29.39375Q276.01874 30.378124 276.01874 32.3625ZM285.8625 37.55L285.8625 27.175L287.45624 27.175L287.45624 28.659374Q288.59686 26.940624 290.7531 26.940624Q291.6906 26.940624 292.47186 27.284374Q293.26874 27.6125 293.65936 28.159374Q294.05 28.70625 294.20624 29.45625Q294.3 29.95625 294.3 31.175L294.3 37.55L292.53436 37.55L292.53436 31.2375Q292.53436 30.159374 292.33124 29.628124Q292.1281 29.096874 291.59686 28.784374Q291.08124 28.471874 290.3781 28.471874Q289.2531 28.471874 288.4406 29.190624Q287.6281 29.89375 287.6281 31.878124L287.6281 37.55L285.8625 37.55ZM302.15936 37.55L302.15936 23.2375L304.05 23.2375L304.05 29.1125L311.4875 29.1125L311.4875 23.2375L313.3781 23.2375L313.3781 37.55L311.4875 37.55L311.4875 30.8L304.05 30.8L304.05 37.55L302.15936 37.55ZM318.7375 37.55L318.7375 24.925L314.01874 24.925L314.01874 23.2375L325.3625 23.2375L325.3625 24.925L320.6281 24.925L320.6281 37.55L318.7375 37.55ZM330.7375 37.55L330.7375 24.925L326.01874 24.925L326.01874 23.2375L337.3625 23.2375L337.3625 24.925L332.6281 24.925L332.6281 37.55L330.7375 37.55ZM339.09686 37.55L339.09686 23.2375L344.4875 23.2375Q345.925 23.2375 346.675 23.3625Q347.72186 23.55 348.4406 24.05Q349.15936 24.534374 349.58124 25.425Q350.01874 26.315624 350.01874 27.378124Q350.01874 29.20625 348.84686 30.471874Q347.6906 31.721874 344.65936 31.721874L340.9875 31.721874L340.9875 37.55L339.09686 37.55ZM340.9875 30.034374L344.6906 30.034374Q346.51874 30.034374 347.28436 29.3625Q348.0656 28.675 348.0656 27.425Q348.0656 26.534374 347.6125 25.89375Q347.15936 25.253124 346.425 25.05Q345.9406 24.925 344.64374 24.925L340.9875 24.925L340.9875 30.034374ZM350.55 37.8L354.70624 22.9875L356.1125 22.9875L351.97186 37.8L350.55 37.8ZM366.6125 35.8625L366.6125 37.55L357.15936 37.55Q357.14374 36.909374 357.3625 36.33125Q357.72186 35.3625 358.51874 34.425Q359.3156 33.4875 360.8156 32.253124Q363.15936 30.346874 363.97186 29.2375Q364.8 28.1125 364.8 27.1125Q364.8 26.065624 364.05 25.346874Q363.3 24.628124 362.09686 24.628124Q360.83124 24.628124 360.0656 25.39375Q359.3 26.159374 359.3 27.503124L357.4875 27.315624Q357.675 25.3 358.8781 24.2375Q360.09686 23.175 362.14374 23.175Q364.1906 23.175 365.39374 24.315624Q366.59686 25.45625 366.59686 27.14375Q366.59686 28.003124 366.2375 28.846874Q365.89374 29.675 365.08124 30.596874Q364.26874 31.503124 362.3781 33.1125Q360.78436 34.440624 360.33124 34.909374Q359.89374 35.378124 359.59686 35.8625L366.6125 35.8625ZM381.59686 37.55L381.59686 36.2375Q380.6125 37.784374 378.6906 37.784374Q377.45624 37.784374 376.40936 37.096874Q375.3781 36.409374 374.8 35.190624Q374.2375 33.971874 374.2375 32.378124Q374.2375 30.815624 374.7531 29.55Q375.26874 28.284374 376.3 27.6125Q377.34686 26.940624 378.6125 26.940624Q379.55 26.940624 380.28436 27.346874Q381.01874 27.7375 381.4875 28.3625L381.4875 23.2375L383.22186 23.2375L383.22186 37.55L381.59686 37.55ZM376.03436 32.378124Q376.03436 34.3625 376.8781 35.346874Q377.72186 36.33125 378.8625 36.33125Q380.01874 36.33125 380.8156 35.39375Q381.6281 34.45625 381.6281 32.51875Q381.6281 30.39375 380.8 29.39375Q379.9875 28.39375 378.78436 28.39375Q377.6125 28.39375 376.8156 29.3625Q376.03436 30.315624 376.03436 32.378124ZM385.22186 32.3625Q385.22186 29.4875 386.8156 28.096874Q388.15936 26.940624 390.08124 26.940624Q392.22186 26.940624 393.5656 28.346874Q394.925 29.753124 394.925 32.221874Q394.925 34.221874 394.33124 35.378124Q393.7375 36.51875 392.58124 37.159374Q391.4406 37.784374 390.08124 37.784374Q387.89374 37.784374 386.55 36.39375Q385.22186 34.9875 385.22186 32.3625ZM387.01874 32.3625Q387.01874 34.3625 387.8781 35.346874Q388.7531 36.33125 390.08124 36.33125Q391.39374 36.33125 392.2531 35.346874Q393.1281 34.346874 393.1281 32.3Q393.1281 30.378124 392.2531 29.39375Q391.3781 28.39375 390.08124 28.39375Q388.7531 28.39375 387.8781 29.39375Q387.01874 30.378124 387.01874 32.3625ZM398.78436 37.55L395.6125 27.175L397.425 27.175L399.08124 33.159374L399.6906 35.39375Q399.7375 35.221874 400.22186 33.253124L401.8781 27.175L403.6906 27.175L405.2375 33.190624L405.7531 35.175L406.34686 33.175L408.1281 27.175L409.83124 27.175L406.59686 37.55L404.76874 37.55L403.1125 31.33125L402.72186 29.565624L400.6125 37.55L398.78436 37.55ZM411.8625 37.55L411.8625 27.175L413.45624 27.175L413.45624 28.659374Q414.59686 26.940624 416.7531 26.940624Q417.6906 26.940624 418.47186 27.284374Q419.26874 27.6125 419.65936 28.159374Q420.05 28.70625 420.20624 29.45625Q420.3 29.95625 420.3 31.175L420.3 37.55L418.53436 37.55L418.53436 31.2375Q418.53436 30.159374 418.33124 29.628124Q418.1281 29.096874 417.59686 28.784374Q417.08124 28.471874 416.3781 28.471874Q415.2531 28.471874 414.4406 29.190624Q413.6281 29.89375 413.6281 31.878124L413.6281 37.55L411.8625 37.55ZM421.83124 37.55L421.83124 23.2375L423.58124 23.2375L423.58124 37.55L421.83124 37.55ZM425.22186 32.3625Q425.22186 29.4875 426.8156 28.096874Q428.15936 26.940624 430.08124 26.940624Q432.22186 26.940624 433.5656 28.346874Q434.925 29.753124 434.925 32.221874Q434.925 34.221874 434.33124 35.378124Q433.7375 36.51875 432.58124 37.159374Q431.4406 37.784374 430.08124 37.784374Q427.89374 37.784374 426.55 36.39375Q425.22186 34.9875 425.22186 32.3625ZM427.01874 32.3625Q427.01874 34.3625 427.8781 35.346874Q428.7531 36.33125 430.08124 36.33125Q431.39374 36.33125 432.2531 35.346874Q433.1281 34.346874 433.1281 32.3Q433.1281 30.378124 432.2531 29.39375Q431.3781 28.39375 430.08124 28.39375Q428.7531 28.39375 427.8781 29.39375Q427.01874 30.378124 427.01874 32.3625ZM443.64374 36.26875Q442.65936 37.096874 441.7531 37.440624Q440.84686 37.784374 439.8156 37.784374Q438.1125 37.784374 437.1906 36.95625Q436.26874 36.1125 436.26874 34.815624Q436.26874 34.05 436.6125 33.425Q436.97186 32.8 437.53436 32.425Q438.09686 32.034374 438.8 31.83125Q439.3156 31.70625 440.3625 31.565624Q442.4875 31.315624 443.4875 30.971874Q443.5031 30.6125 443.5031 30.503124Q443.5031 29.440624 443.0031 28.9875Q442.33124 28.39375 441.0031 28.39375Q439.7531 28.39375 439.15936 28.83125Q438.58124 29.26875 438.3 30.378124L436.58124 30.14375Q436.8156 29.034374 437.34686 28.3625Q437.8781 27.675 438.89374 27.315624Q439.90936 26.940624 441.2531 26.940624Q442.58124 26.940624 443.40936 27.253124Q444.2375 27.565624 444.6281 28.05Q445.01874 28.51875 445.175 29.2375Q445.26874 29.690624 445.26874 30.8625L445.26874 33.20625Q445.26874 35.659374 445.3781 36.315624Q445.4875 36.95625 445.83124 37.55L443.9875 37.55Q443.72186 37.003124 443.64374 36.26875ZM443.4875 32.346874Q442.53436 32.7375 440.6125 33.003124Q439.53436 33.159374 439.08124 33.3625Q438.64374 33.55 438.39374 33.925Q438.14374 34.3 438.14374 34.76875Q438.14374 35.471874 438.675 35.940624Q439.20624 36.409374 440.2375 36.409374Q441.2531 36.409374 442.03436 35.971874Q442.83124 35.51875 443.20624 34.753124Q443.4875 34.14375 443.4875 32.9875L443.4875 32.346874ZM454.59686 37.55L454.59686 36.2375Q453.6125 37.784374 451.6906 37.784374Q450.45624 37.784374 449.40936 37.096874Q448.3781 36.409374 447.8 35.190624Q447.2375 33.971874 447.2375 32.378124Q447.2375 30.815624 447.7531 29.55Q448.26874 28.284374 449.3 27.6125Q450.34686 26.940624 451.6125 26.940624Q452.55 26.940624 453.28436 27.346874Q454.01874 27.7375 454.4875 28.3625L454.4875 23.2375L456.22186 23.2375L456.22186 37.55L454.59686 37.55ZM449.03436 32.378124Q449.03436 34.3625 449.8781 35.346874Q450.72186 36.33125 451.8625 36.33125Q453.01874 36.33125 453.8156 35.39375Q454.6281 34.45625 454.6281 32.51875Q454.6281 30.39375 453.8 29.39375Q452.9875 28.39375 451.78436 28.39375Q450.6125 28.39375 449.8156 29.3625Q449.03436 30.315624 449.03436 32.378124ZM458.8781 25.253124L458.8781 23.2375L460.64374 23.2375L460.64374 25.253124L458.8781 25.253124ZM458.8781 37.55L458.8781 27.175L460.64374 27.175L460.64374 37.55L458.8781 37.55ZM462.8625 37.55L462.8625 27.175L464.45624 27.175L464.45624 28.659374Q465.59686 26.940624 467.7531 26.940624Q468.6906 26.940624 469.47186 27.284374Q470.26874 27.6125 470.65936 28.159374Q471.05 28.70625 471.20624 29.45625Q471.3 29.95625 471.3 31.175L471.3 37.55L469.53436 37.55L469.53436 31.2375Q469.53436 30.159374 469.33124 29.628124Q469.1281 29.096874 468.59686 28.784374Q468.08124 28.471874 467.3781 28.471874Q466.2531 28.471874 465.4406 29.190624Q464.6281 29.89375 464.6281 31.878124L464.6281 37.55L462.8625 37.55ZM472.55 38.409374L474.2531 38.659374Q474.3625 39.45625 474.84686 39.815624Q475.5031 40.3 476.64374 40.3Q477.8625 40.3 478.51874 39.815624Q479.1906 39.33125 479.425 38.45625Q479.5656 37.909374 479.55 36.190624Q478.39374 37.55 476.675 37.55Q474.53436 37.55 473.3625 36.003124Q472.1906 34.45625 472.1906 32.3Q472.1906 30.815624 472.72186 29.565624Q473.26874 28.315624 474.28436 27.628124Q475.3156 26.940624 476.6906 26.940624Q478.51874 26.940624 479.72186 28.425L479.72186 27.175L481.33124 27.175L481.33124 36.14375Q481.33124 38.565624 480.83124 39.565624Q480.34686 40.58125 479.26874 41.159374Q478.20624 41.753124 476.64374 41.753124Q474.8 41.753124 473.64374 40.925Q472.5031 40.096874 472.55 38.409374ZM474.0031 32.175Q474.0031 34.221874 474.8156 35.159374Q475.6281 36.096874 476.84686 36.096874Q478.05 36.096874 478.8625 35.159374Q479.6906 34.221874 479.6906 32.2375Q479.6906 30.33125 478.84686 29.3625Q478.0031 28.39375 476.8156 28.39375Q475.64374 28.39375 474.8156 29.346874Q474.0031 30.3 474.0031 32.175ZM498.6125 35.8625L498.6125 37.55L489.15936 37.55Q489.14374 36.909374 489.3625 36.33125Q489.72186 35.3625 490.51874 34.425Q491.3156 33.4875 492.8156 32.253124Q495.15936 30.346874 495.97186 29.2375Q496.8 28.1125 496.8 27.1125Q496.8 26.065624 496.05 25.346874Q495.3 24.628124 494.09686 24.628124Q492.83124 24.628124 492.0656 25.39375Q491.3 26.159374 491.3 27.503124L489.4875 27.315624Q489.675 25.3 490.8781 24.2375Q492.09686 23.175 494.14374 23.175Q496.1906 23.175 497.39374 24.315624Q498.59686 25.45625 498.59686 27.14375Q498.59686 28.003124 498.2375 28.846874Q497.89374 29.675 497.08124 30.596874Q496.26874 31.503124 494.3781 33.1125Q492.78436 34.440624 492.33124 34.909374Q491.89374 35.378124 491.59686 35.8625L498.6125 35.8625ZM501.03436 37.55L501.03436 23.2375L503.89374 23.2375L507.26874 33.3625Q507.7375 34.784374 507.95624 35.4875Q508.20624 34.70625 508.72186 33.190624L512.14374 23.2375L514.6906 23.2375L514.6906 37.55L512.8781 37.55L512.8781 25.565624L508.70624 37.55L507.0031 37.55L502.8625 25.3625L502.8625 37.55L501.03436 37.55ZM518.01874 37.55L518.01874 23.2375L523.39374 23.2375Q525.03436 23.2375 526.01874 23.675Q527.0031 24.096874 527.5656 25.003124Q528.1281 25.909374 528.1281 26.89375Q528.1281 27.815624 527.6281 28.628124Q527.14374 29.440624 526.1281 29.925Q527.425 30.315624 528.1281 31.2375Q528.83124 32.14375 528.83124 33.39375Q528.83124 34.409374 528.39374 35.26875Q527.97186 36.128124 527.34686 36.596874Q526.72186 37.065624 525.78436 37.315624Q524.84686 37.55 523.47186 37.55L518.01874 37.55ZM519.90936 29.253124L523.0031 29.253124Q524.26874 29.253124 524.8156 29.08125Q525.53436 28.8625 525.89374 28.378124Q526.26874 27.878124 526.26874 27.1125Q526.26874 26.409374 525.925 25.8625Q525.58124 25.315624 524.9406 25.128124Q524.3156 24.925 522.76874 24.925L519.90936 24.925L519.90936 29.253124ZM519.90936 35.8625L523.47186 35.8625Q524.39374 35.8625 524.76874 35.784374Q525.425 35.675 525.8625 35.409374Q526.3 35.128124 526.58124 34.6125Q526.8625 34.08125 526.8625 33.39375Q526.8625 32.596874 526.45624 32.003124Q526.05 31.409374 525.3156 31.175Q524.58124 30.940624 523.22186 30.940624L519.90936 30.940624L519.90936 35.8625ZM537.28436 37.55L537.28436 28.55L535.7375 28.55L535.7375 27.175L537.28436 27.175L537.28436 26.08125Q537.28436 25.034374 537.47186 24.51875Q537.72186 23.83125 538.3625 23.409374Q539.0031 22.9875 540.15936 22.9875Q540.90936 22.9875 541.8 23.159374L541.53436 24.690624Q540.9875 24.596874 540.5031 24.596874Q539.70624 24.596874 539.3625 24.940624Q539.03436 25.284374 539.03436 26.221874L539.03436 27.175L541.0656 27.175L541.0656 28.55L539.03436 28.55L539.03436 37.55L537.28436 37.55ZM542.8781 25.253124L542.8781 23.2375L544.64374 23.2375L544.64374 25.253124L542.8781 25.253124ZM542.8781 37.55L542.8781 27.175L544.64374 27.175L544.64374 37.55L542.8781 37.55ZM546.83124 37.55L546.83124 23.2375L548.58124 23.2375L548.58124 37.55L546.83124 37.55ZM557.97186 34.20625L559.78436 34.440624Q559.3625 36.01875 558.1906 36.909374Q557.03436 37.784374 555.22186 37.784374Q552.95624 37.784374 551.6125 36.39375Q550.28436 34.9875 550.28436 32.45625Q550.28436 29.83125 551.6281 28.39375Q552.97186 26.940624 555.1281 26.940624Q557.20624 26.940624 558.51874 28.3625Q559.84686 29.76875 559.84686 32.346874Q559.84686 32.503124 559.83124 32.815624L552.09686 32.815624Q552.1906 34.51875 553.0656 35.425Q553.9406 36.33125 555.2375 36.33125Q556.20624 36.33125 556.8781 35.83125Q557.5656 35.315624 557.97186 34.20625ZM552.1906 31.3625L557.9875 31.3625Q557.8781 30.065624 557.33124 29.409374Q556.4875 28.39375 555.14374 28.39375Q553.9406 28.39375 553.1125 29.20625Q552.28436 30.003124 552.1906 31.3625Z" fill-rule="nonzero"/></svg>